  0
SECTION
  2
HEADER
  9
$ACADVER
  1
AC1015
  9
$ACADMAINTVER
 70
     6
  9
$DWGCODEPAGE
  3
ANSI_1252
  9
$INSBASE
 10
0.0
 20
0.0
 30
0.0
  9
$EXTMIN
 10
-253.806599893
 20
28.494841677
 30
0.0
  9
$EXTMAX
 10
-57.3852846081
 20
97.9293853297
 30
0.0
  9
$LIMMIN
 10
0.0
 20
0.0
  9
$LIMMAX
 10
12.0
 20
9.0
  9
$ORTHOMODE
 70
     0
  9
$REGENMODE
 70
     1
  9
$FILLMODE
 70
     1
  9
$QTEXTMODE
 70
     0
  9
$MIRRTEXT
 70
     1
  9
$LTSCALE
 40
1.0
  9
$ATTMODE
 70
     1
  9
$TEXTSIZE
 40
0.1377952756
  9
$TRACEWID
 40
0.05
  9
$TEXTSTYLE
  7
Standard
  9
$CLAYER
  8
0
  9
$CELTYPE
  6
ByLayer
  9
$CECOLOR
 62
   256
  9
$CELTSCALE
 40
1.0
  9
$DISPSILH
 70
     0
  9
$DIMSCALE
 40
1.0
  9
$DIMASZ
 40
0.13
  9
$DIMEXO
 40
0.0
  9
$DIMDLI
 40
0.38
  9
$DIMRND
 40
0.0
  9
$DIMDLE
 40
0.0
  9
$DIMEXE
 40
0.0393700787
  9
$DIMTP
 40
0.0
  9
$DIMTM
 40
0.0
  9
$DIMTXT
 40
0.1377952756
  9
$DIMCEN
 40
0.09
  9
$DIMTSZ
 40
0.0
  9
$DIMTOL
 70
     0
  9
$DIMLIM
 70
     0
  9
$DIMTIH
 70
     1
  9
$DIMTOH
 70
     1
  9
$DIMSE1
 70
     0
  9
$DIMSE2
 70
     0
  9
$DIMTAD
 70
     1
  9
$DIMZIN
 70
     1
  9
$DIMBLK
  1

  9
$DIMASO
 70
     1
  9
$DIMSHO
 70
     1
  9
$DIMPOST
  1

  9
$DIMAPOST
  1

  9
$DIMALT
 70
     0
  9
$DIMALTD
 70
     2
  9
$DIMALTF
 40
25.4
  9
$DIMLFAC
 40
1.0
  9
$DIMTOFL
 70
     0
  9
$DIMTVP
 40
0.0
  9
$DIMTIX
 70
     0
  9
$DIMSOXD
 70
     0
  9
$DIMSAH
 70
     0
  9
$DIMBLK1
  1

  9
$DIMBLK2
  1

  9
$DIMSTYLE
  2
Standard
  9
$DIMCLRD
 70
     0
  9
$DIMCLRE
 70
     0
  9
$DIMCLRT
 70
     0
  9
$DIMTFAC
 40
1.0
  9
$DIMGAP
 40
0.06
  9
$DIMJUST
 70
     0
  9
$DIMSD1
 70
     0
  9
$DIMSD2
 70
     0
  9
$DIMTOLJ
 70
     1
  9
$DIMTZIN
 70
     1
  9
$DIMALTZ
 70
     0
  9
$DIMALTTZ
 70
     0
  9
$DIMUPT
 70
     0
  9
$DIMDEC
 70
     2
  9
$DIMTDEC
 70
     2
  9
$DIMALTU
 70
     2
  9
$DIMALTTD
 70
     2
  9
$DIMTXSTY
  7
Standard
  9
$DIMAUNIT
 70
     0
  9
$DIMADEC
 70
     2
  9
$DIMALTRND
 40
0.0
  9
$DIMAZIN
 70
     0
  9
$DIMDSEP
 70
    46
  9
$DIMATFIT
 70
     3
  9
$DIMFRAC
 70
     0
  9
$DIMLDRBLK
  1

  9
$DIMLUNIT
 70
     2
  9
$DIMLWD
 70
    -2
  9
$DIMLWE
 70
    -2
  9
$DIMTMOVE
 70
     0
  9
$LUNITS
 70
     2
  9
$LUPREC
 70
     2
  9
$SKETCHINC
 40
0.1
  9
$FILLETRAD
 40
0.5
  9
$AUNITS
 70
     0
  9
$AUPREC
 70
     2
  9
$MENU
  1
.
  9
$ELEVATION
 40
0.0
  9
$PELEVATION
 40
0.0
  9
$THICKNESS
 40
0.0
  9
$LIMCHECK
 70
     0
  9
$CHAMFERA
 40
0.0
  9
$CHAMFERB
 40
0.0
  9
$CHAMFERC
 40
0.0
  9
$CHAMFERD
 40
0.0
  9
$SKPOLY
 70
     0
  9
$TDCREATE
 40
2460006.299619607
  9
$TDUCREATE
 40
2460006.63295294
  9
$TDUPDATE
 40
2460006.299648623
  9
$TDUUPDATE
 40
2460006.632981956
  9
$TDINDWG
 40
0.0000000116
  9
$TDUSRTIMER
 40
0.0000000116
  9
$USRTIMER
 70
     1
  9
$ANGBASE
 50
0.0
  9
$ANGDIR
 70
     0
  9
$PDMODE
 70
     0
  9
$PDSIZE
 40
-1.0
  9
$PLINEWID
 40
0.0
  9
$SPLFRAME
 70
     0
  9
$SPLINETYPE
 70
     6
  9
$SPLINESEGS
 70
     8
  9
$HANDSEED
  5
99
  9
$SURFTAB1
 70
     6
  9
$SURFTAB2
 70
     6
  9
$SURFTYPE
 70
     6
  9
$SURFU
 70
     6
  9
$SURFV
 70
     6
  9
$UCSBASE
  2

  9
$UCSNAME
  2

  9
$UCSORG
 10
0.0
 20
0.0
 30
0.0
  9
$UCSXDIR
 10
1.0
 20
0.0
 30
0.0
  9
$UCSYDIR
 10
0.0
 20
1.0
 30
0.0
  9
$UCSORTHOREF
  2

  9
$UCSORTHOVIEW
 70
     0
  9
$UCSORGTOP
 10
0.0
 20
0.0
 30
0.0
  9
$UCSORGBOTTOM
 10
0.0
 20
0.0
 30
0.0
  9
$UCSORGLEFT
 10
0.0
 20
0.0
 30
0.0
  9
$UCSORGRIGHT
 10
0.0
 20
0.0
 30
0.0
  9
$UCSORGFRONT
 10
0.0
 20
0.0
 30
0.0
  9
$UCSORGBACK
 10
0.0
 20
0.0
 30
0.0
  9
$PUCSBASE
  2

  9
$PUCSNAME
  2

  9
$PUCSORG
 10
0.0
 20
0.0
 30
0.0
  9
$PUCSXDIR
 10
1.0
 20
0.0
 30
0.0
  9
$PUCSYDIR
 10
0.0
 20
1.0
 30
0.0
  9
$PUCSORTHOREF
  2

  9
$PUCSORTHOVIEW
 70
     0
  9
$PUCSORGTOP
 10
0.0
 20
0.0
 30
0.0
  9
$PUCSORGBOTTOM
 10
0.0
 20
0.0
 30
0.0
  9
$PUCSORGLEFT
 10
0.0
 20
0.0
 30
0.0
  9
$PUCSORGRIGHT
 10
0.0
 20
0.0
 30
0.0
  9
$PUCSORGFRONT
 10
0.0
 20
0.0
 30
0.0
  9
$PUCSORGBACK
 10
0.0
 20
0.0
 30
0.0
  9
$USERI1
 70
     0
  9
$USERI2
 70
     0
  9
$USERI3
 70
     0
  9
$USERI4
 70
     0
  9
$USERI5
 70
     0
  9
$USERR1
 40
0.0
  9
$USERR2
 40
0.0
  9
$USERR3
 40
0.0
  9
$USERR4
 40
0.0
  9
$USERR5
 40
0.0
  9
$WORLDVIEW
 70
     1
  9
$SHADEDGE
 70
     3
  9
$SHADEDIF
 70
    70
  9
$TILEMODE
 70
     1
  9
$MAXACTVP
 70
    64
  9
$PINSBASE
 10
0.0
 20
0.0
 30
0.0
  9
$PLIMCHECK
 70
     0
  9
$PEXTMIN
 10
1.0000000000E+20
 20
1.0000000000E+20
 30
1.0000000000E+20
  9
$PEXTMAX
 10
-1.0000000000E+20
 20
-1.0000000000E+20
 30
-1.0000000000E+20
  9
$PLIMMIN
 10
0.0
 20
0.0
  9
$PLIMMAX
 10
12.0
 20
9.0
  9
$UNITMODE
 70
     0
  9
$VISRETAIN
 70
     1
  9
$PLINEGEN
 70
     0
  9
$PSLTSCALE
 70
     1
  9
$TREEDEPTH
 70
  3020
  9
$CMLSTYLE
  2
Standard
  9
$CMLJUST
 70
     0
  9
$CMLSCALE
 40
1.0
  9
$PROXYGRAPHICS
 70
     1
  9
$MEASUREMENT
 70
     0
  9
$CELWEIGHT
370
    -1
  9
$ENDCAPS
280
     0
  9
$JOINSTYLE
280
     0
  9
$LWDISPLAY
290
     1
  9
$INSUNITS
 70
     1
  9
$HYPERLINKBASE
  1

  9
$STYLESHEET
  1

  9
$XEDIT
290
     1
  9
$CEPSNTYPE
380
     0
  9
$PSTYLEMODE
290
     1
  9
$FINGERPRINTGUID
  2
{9cc91a0e-fc0a-4871-8d9d-517d98602c49}
  9
$VERSIONGUID
  2
{FAEB1C32-E019-11D5-929B-00C0DF256EC4}
  9
$EXTNAMES
290
     1
  9
$PSVPSCALE
 40
0.0
  9
$OLESTARTUP
290
     0
  0
ENDSEC
  0
SECTION
  2
CLASSES
  0
CLASS
  1
ACDBDICTIONARYWDFLT
  2
AcDbDictionaryWithDefault
  3
ObjectDBX Classes
 90
        0
280
     0
281
     0
  0
CLASS
  1
VISUALSTYLE
  2
AcDbVisualStyle
  3
ObjectDBX Classes
 90
     4095
280
     0
281
     0
  0
CLASS
  1
MATERIAL
  2
AcDbMaterial
  3
ObjectDBX Classes
 90
     1153
280
     0
281
     0
  0
CLASS
  1
SCALE
  2
AcDbScale
  3
ObjectDBX Classes
 90
     1153
280
     0
281
     0
  0
CLASS
  1
TABLESTYLE
  2
AcDbTableStyle
  3
ObjectDBX Classes
 90
     4095
280
     0
281
     0
  0
CLASS
  1
MLEADERSTYLE
  2
AcDbMLeaderStyle
  3
ACDB_MLEADERSTYLE_CLASS
 90
     4095
280
     0
281
     0
  0
CLASS
  1
SUN
  2
AcDbSun
  3
SCENEOE
 90
     1153
280
     0
281
     0
  0
CLASS
  1
ACDBPLACEHOLDER
  2
AcDbPlaceHolder
  3
ObjectDBX Classes
 90
        0
280
     0
281
     0
  0
CLASS
  1
LAYOUT
  2
AcDbLayout
  3
ObjectDBX Classes
 90
        0
280
     0
281
     0
  0
ENDSEC
  0
SECTION
  2
TABLES
  0
TABLE
  2
VPORT
  5
8
330
0
100
AcDbSymbolTable
 70
     1
  0
VPORT
  5
29
330
8
100
AcDbSymbolTableRecord
100
AcDbViewportTableRecord
  2
*Active
 70
     0
 10
0.0
 20
0.0
 11
1.0
 21
1.0
 12
-155.5959422506
 22
63.2121135034
 13
0.0
 23
0.0
 14
0.5
 24
0.5
 15
0.5
 25
0.5
 16
0.0
 26
0.0
 36
1.0
 17
0.0
 27
0.0
 37
0.0
 40
70.8232345258
 41
2.8288702561
 42
50.0
 43
0.0
 44
0.0
 50
0.0
 51
0.0
 71
     0
 72
   100
 73
     1
 74
     3
 75
     0
 76
     0
 77
     0
 78
     0
281
     0
 65
     1
110
0.0
120
0.0
130
0.0
111
1.0
121
0.0
131
0.0
112
0.0
122
1.0
132
0.0
 79
     0
146
0.0
  0
ENDTAB
  0
TABLE
  2
LTYPE
  5
5
330
0
100
AcDbSymbolTable
 70
     6
  0
LTYPE
  5
14
330
5
100
AcDbSymbolTableRecord
100
AcDbLinetypeTableRecord
  2
ByBlock
 70
     0
  3

 72
    65
 73
     0
 40
0.0
  0
LTYPE
  5
15
330
5
100
AcDbSymbolTableRecord
100
AcDbLinetypeTableRecord
  2
ByLayer
 70
     0
  3

 72
    65
 73
     0
 40
0.0
  0
LTYPE
  5
16
330
5
100
AcDbSymbolTableRecord
100
AcDbLinetypeTableRecord
  2
Continuous
 70
     0
  3
Solid line
 72
    65
 73
     0
 40
0.0
  0
LTYPE
  5
6E
330
5
100
AcDbSymbolTableRecord
100
AcDbLinetypeTableRecord
  2
HIDDEN
 70
     0
  3
Hidden __ __ __ __ __ __ __ __ __ __ __ __ __ __
 72
    65
 73
     2
 40
0.075
 49
0.05
 74
     0
 49
-0.025
 74
     0
  0
LTYPE
  5
6F
330
5
100
AcDbSymbolTableRecord
100
AcDbLinetypeTableRecord
  2
PHANTOM
 70
     0
  3
Phantom ______  __  __  ______  __  __  ______
 72
    65
 73
     6
 40
0.5
 49
0.25
 74
     0
 49
-0.05
 74
     0
 49
0.05
 74
     0
 49
-0.05
 74
     0
 49
0.05
 74
     0
 49
-0.05
 74
     0
  0
LTYPE
  5
70
330
5
100
AcDbSymbolTableRecord
100
AcDbLinetypeTableRecord
  2
CENTER
 70
     0
  3
Center ____ _ ____ _ ____ _ ____ _ ____ _ ____
 72
    65
 73
     4
 40
0.4
 49
0.25
 74
     0
 49
-0.05
 74
     0
 49
0.05
 74
     0
 49
-0.05
 74
     0
  0
LTYPE
  5
71
330
5
100
AcDbSymbolTableRecord
100
AcDbLinetypeTableRecord
  2
CENTERX2
 70
     0
  3
Center (2x) ________  __  ________  __  _____
 72
    65
 73
     4
 40
0.8
 49
0.5
 74
     0
 49
-0.1
 74
     0
 49
0.1
 74
     0
 49
-0.1
 74
     0
  0
LTYPE
  5
72
330
5
100
AcDbSymbolTableRecord
100
AcDbLinetypeTableRecord
  2
DOT2
 70
     0
  3
Dot (.5x) ........................................
 72
    65
 73
     2
 40
0.025
 49
0.0
 74
     0
 49
-0.025
 74
     0
  0
ENDTAB
  0
TABLE
  2
LAYER
  5
2
330
0
100
AcDbSymbolTable
 70
     1
  0
LAYER
  5
10
330
2
100
AcDbSymbolTableRecord
100
AcDbLayerTableRecord
  2
0
 70
     0
 62
     7
  6
Continuous
370
    -3
390
F
  0
ENDTAB
  0
TABLE
  2
STYLE
  5
3
330
0
100
AcDbSymbolTable
 70
     2
  0
STYLE
  5
11
330
3
100
AcDbSymbolTableRecord
100
AcDbTextStyleTableRecord
  2
Standard
 70
     0
 40
0.0
 41
1.0
 50
0.0
 71
     0
 42
0.1377952756
  3
txt
  4

  0
STYLE
  5
95
330
3
100
AcDbSymbolTableRecord
100
AcDbTextStyleTableRecord
  2
SLDTEXTSTYLE0
 70
     0
 40
0.0
 41
0.7
 50
0.0
 71
     0
 42
0.1377952756
  3
TXT
  4

  0
ENDTAB
  0
TABLE
  2
VIEW
  5
6
330
0
100
AcDbSymbolTable
 70
     0
  0
ENDTAB
  0
TABLE
  2
UCS
  5
7
330
0
100
AcDbSymbolTable
 70
     0
  0
ENDTAB
  0
TABLE
  2
APPID
  5
9
330
0
100
AcDbSymbolTable
 70
     1
  0
APPID
  5
12
330
9
100
AcDbSymbolTableRecord
100
AcDbRegAppTableRecord
  2
ACAD
 70
     0
  0
ENDTAB
  0
TABLE
  2
DIMSTYLE
  5
A
330
0
100
AcDbSymbolTable
 70
     1
100
AcDbDimStyleTable
  0
DIMSTYLE
105
27
330
A
100
AcDbSymbolTableRecord
100
AcDbDimStyleTableRecord
  2
Standard
 70
     0
178
     0
340
11
  0
ENDTAB
  0
TABLE
  2
BLOCK_RECORD
  5
1
330
0
100
AcDbSymbolTable
 70
     1
  0
BLOCK_RECORD
  5
1F
330
1
100
AcDbSymbolTableRecord
100
AcDbBlockTableRecord
  2
*Model_Space
340
22
  0
BLOCK_RECORD
  5
1B
330
1
100
AcDbSymbolTableRecord
100
AcDbBlockTableRecord
  2
*Paper_Space
340
1E
  0
BLOCK_RECORD
  5
23
330
1
100
AcDbSymbolTableRecord
100
AcDbBlockTableRecord
  2
*Paper_Space0
340
26
  0
ENDTAB
  0
ENDSEC
  0
SECTION
  2
BLOCKS
  0
BLOCK
  5
20
330
1F
100
AcDbEntity
  8
0
100
AcDbBlockBegin
  2
*Model_Space
 70
     0
 10
0.0
 20
0.0
 30
0.0
  3
*Model_Space
  1

  0
ENDBLK
  5
21
330
1F
100
AcDbEntity
  8
0
100
AcDbBlockEnd
  0
BLOCK
  5
1C
330
1B
100
AcDbEntity
 67
     1
  8
0
100
AcDbBlockBegin
  2
*Paper_Space
 70
     0
 10
0.0
 20
0.0
 30
0.0
  3
*Paper_Space
  1

  0
ENDBLK
  5
1D
330
1B
100
AcDbEntity
 67
     1
  8
0
100
AcDbBlockEnd
  0
BLOCK
  5
24
330
23
100
AcDbEntity
  8
0
100
AcDbBlockBegin
  2
*Paper_Space0
 70
     0
 10
0.0
 20
0.0
 30
0.0
  3
*Paper_Space0
  1

  0
ENDBLK
  5
25
330
23
100
AcDbEntity
  8
0
100
AcDbBlockEnd
  0
ENDSEC
  0
SECTION
  2
ENTITIES
  0
SPLINE
  5
73
330
1F
100
AcDbEntity
  8
0
  6
Continuous
 62
     7
370
    25
100
AcDbSpline
210
0.0
220
0.0
230
1.0
 70
     8
 71
     3
 72
    35
 73
    31
 74
     0
 42
0.00000001
 43
0.00000001
 40
0.0
 40
0.0
 40
0.0
 40
0.0
 40
0.0060726899673507
 40
0.0122601798243737
 40
0.0185630557034402
 40
0.0249818721276741
 40
0.0315171541073629
 40
0.04709141745259
 40
0.0628574695565205
 40
0.0938743094519545
 40
0.1252578859517818
 40
0.1875741640997345
 40
0.2501352888570282
 40
0.2817079548405467
 40
0.3131036267577453
 40
0.3436240735602381
 40
0.3756415429483728
 40
0.4379209885066597
 40
0.468727371908625
 40
0.5001474873265459
 40
0.5619952825151514
 40
0.6247181559479086
 40
0.6871658342311785
 40
0.7497370554524156
 40
0.8123046948918876
 40
0.8748639711375036
 40
0.9055044172188857
 40
0.9374272771527862
 40
0.9678441015934148
 40
1.0
 40
1.0
 40
1.0
 40
1.0
 10
-57.56455680206588
 20
61.43359090282053
 30
0.0
 10
-57.56998304055384
 20
61.41409175209142
 30
0.0
 10
-57.58093809671343
 20
61.37472483304121
 30
0.0
 10
-57.59823157195193
 20
61.31534888880279
 30
0.0
 10
-57.61634407180847
 20
61.25503486695924
 30
0.0
 10
-57.63532993067589
 20
61.19379978056197
 30
0.0
 10
-57.66420229974158
 20
61.10335178761974
 30
0.0
 10
-57.70416598361818
 20
60.98386912549124
 30
0.0
 10
-57.7736244898207
 20
60.78860815737719
 30
0.0
 10
-57.86722072553313
 20
60.54655139824932
 30
0.0
 10
-58.0297289132474
 20
60.16649918505676
 30
0.0
 10
-58.25698111492152
 20
59.70226473569821
 30
0.0
 10
-58.51477580835694
 20
59.25576571134612
 30
0.0
 10
-58.73995148490606
 20
58.91064963038909
 30
0.0
 10
-58.91691181560548
 20
58.66073177415029
 30
0.0
 10
-59.10362378277949
 20
58.41707406426764
 30
0.0
 10
-59.36175597344426
 20
58.10230039454561
 30
0.0
 10
-59.6332338254965
 20
57.79892953031706
 30
0.0
 10
-59.91088041599274
 20
57.5048721215063
 30
0.0
 10
-60.19205056324753
 20
57.21657049744847
 30
0.0
 10
-60.55359107819983
 20
56.86286758846629
 30
0.0
 10
-60.99911030517071
 20
56.45276663830641
 30
0.0
 10
-61.45759648176976
 20
56.05481177197518
 30
0.0
 10
-61.92491071922378
 20
55.66894205408634
 30
0.0
 10
-62.39974631751743
 20
55.29235528838823
 30
0.0
 10
-62.79855534598227
 20
54.98616863334725
 30
0.0
 10
-63.12114157232988
 20
54.74321754100362
 30
0.0
 10
-63.36189180149142
 20
54.56405546350174
 30
0.0
 10
-63.6074330358885
 20
54.38312856689205
 30
0.0
 10
-63.77067357500919
 20
54.26417035728701
 30
0.0
 10
-63.85456230404242
 20
54.20303815896429
 30
0.0
  0
SPLINE
  5
74
330
1F
100
AcDbEntity
  8
0
  6
Continuous
 62
     7
370
    25
100
AcDbSpline
210
0.0
220
0.0
230
1.0
 70
     8
 71
     3
 72
    19
 73
    15
 74
     0
 42
0.00000001
 43
0.00000001
 40
0.0
 40
0.0
 40
0.0
 40
0.0
 40
0.0513332458639194
 40
0.1020240552851468
 40
0.1520762630346968
 40
0.2014938525489688
 40
0.2502809627131248
 40
0.375377459473867
 40
0.4999784723469023
 40
0.6257635321605615
 40
0.7496605468589654
 40
0.8322554123690052
 40
0.9156931613484931
 40
1.0
 40
1.0
 40
1.0
 40
1.0
 10
-57.38528460810476
 20
62.46150880514523
 30
0.0
 10
-57.38682964794669
 20
62.44366339701151
 30
0.0
 10
-57.3899003914307
 20
62.4081959163295
 30
0.0
 10
-57.395011364646
 20
62.35538379606768
 30
0.0
 10
-57.40045788611064
 20
62.30328355155383
 30
0.0
 10
-57.40627600261185
 20
62.25189852348566
 30
0.0
 10
-57.41570948320883
 20
62.17459445465578
 30
0.0
 10
-57.42993128358893
 20
62.07149288416363
 30
0.0
 10
-57.45072953945921
 20
61.9422947336606
 30
0.0
 10
-57.47438919638871
 20
61.81408848319028
 30
0.0
 10
-57.49804293044323
 20
61.70086522185304
 30
0.0
 10
-57.52076290724769
 20
61.60260509979194
 30
0.0
 10
-57.54171377592054
 20
61.51812489654296
 30
0.0
 10
-57.55691620527197
 20
61.46186606029313
 30
0.0
 10
-57.56455680206584
 20
61.43359090282055
 30
0.0
  0
LINE
  5
75
330
1F
100
AcDbEntity
  8
0
  6
Continuous
 62
     7
370
    25
100
AcDbLine
 10
-57.3852846081
 20
63.9623412687
 30
0.0
 11
-57.3852846081
 21
62.4615088051
 31
0.0
  0
SPLINE
  5
76
330
1F
100
AcDbEntity
  8
0
  6
Continuous
 62
     7
370
    25
100
AcDbSpline
210
0.0
220
0.0
230
1.0
 70
     8
 71
     3
 72
    19
 73
    15
 74
     0
 42
0.00000001
 43
0.00000001
 40
0.0
 40
0.0
 40
0.0
 40
0.0
 40
0.0507616438174826
 40
0.1011716829883562
 40
0.1512353584923308
 40
0.2009580208337684
 40
0.2503451313512178
 40
0.3744935735486433
 40
0.5000242567416641
 40
0.6239224250105299
 40
0.7497205052686426
 40
0.8317786705001635
 40
0.915199375478236
 40
1.0
 40
1.0
 40
1.0
 40
1.0
 10
-57.56428404663194
 20
64.98954145754593
 30
0.0
 10
-57.55965704724959
 20
64.97253811364727
 30
0.0
 10
-57.55043509777169
 20
64.93864920089173
 30
0.0
 10
-57.53725640962752
 20
64.8878052135731
 30
0.0
 10
-57.52462003850902
 20
64.8371795540572
 30
0.0
 10
-57.51256819202736
 20
64.7867587925474
 30
0.0
 10
-57.49527386314394
 20
64.71109889385409
 30
0.0
 10
-57.47388526364448
 20
64.60928943129069
 30
0.0
 10
-57.45024977623365
 20
64.48141985785877
 30
0.0
 10
-57.42957677867332
 20
64.352379968145
 30
0.0
 10
-57.41394803936839
 20
64.23783907773618
 30
0.0
 10
-57.40208748926234
 20
64.13701077514754
 30
0.0
 10
-57.3930038065905
 20
64.05023066711497
 30
0.0
 10
-57.38787170713706
 20
63.99179751056135
 30
0.0
 10
-57.38528460810478
 20
63.9623412686968
 30
0.0
  0
SPLINE
  5
77
330
1F
100
AcDbEntity
  8
0
  6
Continuous
 62
     7
370
    25
100
AcDbSpline
210
0.0
220
0.0
230
1.0
 70
     8
 71
     3
 72
    34
 73
    30
 74
     0
 42
0.00000001
 43
0.00000001
 40
0.0
 40
0.0
 40
0.0
 40
0.0
 40
0.0216379646292918
 40
0.0425018543836513
 40
0.0625918178392305
 40
0.0945196533574817
 40
0.1251762567940299
 40
0.1877593022519206
 40
0.2503540583164024
 40
0.3129338600313654
 40
0.3754714957976104
 40
0.4384703701492439
 40
0.5005894501442377
 40
0.532159667118556
 40
0.5630828167660041
 40
0.625270756295902
 40
0.6569687303190945
 40
0.6871886514683405
 40
0.7180345498555427
 40
0.7490439128587895
 40
0.8111574298695895
 40
0.8738581725096027
 40
0.9055821605807666
 40
0.936930040228005
 40
0.9527834175489388
 40
0.9684396596956396
 40
0.9792828433802404
 40
0.9898020957940958
 40
1.0
 40
1.0
 40
1.0
 40
1.0
 10
-63.85455760708246
 20
72.22112755727049
 30
0.0
 10
-63.7980870802564
 20
72.18000637765091
 30
0.0
 10
-63.68716619886813
 20
72.09923508431449
 30
0.0
 10
-63.52423886827601
 20
71.97973325576365
 30
0.0
 10
-63.33492264703403
 20
71.84006372694311
 30
0.0
 10
-63.12084644945936
 20
71.68072650340997
 30
0.0
 10
-62.79810788895868
 20
71.4376655274645
 30
0.0
 10
-62.39909371888155
 20
71.1313026863131
 30
0.0
 10
-61.92406613291991
 20
70.75454508254087
 30
0.0
 10
-61.4564068172996
 20
70.36835317536682
 30
0.0
 10
-60.99698756693832
 20
69.96952381215718
 30
0.0
 10
-60.54997843686905
 20
69.55789068504028
 30
0.0
 10
-60.18688736314129
 20
69.20245096101682
 30
0.0
 10
-59.90458394624335
 20
68.9127430082438
 30
0.0
 10
-59.6266691028569
 20
68.61808086541154
 30
0.0
 10
-59.35601696710644
 20
68.31517276725336
 30
0.0
 10
-59.09957422436806
 20
68.00193515622088
 30
0.0
 10
-58.91530735749862
 20
67.76116674253359
 30
0.0
 10
-58.74103603339349
 20
67.51497992340508
 30
0.0
 10
-58.51845203619765
 20
67.17425867205385
 30
0.0
 10
-58.2612066472981
 20
66.72980760173917
 30
0.0
 10
-58.0330402551076
 20
66.26496420486092
 30
0.0
 10
-57.86888219080145
 20
65.88177738262225
 30
0.0
 10
-57.77428907033219
 20
65.6373779165672
 30
0.0
 10
-57.70425422208157
 20
65.4405340741873
 30
0.0
 10
-57.65955567644134
 20
65.30691556242681
 30
0.0
 10
-57.6224314123638
 20
65.18940991873203
 30
0.0
 10
-57.59208405293271
 20
65.08876514824075
 30
0.0
 10
-57.5734543925283
 20
65.02227222583934
 30
0.0
 10
-57.56428404663194
 20
64.98954145754594
 30
0.0
  0
SPLINE
  5
78
330
1F
100
AcDbEntity
  8
0
  6
Continuous
 62
     7
370
    25
100
AcDbSpline
210
0.0
220
0.0
230
1.0
 70
     8
 71
     3
 72
    52
 73
    48
 74
     0
 42
0.00000001
 43
0.00000001
 40
0.0
 40
0.0
 40
0.0
 40
0.0
 40
0.0039567246540035
 40
0.0079079716354342
 40
0.0118537566078801
 40
0.0157940953000653
 40
0.0197290035060233
 40
0.0236584970852712
 40
0.0432253052688425
 40
0.0510146886201766
 40
0.0549014440413361
 40
0.0587829305455672
 40
0.0626591646562704
 40
0.0781167473495953
 40
0.0936966724605755
 40
0.1093999240167342
 40
0.1252274630431868
 40
0.1561862870565211
 40
0.1877965052363096
 40
0.2033902496967477
 40
0.219105990451371
 40
0.2504426566850891
 40
0.2819112021876458
 40
0.3130947257712378
 40
0.3756684779186417
 40
0.4382396697899697
 40
0.500881613589768
 40
0.5634800711518273
 40
0.6258882709773703
 40
0.6881696932695456
 40
0.7192818070703084
 40
0.7503833906163616
 40
0.7816297334573337
 40
0.8125837811091733
 40
0.8436989624633942
 40
0.8748379923501529
 40
0.8906129367459139
 40
0.9060179774725282
 40
0.9216085655677977
 40
0.9372592107147091
 40
0.9529325736685351
 40
0.9685800901498459
 40
0.9748964168282445
 40
0.9811964359558757
 40
0.9874802822078775
 40
0.9937480913018968
 40
0.9999999999999999
 40
0.9999999999999999
 40
0.9999999999999999
 40
0.9999999999999999
 10
-127.2223240904103
 20
96.00348347288879
 30
0.0
 10
-127.1316271732226
 20
95.99176401861445
 30
0.0
 10
-126.9503588992687
 20
95.9683413344278
 30
0.0
 10
-126.6787344361476
 20
95.9325471862774
 30
0.0
 10
-126.4075535093174
 20
95.89630034256882
 30
0.0
 10
-126.1368229513538
 20
95.85955185867464
 30
0.0
 10
-125.8665415819388
 20
95.82231482206485
 30
0.0
 10
-125.2386585529978
 20
95.73452122220273
 30
0.0
 10
-124.5231834828622
 20
95.63007360946926
 30
0.0
 10
-123.8095136272601
 20
95.52065077206609
 30
0.0
 10
-123.4543209820061
 20
95.46506693539892
 30
0.0
 10
-123.1885619386538
 20
95.42291646507064
 30
0.0
 10
-122.6589155592222
 20
95.33778467224607
 30
0.0
 10
-121.863090559535
 20
95.2056738709919
 30
0.0
 10
-120.7992951112256
 20
95.02028609427609
 30
0.0
 10
-119.7287804756463
 20
94.82497807558597
 30
0.0
 10
-118.3111662549588
 20
94.55489200440574
 30
0.0
 10
-116.5371924284528
 20
94.19606604234951
 30
0.0
 10
-114.7747922471234
 20
93.81336458881347
 30
0.0
 10
-113.360044608742
 20
93.49112931488413
 30
0.0
 10
-111.954098766516
 20
93.16114635654982
 30
0.0
 10
-110.1968714274031
 20
92.73101722509594
 30
0.0
 10
-108.1022399535849
 20
92.18911465263794
 30
0.0
 10
-105.3242548207161
 20
91.42989134571637
 30
0.0
 10
-101.8818393212571
 20
90.41100624330424
 30
0.0
 10
-97.7946144797514
 20
89.06857422554761
 30
0.0
 10
-93.75829118183337
 20
87.61210518463272
 30
0.0
 10
-89.77897127132847
 20
86.05054851102585
 30
0.0
 10
-85.86164426716189
 20
84.3942443697571
 30
0.0
 10
-82.64992762197191
 20
82.93797533868087
 30
0.0
 10
-80.11336612980108
 20
81.7281572860432
 30
0.0
 10
-78.22451168960995
 20
80.79653751834704
 30
0.0
 10
-76.35575759718309
 20
79.8408587640875
 30
0.0
 10
-74.50446573991007
 20
78.85871572324933
 30
0.0
 10
-72.6735679135945
 20
77.8513046869214
 30
0.0
 10
-71.15823643048086
 20
76.98257777979556
 30
0.0
 10
-69.96072624443882
 20
76.27004208115125
 30
0.0
 10
-69.06882591633062
 20
75.72525941169212
 30
0.0
 10
-68.18656784707109
 20
75.17135579500356
 30
0.0
 10
-67.30662916781043
 20
74.60377588150055
 30
0.0
 10
-66.43309933012797
 20
74.025136275879
 30
0.0
 10
-65.73926719777147
 20
73.55316932538994
 30
0.0
 10
-65.22150679321696
 20
73.19438144760089
 30
0.0
 10
-64.87653929530421
 20
72.95278598887876
 30
0.0
 10
-64.53376008813598
 20
72.71009794953204
 30
0.0
 10
-64.1930468879031
 20
72.46647138035023
 30
0.0
 10
-63.9672917955719
 20
72.30283955928348
 30
0.0
 10
-63.85455760708446
 20
72.22112755727196
 30
0.0
  0
SPLINE
  5
79
330
1F
100
AcDbEntity
  8
0
  6
Continuous
 62
     7
370
    25
100
AcDbSpline
210
0.0
220
0.0
230
1.0
 70
    24
 71
     3
 72
     8
 73
     4
 74
     0
 42
0.00000001
 43
0.00000001
 40
0.0
 40
0.0
 40
0.0
 40
0.0
 40
1.0
 40
1.0
 40
1.0
 40
1.0
 10
-127.3499069534595
 20
96.0198549986975
 30
0.0
 10
-127.3073793324432
 20
96.01439782342746
 30
0.0
 10
-127.2648517114268
 20
96.00894064815745
 30
0.0
 10
-127.2223240904105
 20
96.00348347288742
 30
0.0
  0
SPLINE
  5
7A
330
1F
100
AcDbEntity
  8
0
  6
Continuous
 62
     7
370
    25
100
AcDbSpline
210
0.0
220
0.0
230
1.0
 70
     8
 71
     3
 72
    22
 73
    18
 74
     0
 42
0.00000001
 43
0.00000001
 40
0.0
 40
0.0
 40
0.0
 40
0.0
 40
0.1250000000000015
 40
0.1250000000000015
 40
0.2500000000000029
 40
0.2500000000000029
 40
0.3750000000000024
 40
0.3750000000000024
 40
0.500000000000002
 40
0.500000000000002
 40
0.6250000000000016
 40
0.6250000000000016
 40
0.750000000000001
 40
0.750000000000001
 40
0.8750000000000006
 40
0.8750000000000006
 40
1.0
 40
1.0
 40
1.0
 40
1.0
 10
-154.1858612128454
 20
97.92917735407464
 30
0.0
 10
-153.0640994016186
 20
97.91297802192716
 30
0.0
 10
-151.9424410629034
 20
97.88832920409233
 30
0.0
 10
-149.6998322324057
 20
97.82273246669124
 30
0.0
 10
-148.5788574767662
 20
97.78179107889092
 30
0.0
 10
-146.3375541169652
 20
97.68394752533133
 30
0.0
 10
-145.2172037468263
 20
97.62704918313794
 30
0.0
 10
-142.9772252460911
 20
97.49759449875738
 30
0.0
 10
-141.8579531290654
 20
97.42506451606252
 30
0.0
 10
-139.6208119040348
 20
97.26473936305175
 30
0.0
 10
-138.5029462626643
 20
97.17690647464299
 30
0.0
 10
-136.2685907554992
 20
96.98627181880943
 30
0.0
 10
-135.1520909943093
 20
96.88357771645462
 30
0.0
 10
-132.9204348536766
 20
96.66357308796762
 30
0.0
 10
-131.8052742989117
 20
96.54630799067515
 30
0.0
 10
-129.5764271012809
 20
96.29574116243835
 30
0.0
 10
-128.4627525537466
 20
96.16230783041217
 30
0.0
 10
-127.3499069796273
 20
96.01985500205643
 30
0.0
  0
LINE
  5
7B
330
1F
100
AcDbEntity
  8
0
  6
Continuous
 62
     7
370
    25
100
AcDbLine
 10
-154.2003006804
 20
97.9293853297
 30
0.0
 11
-154.1858612128
 21
97.9291773558
 31
0.0
  0
SPLINE
  5
7C
330
1F
100
AcDbEntity
  8
0
  6
Continuous
 62
     7
370
    25
100
AcDbSpline
210
0.0
220
0.0
230
1.0
 70
     8
 71
     3
 72
    58
 73
    54
 74
     0
 42
0.00000001
 43
0.00000001
 40
0.0
 40
0.0
 40
0.0
 40
0.0
 40
0.0067021086125881
 40
0.0155566821107302
 40
0.0249641490159551
 40
0.0311121119414835
 40
0.0477355490975893
 40
0.0622215707017707
 40
0.0933316504235719
 40
0.1088865684998841
 40
0.1244408630137034
 40
0.1555460716402294
 40
0.1866446581708601
 40
0.2177341393424193
 40
0.2488118869818019
 40
0.2798755753564044
 40
0.3109233864485568
 40
0.3428404322622735
 40
0.3729671842515168
 40
0.4039627781059161
 40
0.4349424451969852
 40
0.4659097743694333
 40
0.4968705291313464
 40
0.5278337732197698
 40
0.5588152431498737
 40
0.5745207102770116
 40
0.5898404287030081
 40
0.6053799914695133
 40
0.6209438408237994
 40
0.6521530821195667
 40
0.6834786641838626
 40
0.7149180510254266
 40
0.7306767655534133
 40
0.746459131666968
 40
0.7783048990463275
 40
0.8098156187933719
 40
0.8257110599912082
 40
0.8415206376306751
 40
0.8573663796114305
 40
0.8732112883771068
 40
0.888937212007461
 40
0.9047406765225956
 40
0.9206226699912097
 40
0.9365841658984086
 40
0.943563296590284
 40
0.9505590158336185
 40
0.9575714014790344
 40
0.964600530823405
 40
0.9716464806125418
 40
0.9787093270439371
 40
0.9857891457695283
 40
0.9928860118984791
 40
1.0
 40
1.0
 40
1.0
 40
1.0
 10
-237.2667458995216
 20
76.82943763449381
 30
0.0
 10
-237.0890671700132
 20
76.90385483352583
 30
0.0
 10
-236.6766459944432
 20
77.07658923337391
 30
0.0
 10
-236.0146810960312
 20
77.35365994915442
 30
0.0
 10
-235.3673295619894
 20
77.6245819855864
 30
0.0
 10
-234.5138715040243
 20
77.98178139525271
 30
0.0
 10
-233.5256988619664
 20
78.3957013942078
 30
0.0
 10
-231.875532292863
 20
79.08800100359281
 30
0.0
 10
-230.2542743488429
 20
79.77103886119285
 30
0.0
 10
-228.6047221313691
 20
80.46732100045362
 30
0.0
 10
-226.9550885956549
 20
81.16386341669721
 30
0.0
 10
-224.892528585162
 20
82.03406940552956
 30
0.0
 10
-222.4156216991988
 20
83.0750185826848
 30
0.0
 10
-219.9361698033094
 20
84.11003731234541
 30
0.0
 10
-217.4531686185125
 20
85.1360006445764
 30
0.0
 10
-214.9656313060964
 20
86.14978996324996
 30
0.0
 10
-212.4488507988434
 20
87.15778441977781
 30
0.0
 10
-209.9491145825449
 20
88.13742880913838
 30
0.0
 10
-207.4417633958449
 20
89.09510599771605
 30
0.0
 10
-204.949533469346
 20
90.0180181820491
 30
0.0
 10
-202.4228547628871
 20
90.91902197239033
 30
0.0
 10
-199.8842751141065
 20
91.78469569900497
 30
0.0
 10
-197.3325612410056
 20
92.61128863936995
 30
0.0
 10
-194.7645284679588
 20
93.38917691167639
 30
0.0
 10
-192.6032034829404
 20
93.98970960970327
 30
0.0
 10
-190.8677387068759
 20
94.43376811986566
 30
0.0
 10
-189.5595914170733
 20
94.74813233197455
 30
0.0
 10
-188.2504865524725
 20
95.04082807954345
 30
0.0
 10
-186.4869083043372
 20
95.40460787609814
 30
0.0
 10
-184.2660748251598
 20
95.80948623502022
 30
0.0
 10
-181.5816676242662
 20
96.2264757147061
 30
0.0
 10
-179.3313055373602
 20
96.5263687463433
 30
0.0
 10
-177.5234287662713
 20
96.74428877883075
 30
0.0
 10
-175.702211228683
 20
96.95038173122464
 30
0.0
 10
-173.4254321837461
 20
97.18279569568745
 30
0.0
 10
-171.1418609224486
 20
97.38092592040537
 30
0.0
 10
-169.3185625981284
 20
97.5176802948421
 30
0.0
 10
-167.9462424949673
 20
97.60967191133997
 30
0.0
 10
-166.5746272165644
 20
97.69050257914613
 30
0.0
 10
-165.2047671317688
 20
97.76009812261184
 30
0.0
 10
-163.8355668212545
 20
97.81858529647818
 30
0.0
 10
-162.4648328374298
 20
97.86622466188487
 30
0.0
 10
-161.086920117873
 20
97.90326046492655
 30
0.0
 10
-159.9639741818481
 20
97.92468954440552
 30
0.0
 10
-159.0979839908536
 20
97.93642603013535
 30
0.0
 10
-158.4908426493648
 20
97.94262390544786
 30
0.0
 10
-157.8822341769529
 20
97.94681090719871
 30
0.0
 10
-157.2721589081747
 20
97.94898795222807
 30
0.0
 10
-156.660617411224
 20
97.9491516188223
 30
0.0
 10
-156.0476099840384
 20
97.94731472198836
 30
0.0
 10
-155.4331378177152
 20
97.94342926562784
 30
0.0
 10
-154.8171988338414
 20
97.93767502228984
 30
0.0
 10
-154.4060985032076
 20
97.93215077921342
 30
0.0
 10
-154.2003006804146
 20
97.92938532972823
 30
0.0
  0
SPLINE
  5
7D
330
1F
100
AcDbEntity
  8
0
  6
Continuous
 62
     7
370
    25
100
AcDbSpline
210
0.0
220
0.0
230
1.0
 70
     8
 71
     3
 72
    33
 73
    29
 74
     0
 42
0.00000001
 43
0.00000001
 40
0.0
 40
0.0
 40
0.0
 40
0.0
 40
0.0106615622442171
 40
0.0214649732728489
 40
0.0324103226108842
 40
0.0434976963450386
 40
0.0547271772957365
 40
0.0660988451784341
 40
0.0892690459781805
 40
0.1010677241219856
 40
0.1130088799119327
 40
0.125092579642127
 40
0.1558900558311817
 40
0.1875979639323732
 40
0.2182913213186673
 40
0.2500918576538748
 40
0.3103786192435228
 40
0.3750683474109284
 40
0.43755711783253
 40
0.5000478798486764
 40
0.562540673387148
 40
0.6250348849658773
 40
0.687529481874222
 40
0.7500236986070993
 40
0.8113785491458694
 40
0.8750114416692197
 40
0.9335365402952179
 40
1.0
 40
1.0
 40
1.0
 40
1.0
 10
-253.8065998930124
 20
70.09548910463533
 30
0.0
 10
-253.7466809789223
 20
70.11607196014589
 30
0.0
 10
-253.6260459481435
 20
70.15751151968627
 30
0.0
 10
-253.444119098378
 20
70.22076732615106
 30
0.0
 10
-253.2599620787436
 20
70.28534266053401
 30
0.0
 10
-253.0735911135751
 20
70.35128877728053
 30
0.0
 10
-252.8850014346123
 20
70.41859167753923
 30
0.0
 10
-252.6289998821082
 20
70.51071579170117
 30
0.0
 10
-252.3701563120676
 20
70.60499884642118
 30
0.0
 10
-252.1084607758226
 20
70.70140396603217
 30
0.0
 10
-251.9087784655467
 20
70.77550634615399
 30
0.0
 10
-251.6034447135258
 20
70.88962827475322
 30
0.0
 10
-251.1886004534445
 20
71.04657129869533
 30
0.0
 10
-250.6712311792966
 20
71.2454441176365
 30
0.0
 10
-250.1492084953188
 20
71.44902519360738
 30
0.0
 10
-249.469890657524
 20
71.71736436094503
 30
0.0
 10
-248.6043298040229
 20
72.0651286920824
 30
0.0
 10
-247.5717876774458
 20
72.48768947979187
 30
0.0
 10
-246.529125413927
 20
72.92077840225646
 30
0.0
 10
-245.4999834786993
 20
73.35290953759947
 30
0.0
 10
-244.4717625808398
 20
73.78787749351159
 30
0.0
 10
-243.4439504143414
 20
74.2244035679467
 30
0.0
 10
-242.4159571263039
 20
74.66102839627358
 30
0.0
 10
-241.3935471637052
 20
75.09391067889409
 30
0.0
 10
-240.3642734453979
 20
75.52844429090351
 30
0.0
 10
-239.3561935608792
 20
75.95283624437248
 30
0.0
 10
-238.3195280754653
 20
76.38822876036278
 30
0.0
 10
-237.6322241349915
 20
76.67626991901102
 30
0.0
 10
-237.266745899522
 20
76.82943763449478
 30
0.0
  0
LINE
  5
7E
330
1F
100
AcDbEntity
  8
0
  6
Continuous
 62
     7
370
    25
100
AcDbLine
 10
-253.806599893
 20
56.3287379136
 30
0.0
 11
-253.806599893
 21
70.0954891046
 31
0.0
  0
SPLINE
  5
7F
330
1F
100
AcDbEntity
  8
0
  6
Continuous
 62
     7
370
    25
100
AcDbSpline
210
0.0
220
0.0
230
1.0
 70
     8
 71
     3
 72
    31
 73
    27
 74
     0
 42
0.00000001
 43
0.00000001
 40
0.0
 40
0.0
 40
0.0
 40
0.0
 40
0.0342264434335212
 40
0.0664691908170098
 40
0.0967282444792065
 40
0.1250036072434708
 40
0.1886433380749873
 40
0.2500059634122548
 40
0.3125070969432506
 40
0.3750084333401239
 40
0.4375100092352354
 40
0.5000118779483297
 40
0.5625131236001127
 40
0.6250129740848808
 40
0.6897150917857303
 40
0.7500145051712197
 40
0.7818176655765235
 40
0.8125139059722107
 40
0.8442150666267036
 40
0.8750060748611321
 40
0.8970323320716201
 40
0.9185804150708208
 40
0.9396507504883476
 40
0.9602437946466417
 40
0.9803600363492319
 40
1.0
 40
1.0
 40
1.0
 40
1.0
 10
-237.2666983589542
 20
49.59474850573707
 30
0.0
 10
-237.4549175464331
 20
49.67361464043709
 30
0.0
 10
-237.8204471145946
 20
49.82677598676742
 30
0.0
 10
-238.3522393501711
 20
50.0498283545943
 30
0.0
 10
-238.8512127112499
 20
50.25929296548961
 30
0.0
 10
-239.522609148012
 20
50.54142987856813
 30
0.0
 10
-240.3645977013492
 20
50.89590815614155
 30
0.0
 10
-241.393993134653
 20
51.33049433651298
 30
0.0
 10
-242.4165223346845
 20
51.76343109525645
 30
0.0
 10
-243.4446331274656
 20
52.20010875563855
 30
0.0
 10
-244.4725751709377
 20
52.63669110688788
 30
0.0
 10
-245.5009472380762
 20
53.0717221136992
 30
0.0
 10
-246.5302616396191
 20
53.50392249958443
 30
0.0
 10
-247.5731157971532
 20
53.93708516717935
 30
0.0
 10
-248.605863209095
 20
54.35972058245702
 30
0.0
 10
-249.4715832017282
 20
54.70753755555074
 30
0.0
 10
-250.1510072242683
 20
54.97590756576871
 30
0.0
 10
-250.6730277892866
 20
55.17947804397897
 30
0.0
 10
-251.1903447270412
 20
55.3783202048227
 30
0.0
 10
-251.6604175458054
 20
55.5561478145617
 30
0.0
 10
-252.0747354845288
 20
55.71055697456691
 30
0.0
 10
-252.4354424961451
 20
55.8431933733355
 30
0.0
 10
-252.7887004048196
 20
55.97127813329901
 30
0.0
 10
-253.1345269873148
 20
56.09476143572317
 30
0.0
 10
-253.4728666776205
 20
56.21382112970905
 30
0.0
 10
-253.6962475196317
 20
56.29073947876164
 30
0.0
 10
-253.806599893013
 20
56.32873791362339
 30
0.0
  0
SPLINE
  5
80
330
1F
100
AcDbEntity
  8
0
  6
Continuous
 62
     7
370
    25
100
AcDbSpline
210
0.0
220
0.0
230
1.0
 70
     8
 71
     3
 72
    58
 73
    54
 74
     0
 42
0.00000001
 43
0.00000001
 40
0.0
 40
0.0
 40
0.0
 40
0.0
 40
0.0039362391826401
 40
0.007867262301465
 40
0.011793081901536
 40
0.0157137105778515
 40
0.0196291609755113
 40
0.023539445789848
 40
0.0468933947303735
 40
0.0546373034352328
 40
0.0585016776486371
 40
0.062361016026029
 40
0.0780088832535506
 40
0.0935850019216896
 40
0.109090289304982
 40
0.1245256753057949
 40
0.14004030890728
 40
0.1555514246094983
 40
0.1710087268733963
 40
0.1865501812238466
 40
0.2173693497288419
 40
0.2485000496243242
 40
0.2639834427366969
 40
0.2794669348083698
 40
0.3104381569503503
 40
0.3414269186400062
 40
0.3724550531266989
 40
0.3879940977380598
 40
0.4035563008782186
 40
0.4347651108461082
 40
0.4660986354641249
 40
0.497529079223505
 40
0.5289408309346079
 40
0.5603361247168832
 40
0.5917242245866166
 40
0.6231115459097335
 40
0.6535846946007422
 40
0.6858993092064356
 40
0.7173037021406701
 40
0.7487155469736744
 40
0.7801274661592235
 40
0.8115379851559374
 40
0.8429478197811926
 40
0.874357420269436
 40
0.8900622401789056
 40
0.9057671145325754
 40
0.9371771607129652
 40
0.9518016721525902
 40
0.9685879812099089
 40
0.9748315335129512
 40
0.9842938182145673
 40
0.993250788372371
 40
1.0
 40
1.0
 40
1.0
 40
1.0
 10
-154.2003006804146
 20
28.49484175643884
 30
0.0
 10
-154.3141697382614
 20
28.49326440993988
 30
0.0
 10
-154.5417569616324
 20
28.4901118071452
 30
0.0
 10
-154.8829217284107
 20
28.48615722365749
 30
0.0
 10
-155.2236406762719
 20
28.48277387632498
 30
0.0
 10
-155.5639145105672
 20
28.48001691318162
 30
0.0
 10
-155.9037429330902
 20
28.47787158670459
 30
0.0
 10
-156.8057951009657
 20
28.47380564704411
 30
0.0
 10
-157.8186254230843
 20
28.47562674578858
 30
0.0
 10
-158.8300609540507
 20
28.48489556699194
 30
0.0
 10
-159.2775135869734
 20
28.49023625250937
 30
0.0
 10
-159.953595688639
 20
28.49955671238591
 30
0.0
 10
-160.9683934132846
 20
28.51832199110513
 30
0.0
 10
-162.3197943047011
 20
28.55364245463111
 30
0.0
 10
-163.6647074201089
 20
28.59917266214019
 30
0.0
 10
-165.0074107962274
 20
28.65508877572122
 30
0.0
 10
-166.3497566850849
 20
28.72161123774124
 30
0.0
 10
-167.6921169572363
 20
28.79881409713066
 30
0.0
 10
-169.0345453538786
 20
28.88668264962258
 30
0.0
 10
-170.8177696952003
 20
29.01734739132764
 30
0.0
 10
-173.0510039510293
 20
29.20675333519456
 30
0.0
 10
-175.2792509916044
 20
29.4291793036531
 30
0.0
 10
-177.0639267935049
 20
29.62692671692251
 30
0.0
 10
-178.8424774961603
 20
29.83657833950205
 30
0.0
 10
-181.0629346426608
 20
30.12465644643386
 30
0.0
 10
-183.7211303255824
 20
30.52486405146048
 30
0.0
 10
-185.9288839930811
 20
30.91407320824843
 30
0.0
 10
-187.6897303159631
 20
31.26498053913903
 30
0.0
 10
-189.4496322028635
 20
31.6453850915745
 30
0.0
 10
-191.6431887659747
 20
32.17656903244867
 30
0.0
 10
-194.2626047603198
 20
32.88991620002756
 30
0.0
 10
-196.8690540897346
 20
33.667908931318
 30
0.0
 10
-199.4603387228234
 20
34.49877674537738
 30
0.0
 10
-202.0362161661153
 20
35.3705020378428
 30
0.0
 10
-204.5981106628112
 20
36.27853464257903
 30
0.0
 10
-207.1228488104304
 20
37.20916451514479
 30
0.0
 10
-209.6619913715787
 20
38.17564506110316
 30
0.0
 10
-212.1922096356239
 20
39.16469796696253
 30
0.0
 10
-214.7392193572079
 20
40.18288132258451
 30
0.0
 10
-217.2550200101082
 20
41.20683150057047
 30
0.0
 10
-219.7651226054499
 20
42.24306410988903
 30
0.0
 10
-222.2705092729639
 20
43.28835683803179
 30
0.0
 10
-224.7724286866479
 20
44.33952466574694
 30
0.0
 10
-226.8553717800414
 20
45.21823866281032
 30
0.0
 10
-228.5210650716207
 20
45.92155413856925
 30
0.0
 10
-230.1865410106303
 20
46.62458966550724
 30
0.0
 10
-231.8233791773992
 20
47.31428181360007
 30
0.0
 10
-233.4894829405619
 20
48.01332197050318
 30
0.0
 10
-234.4881822574352
 20
48.43166478621202
 30
0.0
 10
-235.3499488537178
 20
48.79234648790076
 30
0.0
 10
-236.0040048764783
 20
49.0660752376648
 30
0.0
 10
-236.6713874005649
 20
49.34541362941822
 30
0.0
 10
-237.0877712046477
 20
49.51980820897211
 30
0.0
 10
-237.2666983589658
 20
49.59474850574188
 30
0.0
  0
SPLINE
  5
81
330
1F
100
AcDbEntity
  8
0
  6
Continuous
 62
     7
370
    25
100
AcDbSpline
210
0.0
220
0.0
230
1.0
 70
     8
 71
     3
 72
    18
 73
    14
 74
     0
 42
0.00000001
 43
0.00000001
 40
-0.0000000012338054
 40
-0.0000000012338054
 40
-0.0000000012338054
 40
-0.0000000012338054
 40
0.1250000000000002
 40
0.1250000000000002
 40
0.2500000000000005
 40
0.2500000000000005
 40
0.3750000000000008
 40
0.3750000000000008
 40
0.500000000000001
 40
0.500000000000001
 40
0.7500000000000016
 40
0.7500000000000016
 40
1.000536318831867
 40
1.000536318831867
 40
1.000536318831867
 40
1.000536318831867
 10
-127.3499069466756
 20
30.4043725869919
 30
0.0
 10
-128.4627148360669
 20
30.26192459588869
 30
0.0
 10
-129.5766852907109
 20
30.12845443620401
 30
0.0
 10
-131.8062314953867
 20
29.87781497501369
 30
0.0
 10
-132.9218194672592
 20
29.76050961790159
 30
0.0
 10
-135.1544722229962
 20
29.54042348895742
 30
0.0
 10
-136.2715619976628
 20
29.43768615034374
 30
0.0
 10
-138.5071588203403
 20
29.24697773890287
 30
0.0
 10
-139.6253380180798
 20
29.15914303962616
 30
0.0
 10
-142.981044324405
 20
28.91871787978764
 30
0.0
 10
-145.2197327684016
 20
28.78906066758865
 30
0.0
 10
-149.7051439816321
 20
28.59328590636035
 30
0.0
 10
-151.9518666619921
 20
28.52716660231083
 30
0.0
 10
-154.2003006833741
 20
28.49484167697568
 30
0.0
  0
SPLINE
  5
82
330
1F
100
AcDbEntity
  8
0
  6
Continuous
 62
     7
370
    25
100
AcDbSpline
210
0.0
220
0.0
230
1.0
 70
    24
 71
     3
 72
     8
 73
     4
 74
     0
 42
0.00000001
 43
0.00000001
 40
0.0
 40
0.0
 40
0.0
 40
0.0
 40
1.0
 40
1.0
 40
1.0
 40
1.0
 10
-127.2223240864113
 20
30.4207441108611
 30
0.0
 10
-127.2648517058847
 20
30.41528693632031
 30
0.0
 10
-127.3073793253581
 20
30.40982976177951
 30
0.0
 10
-127.3499069448315
 20
30.40437258723872
 30
0.0
  0
SPLINE
  5
83
330
1F
100
AcDbEntity
  8
0
  6
Continuous
 62
     7
370
    25
100
AcDbSpline
210
0.0
220
0.0
230
1.0
 70
     8
 71
     3
 72
    53
 73
    49
 74
     0
 42
0.00000001
 43
0.00000001
 40
0.0
 40
0.0
 40
0.0
 40
0.0
 40
0.0034664404215919
 40
0.0069377510489468
 40
0.0104139553539129
 40
0.0138950767093496
 40
0.0173811383892133
 40
0.0208721635686532
 40
0.0278691966334146
 40
0.03137525037591
 40
0.0470248188627534
 40
0.0627001879678988
 40
0.0783769482961635
 40
0.093993543734414
 40
0.1094468792694188
 40
0.1252732965582252
 40
0.1565554292218401
 40
0.172008286872525
 40
0.1878516813848471
 40
0.2190344211537156
 40
0.2505161409586674
 40
0.2818705351894111
 40
0.3132026840132972
 40
0.3758273952396792
 40
0.4384491983044775
 40
0.5011282277981888
 40
0.563745786330079
 40
0.6261422576341226
 40
0.6878184821182732
 40
0.7505599879354908
 40
0.7816410724898838
 40
0.7972456400656465
 40
0.812729783589731
 40
0.8441696236497807
 40
0.8749657891303778
 40
0.8907472818488026
 40
0.9064053941620188
 40
0.9219410792317448
 40
0.9373553129312449
 40
0.9442483732094547
 40
0.951158085487936
 40
0.9580845421044046
 40
0.9650278347285348
 40
0.9719880543647827
 40
0.978965291355265
 40
0.9859596353826855
 40
0.9929711754733108
 40
1.0
 40
1.0
 40
1.0
 40
1.0
 10
-63.85456230404804
 20
54.20303815896029
 30
0.0
 10
-63.917037664043
 20
54.15769197676151
 30
0.0
 10
-64.0420761593359
 20
54.066935902849
 30
0.0
 10
-64.23027386869997
 20
53.93136216037042
 30
0.0
 10
-64.41910661301685
 20
53.79607756996308
 30
0.0
 10
-64.60861149911543
 20
53.66112937965021
 30
0.0
 10
-64.79877910172783
 20
53.5265049020115
 30
0.0
 10
-65.0534056309711
 20
53.34731367769847
 30
0.0
 10
-65.30918359918961
 20
53.16890378567323
 30
0.0
 10
-65.78864359454909
 20
52.83741788411719
 30
0.0
 10
-66.43072571334481
 20
52.40061806490022
 30
0.0
 10
-67.30479439250914
 20
51.82158053536811
 30
0.0
 10
-68.18573329308045
 20
51.25332865158797
 30
0.0
 10
-69.06988837928276
 20
50.69823384999025
 30
0.0
 10
-69.96420265679862
 20
50.15201259830787
 30
0.0
 10
-71.16642760082271
 20
49.43677964638582
 30
0.0
 10
-72.3814629205868
 20
48.74037768428132
 30
0.0
 10
-73.60730146926845
 20
48.05912140760839
 30
0.0
 10
-74.83773236167947
 20
47.38840539130264
 30
0.0
 10
-76.39553775438748
 20
46.56253189087902
 30
0.0
 10
-78.27908398367684
 20
45.60017258589475
 30
0.0
 10
-80.18278694109625
 20
44.66231396286734
 30
0.0
 10
-82.73678649670639
 20
43.4458168539128
 30
0.0
 10
-85.96572262307058
 20
41.98423072164132
 30
0.0
 10
-89.89799522675631
 20
40.32508843630882
 30
0.0
 10
-93.88473039145349
 20
38.76450096416259
 30
0.0
 10
-97.92016974370573
 20
37.31248247533418
 30
0.0
 10
-101.9850470237684
 20
35.98142970599665
 30
0.0
 10
-106.0996148609855
 20
34.76642368904064
 30
0.0
 10
-109.5584761063054
 20
33.84881879583658
 30
0.0
 10
-112.0076000321355
 20
33.25027276888917
 30
0.0
 10
-113.4029704635336
 20
32.92319284890036
 30
0.0
 10
-114.809016390576
 20
32.60330511498326
 30
0.0
 10
-116.5615213251489
 20
32.22311252304961
 30
0.0
 10
-118.3269665873103
 20
31.86625156759992
 30
0.0
 10
-119.7388446466363
 20
31.59738047684803
 30
0.0
 10
-120.8062931741987
 20
31.40270106340233
 30
0.0
 10
-121.8670740528598
 20
31.21788461690934
 30
0.0
 10
-122.7296683066458
 20
31.0747047727645
 30
0.0
 10
-123.3963350306665
 20
30.96810588383281
 30
0.0
 10
-123.8696277330241
 20
30.8942127400038
 30
0.0
 10
-124.3443545132196
 20
30.82187065314356
 30
0.0
 10
-124.8205129901107
 20
30.75108012876452
 30
0.0
 10
-125.2981007681662
 20
30.68184375218217
 30
0.0
 10
-125.7771137247333
 20
30.61415063240375
 30
0.0
 10
-126.2575543832606
 20
30.54804188668196
 30
0.0
 10
-126.7394000202392
 20
30.48336340830391
 30
0.0
 10
-127.0612173396048
 20
30.4416343335785
 30
0.0
 10
-127.2223240864111
 20
30.42074411085991
 30
0.0
  0
LINE
  5
84
330
1F
100
AcDbEntity
  8
0
  6
Continuous
 62
     7
370
    25
100
AcDbLine
 10
-252.306599893
 20
57.3916308887
 30
0.0
 11
-252.306599893
 21
69.0325947477
 31
0.0
  0
SPLINE
  5
85
330
1F
100
AcDbEntity
  8
0
  6
Continuous
 62
     7
370
    25
100
AcDbSpline
210
0.0
220
0.0
230
1.0
 70
     8
 71
     3
 72
    16
 73
    12
 74
     0
 42
0.00000001
 43
0.00000001
 40
0.0590050522496144
 40
0.0590050522496144
 40
0.0590050522496144
 40
0.0590050522496144
 40
0.1178166604587692
 40
0.176628268667924
 40
0.2942514850862336
 40
0.4118747015045431
 40
0.5294979179228527
 40
0.6471211343411623
 40
0.7647443507594719
 40
0.8823675671777815
 40
0.9999907835960911
 40
0.9999907835960911
 40
0.9999907835960911
 40
0.9999907835960911
 10
-252.3065998930129
 20
69.03259474765753
 30
0.0
 10
-251.971773985012
 20
69.15295708444228
 30
0.0
 10
-251.3030740602234
 20
69.3984455948003
 30
0.0
 10
-249.9765886263133
 20
69.90234745264546
 30
0.0
 10
-248.3319872103162
 20
70.55366848717465
 30
0.0
 10
-246.3751037304226
 20
71.35760285862467
 30
0.0
 10
-244.4298534340658
 20
72.1754845453807
 30
0.0
 10
-242.4936432709029
 20
72.99876210941571
 30
0.0
 10
-240.5615936987323
 20
73.81768015731001
 30
0.0
 10
-238.6261364979283
 20
74.63307364499072
 30
0.0
 10
-237.3333614198474
 20
75.1751191852266
 30
0.0
 10
-236.6871213266905
 20
75.4459509588284
 30
0.0
  0
SPLINE
  5
86
330
1F
100
AcDbEntity
  8
0
  6
Continuous
 62
     7
370
    25
100
AcDbSpline
210
0.0
220
0.0
230
1.0
 70
     8
 71
     3
 72
    34
 73
    30
 74
     0
 42
0.00000001
 43
0.00000001
 40
0.0000019117476957
 40
0.0000019117476957
 40
0.0000019117476957
 40
0.0000019117476957
 40
0.0312515913457721
 40
0.0625012709438485
 40
0.0937509505419249
 40
0.1250006301400013
 40
0.1874999893361541
 40
0.2499993485323069
 40
0.3124987077284598
 40
0.3749980669246126
 40
0.4374974261207654
 40
0.4687471057188418
 40
0.4999967853169182
 40
0.5312464649149946
 40
0.562496144513071
 40
0.5937458241111474
 40
0.6249955037092239
 40
0.6562451833073002
 40
0.6874948629053766
 40
0.7187445425034531
 40
0.7499942221015294
 40
0.8124935812976822
 40
0.874992940493835
 40
0.9374922996899878
 40
0.9687419792880643
 40
0.9843668190871024
 40
0.9921792389866215
 40
0.9960854489363811
 40
0.9999916588861406
 40
0.9999916588861406
 40
0.9999916588861406
 40
0.9999916588861406
 10
-236.6871213266905
 20
75.44595095882842
 30
0.0
 10
-235.85860294404
 20
75.79295939114083
 30
0.0
 10
-234.2020773619013
 20
76.48596121331555
 30
0.0
 10
-231.7130522739499
 20
77.52876088902896
 30
0.0
 10
-229.2251279959771
 20
78.57695437749366
 30
0.0
 10
-225.9109368392451
 20
79.97677002100036
 30
0.0
 10
-221.7684497211176
 20
81.72341504017626
 30
0.0
 10
-216.7903190608793
 20
83.79382384926808
 30
0.0
 10
-211.7962072223741
 20
85.81348966922388
 30
0.0
 10
-206.7770139716878
 20
87.75775205195384
 30
0.0
 10
-202.5682252222162
 20
89.28748490208
 30
0.0
 10
-199.1790123509652
 20
90.43844320040472
 30
0.0
 10
-196.6273875748878
 20
91.26033295115718
 30
0.0
 10
-194.0654997149229
 20
92.03008095808015
 30
0.0
 10
-191.4911429578098
 20
92.73718399458983
 30
0.0
 10
-188.9044955462792
 20
93.37100272656352
 30
0.0
 10
-186.3025889911896
 20
93.91806564178894
 30
0.0
 10
-183.6756457653177
 20
94.38682600299815
 30
0.0
 10
-181.0310955890945
 20
94.78949315085411
 30
0.0
 10
-178.3708199324277
 20
95.1374794209778
 30
0.0
 10
-174.807578492694
 20
95.5470487378938
 30
0.0
 10
-170.3454548189492
 20
95.96341252698204
 30
0.0
 10
-164.9797774955913
 20
96.29583353669943
 30
0.0
 10
-160.5000341683029
 20
96.42938706860392
 30
0.0
 10
-157.3616970519198
 20
96.45231802920388
 30
0.0
 10
-155.7921494834814
 20
96.44645606335673
 30
0.0
 10
-155.0073174389095
 20
96.43951689833429
 30
0.0
 10
-154.5597930623558
 20
96.43408412958584
 30
0.0
 10
-154.3338701840158
 20
96.4310447736507
 30
0.0
 10
-154.2211792977927
 20
96.42953046760171
 30
0.0
  0
LINE
  5
87
330
1F
100
AcDbEntity
  8
0
  6
Continuous
 62
     7
370
    25
100
AcDbLine
 10
-154.2211792978
 20
96.4295304676
 30
0.0
 11
-154.2075204142
 21
96.4293337359
 31
0.0
  0
SPLINE
  5
88
330
1F
100
AcDbEntity
  8
0
  6
Continuous
 62
     7
370
    25
100
AcDbSpline
210
0.0
220
0.0
230
1.0
 70
     8
 71
     3
 72
    13
 73
     9
 74
     0
 42
0.00000001
 43
0.00000001
 40
0.0
 40
0.0
 40
0.0
 40
0.0
 40
0.2499978440227409
 40
0.4999956880454818
 40
0.6249946100568522
 40
0.7499935320682227
 40
0.8749924540795931
 40
0.9999913760909636
 40
0.9999913760909636
 40
0.9999913760909636
 40
0.9999913760909636
 10
-154.207520414199
 20
96.42933373589416
 30
0.0
 10
-151.9788587449804
 20
96.39714969266613
 30
0.0
 10
-147.5228396812279
 20
96.26596030275022
 30
0.0
 10
-141.9570336646343
 20
95.94366745713285
 30
0.0
 10
-137.512932562006
 20
95.59444852264524
 30
0.0
 10
-134.1828323926636
 20
95.28803140913007
 30
0.0
 10
-130.8573204299929
 20
94.93839813012852
 30
0.0
 10
-128.6455328090279
 20
94.6734643169887
 30
0.0
 10
-127.54059316236
 20
94.53202475863206
 30
0.0
  0
SPLINE
  5
89
330
1F
100
AcDbEntity
  8
0
  6
Continuous
 62
     7
370
    25
100
AcDbSpline
210
0.0
220
0.0
230
1.0
 70
     8
 71
     3
 72
    11
 73
     7
 74
     0
 42
0.00000001
 43
0.00000001
 40
0.001798502560917
 40
0.001798502560917
 40
0.001798502560917
 40
0.001798502560917
 40
0.2500657760614617
 40
0.4983330495620064
 40
0.7466003230625511
 40
0.9948675965630959
 40
0.9948675965630959
 40
0.9948675965630959
 40
0.9948675965630959
 10
-127.5405931623601
 20
94.53202475863206
 30
0.0
 10
-127.5300349459725
 20
94.53066992071973
 30
0.0
 10
-127.5089185117872
 20
94.52796024471382
 30
0.0
 10
-127.4772438689835
 20
94.52389573168496
 30
0.0
 10
-127.4455692311368
 20
94.51983121907783
 30
0.0
 10
-127.4244528134436
 20
94.51712154475977
 30
0.0
 10
-127.4138946036672
 20
94.51576670741011
 30
0.0
  0
SPLINE
  5
8A
330
1F
100
AcDbEntity
  8
0
  6
Continuous
 62
     7
370
    25
100
AcDbSpline
210
0.0
220
0.0
230
1.0
 70
     8
 71
     3
 72
    34
 73
    30
 74
     0
 42
0.00000001
 43
0.00000001
 40
0.0000095212203149
 40
0.0000095212203149
 40
0.0000095212203149
 40
0.0000095212203149
 40
0.0039156373487089
 40
0.007821753477103
 40
0.015633985733891
 40
0.0312584502474672
 40
0.0625073792746195
 40
0.1250052373289242
 40
0.1875030953832288
 40
0.2500009534375334
 40
0.3124988114918381
 40
0.3749966695461427
 40
0.499992385654752
 40
0.5624902437090566
 40
0.6249881017633613
 40
0.6874859598176659
 40
0.7499838178719705
 40
0.7812327468991229
 40
0.8124816759262752
 40
0.8437306049534274
 40
0.8749795339805798
 40
0.9062284630077322
 40
0.9374773920348844
 40
0.9687263210620367
 40
0.9843507855756128
 40
0.9882569017040069
 40
0.992163017832401
 40
0.996069133960795
 40
0.9999752500891891
 40
0.9999752500891891
 40
0.9999752500891891
 40
0.9999752500891891
 10
-127.4138946036671
 20
94.51576670741012
 30
0.0
 10
-127.3249700362579
 20
94.50427626767095
 30
0.0
 10
-127.1466842896711
 20
94.48123843173947
 30
0.0
 10
-126.7937192472833
 20
94.43474101527721
 30
0.0
 10
-126.1734475170811
 20
94.3512495947393
 30
0.0
 10
-124.9363304138639
 20
94.1771411144413
 30
0.0
 10
-122.466306030509
 20
93.79884375326301
 30
0.0
 10
-118.9521561810381
 20
93.17066898893016
 30
0.0
 10
-114.7585875685429
 20
92.2893807482701
 30
0.0
 10
-110.5905380935387
 20
91.29738864725385
 30
0.0
 10
-106.4597887867171
 20
90.20103388855192
 30
0.0
 10
-101.0098706309947
 20
88.58968543993899
 30
0.0
 10
-95.65598409556925
 20
86.74396322522776
 30
0.0
 10
-90.40334626183177
 20
84.68499098904408
 30
0.0
 10
-86.51640951931253
 20
83.04343347194833
 30
0.0
 10
-82.68598230037287
 20
81.30783274450933
 30
0.0
 10
-79.54356425756494
 20
79.78582549581007
 30
0.0
 10
-77.06643103077954
 20
78.51975770624881
 30
0.0
 10
-75.22642063985467
 20
77.54385551928738
 30
0.0
 10
-73.40606559520816
 20
76.5422858006393
 30
0.0
 10
-71.61087955584699
 20
75.51296667103861
 30
0.0
 10
-69.8464207432764
 20
74.44995620986505
 30
0.0
 10
-68.11232240855661
 20
73.34579769934865
 30
0.0
 10
-66.69069323310826
 20
72.39127187299707
 30
0.0
 10
-65.78017359688387
 20
71.75519352057415
 30
0.0
 10
-65.36158094541534
 20
71.45789436419147
 30
0.0
 10
-65.15318837342076
 20
71.30897293057298
 30
0.0
 10
-64.94680667744021
 20
71.160235230364
 30
0.0
 10
-64.80612598468288
 20
71.05825891735657
 30
0.0
 10
-64.73620452409145
 20
71.00757844500433
 30
0.0
  0
SPLINE
  5
8B
330
1F
100
AcDbEntity
  8
0
  6
Continuous
 62
     7
370
    25
100
AcDbSpline
210
0.0
220
0.0
230
1.0
 70
     8
 71
     3
 72
    37
 73
    33
 74
     0
 42
0.00000001
 43
0.00000001
 40
0.0001707383314003
 40
0.0001707383314003
 40
0.0001707383314003
 40
0.0001707383314003
 40
0.0157842167965003
 40
0.0313976952616003
 40
0.0626246521918004
 40
0.1250785660522006
 40
0.1875324799126007
 40
0.2499863937730008
 40
0.312440307633401
 40
0.3748942214938011
 40
0.4373481353542013
 40
0.4998020492146014
 40
0.5310290061448014
 40
0.5622559630750015
 40
0.5934829200052015
 40
0.6247098769354016
 40
0.6559368338656016
 40
0.6871637907958017
 40
0.7183907477260019
 40
0.7496177046562019
 40
0.8120716185166021
 40
0.8745255323770023
 40
0.9057524893072023
 40
0.9369794462374024
 40
0.9525929247025025
 40
0.9682064031676024
 40
0.9760131424001524
 40
0.9838198816327024
 40
0.9877232512489774
 40
0.9916266208652524
 40
0.9955299904815275
 40
0.9994333600978025
 40
0.9994333600978025
 40
0.9994333600978025
 40
0.9994333600978025
 10
-64.73620452409142
 20
71.0075784450043
 30
0.0
 10
-64.69583368192187
 20
70.97818086141463
 30
0.0
 10
-64.6145664409561
 20
70.91900844102095
 30
0.0
 10
-64.45645698850171
 20
70.80337881420076
 30
0.0
 10
-64.17801114218514
 20
70.59828732172097
 30
0.0
 10
-63.78627040455319
 20
70.30521659544694
 30
0.0
 10
-63.32290779253941
 20
69.94945107472623
 30
0.0
 10
-62.86954451559853
 20
69.58990223587314
 30
0.0
 10
-62.42814927139715
 20
69.22545449207645
 30
0.0
 10
-62.00136139339048
 20
68.85507030841788
 30
0.0
 10
-61.58823326905397
 20
68.47492061488246
 30
0.0
 10
-61.25382087268621
 20
68.14785696692974
 30
0.0
 10
-60.99294719447968
 20
67.88039760167261
 30
0.0
 10
-60.80119002656235
 20
67.67728289381851
 30
0.0
 10
-60.61647800367934
 20
67.4744031654303
 30
0.0
 10
-60.44222317120238
 20
67.27380845114408
 30
0.0
 10
-60.2776698181553
 20
67.07302804487942
 30
0.0
 10
-60.12426217587289
 20
66.87276409084143
 30
0.0
 10
-59.9804797472836
 20
66.6695428616281
 30
0.0
 10
-59.79665317980722
 20
66.38789195233514
 30
0.0
 10
-59.58295218872801
 20
66.01813012002847
 30
0.0
 10
-59.39291136816816
 20
65.6301455008633
 30
0.0
 10
-59.2572135947638
 20
65.3129412453206
 30
0.0
 10
-59.17978236354345
 20
65.1127697363147
 30
0.0
 10
-59.12252266399359
 20
64.95185220647923
 30
0.0
 10
-59.08898851792924
 20
64.85168350879401
 30
0.0
 10
-59.06346279037355
 20
64.77150285900764
 30
0.0
 10
-59.04782674495583
 20
64.72071832154558
 30
0.0
 10
-59.03661156131046
 20
64.6831414039876
 30
0.0
 10
-59.02891341331967
 20
64.65667373931952
 30
0.0
 10
-59.02025270247783
 20
64.62619576323752
 30
0.0
 10
-59.01344430893538
 20
64.60192097271556
 30
0.0
 10
-59.01018098149083
 20
64.59027485552936
 30
0.0
  0
SPLINE
  5
8C
330
1F
100
AcDbEntity
  8
0
  6
Continuous
 62
     7
370
    25
100
AcDbSpline
210
0.0
220
0.0
230
1.0
 70
     8
 71
     3
 72
    20
 73
    16
 74
     0
 42
0.00000001
 43
0.00000001
 40
0.0054801006821061
 40
0.0054801006821061
 40
0.0054801006821061
 40
0.0054801006821061
 40
0.0199292448562772
 40
0.0343783890304484
 40
0.0632766773787907
 40
0.092174965727133
 40
0.1210732540754752
 40
0.2366664074688444
 40
0.3522595608622135
 40
0.4678527142555827
 40
0.699039021042321
 40
0.7568355977390056
 40
0.8146321744356901
 40
0.8724287511323747
 40
0.9302253278290592
 40
0.9302253278290592
 40
0.9302253278290592
 40
0.9302253278290592
 10
-59.01018098149078
 20
64.59027485552919
 30
0.0
 10
-59.00897756551866
 20
64.5858512973661
 30
0.0
 10
-59.00648300794715
 20
64.57667467708951
 30
0.0
 10
-59.00223202514624
 20
64.560947592073
 30
0.0
 10
-58.99806792694822
 20
64.54530654090293
 30
0.0
 10
-58.99273821302882
 20
64.5247412727846
 30
0.0
 10
-58.98171987345174
 20
64.48125056706587
 30
0.0
 10
-58.9670490008808
 20
64.41970791479021
 30
0.0
 10
-58.94905457420799
 20
64.33563801329869
 30
0.0
 10
-58.92732532582697
 20
64.22147157748056
 30
0.0
 10
-58.91148956873517
 20
64.11995058051559
 30
0.0
 10
-58.90004358195799
 20
64.03123699156916
 30
0.0
 10
-58.89464196641418
 20
63.98570587777179
 30
0.0
 10
-58.88951291858323
 20
63.93882724019499
 30
0.0
 10
-58.88666225700918
 20
63.91001380667298
 30
0.0
 10
-58.88528460810483
 20
63.89529078022274
 30
0.0
  0
LINE
  5
8D
330
1F
100
AcDbEntity
  8
0
  6
Continuous
 62
     7
370
    25
100
AcDbLine
 10
-58.8852846081
 20
63.8952907802
 30
0.0
 11
-58.8852846081
 21
62.5285265375
 31
0.0
  0
SPLINE
  5
8E
330
1F
100
AcDbEntity
  8
0
  6
Continuous
 62
     7
370
    25
100
AcDbSpline
210
0.0
220
0.0
230
1.0
 70
     8
 71
     3
 72
    19
 73
    15
 74
     0
 42
0.00000001
 43
0.00000001
 40
0.072949019633861
 40
0.072949019633861
 40
0.072949019633861
 40
0.072949019633861
 40
0.188148144840688
 40
0.3033472700475149
 40
0.4185463952543419
 40
0.5337455204611689
 40
0.6489446456679958
 40
0.7641437708748228
 40
0.8217433334782362
 40
0.8793428960816497
 40
0.9081426773833565
 40
0.9369424586850632
 40
0.9657422399867699
 40
0.9945420212884767
 40
0.9945420212884767
 40
0.9945420212884767
 40
0.9945420212884767
 10
-58.88528460810488
 20
62.52852653754839
 30
0.0
 10
-58.88820020257734
 20
62.49809795354736
 30
0.0
 10
-58.89466015001905
 20
62.43666650207387
 30
0.0
 10
-58.90574699059528
 20
62.34848499424705
 30
0.0
 10
-58.91874382908254
 20
62.25992867225271
 30
0.0
 10
-58.93346912223401
 20
62.17236088296097
 30
0.0
 10
-58.95003859607946
 20
62.08523376760526
 30
0.0
 10
-58.96478712490795
 20
62.01597058333437
 30
0.0
 10
-58.97771289242377
 20
61.96014819308858
 30
0.0
 10
-58.98624672047049
 20
61.92507218748411
 30
0.0
 10
-58.99272117028699
 20
61.89951994283097
 30
0.0
 10
-58.99767684930858
 20
61.88052244551136
 30
0.0
 10
-59.00376425461972
 20
61.8576832546156
 30
0.0
 10
-59.00876257280486
 20
61.83916426827877
 30
0.0
 10
-59.01115245776584
 20
61.83031860380632
 30
0.0
  0
SPLINE
  5
8F
330
1F
100
AcDbEntity
  8
0
  6
Continuous
 62
     7
370
    25
100
AcDbSpline
210
0.0
220
0.0
230
1.0
 70
     8
 71
     3
 72
    37
 73
    33
 74
     0
 42
0.00000001
 43
0.00000001
 40
0.0005697619334607
 40
0.0005697619334607
 40
0.0005697619334607
 40
0.0005697619334607
 40
0.0025214867445574
 40
0.004473211555654
 40
0.0083766611778473
 40
0.0122801108000406
 40
0.0161835604222338
 40
0.0317973589110069
 40
0.0630249558885532
 40
0.0942525528660994
 40
0.1254801498436456
 40
0.1879353437987381
 40
0.2503905377538305
 40
0.2816181347313767
 40
0.3128457317089229
 40
0.3440733286864691
 40
0.3753009256640154
 40
0.4065285226415616
 40
0.4377561196191078
 40
0.468983716596654
 40
0.5002113135742002
 40
0.5626665075292927
 40
0.6251217014843851
 40
0.6875768954394775
 40
0.75003208939457
 40
0.8124872833496625
 40
0.8749424773047549
 40
0.9373976712598473
 40
0.9530114697486204
 40
0.9686252682373935
 40
0.9842390667261667
 40
0.9998528652149398
 40
0.9998528652149398
 40
0.9998528652149398
 40
0.9998528652149398
 10
-59.01115245776573
 20
61.83031860380669
 30
0.0
 10
-59.01276639286682
 20
61.82452011324734
 30
0.0
 10
-59.01611472168111
 20
61.81249956811978
 30
0.0
 10
-59.02189995730514
 20
61.79186154275297
 30
0.0
 10
-59.02801016279158
 20
61.77044779355163
 30
0.0
 10
-59.03661702708184
 20
61.74105449870834
 30
0.0
 10
-59.05444750653307
 20
61.68133561279888
 30
0.0
 10
-59.09485964916695
 20
61.55240145751127
 30
0.0
 10
-59.16459974164444
 20
61.35054008272142
 30
0.0
 10
-59.25751753436712
 20
61.11047266579394
 30
0.0
 10
-59.39325476938378
 20
60.79325739360134
 30
0.0
 10
-59.58330536127942
 20
60.40536374267175
 30
0.0
 10
-59.79704498682746
 20
60.03563459438566
 30
0.0
 10
-59.98085448921395
 20
59.75406272382895
 30
0.0
 10
-60.12466213623264
 20
59.55085611221006
 30
0.0
 10
-60.27806026960925
 20
59.35064413469424
 30
0.0
 10
-60.44266756077546
 20
59.14982911275458
 30
0.0
 10
-60.61691478367428
 20
58.94926133634991
 30
0.0
 10
-60.80157282534951
 20
58.74646807591822
 30
0.0
 10
-60.99339629096632
 20
58.54330151513585
 30
0.0
 10
-61.25425519300514
 20
58.27586611475372
 30
0.0
 10
-61.58861796043283
 20
57.9488638554438
 30
0.0
 10
-62.00172427203591
 20
57.56876879294165
 30
0.0
 10
-62.42850053880151
 20
57.19841434506477
 30
0.0
 10
-62.86986511770503
 20
56.83400531816803
 30
0.0
 10
-63.32322639574449
 20
56.47446993741813
 30
0.0
 10
-63.78640180191223
 20
56.11884622232652
 30
0.0
 10
-64.13945121166691
 20
55.85475103041265
 30
0.0
 10
-64.37701925097194
 20
55.6792892079795
 30
0.0
 10
-64.49556176403983
 20
55.59219397257502
 30
0.0
 10
-64.61500204955733
 20
55.50491679312329
 30
0.0
 10
-64.69635333283266
 20
55.44563227887998
 30
0.0
 10
-64.73682309640321
 20
55.41614076152604
 30
0.0
  0
SPLINE
  5
90
330
1F
100
AcDbEntity
  8
0
  6
Continuous
 62
     7
370
    25
100
AcDbSpline
210
0.0
220
0.0
230
1.0
 70
     8
 71
     3
 72
    35
 73
    31
 74
     0
 42
0.00000001
 43
0.00000001
 40
0.0000213273352671
 40
0.0000213273352671
 40
0.0000213273352671
 40
0.0000213273352671
 40
0.0019743827049067
 40
0.0039274380745463
 40
0.0078335488138255
 40
0.0156457702923839
 40
0.0312702132495007
 40
0.0625190991637342
 40
0.0937679850779678
 40
0.1250168709922013
 40
0.1562657569064348
 40
0.1875146428206684
 40
0.218763528734902
 40
0.2500124146491355
 40
0.3125101864776025
 40
0.3750079583060696
 40
0.4375057301345368
 40
0.5000035019630038
 40
0.624999045619938
 40
0.6874968174484051
 40
0.7499945892768722
 40
0.8124923611053393
 40
0.8749901329338063
 40
0.9374879047622735
 40
0.968736790676507
 40
0.9843612336336238
 40
0.988267344372903
 40
0.9921734551121821
 40
0.9960795658514614
 40
0.9999856765907406
 40
0.9999856765907406
 40
0.9999856765907406
 40
0.9999856765907406
 10
-64.73682309640306
 20
55.41614076152613
 30
0.0
 10
-64.77178852027784
 20
55.39076198409762
 30
0.0
 10
-64.84211814592335
 20
55.33971379706377
 30
0.0
 10
-64.97970571099977
 20
55.24010582726319
 30
0.0
 10
-65.22253446329444
 20
55.06538431386354
 30
0.0
 10
-65.70951028625377
 20
54.7183068422221
 30
0.0
 10
-66.69081395609966
 20
54.03282575811349
 30
0.0
 10
-68.11201710216643
 20
53.07856040573331
 30
0.0
 10
-69.84623118066986
 20
51.97432338670914
 30
0.0
 10
-71.61067467659173
 20
50.91132183706846
 30
0.0
 10
-73.40578106545433
 20
49.88204649636923
 30
0.0
 10
-75.22622093560291
 20
48.88042780161879
 30
0.0
 10
-77.06614206522424
 20
47.90457688933344
 30
0.0
 10
-79.54332483183335
 20
46.63847879537546
 30
0.0
 10
-82.68568936882818
 20
45.11649268807368
 30
0.0
 10
-86.51610852497312
 20
43.38089516146368
 30
0.0
 10
-90.40302059420804
 20
41.73934879259816
 30
0.0
 10
-95.65564812249637
 20
39.68037626218896
 30
0.0
 10
-101.0095848189327
 20
37.83460128904321
 30
0.0
 10
-106.4592984198599
 20
36.22337770699701
 30
0.0
 10
-110.5903845865845
 20
35.1268646769186
 30
0.0
 10
-114.7582842384653
 20
34.13491956255468
 30
0.0
 10
-118.951857807436
 20
33.25360693966296
 30
0.0
 10
-122.4660334489221
 20
32.62545338118067
 30
0.0
 10
-124.9359489622757
 20
32.24711092851653
 30
0.0
 10
-126.0848372126474
 20
32.08548716394699
 30
0.0
 10
-126.6161685346397
 20
32.01336353750307
 30
0.0
 10
-126.8812212747743
 20
31.9779182092542
 30
0.0
 10
-127.1460820147543
 20
31.94318605608815
 30
0.0
 10
-127.3250398721376
 20
31.91998284452632
 30
0.0
 10
-127.4142248469058
 20
31.90841849877899
 30
0.0
  0
SPLINE
  5
91
330
1F
100
AcDbEntity
  8
0
  6
Continuous
 62
     7
370
    25
100
AcDbSpline
210
0.0
220
0.0
230
1.0
 70
     8
 71
     3
 72
    11
 73
     7
 74
     0
 42
0.00000001
 43
0.00000001
 40
0.0077210411400299
 40
0.0077210411400299
 40
0.0077210411400299
 40
0.0077210411400299
 40
0.2553411649501502
 40
0.5029612887602705
 40
0.7505814125703908
 40
0.9982015363805111
 40
0.9982015363805111
 40
0.9982015363805111
 40
0.9982015363805111
 10
-127.414224846906
 20
31.90841849877896
 30
0.0
 10
-127.4247555346052
 20
31.9070671932158
 30
0.0
 10
-127.4458169081552
 20
31.90436458246813
 30
0.0
 10
-127.4774089797173
 20
31.90031066522316
 30
0.0
 10
-127.5090010562085
 20
31.89625674755826
 30
0.0
 10
-127.5300624461533
 20
31.89355413513196
 30
0.0
 10
-127.5405931404246
 20
31.89220282900889
 30
0.0
  0
SPLINE
  5
92
330
1F
100
AcDbEntity
  8
0
  6
Continuous
 62
     7
370
    25
100
AcDbSpline
210
0.0
220
0.0
230
1.0
 70
     8
 71
     3
 72
    13
 73
     9
 74
     0
 42
0.00000001
 43
0.00000001
 40
0.0000086240546394
 40
0.0000086240546394
 40
0.0000086240546394
 40
0.0000086240546394
 40
0.1250720462553567
 40
0.250135468456074
 40
0.3751988906567912
 40
0.5002623128575086
 40
0.7503891572589432
 40
1.000516001660378
 40
1.000516001660378
 40
1.000516001660378
 40
1.000516001660378
 10
-127.5405931404247
 20
31.89220282900887
 30
0.0
 10
-128.6463041690823
 20
31.75066454228884
 30
0.0
 10
-130.8594750968101
 20
31.48557592171426
 30
0.0
 10
-134.188044815569
 20
31.13566794183046
 30
0.0
 10
-137.521775570976
 20
30.82900619581712
 30
0.0
 10
-141.9698188279633
 20
30.47968561666746
 30
0.0
 10
-147.5342684405129
 20
30.15777028975232
 30
0.0
 10
-151.9921120931452
 20
30.02674845489937
 30
0.0
 10
-154.2213200641506
 20
29.99469449739183
 30
0.0
  0
SPLINE
  5
93
330
1F
100
AcDbEntity
  8
0
  6
Continuous
 62
     7
370
    25
100
AcDbSpline
210
0.0
220
0.0
230
1.0
 70
     8
 71
     3
 72
    34
 73
    30
 74
     0
 42
0.00000001
 43
0.00000001
 40
0.0000027994672634
 40
0.0000027994672634
 40
0.0000027994672634
 40
0.0000027994672634
 40
0.0039090333039289
 40
0.0078152671405944
 40
0.0156277348139254
 40
0.0312526701605874
 40
0.0625025408539114
 40
0.1250022822405593
 40
0.1875020236272073
 40
0.2500017650138552
 40
0.2812516357071793
 40
0.3125015064005032
 40
0.3437513770938272
 40
0.3750012477871512
 40
0.4062511184804751
 40
0.4375009891737991
 40
0.4687508598671231
 40
0.500000730560447
 40
0.531250601253771
 40
0.562500471947095
 40
0.6250002133337429
 40
0.6874999547203908
 40
0.7499996961070389
 40
0.8124994374936869
 40
0.8749991788803348
 40
0.9062490495736588
 40
0.9374989202669828
 40
0.9687487909603067
 40
0.9999986616536307
 40
0.9999986616536307
 40
0.9999986616536307
 40
0.9999986616536307
 10
-154.2213200641506
 20
29.99469449739183
 30
0.0
 10
-154.3337634256622
 20
29.99313690010737
 30
0.0
 10
-154.5590442365196
 20
29.9900166787737
 30
0.0
 10
-155.0064668441918
 20
29.98481805692544
 30
0.0
 10
-155.7920147603631
 20
29.97768835435421
 30
0.0
 10
-157.3610034511759
 20
29.97196262625235
 30
0.0
 10
-160.4997788765083
 20
29.99474578461123
 30
0.0
 10
-164.9792653936362
 20
30.12839837137066
 30
0.0
 10
-170.345095109915
 20
30.46078246546423
 30
0.0
 10
-174.807113690846
 20
30.87711070426688
 30
0.0
 10
-178.3704836263047
 20
31.28670562023197
 30
0.0
 10
-181.0307232954126
 20
31.63466534221456
 30
0.0
 10
-183.6752899501363
 20
32.03735004784448
 30
0.0
 10
-186.3023274360893
 20
32.50609077592163
 30
0.0
 10
-188.9041433256488
 20
33.05308621821902
 30
0.0
 10
-191.490862628324
 20
33.68695905539821
 30
0.0
 10
-194.0653517562574
 20
34.39411953147965
 30
0.0
 10
-196.6271173749342
 20
35.16378068614348
 30
0.0
 10
-199.1789738610151
 20
35.98576041490609
 30
0.0
 10
-202.5679393844897
 20
37.13660905029033
 30
0.0
 10
-206.7769166873285
 20
38.66641205029671
 30
0.0
 10
-211.7960784441026
 20
40.61065616656654
 30
0.0
 10
-216.7902329407603
 20
42.63033993569506
 30
0.0
 10
-221.7683827583757
 20
44.70075432216675
 30
0.0
 10
-225.9108896596331
 20
46.44741134360837
 30
0.0
 10
-229.2250903407503
 20
47.84722472306241
 30
0.0
 10
-231.7130428092455
 20
48.89543701481496
 30
0.0
 10
-234.2020644229382
 20
49.93823273739749
 30
0.0
 10
-235.8585969333942
 20
50.63124312488872
 30
0.0
 10
-236.6871179440953
 20
50.97825367595843
 30
0.0
  0
SPLINE
  5
94
330
1F
100
AcDbEntity
  8
0
  6
Continuous
 62
     7
370
    25
100
AcDbSpline
210
0.0
220
0.0
230
1.0
 70
     8
 71
     3
 72
    16
 73
    12
 74
     0
 42
0.00000001
 43
0.00000001
 40
0.0000064515070728
 40
0.0000064515070728
 40
0.0000064515070728
 40
0.0000064515070728
 40
0.1176296534232032
 40
0.2352528553393335
 40
0.3528760572554638
 40
0.4704992591715942
 40
0.5881224610877245
 40
0.7057456630038548
 40
0.8233688649199851
 40
0.8821804658780503
 40
0.9409920668361155
 40
0.9409920668361155
 40
0.9409920668361155
 40
0.9409920668361155
 10
-236.6871179440953
 20
50.97825367595845
 30
0.0
 10
-237.3333519151021
 20
51.24903358999787
 30
0.0
 10
-238.6260327495337
 20
51.79111999036699
 30
0.0
 10
-240.5615107342583
 20
52.60649438257463
 30
0.0
 10
-242.4935589125949
 20
53.42542547915131
 30
0.0
 10
-244.4297768028423
 20
54.24870720465284
 30
0.0
 10
-246.3750332272522
 20
55.06659443582706
 30
0.0
 10
-248.3319199876582
 20
55.87052971868481
 30
0.0
 10
-249.9765358079463
 20
56.52186186025747
 30
0.0
 10
-251.3030049409533
 20
57.02574892393844
 30
0.0
 10
-251.9717510326205
 20
57.2712742104572
 30
0.0
 10
-252.3065998930129
 20
57.39163088874596
 30
0.0
  0
MTEXT
  5
96
330
1F
100
AcDbEntity
  8
0
  6
Continuous
 62
     7
100
AcDbMText
 10
-253.806599893
 20
28.4547012679
 30
0.0
 40
0.1903
 41
0.0
 71
     1
 72
     1
  1
SOLIDWORKS Educational Product.
  7
SLDTEXTSTYLE0
 73
     1
 44
1.0
  0
MTEXT
  5
97
330
1F
100
AcDbEntity
  8
0
  6
Continuous
 62
     7
100
AcDbMText
 10
-253.806599893
 20
28.1692512679
 30
0.0
 40
0.1903
 41
0.0
 71
     1
 72
     1
  1
For Instructional Use Only.
  7
SLDTEXTSTYLE0
 73
     1
 44
1.0
  0
ENDSEC
  0
SECTION
  2
OBJECTS
  0
DICTIONARY
  5
C
330
0
100
AcDbDictionary
281
     1
  3
ACAD_GROUP
350
D
  3
ACAD_LAYOUT
350
1A
  3
ACAD_MLINESTYLE
350
17
  3
ACAD_PLOTSETTINGS
350
19
  3
ACAD_PLOTSTYLENAME
350
E
  3
ACAD_SCALELIST
350
47
  3
DWGPROPS
350
98
  0
DICTIONARY
  5
D
102
{ACAD_REACTORS
330
C
102
}
330
C
100
AcDbDictionary
281
     1
  0
DICTIONARY
  5
1A
102
{ACAD_REACTORS
330
C
102
}
330
C
100
AcDbDictionary
281
     1
  3
Layout1
350
1E
  3
Layout2
350
26
  3
Model
350
22
  0
DICTIONARY
  5
17
102
{ACAD_REACTORS
330
C
102
}
330
C
100
AcDbDictionary
281
     1
  3
Standard
350
18
  0
DICTIONARY
  5
19
102
{ACAD_REACTORS
330
C
102
}
330
C
100
AcDbDictionary
281
     1
  0
ACDBDICTIONARYWDFLT
  5
E
102
{ACAD_REACTORS
330
C
102
}
330
C
100
AcDbDictionary
281
     1
  3
Normal
350
F
100
AcDbDictionaryWithDefault
340
F
  0
DICTIONARY
  5
47
102
{ACAD_REACTORS
330
C
102
}
330
C
100
AcDbDictionary
281
     1
  3
A0
350
48
  3
A1
350
49
  3
A2
350
4A
  3
A3
350
4B
  3
A4
350
4C
  3
A5
350
4D
  3
A6
350
4E
  3
A7
350
4F
  3
A8
350
50
  3
A9
350
51
  3
B0
350
52
  3
B1
350
53
  3
B2
350
54
  3
B3
350
55
  3
B4
350
56
  3
B5
350
57
  3
B6
350
58
  3
B7
350
59
  3
B8
350
5A
  3
B9
350
5B
  3
C0
350
5C
  3
C1
350
5D
  3
C2
350
5E
  3
C3
350
5F
  3
C4
350
60
  3
C5
350
61
  3
C6
350
62
  3
C7
350
63
  3
C8
350
64
  3
C9
350
65
  3
D0
350
66
  3
D1
350
67
  3
D2
350
68
  0
XRECORD
  5
98
102
{ACAD_REACTORS
330
C
102
}
330
C
100
AcDbXrecord
280
     1
  1
DWGPROPS COOKIE
  2

  3

  4

  6

  7

  8
lucie
  9

300
=
301
=
302
=
303
=
304
=
305
=
306
=
307
=
308
=
309
=
 40
0.0
 41
2460006.63295294
 42
2460006.632981956
  1

 90
        0
  0
LAYOUT
  5
1E
102
{ACAD_REACTORS
330
1A
102
}
330
1A
100
AcDbPlotSettings
  1

  2
none_device
  4

  6

 40
0.0
 41
0.0
 42
0.0
 43
0.0
 44
0.0
 45
0.0
 46
0.0
 47
0.0
 48
0.0
 49
0.0
140
0.0
141
0.0
142
1.0
143
1.0
 70
   688
 72
     0
 73
     0
 74
     5
  7

 75
    16
147
1.0
148
0.0
149
0.0
100
AcDbLayout
  1
Layout1
 70
     1
 71
     1
 10
0.0
 20
0.0
 11
12.0
 21
9.0
 12
0.0
 22
0.0
 32
0.0
 14
1.0000000000E+20
 24
1.0000000000E+20
 34
1.0000000000E+20
 15
-1.0000000000E+20
 25
-1.0000000000E+20
 35
-1.0000000000E+20
146
0.0
 13
0.0
 23
0.0
 33
0.0
 16
1.0
 26
0.0
 36
0.0
 17
0.0
 27
1.0
 37
0.0
 76
     0
330
1B
  0
LAYOUT
  5
26
102
{ACAD_REACTORS
330
1A
102
}
330
1A
100
AcDbPlotSettings
  1

  2
none_device
  4

  6

 40
0.0
 41
0.0
 42
0.0
 43
0.0
 44
0.0
 45
0.0
 46
0.0
 47
0.0
 48
0.0
 49
0.0
140
0.0
141
0.0
142
1.0
143
1.0
 70
   688
 72
     0
 73
     0
 74
     5
  7

 75
    16
147
1.0
148
0.0
149
0.0
100
AcDbLayout
  1
Layout2
 70
     1
 71
     2
 10
0.0
 20
0.0
 11
0.0
 21
0.0
 12
0.0
 22
0.0
 32
0.0
 14
0.0
 24
0.0
 34
0.0
 15
0.0
 25
0.0
 35
0.0
146
0.0
 13
0.0
 23
0.0
 33
0.0
 16
1.0
 26
0.0
 36
0.0
 17
0.0
 27
1.0
 37
0.0
 76
     0
330
23
  0
LAYOUT
  5
22
102
{ACAD_REACTORS
330
1A
102
}
330
1A
100
AcDbPlotSettings
  1

  2
none_device
  4
ANSI_A_(11.00_x_8.50_Inches)
  6

 40
6.35
 41
19.05
 42
6.35000508
 43
19.05000254
 44
279.4
 45
215.9
 46
352.4645632073
 47
-0.117070738
 48
0.0
 49
0.0
140
0.0
141
0.0
142
0.055442048
143
1.0
 70
  1696
 72
     0
 73
     0
 74
     0
  7

 75
     0
147
0.5913241897
148
-39.4088153714
149
0.0
100
AcDbLayout
  1
Model
 70
     1
 71
     0
 10
0.0
 20
0.0
 11
12.0
 21
9.0
 12
0.0
 22
0.0
 32
0.0
 14
-253.806599893
 24
28.494841677
 34
0.0
 15
-57.3852846081
 25
97.9293853297
 35
0.0
146
0.0
 13
0.0
 23
0.0
 33
0.0
 16
1.0
 26
0.0
 36
0.0
 17
0.0
 27
1.0
 37
0.0
 76
     0
330
1F
331
29
  0
MLINESTYLE
  5
18
102
{ACAD_REACTORS
330
17
102
}
330
17
100
AcDbMlineStyle
  2
Standard
 70
     0
  3

 62
   256
 51
90.0
 52
90.0
 71
     2
 49
0.5
 62
   256
  6
BYLAYER
 49
-0.5
 62
   256
  6
BYLAYER
  0
ACDBPLACEHOLDER
  5
F
102
{ACAD_REACTORS
330
E
102
}
330
E
  0
SCALE
  5
48
102
{ACAD_REACTORS
330
47
102
}
330
47
100
AcDbScale
 70
     0
300
1:1
140
1.0
141
1.0
290
     1
  0
SCALE
  5
49
102
{ACAD_REACTORS
330
47
102
}
330
47
100
AcDbScale
 70
     0
300
1:2
140
1.0
141
2.0
290
     0
  0
SCALE
  5
4A
102
{ACAD_REACTORS
330
47
102
}
330
47
100
AcDbScale
 70
     0
300
1:4
140
1.0
141
4.0
290
     0
  0
SCALE
  5
4B
102
{ACAD_REACTORS
330
47
102
}
330
47
100
AcDbScale
 70
     0
300
1:5
140
1.0
141
5.0
290
     0
  0
SCALE
  5
4C
102
{ACAD_REACTORS
330
47
102
}
330
47
100
AcDbScale
 70
     0
300
1:8
140
1.0
141
8.0
290
     0
  0
SCALE
  5
4D
102
{ACAD_REACTORS
330
47
102
}
330
47
100
AcDbScale
 70
     0
300
1:10
140
1.0
141
10.0
290
     0
  0
SCALE
  5
4E
102
{ACAD_REACTORS
330
47
102
}
330
47
100
AcDbScale
 70
     0
300
1:16
140
1.0
141
16.0
290
     0
  0
SCALE
  5
4F
102
{ACAD_REACTORS
330
47
102
}
330
47
100
AcDbScale
 70
     0
300
1:20
140
1.0
141
20.0
290
     0
  0
SCALE
  5
50
102
{ACAD_REACTORS
330
47
102
}
330
47
100
AcDbScale
 70
     0
300
1:30
140
1.0
141
30.0
290
     0
  0
SCALE
  5
51
102
{ACAD_REACTORS
330
47
102
}
330
47
100
AcDbScale
 70
     0
300
1:40
140
1.0
141
40.0
290
     0
  0
SCALE
  5
52
102
{ACAD_REACTORS
330
47
102
}
330
47
100
AcDbScale
 70
     0
300
1:50
140
1.0
141
50.0
290
     0
  0
SCALE
  5
53
102
{ACAD_REACTORS
330
47
102
}
330
47
100
AcDbScale
 70
     0
300
1:100
140
1.0
141
100.0
290
     0
  0
SCALE
  5
54
102
{ACAD_REACTORS
330
47
102
}
330
47
100
AcDbScale
 70
     0
300
2:1
140
2.0
141
1.0
290
     0
  0
SCALE
  5
55
102
{ACAD_REACTORS
330
47
102
}
330
47
100
AcDbScale
 70
     0
300
4:1
140
4.0
141
1.0
290
     0
  0
SCALE
  5
56
102
{ACAD_REACTORS
330
47
102
}
330
47
100
AcDbScale
 70
     0
300
8:1
140
8.0
141
1.0
290
     0
  0
SCALE
  5
57
102
{ACAD_REACTORS
330
47
102
}
330
47
100
AcDbScale
 70
     0
300
10:1
140
10.0
141
1.0
290
     0
  0
SCALE
  5
58
102
{ACAD_REACTORS
330
47
102
}
330
47
100
AcDbScale
 70
     0
300
100:1
140
100.0
141
1.0
290
     0
  0
SCALE
  5
59
102
{ACAD_REACTORS
330
47
102
}
330
47
100
AcDbScale
 70
     0
300
1/128" = 1'-0"
140
0.0078125
141
12.0
290
     0
  0
SCALE
  5
5A
102
{ACAD_REACTORS
330
47
102
}
330
47
100
AcDbScale
 70
     0
300
1/64" = 1'-0"
140
0.015625
141
12.0
290
     0
  0
SCALE
  5
5B
102
{ACAD_REACTORS
330
47
102
}
330
47
100
AcDbScale
 70
     0
300
1/32" = 1'-0"
140
0.03125
141
12.0
290
     0
  0
SCALE
  5
5C
102
{ACAD_REACTORS
330
47
102
}
330
47
100
AcDbScale
 70
     0
300
1/16" = 1'-0"
140
0.0625
141
12.0
290
     0
  0
SCALE
  5
5D
102
{ACAD_REACTORS
330
47
102
}
330
47
100
AcDbScale
 70
     0
300
3/32" = 1'-0"
140
0.09375
141
12.0
290
     0
  0
SCALE
  5
5E
102
{ACAD_REACTORS
330
47
102
}
330
47
100
AcDbScale
 70
     0
300
1/8" = 1'-0"
140
0.125
141
12.0
290
     0
  0
SCALE
  5
5F
102
{ACAD_REACTORS
330
47
102
}
330
47
100
AcDbScale
 70
     0
300
3/16" = 1'-0"
140
0.1875
141
12.0
290
     0
  0
SCALE
  5
60
102
{ACAD_REACTORS
330
47
102
}
330
47
100
AcDbScale
 70
     0
300
1/4" = 1'-0"
140
0.25
141
12.0
290
     0
  0
SCALE
  5
61
102
{ACAD_REACTORS
330
47
102
}
330
47
100
AcDbScale
 70
     0
300
3/8" = 1'-0"
140
0.375
141
12.0
290
     0
  0
SCALE
  5
62
102
{ACAD_REACTORS
330
47
102
}
330
47
100
AcDbScale
 70
     0
300
1/2" = 1'-0"
140
0.5
141
12.0
290
     0
  0
SCALE
  5
63
102
{ACAD_REACTORS
330
47
102
}
330
47
100
AcDbScale
 70
     0
300
3/4" = 1'-0"
140
0.75
141
12.0
290
     0
  0
SCALE
  5
64
102
{ACAD_REACTORS
330
47
102
}
330
47
100
AcDbScale
 70
     0
300
1" = 1'-0"
140
1.0
141
12.0
290
     0
  0
SCALE
  5
65
102
{ACAD_REACTORS
330
47
102
}
330
47
100
AcDbScale
 70
     0
300
1-1/2" = 1'-0"
140
1.5
141
12.0
290
     0
  0
SCALE
  5
66
102
{ACAD_REACTORS
330
47
102
}
330
47
100
AcDbScale
 70
     0
300
3" = 1'-0"
140
3.0
141
12.0
290
     0
  0
SCALE
  5
67
102
{ACAD_REACTORS
330
47
102
}
330
47
100
AcDbScale
 70
     0
300
6" = 1'-0"
140
6.0
141
12.0
290
     0
  0
SCALE
  5
68
102
{ACAD_REACTORS
330
47
102
}
330
47
100
AcDbScale
 70
     0
300
1'-0" = 1'-0"
140
12.0
141
12.0
290
     0
  0
ENDSEC
  0
EOF
