  0
SECTION
  2
HEADER
  9
$ACADVER
  1
AC1015
  9
$ACADMAINTVER
 70
     6
  9
$DWGCODEPAGE
  3
ANSI_1252
  9
$INSBASE
 10
0.0
 20
0.0
 30
0.0
  9
$EXTMIN
 10
-256.1668722341
 20
-99.9489879036
 30
0.0
  9
$EXTMAX
 10
-53.7900063868
 20
-26.4752813827
 30
0.0
  9
$LIMMIN
 10
0.0
 20
0.0
  9
$LIMMAX
 10
12.0
 20
9.0
  9
$ORTHOMODE
 70
     0
  9
$REGENMODE
 70
     1
  9
$FILLMODE
 70
     1
  9
$QTEXTMODE
 70
     0
  9
$MIRRTEXT
 70
     1
  9
$LTSCALE
 40
1.0
  9
$ATTMODE
 70
     1
  9
$TEXTSIZE
 40
0.1377952756
  9
$TRACEWID
 40
0.05
  9
$TEXTSTYLE
  7
Standard
  9
$CLAYER
  8
0
  9
$CELTYPE
  6
ByLayer
  9
$CECOLOR
 62
   256
  9
$CELTSCALE
 40
1.0
  9
$DISPSILH
 70
     0
  9
$DIMSCALE
 40
1.0
  9
$DIMASZ
 40
0.13
  9
$DIMEXO
 40
0.0
  9
$DIMDLI
 40
0.38
  9
$DIMRND
 40
0.0
  9
$DIMDLE
 40
0.0
  9
$DIMEXE
 40
0.0393700787
  9
$DIMTP
 40
0.0
  9
$DIMTM
 40
0.0
  9
$DIMTXT
 40
0.1377952756
  9
$DIMCEN
 40
0.09
  9
$DIMTSZ
 40
0.0
  9
$DIMTOL
 70
     0
  9
$DIMLIM
 70
     0
  9
$DIMTIH
 70
     1
  9
$DIMTOH
 70
     1
  9
$DIMSE1
 70
     0
  9
$DIMSE2
 70
     0
  9
$DIMTAD
 70
     1
  9
$DIMZIN
 70
     1
  9
$DIMBLK
  1

  9
$DIMASO
 70
     1
  9
$DIMSHO
 70
     1
  9
$DIMPOST
  1

  9
$DIMAPOST
  1

  9
$DIMALT
 70
     0
  9
$DIMALTD
 70
     2
  9
$DIMALTF
 40
25.4
  9
$DIMLFAC
 40
1.0
  9
$DIMTOFL
 70
     0
  9
$DIMTVP
 40
0.0
  9
$DIMTIX
 70
     0
  9
$DIMSOXD
 70
     0
  9
$DIMSAH
 70
     0
  9
$DIMBLK1
  1

  9
$DIMBLK2
  1

  9
$DIMSTYLE
  2
Standard
  9
$DIMCLRD
 70
     0
  9
$DIMCLRE
 70
     0
  9
$DIMCLRT
 70
     0
  9
$DIMTFAC
 40
1.0
  9
$DIMGAP
 40
0.06
  9
$DIMJUST
 70
     0
  9
$DIMSD1
 70
     0
  9
$DIMSD2
 70
     0
  9
$DIMTOLJ
 70
     1
  9
$DIMTZIN
 70
     1
  9
$DIMALTZ
 70
     0
  9
$DIMALTTZ
 70
     0
  9
$DIMUPT
 70
     0
  9
$DIMDEC
 70
     2
  9
$DIMTDEC
 70
     2
  9
$DIMALTU
 70
     2
  9
$DIMALTTD
 70
     2
  9
$DIMTXSTY
  7
Standard
  9
$DIMAUNIT
 70
     0
  9
$DIMADEC
 70
     2
  9
$DIMALTRND
 40
0.0
  9
$DIMAZIN
 70
     0
  9
$DIMDSEP
 70
    46
  9
$DIMATFIT
 70
     3
  9
$DIMFRAC
 70
     0
  9
$DIMLDRBLK
  1

  9
$DIMLUNIT
 70
     2
  9
$DIMLWD
 70
    -2
  9
$DIMLWE
 70
    -2
  9
$DIMTMOVE
 70
     0
  9
$LUNITS
 70
     2
  9
$LUPREC
 70
     2
  9
$SKETCHINC
 40
0.1
  9
$FILLETRAD
 40
0.5
  9
$AUNITS
 70
     0
  9
$AUPREC
 70
     2
  9
$MENU
  1
.
  9
$ELEVATION
 40
0.0
  9
$PELEVATION
 40
0.0
  9
$THICKNESS
 40
0.0
  9
$LIMCHECK
 70
     0
  9
$CHAMFERA
 40
0.0
  9
$CHAMFERB
 40
0.0
  9
$CHAMFERC
 40
0.0
  9
$CHAMFERD
 40
0.0
  9
$SKPOLY
 70
     0
  9
$TDCREATE
 40
2460006.297997755
  9
$TDUCREATE
 40
2460006.631331088
  9
$TDUPDATE
 40
2460006.298026077
  9
$TDUUPDATE
 40
2460006.63135941
  9
$TDINDWG
 40
0.0000000116
  9
$TDUSRTIMER
 40
0.0000000116
  9
$USRTIMER
 70
     1
  9
$ANGBASE
 50
0.0
  9
$ANGDIR
 70
     0
  9
$PDMODE
 70
     0
  9
$PDSIZE
 40
-1.0
  9
$PLINEWID
 40
0.0
  9
$SPLFRAME
 70
     0
  9
$SPLINETYPE
 70
     6
  9
$SPLINESEGS
 70
     8
  9
$HANDSEED
  5
99
  9
$SURFTAB1
 70
     6
  9
$SURFTAB2
 70
     6
  9
$SURFTYPE
 70
     6
  9
$SURFU
 70
     6
  9
$SURFV
 70
     6
  9
$UCSBASE
  2

  9
$UCSNAME
  2

  9
$UCSORG
 10
0.0
 20
0.0
 30
0.0
  9
$UCSXDIR
 10
1.0
 20
0.0
 30
0.0
  9
$UCSYDIR
 10
0.0
 20
1.0
 30
0.0
  9
$UCSORTHOREF
  2

  9
$UCSORTHOVIEW
 70
     0
  9
$UCSORGTOP
 10
0.0
 20
0.0
 30
0.0
  9
$UCSORGBOTTOM
 10
0.0
 20
0.0
 30
0.0
  9
$UCSORGLEFT
 10
0.0
 20
0.0
 30
0.0
  9
$UCSORGRIGHT
 10
0.0
 20
0.0
 30
0.0
  9
$UCSORGFRONT
 10
0.0
 20
0.0
 30
0.0
  9
$UCSORGBACK
 10
0.0
 20
0.0
 30
0.0
  9
$PUCSBASE
  2

  9
$PUCSNAME
  2

  9
$PUCSORG
 10
0.0
 20
0.0
 30
0.0
  9
$PUCSXDIR
 10
1.0
 20
0.0
 30
0.0
  9
$PUCSYDIR
 10
0.0
 20
1.0
 30
0.0
  9
$PUCSORTHOREF
  2

  9
$PUCSORTHOVIEW
 70
     0
  9
$PUCSORGTOP
 10
0.0
 20
0.0
 30
0.0
  9
$PUCSORGBOTTOM
 10
0.0
 20
0.0
 30
0.0
  9
$PUCSORGLEFT
 10
0.0
 20
0.0
 30
0.0
  9
$PUCSORGRIGHT
 10
0.0
 20
0.0
 30
0.0
  9
$PUCSORGFRONT
 10
0.0
 20
0.0
 30
0.0
  9
$PUCSORGBACK
 10
0.0
 20
0.0
 30
0.0
  9
$USERI1
 70
     0
  9
$USERI2
 70
     0
  9
$USERI3
 70
     0
  9
$USERI4
 70
     0
  9
$USERI5
 70
     0
  9
$USERR1
 40
0.0
  9
$USERR2
 40
0.0
  9
$USERR3
 40
0.0
  9
$USERR4
 40
0.0
  9
$USERR5
 40
0.0
  9
$WORLDVIEW
 70
     1
  9
$SHADEDGE
 70
     3
  9
$SHADEDIF
 70
    70
  9
$TILEMODE
 70
     1
  9
$MAXACTVP
 70
    64
  9
$PINSBASE
 10
0.0
 20
0.0
 30
0.0
  9
$PLIMCHECK
 70
     0
  9
$PEXTMIN
 10
1.0000000000E+20
 20
1.0000000000E+20
 30
1.0000000000E+20
  9
$PEXTMAX
 10
-1.0000000000E+20
 20
-1.0000000000E+20
 30
-1.0000000000E+20
  9
$PLIMMIN
 10
0.0
 20
0.0
  9
$PLIMMAX
 10
12.0
 20
9.0
  9
$UNITMODE
 70
     0
  9
$VISRETAIN
 70
     1
  9
$PLINEGEN
 70
     0
  9
$PSLTSCALE
 70
     1
  9
$TREEDEPTH
 70
  3020
  9
$CMLSTYLE
  2
Standard
  9
$CMLJUST
 70
     0
  9
$CMLSCALE
 40
1.0
  9
$PROXYGRAPHICS
 70
     1
  9
$MEASUREMENT
 70
     0
  9
$CELWEIGHT
370
    -1
  9
$ENDCAPS
280
     0
  9
$JOINSTYLE
280
     0
  9
$LWDISPLAY
290
     1
  9
$INSUNITS
 70
     1
  9
$HYPERLINKBASE
  1

  9
$STYLESHEET
  1

  9
$XEDIT
290
     1
  9
$CEPSNTYPE
380
     0
  9
$PSTYLEMODE
290
     1
  9
$FINGERPRINTGUID
  2
{d318a8de-0e4e-4ed6-b42e-2710fa4fb859}
  9
$VERSIONGUID
  2
{FAEB1C32-E019-11D5-929B-00C0DF256EC4}
  9
$EXTNAMES
290
     1
  9
$PSVPSCALE
 40
0.0
  9
$OLESTARTUP
290
     0
  0
ENDSEC
  0
SECTION
  2
CLASSES
  0
CLASS
  1
ACDBDICTIONARYWDFLT
  2
AcDbDictionaryWithDefault
  3
ObjectDBX Classes
 90
        0
280
     0
281
     0
  0
CLASS
  1
VISUALSTYLE
  2
AcDbVisualStyle
  3
ObjectDBX Classes
 90
     4095
280
     0
281
     0
  0
CLASS
  1
MATERIAL
  2
AcDbMaterial
  3
ObjectDBX Classes
 90
     1153
280
     0
281
     0
  0
CLASS
  1
SCALE
  2
AcDbScale
  3
ObjectDBX Classes
 90
     1153
280
     0
281
     0
  0
CLASS
  1
TABLESTYLE
  2
AcDbTableStyle
  3
ObjectDBX Classes
 90
     4095
280
     0
281
     0
  0
CLASS
  1
MLEADERSTYLE
  2
AcDbMLeaderStyle
  3
ACDB_MLEADERSTYLE_CLASS
 90
     4095
280
     0
281
     0
  0
CLASS
  1
SUN
  2
AcDbSun
  3
SCENEOE
 90
     1153
280
     0
281
     0
  0
CLASS
  1
ACDBPLACEHOLDER
  2
AcDbPlaceHolder
  3
ObjectDBX Classes
 90
        0
280
     0
281
     0
  0
CLASS
  1
LAYOUT
  2
AcDbLayout
  3
ObjectDBX Classes
 90
        0
280
     0
281
     0
  0
ENDSEC
  0
SECTION
  2
TABLES
  0
TABLE
  2
VPORT
  5
8
330
0
100
AcDbSymbolTable
 70
     1
  0
VPORT
  5
29
330
8
100
AcDbSymbolTableRecord
100
AcDbViewportTableRecord
  2
*Active
 70
     0
 10
0.0
 20
0.0
 11
1.0
 21
1.0
 12
-154.9784393105
 22
-63.2121346432
 13
0.0
 23
0.0
 14
0.5
 24
0.5
 15
0.5
 25
0.5
 16
0.0
 26
0.0
 36
1.0
 17
0.0
 27
0.0
 37
0.0
 40
74.9431806514
 41
2.7544120942
 42
50.0
 43
0.0
 44
0.0
 50
0.0
 51
0.0
 71
     0
 72
   100
 73
     1
 74
     3
 75
     0
 76
     0
 77
     0
 78
     0
281
     0
 65
     1
110
0.0
120
0.0
130
0.0
111
1.0
121
0.0
131
0.0
112
0.0
122
1.0
132
0.0
 79
     0
146
0.0
  0
ENDTAB
  0
TABLE
  2
LTYPE
  5
5
330
0
100
AcDbSymbolTable
 70
     6
  0
LTYPE
  5
14
330
5
100
AcDbSymbolTableRecord
100
AcDbLinetypeTableRecord
  2
ByBlock
 70
     0
  3

 72
    65
 73
     0
 40
0.0
  0
LTYPE
  5
15
330
5
100
AcDbSymbolTableRecord
100
AcDbLinetypeTableRecord
  2
ByLayer
 70
     0
  3

 72
    65
 73
     0
 40
0.0
  0
LTYPE
  5
16
330
5
100
AcDbSymbolTableRecord
100
AcDbLinetypeTableRecord
  2
Continuous
 70
     0
  3
Solid line
 72
    65
 73
     0
 40
0.0
  0
LTYPE
  5
6E
330
5
100
AcDbSymbolTableRecord
100
AcDbLinetypeTableRecord
  2
HIDDEN
 70
     0
  3
Hidden __ __ __ __ __ __ __ __ __ __ __ __ __ __
 72
    65
 73
     2
 40
0.075
 49
0.05
 74
     0
 49
-0.025
 74
     0
  0
LTYPE
  5
6F
330
5
100
AcDbSymbolTableRecord
100
AcDbLinetypeTableRecord
  2
PHANTOM
 70
     0
  3
Phantom ______  __  __  ______  __  __  ______
 72
    65
 73
     6
 40
0.5
 49
0.25
 74
     0
 49
-0.05
 74
     0
 49
0.05
 74
     0
 49
-0.05
 74
     0
 49
0.05
 74
     0
 49
-0.05
 74
     0
  0
LTYPE
  5
70
330
5
100
AcDbSymbolTableRecord
100
AcDbLinetypeTableRecord
  2
CENTER
 70
     0
  3
Center ____ _ ____ _ ____ _ ____ _ ____ _ ____
 72
    65
 73
     4
 40
0.4
 49
0.25
 74
     0
 49
-0.05
 74
     0
 49
0.05
 74
     0
 49
-0.05
 74
     0
  0
LTYPE
  5
71
330
5
100
AcDbSymbolTableRecord
100
AcDbLinetypeTableRecord
  2
CENTERX2
 70
     0
  3
Center (2x) ________  __  ________  __  _____
 72
    65
 73
     4
 40
0.8
 49
0.5
 74
     0
 49
-0.1
 74
     0
 49
0.1
 74
     0
 49
-0.1
 74
     0
  0
LTYPE
  5
72
330
5
100
AcDbSymbolTableRecord
100
AcDbLinetypeTableRecord
  2
DOT2
 70
     0
  3
Dot (.5x) ........................................
 72
    65
 73
     2
 40
0.025
 49
0.0
 74
     0
 49
-0.025
 74
     0
  0
ENDTAB
  0
TABLE
  2
LAYER
  5
2
330
0
100
AcDbSymbolTable
 70
     1
  0
LAYER
  5
10
330
2
100
AcDbSymbolTableRecord
100
AcDbLayerTableRecord
  2
0
 70
     0
 62
     7
  6
Continuous
370
    -3
390
F
  0
ENDTAB
  0
TABLE
  2
STYLE
  5
3
330
0
100
AcDbSymbolTable
 70
     2
  0
STYLE
  5
11
330
3
100
AcDbSymbolTableRecord
100
AcDbTextStyleTableRecord
  2
Standard
 70
     0
 40
0.0
 41
1.0
 50
0.0
 71
     0
 42
0.1377952756
  3
txt
  4

  0
STYLE
  5
95
330
3
100
AcDbSymbolTableRecord
100
AcDbTextStyleTableRecord
  2
SLDTEXTSTYLE0
 70
     0
 40
0.0
 41
0.7
 50
0.0
 71
     0
 42
0.1377952756
  3
TXT
  4

  0
ENDTAB
  0
TABLE
  2
VIEW
  5
6
330
0
100
AcDbSymbolTable
 70
     0
  0
ENDTAB
  0
TABLE
  2
UCS
  5
7
330
0
100
AcDbSymbolTable
 70
     0
  0
ENDTAB
  0
TABLE
  2
APPID
  5
9
330
0
100
AcDbSymbolTable
 70
     1
  0
APPID
  5
12
330
9
100
AcDbSymbolTableRecord
100
AcDbRegAppTableRecord
  2
ACAD
 70
     0
  0
ENDTAB
  0
TABLE
  2
DIMSTYLE
  5
A
330
0
100
AcDbSymbolTable
 70
     1
100
AcDbDimStyleTable
  0
DIMSTYLE
105
27
330
A
100
AcDbSymbolTableRecord
100
AcDbDimStyleTableRecord
  2
Standard
 70
     0
178
     0
340
11
  0
ENDTAB
  0
TABLE
  2
BLOCK_RECORD
  5
1
330
0
100
AcDbSymbolTable
 70
     1
  0
BLOCK_RECORD
  5
1F
330
1
100
AcDbSymbolTableRecord
100
AcDbBlockTableRecord
  2
*Model_Space
340
22
  0
BLOCK_RECORD
  5
1B
330
1
100
AcDbSymbolTableRecord
100
AcDbBlockTableRecord
  2
*Paper_Space
340
1E
  0
BLOCK_RECORD
  5
23
330
1
100
AcDbSymbolTableRecord
100
AcDbBlockTableRecord
  2
*Paper_Space0
340
26
  0
ENDTAB
  0
ENDSEC
  0
SECTION
  2
BLOCKS
  0
BLOCK
  5
20
330
1F
100
AcDbEntity
  8
0
100
AcDbBlockBegin
  2
*Model_Space
 70
     0
 10
0.0
 20
0.0
 30
0.0
  3
*Model_Space
  1

  0
ENDBLK
  5
21
330
1F
100
AcDbEntity
  8
0
100
AcDbBlockEnd
  0
BLOCK
  5
1C
330
1B
100
AcDbEntity
 67
     1
  8
0
100
AcDbBlockBegin
  2
*Paper_Space
 70
     0
 10
0.0
 20
0.0
 30
0.0
  3
*Paper_Space
  1

  0
ENDBLK
  5
1D
330
1B
100
AcDbEntity
 67
     1
  8
0
100
AcDbBlockEnd
  0
BLOCK
  5
24
330
23
100
AcDbEntity
  8
0
100
AcDbBlockBegin
  2
*Paper_Space0
 70
     0
 10
0.0
 20
0.0
 30
0.0
  3
*Paper_Space0
  1

  0
ENDBLK
  5
25
330
23
100
AcDbEntity
  8
0
100
AcDbBlockEnd
  0
ENDSEC
  0
SECTION
  2
ENTITIES
  0
SPLINE
  5
73
330
1F
100
AcDbEntity
  8
0
  6
Continuous
 62
     7
370
    25
100
AcDbSpline
210
0.0
220
0.0
230
1.0
 70
     8
 71
     3
 72
    13
 73
     9
 74
     0
 42
0.00000001
 43
0.00000001
 40
-0.0000000004901983
 40
-0.0000000004901983
 40
-0.0000000004901983
 40
-0.0000000004901983
 40
0.1250642371189857
 40
0.2501284747281697
 40
0.3751927123373537
 40
0.5002569499465378
 40
0.7503854251649058
 40
1.000513900383274
 40
1.000513900383274
 40
1.000513900383274
 40
1.000513900383274
 10
-127.5403644580538
 20
-31.89223210198631
 30
0.0
 10
-128.646082486372
 20
-31.7506916678808
 30
0.0
 10
-130.8592674641088
 20
-31.48559908390566
 30
0.0
 10
-134.1878584971394
 20
-31.13568619798948
 30
0.0
 10
-137.5216107899832
 20
-30.82902017061475
 30
0.0
 10
-141.9696829638671
 20
-30.47969449324247
 30
0.0
 10
-147.534168719013
 20
-30.15777424796949
 30
0.0
 10
-151.9920413782204
 20
-30.02675003415957
 30
0.0
 10
-154.2212638688648
 20
-29.99469530543527
 30
0.0
  0
LINE
  5
74
330
1F
100
AcDbEntity
  8
0
  6
Continuous
 62
     7
370
    25
100
AcDbLine
 10
-127.4141697914
 20
-31.908430762
 30
0.0
 11
-127.5403644581
 21
-31.892232102
 31
0.0
  0
SPLINE
  5
75
330
1F
100
AcDbEntity
  8
0
  6
Continuous
 62
     7
370
    25
100
AcDbSpline
210
0.0
220
0.0
230
1.0
 70
     8
 71
     3
 72
    80
 73
    76
 74
     0
 42
0.00000001
 43
0.00000001
 40
0.0000107524323763
 40
0.0000107524323763
 40
0.0000107524323763
 40
0.0000107524323763
 40
0.000499023548738
 40
0.0009872946650998
 40
0.0019638368978233
 40
0.0029403791305468
 40
0.0039169213632703
 40
0.0058700058287173
 40
0.0078230902941643
 40
0.0117292592250583
 40
0.0156354281559523
 40
0.0195415970868463
 40
0.0234477660177403
 40
0.0273539349486343
 40
0.0312601038795283
 40
0.0390724417413164
 40
0.0468847796031044
 40
0.0546971174648924
 40
0.0625094553266804
 40
0.0781341310502564
 40
0.0937588067738325
 40
0.1015711446356205
 40
0.1093834824974085
 40
0.1250081582209845
 40
0.1406328339445606
 40
0.1562575096681366
 40
0.1718821853917126
 40
0.1875068611152887
 40
0.2031315368388647
 40
0.2109438747006527
 40
0.2187562125624407
 40
0.2343808882860167
 40
0.2500055640095928
 40
0.2656302397331688
 40
0.2812549154567449
 40
0.3125042669038969
 40
0.343753618351049
 40
0.375002969798201
 40
0.4062523212453531
 40
0.4375016726925052
 40
0.4531263484160812
 40
0.4687510241396572
 40
0.5000003755868093
 40
0.5312497270339613
 40
0.5624990784811135
 40
0.5937484299282655
 40
0.6093731056518414
 40
0.6249977813754175
 40
0.6406224570989936
 40
0.6562471328225696
 40
0.6874964842697217
 40
0.7187458357168737
 40
0.7343705114404497
 40
0.7499951871640258
 40
0.7656198628876019
 40
0.7812445386111779
 40
0.796869214334754
 40
0.81249389005833
 40
0.8281185657819059
 40
0.843743241505482
 40
0.8749925929526341
 40
0.9062419443997862
 40
0.9218666201233623
 40
0.9374912958469382
 40
0.9453036337087262
 40
0.9531159715705142
 40
0.9609283094323022
 40
0.9687406472940903
 40
0.9765529851558783
 40
0.9843653230176663
 40
0.9882714919485603
 40
0.9921776608794544
 40
0.9960838298103484
 40
0.9980369142757954
 40
0.9999899987412424
 40
0.9999899987412424
 40
0.9999899987412424
 40
0.9999899987412424
 10
-63.55156616970868
 20
-55.43917528058971
 30
0.0
 10
-63.56416972667602
 20
-55.43052470180782
 30
0.0
 10
-63.58962776263946
 20
-55.41305541976614
 30
0.0
 10
-63.63855939229561
 20
-55.37949526934933
 30
0.0
 10
-63.69737305116499
 20
-55.33918929665528
 30
0.0
 10
-63.76375492356416
 20
-55.29374991765922
 30
0.0
 10
-63.84675425827692
 20
-55.23701083257025
 30
0.0
 10
-63.94039453895115
 20
-55.17314467978334
 30
0.0
 10
-64.0661457670841
 20
-55.08774135955761
 30
0.0
 10
-64.22576914135517
 20
-54.97974128544462
 30
0.0
 10
-64.41455214185703
 20
-54.85269849500632
 30
0.0
 10
-64.60337936908773
 20
-54.72630040449022
 30
0.0
 10
-64.79279059831114
 20
-54.60018512410306
 30
0.0
 10
-64.98271324284478
 20
-54.47440088123624
 30
0.0
 10
-65.23683686059705
 20
-54.30698819355302
 30
0.0
 10
-65.55578102385752
 20
-54.09853955495293
 30
0.0
 10
-65.94012114942373
 20
-53.85001256780188
 30
0.0
 10
-66.32606438107494
 20
-53.603099999817
 30
0.0
 10
-66.84247516795789
 20
-53.27624171388332
 30
0.0
 10
-67.49201619671557
 20
-52.87171334948481
 30
0.0
 10
-68.14278570375295
 20
-52.47509636168074
 30
0.0
 10
-68.66475831480393
 20
-52.16218047621079
 30
0.0
 10
-69.18613668714714
 20
-51.85306483671774
 30
0.0
 10
-69.85092637546995
 20
-51.46545201904225
 30
0.0
 10
-70.67017414088541
 20
-50.99802076988252
 30
0.0
 10
-71.51399025862459
 20
-50.52656634391138
 30
0.0
 10
-72.39061638859135
 20
-50.0463929861622
 30
0.0
 10
-73.29811165833767
 20
-49.55863979034503
 30
0.0
 10
-74.07983535445938
 20
-49.14598834713046
 30
0.0
 10
-74.72193485658538
 20
-48.81140301328262
 30
0.0
 10
-75.36703443051587
 20
-48.47816159536421
 30
0.0
 10
-76.17846233018253
 20
-48.06443671794759
 30
0.0
 10
-77.16055811528175
 20
-47.57233632063019
 30
0.0
 10
-78.15056312268995
 20
-47.08485008480438
 30
0.0
 10
-79.48325109838288
 20
-46.43993487373798
 30
0.0
 10
-81.18433612913068
 20
-45.6372641214348
 30
0.0
 10
-83.28454250783692
 20
-44.67860950359344
 30
0.0
 10
-85.39238163001666
 20
-43.74871485101175
 30
0.0
 10
-87.51250700943879
 20
-42.84540616159777
 30
0.0
 10
-89.27793331584797
 20
-42.1197923799119
 30
0.0
 10
-90.69149439722023
 20
-41.55473196060112
 30
0.0
 10
-92.09905303034664
 20
-41.00266142992293
 30
0.0
 10
-93.84750337962984
 20
-40.33678682028156
 30
0.0
 10
-95.93120867469179
 20
-39.57535461829712
 30
0.0
 10
-98.01089467522785
 20
-38.84783281887623
 30
0.0
 10
-99.73838827503599
 20
-38.27059705294282
 30
0.0
 10
-101.1176719326016
 20
-37.8260064090217
 30
0.0
 10
-102.1500360465041
 20
-37.50139622833273
 30
0.0
 10
-103.1830992697837
 20
-37.18473860766474
 30
0.0
 10
-104.571583255208
 20
-36.76995442320957
 30
0.0
 10
-106.323595358195
 20
-36.26676304005105
 30
0.0
 10
-108.0987425097117
 20
-35.78358652942183
 30
0.0
 10
-109.5323049008752
 20
-35.40917599043542
 30
0.0
 10
-110.6153131482164
 20
-35.13418914118753
 30
0.0
 10
-111.7004173234008
 20
-34.86627655924664
 30
0.0
 10
-112.7810983715853
 20
-34.60689894354943
 30
0.0
 10
-113.8587133433184
 20
-34.3557564857748
 30
0.0
 10
-114.9343510324787
 20
-34.11257787296284
 30
0.0
 10
-116.0016045036403
 20
-33.87890268831867
 30
0.0
 10
-117.4112956335041
 20
-33.58053621722983
 30
0.0
 10
-119.1473990418677
 20
-33.23246269248331
 30
0.0
 10
-120.8574867421281
 20
-32.91587900236154
 30
0.0
 10
-122.2128647366128
 20
-32.68092338264506
 30
0.0
 10
-123.0536144418666
 20
-32.54188482468187
 30
0.0
 10
-123.7253791643746
 20
-32.4348715172658
 30
0.0
 10
-124.2313955820991
 20
-32.3563150799235
 30
0.0
 10
-124.7388746858516
 20
-32.27957550822698
 30
0.0
 10
-125.2481278068509
 20
-32.20460674183095
 30
0.0
 10
-125.7586403860974
 20
-32.13148175270373
 30
0.0
 10
-126.1841909966934
 20
-32.07220252571594
 30
0.0
 10
-126.525337483297
 20
-32.02569924939851
 30
0.0
 10
-126.802584940881
 20
-31.98854726461784
 30
0.0
 10
-127.0486294291061
 20
-31.95605946561277
 30
0.0
 10
-127.2540350528304
 20
-31.92920951008382
 30
0.0
 10
-127.3611571549488
 20
-31.9152957340417
 30
0.0
 10
-127.4141697914022
 20
-31.90843076202265
 30
0.0
  0
SPLINE
  5
76
330
1F
100
AcDbEntity
  8
0
  6
Continuous
 62
     7
370
    25
100
AcDbSpline
210
0.0
220
0.0
230
1.0
 70
     8
 71
     2
 72
    78
 73
    75
 74
     0
 42
0.00000001
 43
0.00000001
 40
0.0006758158709743
 40
0.0006758158709743
 40
0.0006758158709743
 40
0.047514806450628
 40
0.0787408001703972
 40
0.102160295460224
 40
0.1177732923201086
 40
0.1333862891799932
 40
0.1489992860398778
 40
0.1724187813297046
 40
0.2192577719093584
 40
0.2660967624890122
 40
0.2895162577788389
 40
0.3051292546387235
 40
0.316839002283637
 40
0.3246455007135793
 40
0.3363552483584927
 40
0.3519682452183773
 40
0.3636779928632908
 40
0.3695328666857475
 40
0.3734361159007186
 40
0.3773393651156898
 40
0.3812426143306609
 40
0.3870974881531176
 40
0.398807235798031
 40
0.4144202326579156
 40
0.4261299803028291
 40
0.4319848541252858
 40
0.435888103340257
 40
0.4397913525552281
 40
0.4436946017701993
 40
0.449549475592656
 40
0.4612592232375694
 40
0.4768722200974539
 40
0.4924852169573385
 40
0.5080982138172231
 40
0.5237112106771077
 40
0.5471307059669346
 40
0.5783566996867038
 40
0.6017761949765307
 40
0.6134859426214441
 40
0.6193408164439007
 40
0.6232440656588718
 40
0.6271473148738431
 40
0.6310505640888142
 40
0.6369054379112709
 40
0.6486151855561842
 40
0.6720346808460111
 40
0.695454176135838
 40
0.7110671729957226
 40
0.7266801698556072
 40
0.7383899175005206
 40
0.7442447913229775
 40
0.7481480405379486
 40
0.7520512897529197
 40
0.7559545389678908
 40
0.7618094127903476
 40
0.773519160435261
 40
0.7891321572951456
 40
0.8047451541550301
 40
0.8203581510149147
 40
0.8359711478747992
 40
0.8515841447346838
 40
0.8632938923795972
 40
0.8691487662020541
 40
0.8720762031132824
 40
0.8740278277207679
 40
0.8759794523282535
 40
0.877931076935739
 40
0.8808585138469673
 40
0.8867133876694242
 40
0.8984231353143376
 40
0.9140361321742222
 40
0.9296491290341068
 40
0.9530686243239337
 40
0.9999076149035874
 40
0.9999076149035874
 40
0.9999076149035874
 10
-57.45163714128545
 20
-61.85718515172368
 30
0.0
 10
-57.50310706620556
 20
-61.6849399873016
 30
0.0
 10
-57.6112178180884
 20
-61.39055702866279
 30
0.0
 10
-57.69766566991036
 20
-61.18093264871764
 30
0.0
 10
-57.76518933160381
 20
-61.02952302655076
 30
0.0
 10
-57.8228337645043
 20
-60.90647967508154
 30
0.0
 10
-57.88046080254516
 20
-60.78898324286752
 30
0.0
 10
-57.95517749750406
 20
-60.64316470778861
 30
0.0
 10
-58.09575958555606
 20
-60.38599771467815
 30
0.0
 10
-58.29981555941228
 20
-60.05601539035943
 30
0.0
 10
-58.46603410299358
 20
-59.81758692714207
 30
0.0
 10
-58.56108351898425
 20
-59.68926675389451
 30
0.0
 10
-58.62962342342806
 20
-59.60038454764152
 30
0.0
 10
-58.67717079642027
 20
-59.54049354439301
 30
0.0
 10
-58.72665330961828
 20
-59.47928022563518
 30
0.0
 10
-58.7990200152727
 20
-59.39211015916958
 30
0.0
 10
-58.87566368471924
 20
-59.30285593603428
 30
0.0
 10
-58.92700493956059
 20
-59.24450210452796
 30
0.0
 10
-58.9560551517451
 20
-59.21186904300839
 30
0.0
 10
-58.97980345235069
 20
-59.18540229138215
 30
0.0
 10
-59.00048273651861
 20
-59.16251981257269
 30
0.0
 10
-59.02753874362785
 20
-59.13277144923265
 30
0.0
 10
-59.07729083027418
 20
-59.07860015793661
 30
0.0
 10
-59.15871536589938
 20
-58.99156989427018
 30
0.0
 10
-59.24533070357402
 20
-58.90111608425783
 30
0.0
 10
-59.30352771090397
 20
-58.84132664297901
 30
0.0
 10
-59.33649907488341
 20
-58.8077169488799
 30
0.0
 10
-59.36347413408583
 20
-58.78036378590564
 30
0.0
 10
-59.38796047885396
 20
-58.75564730555329
 30
0.0
 10
-59.41929081251296
 20
-58.72415095883508
 30
0.0
 10
-59.4759596592809
 20
-58.66753989094319
 30
0.0
 10
-59.56558704930243
 20
-58.5791067707649
 30
0.0
 10
-59.66997407330658
 20
-58.47776619124824
 30
0.0
 10
-59.77735049678252
 20
-58.3751870639318
 30
0.0
 10
-59.88125996722572
 20
-58.27744774632981
 30
0.0
 10
-60.01361014356409
 20
-58.15482387302117
 30
0.0
 10
-60.2017665159743
 20
-57.9844200416544
 30
0.0
 10
-60.39413821159452
 20
-57.81534910260582
 30
0.0
 10
-60.51979534948981
 20
-57.7073501211241
 30
0.0
 10
-60.58315712747384
 20
-57.65349381448907
 30
0.0
 10
-60.61842568882229
 20
-57.62368100427856
 30
0.0
 10
-60.64705334945446
 20
-57.59957256426114
 30
0.0
 10
-60.67288355893574
 20
-57.57789697563462
 30
0.0
 10
-60.70601751283665
 20
-57.55018438299467
 30
0.0
 10
-60.76604581090454
 20
-57.50023217064408
 30
0.0
 10
-60.88851303452315
 20
-57.39932690467106
 30
0.0
 10
-61.05794888021291
 20
-57.26237498504943
 30
0.0
 10
-61.20427154503643
 20
-57.14625684952165
 30
0.0
 10
-61.32405823986969
 20
-57.05231205374044
 30
0.0
 10
-61.43122349894429
 20
-56.96922340724097
 30
0.0
 10
-61.50133300009112
 20
-56.9153201848721
 30
0.0
 10
-61.54042343686102
 20
-56.88538864253397
 30
0.0
 10
-61.57269139565136
 20
-56.86075104899192
 30
0.0
 10
-61.59941101159241
 20
-56.84040077295237
 30
0.0
 10
-61.63426264173999
 20
-56.81391391421452
 30
0.0
 10
-61.69725173788787
 20
-56.76620526007853
 30
0.0
 10
-61.79732955468888
 20
-56.69090120358577
 30
0.0
 10
-61.91464614528321
 20
-56.60337222026662
 30
0.0
 10
-62.03493629810431
 20
-56.51435530814989
 30
0.0
 10
-62.15818450035454
 20
-56.42386534074098
 30
0.0
 10
-62.28438133109704
 20
-56.33191206921349
 30
0.0
 10
-62.39738867216522
 20
-56.25017138164415
 30
0.0
 10
-62.4712458194096
 20
-56.1970332116087
 30
0.0
 10
-62.50854640737276
 20
-56.17026680223515
 30
0.0
 10
-62.52920192018821
 20
-56.15546366514013
 30
0.0
 10
-62.54648737058305
 20
-56.14308690953975
 30
0.0
 10
-62.55956340281611
 20
-56.13373183362169
 30
0.0
 10
-62.57689675989461
 20
-56.12133965172487
 30
0.0
 10
-62.60803505277985
 20
-56.09910322816205
 30
0.0
 10
-62.67130851991962
 20
-56.05401785173482
 30
0.0
 10
-62.77238626971759
 20
-55.98230186737653
 30
0.0
 10
-62.89201087448784
 20
-55.8978834848417
 30
0.0
 10
-63.04663874391426
 20
-55.7893176558667
 30
0.0
 10
-63.33868834130159
 20
-55.58571980814845
 30
0.0
 10
-63.55156616970868
 20
-55.43917528058972
 30
0.0
  0
SPLINE
  5
77
330
1F
100
AcDbEntity
  8
0
  6
Continuous
 62
     7
370
    25
100
AcDbSpline
210
0.0
220
0.0
230
1.0
 70
     8
 71
     3
 72
    28
 73
    24
 74
     0
 42
0.00000001
 43
0.00000001
 40
0.0023835454482851
 40
0.0023835454482851
 40
0.0023835454482851
 40
0.0023835454482851
 40
0.0644017664906757
 40
0.1264199875330663
 40
0.1884382085754569
 40
0.2194473190966522
 40
0.2504564296178475
 40
0.2814655401390428
 40
0.3124746506602382
 40
0.3744928717026287
 40
0.4985293137874099
 40
0.5605475348298006
 40
0.6225657558721911
 40
0.6845839769145817
 40
0.7466021979569724
 40
0.808620418999363
 40
0.8396295295205582
 40
0.8551340847811559
 40
0.8706386400417536
 40
0.9016477505629489
 40
0.9326568610841441
 40
0.9636659716053395
 40
0.9946750821265348
 40
0.9946750821265348
 40
0.9946750821265348
 40
0.9946750821265348
 10
-57.31450779270543
 20
-62.5985925039589
 30
0.0
 10
-57.3162734840472
 20
-62.57973386751058
 30
0.0
 10
-57.32007513041305
 20
-62.54089342322914
 30
0.0
 10
-57.32560120997447
 20
-62.48951019976176
 30
0.0
 10
-57.33016318062033
 20
-62.45071393074658
 30
0.0
 10
-57.33382756414568
 20
-62.42172840469149
 30
0.0
 10
-57.33626364542172
 20
-62.40327173871164
 30
0.0
 10
-57.33968928594892
 20
-62.3784985200849
 30
0.0
 10
-57.3441328903681
 20
-62.34779255974053
 30
0.0
 10
-57.35253738496075
 20
-62.29311413405929
 30
0.0
 10
-57.36298345282378
 20
-62.23240461123662
 30
0.0
 10
-57.37493604167997
 20
-62.1697498683781
 30
0.0
 10
-57.38421968844721
 20
-62.12420580658758
 30
0.0
 10
-57.39388107851824
 20
-62.07963573174936
 30
0.0
 10
-57.40392841920539
 20
-62.03598414836139
 30
0.0
 10
-57.41278108334929
 20
-61.99975598192529
 30
0.0
 10
-57.41905783384433
 20
-61.97510377333519
 30
0.0
 10
-57.42323221723019
 20
-61.95907705356964
 30
0.0
 10
-57.42582857958077
 20
-61.94924838889079
 30
0.0
 10
-57.43018072611326
 20
-61.9330804250568
 30
0.0
 10
-57.43628815324593
 20
-61.91098200744527
 30
0.0
 10
-57.4433394541437
 20
-61.88597839371449
 30
0.0
 10
-57.44892462911776
 20
-61.86654683131229
 30
0.0
 10
-57.45163714128549
 20
-61.85718515172353
 30
0.0
  0
SPLINE
  5
78
330
1F
100
AcDbEntity
  8
0
  6
Continuous
 62
     7
370
    25
100
AcDbSpline
210
0.0
220
0.0
230
1.0
 70
     8
 71
     3
 72
    14
 73
    10
 74
     0
 42
0.00000001
 43
0.00000001
 40
0.000078171539375
 40
0.000078171539375
 40
0.000078171539375
 40
0.000078171539375
 40
0.004824581934453
 40
0.0095709923295309
 40
0.0190638131196869
 40
0.0238102235147649
 40
0.0285566339098429
 40
0.0333030443049209
 40
0.0380494546999989
 40
0.0380494546999989
 40
0.0380494546999989
 40
0.0380494546999989
 10
-57.31451812006815
 20
-63.82536593054873
 30
0.0
 10
-57.3101467305559
 20
-63.77659058157443
 30
0.0
 10
-57.30289057445746
 20
-63.68012724892149
 30
0.0
 10
-57.29271386802944
 20
-63.47716046746767
 30
0.0
 10
-57.28909789609423
 20
-63.26648283946651
 30
0.0
 10
-57.29091934506912
 20
-63.05063414958176
 30
0.0
 10
-57.29521298959585
 20
-62.89552247770652
 30
0.0
 10
-57.30281953745842
 20
-62.74400869965239
 30
0.0
 10
-57.31012395862355
 20
-62.64737316768433
 30
0.0
 10
-57.31450779270543
 20
-62.59859250395888
 30
0.0
  0
SPLINE
  5
79
330
1F
100
AcDbEntity
  8
0
  6
Continuous
 62
     7
370
    25
100
AcDbSpline
210
0.0
220
0.0
230
1.0
 70
     8
 71
     3
 72
    34
 73
    30
 74
     0
 42
0.00000001
 43
0.00000001
 40
0.0049469750711861
 40
0.0049469750711861
 40
0.0049469750711861
 40
0.0049469750711861
 40
0.035961739134391
 40
0.0669765031975958
 40
0.0979912672608007
 40
0.1134986492924031
 40
0.1212523403082044
 40
0.125129185816105
 40
0.1290060313240056
 40
0.144513413355608
 40
0.1600207953872104
 40
0.1910355594504153
 40
0.2220503235136201
 40
0.253065087576825
 40
0.3150946157032347
 40
0.3771241438296444
 40
0.5011832000824639
 40
0.5632127282088736
 40
0.6252422563352833
 40
0.687271784461693
 40
0.7182865485248979
 40
0.7337939305565003
 40
0.7493013125881027
 40
0.7648086946197051
 40
0.7803160766513075
 40
0.8113308407145124
 40
0.8733603688409222
 40
0.935389896967332
 40
0.9974194250937417
 40
0.9974194250937417
 40
0.9974194250937417
 40
0.9974194250937417
 10
-57.45157153541716
 20
-64.56671558099241
 30
0.0
 10
-57.44861937640375
 20
-64.55650817791525
 30
0.0
 10
-57.44241342559373
 20
-64.53490880058307
 30
0.0
 10
-57.43523959624174
 20
-64.50952339107118
 30
0.0
 10
-57.43040282470409
 20
-64.49205636408668
 30
0.0
 10
-57.42794188245828
 20
-64.48300817898945
 30
0.0
 10
-57.4267626668882
 20
-64.47862004104857
 30
0.0
 10
-57.42637583920344
 20
-64.47717413666268
 30
0.0
 10
-57.42462088174026
 20
-64.47058763482751
 30
0.0
 10
-57.42252685326374
 20
-64.46265848027514
 30
0.0
 10
-57.41854288083479
 20
-64.44739797953727
 30
0.0
 10
-57.41387734463452
 20
-64.42915550565384
 30
0.0
 10
-57.40846541128916
 20
-64.40741422239816
 30
0.0
 10
-57.40152823762631
 20
-64.3787330108529
 30
0.0
 10
-57.39308122838876
 20
-64.34223334078203
 30
0.0
 10
-57.38027239735493
 20
-64.28344186359193
 30
0.0
 10
-57.36815913408774
 20
-64.22204964098398
 30
0.0
 10
-57.35775134969418
 20
-64.16348518072581
 30
0.0
 10
-57.35021743037667
 20
-64.11784426636066
 30
0.0
 10
-57.34433126277733
 20
-64.07924178307847
 30
0.0
 10
-57.34035684231681
 20
-64.05147686370171
 30
0.0
 10
-57.33819611818638
 20
-64.03590320316341
 30
0.0
 10
-57.33644585364824
 20
-64.02298298704106
 30
0.0
 10
-57.33524743257391
 20
-64.01392966099166
 30
0.0
 10
-57.33343320701962
 20
-63.99993430866395
 30
0.0
 10
-57.3303055633841
 20
-63.97493394054733
 30
0.0
 10
-57.32568077856437
 20
-63.93539426023754
 30
0.0
 10
-57.32013915979705
 20
-63.88362771326447
 30
0.0
 10
-57.3163018922788
 20
-63.84440102424671
 30
0.0
 10
-57.31451812006817
 20
-63.82536593054878
 30
0.0
  0
SPLINE
  5
7A
330
1F
100
AcDbEntity
  8
0
  6
Continuous
 62
     7
370
    25
100
AcDbSpline
210
0.0
220
0.0
230
1.0
 70
     8
 71
     2
 72
    78
 73
    75
 74
     0
 42
0.00000001
 43
0.00000001
 40
0.0000881401219374
 40
0.0000881401219374
 40
0.0000881401219374
 40
0.04692678273676
 40
0.0703461040441712
 40
0.0859589849157787
 40
0.1015718657873863
 40
0.1132815264410919
 40
0.1191363567679447
 40
0.1220637719313711
 40
0.124015382040322
 40
0.125966992149273
 40
0.1279186022582239
 40
0.1308460174216503
 40
0.1367008477485031
 40
0.1484105084022088
 40
0.1640233892738163
 40
0.1796362701454238
 40
0.1952491510170313
 40
0.2108620318886388
 40
0.2264749127602463
 40
0.2381845734139519
 40
0.2440394037408047
 40
0.2479426239587066
 40
0.2518458441766085
 40
0.2557490643945104
 40
0.2616038947213633
 40
0.2733135553750689
 40
0.2889264362466764
 40
0.3045393171182839
 40
0.3279586384256951
 40
0.3513779597331064
 40
0.363087620386812
 40
0.3689424507136648
 40
0.3728456709315667
 40
0.3767488911494685
 40
0.3806521113673704
 40
0.3865069416942233
 40
0.3982166023479289
 40
0.4216359236553402
 40
0.4528616853985552
 40
0.4762810067059665
 40
0.491893887577574
 40
0.5075067684491814
 40
0.523119649320789
 40
0.5387325301923966
 40
0.5504421908461021
 40
0.556297021172955
 40
0.5602002413908569
 40
0.5641034616087588
 40
0.5680066818266607
 40
0.5738615121535136
 40
0.585571172807219
 40
0.6011840536788267
 40
0.6128937143325321
 40
0.618748544659385
 40
0.6226517648772869
 40
0.6265549850951888
 40
0.6304582053130907
 40
0.6363130356399436
 40
0.6480226962936491
 40
0.6636355771652567
 40
0.6753452378189622
 40
0.683151678254766
 40
0.6948613389084717
 40
0.7104742197800791
 40
0.7338935410874904
 40
0.7807321837023129
 40
0.8275708263171354
 40
0.8509901476245467
 40
0.8666030284961541
 40
0.8822159093677617
 40
0.8978287902393691
 40
0.9212481115467804
 40
0.9524738732899954
 40
0.999312515904818
 40
0.999312515904818
 40
0.999312515904818
 10
-63.55154243816823
 20
-70.98497757638961
 30
0.0
 10
-63.3392197914162
 20
-70.83883042785014
 30
0.0
 10
-63.04737232839985
 20
-70.6353774425234
 30
0.0
 10
-62.89267948015532
 20
-70.52676521716833
 30
0.0
 10
-62.77290764668378
 20
-70.44224152171198
 30
0.0
 10
-62.67161680185855
 20
-70.37037301663892
 30
0.0
 10
-62.60816596956087
 20
-70.3251606422608
 30
0.0
 10
-62.57692753372702
 20
-70.30285250005241
 30
0.0
 10
-62.55953852116959
 20
-70.29042045418744
 30
0.0
 10
-62.54640311329475
 20
-70.28102285519547
 30
0.0
 10
-62.52913515034276
 20
-70.26865858229071
 30
0.0
 10
-62.50847197664953
 20
-70.25384991498585
 30
0.0
 10
-62.47116686400743
 20
-70.22708016721734
 30
0.0
 10
-62.3972971564008
 20
-70.17393274755179
 30
0.0
 10
-62.28427377278175
 20
-70.09217998834205
 30
0.0
 10
-62.15806128586618
 20
-70.00021455882325
 30
0.0
 10
-62.03480058224118
 20
-69.90971441754532
 30
0.0
 10
-61.91450102174519
 20
-69.82068927741746
 30
0.0
 10
-61.79717817228725
 20
-69.73315405907859
 30
0.0
 10
-61.6970975576498
 20
-69.65784623791406
 30
0.0
 10
-61.63410823735006
 20
-69.61013619964652
 30
0.0
 10
-61.59925629941465
 20
-69.58364838301523
 30
0.0
 10
-61.57253924742109
 20
-69.56329947645281
 30
0.0
 10
-61.54025869241681
 20
-69.53865156788868
 30
0.0
 10
-61.50114526535676
 20
-69.50870161815865
 30
0.0
 10
-61.43100053288142
 20
-69.45476992363514
 30
0.0
 10
-61.32379051287042
 20
-69.37164458759243
 30
0.0
 10
-61.20396976541283
 20
-69.27767084661473
 30
0.0
 10
-61.05762569826268
 20
-69.1615326543912
 30
0.0
 10
-60.88820278702259
 20
-69.02458624063173
 30
0.0
 10
-60.76577442512738
 20
-68.92370762372585
 30
0.0
 10
-60.70577336055974
 20
-68.87377483547621
 30
0.0
 10
-60.67265565955778
 20
-68.84607385011888
 30
0.0
 10
-60.64684398695751
 20
-68.8244121599182
 30
0.0
 10
-60.61820991152293
 20
-68.80029643960145
 30
0.0
 10
-60.58293025114543
 20
-68.77047203376023
 30
0.0
 10
-60.51955072406697
 20
-68.71659686817827
 30
0.0
 10
-60.39386222356121
 20
-68.60856426821884
 30
0.0
 10
-60.20145597709949
 20
-68.43945494481078
 30
0.0
 10
-60.01328586991306
 20
-68.26903323065116
 30
0.0
 10
-59.88093091716749
 20
-68.14640181348099
 30
0.0
 10
-59.77704731273888
 20
-68.04868508964525
 30
0.0
 10
-59.66955979259513
 20
-67.94599794746516
 30
0.0
 10
-59.56515176305576
 20
-67.84463316761465
 30
0.0
 10
-59.47555555424997
 20
-67.75622496227756
 30
0.0
 10
-59.41893494727142
 20
-67.69965647998616
 30
0.0
 10
-59.38763531136861
 20
-67.66818722458346
 30
0.0
 10
-59.36319333716116
 20
-67.64351223682864
 30
0.0
 10
-59.33617299300051
 20
-67.61610939312885
 30
0.0
 10
-59.30315203131654
 20
-67.58244499761918
 30
0.0
 10
-59.24488427591719
 20
-67.52257645366666
 30
0.0
 10
-59.15821766639345
 20
-67.43206134848887
 30
0.0
 10
-59.0768220520017
 20
-67.34505481873524
 30
0.0
 10
-59.02712983085413
 20
-67.29094320947817
 30
0.0
 10
-59.00011582028086
 20
-67.26123740946252
 30
0.0
 10
-58.97948869137015
 20
-67.23840956986723
 30
0.0
 10
-58.95572567542177
 20
-67.21192258807251
 30
0.0
 10
-58.92665309479928
 20
-67.17925989453728
 30
0.0
 10
-58.87528254127399
 20
-67.12086500747688
 30
0.0
 10
-58.79861986745469
 20
-67.03157711191986
 30
0.0
 10
-58.72627235947148
 20
-66.9444178186534
 30
0.0
 10
-58.67682176758444
 20
-66.88323376014701
 30
0.0
 10
-58.6293322826399
 20
-66.82340430641412
 30
0.0
 10
-58.56075097603934
 20
-66.73445130803564
 30
0.0
 10
-58.46569082561893
 20
-66.60609314777288
 30
0.0
 10
-58.29949682652781
 20
-66.36766099048637
 30
0.0
 10
-58.09543398563518
 20
-66.03760645157335
 30
0.0
 10
-57.95487164524882
 20
-65.78041812261164
 30
0.0
 10
-57.88016105119706
 20
-65.63457438285396
 30
0.0
 10
-57.82257617645745
 20
-65.51713437457279
 30
0.0
 10
-57.7647666362066
 20
-65.39370973737641
 30
0.0
 10
-57.69713848409056
 20
-65.24203319163249
 30
0.0
 10
-57.61065971283807
 20
-65.03228115075761
 30
0.0
 10
-57.50273797822091
 20
-64.73825129407214
 30
0.0
 10
-57.45157153541712
 20
-64.56671558099228
 30
0.0
  0
SPLINE
  5
7B
330
1F
100
AcDbEntity
  8
0
  6
Continuous
 62
     7
370
    25
100
AcDbSpline
210
0.0
220
0.0
230
1.0
 70
     8
 71
     3
 72
    78
 73
    74
 74
     0
 42
0.00000001
 43
0.00000001
 40
0.0000091650281282
 40
0.0000091650281282
 40
0.0000091650281282
 40
0.0000091650281282
 40
0.0019622504223521
 40
0.003915335816576
 40
0.0078215066050237
 40
0.0117276773934715
 40
0.0156338481819193
 40
0.0234461897588149
 40
0.0312585313357104
 40
0.039070872912606
 40
0.0468832144895015
 40
0.0625078976432927
 40
0.0781325807970838
 40
0.0937572639508749
 40
0.1250066302584572
 40
0.1562559965660394
 40
0.1718806797198306
 40
0.1875053628736217
 40
0.2031300460274128
 40
0.2187547291812039
 40
0.234379412334995
 40
0.2500040954887862
 40
0.2656287786425773
 40
0.2812534617963685
 40
0.3125028281039507
 40
0.3437521944115329
 40
0.359376877565324
 40
0.3750015607191152
 40
0.3906262438729063
 40
0.4062509270266974
 40
0.4375002933342796
 40
0.4687496596418619
 40
0.4999990259494442
 40
0.5312483922570265
 40
0.5468730754108175
 40
0.5624977585646087
 40
0.593747124872191
 40
0.6249964911797732
 40
0.6562458574873554
 40
0.6874952237949377
 40
0.7187445901025199
 40
0.734369273256311
 40
0.7499939564101021
 40
0.7656186395638933
 40
0.7812433227176844
 40
0.7890556642945799
 40
0.7968680058714754
 40
0.8124926890252666
 40
0.8281173721790578
 40
0.8437420553328489
 40
0.8593667384866399
 40
0.8749914216404311
 40
0.8906161047942223
 40
0.8984284463711179
 40
0.9062407879480133
 40
0.9218654711018044
 40
0.9374901542555956
 40
0.9453024958324912
 40
0.9531148374093867
 40
0.9609271789862823
 40
0.9687395205631779
 40
0.9726456913516257
 40
0.9765518621400735
 40
0.9804580329285213
 40
0.9843642037169691
 40
0.9882703745054169
 40
0.9902234598996408
 40
0.9921765452938647
 40
0.9941296306880886
 40
0.9960827160823125
 40
0.9980358014765363
 40
0.9990123441736483
 40
0.9999888868707602
 40
0.9999888868707602
 40
0.9999888868707602
 40
0.9999888868707602
 10
-127.4140804620207
 20
-94.51578535473654
 30
0.0
 10
-127.3623738469293
 20
-94.50909582549355
 30
0.0
 10
-127.258037817731
 20
-94.49555509011019
 30
0.0
 10
-127.0568127997037
 20
-94.46926812508754
 30
0.0
 10
-126.8143223450924
 20
-94.43726265157024
 30
0.0
 10
-126.5384499113286
 20
-94.40030735260709
 30
0.0
 10
-126.1948932334502
 20
-94.35350359175204
 30
0.0
 10
-125.7679378351536
 20
-94.29405826871609
 30
0.0
 10
-125.2564022222755
 20
-94.22082422726227
 30
0.0
 10
-124.7466762013768
 20
-94.14581722573507
 30
0.0
 10
-124.0689955576327
 20
-94.04337993812155
 30
0.0
 10
-123.2273799264716
 20
-93.91106145107308
 30
0.0
 10
-122.2177760573128
 20
-93.7441377307956
 30
0.0
 10
-120.860877041607
 20
-93.50896648724041
 30
0.0
 10
-119.1491024165749
 20
-93.1921035341791
 30
0.0
 10
-117.4113308648951
 20
-92.8437027204691
 30
0.0
 10
-116.0003867490583
 20
-92.54506461032695
 30
0.0
 10
-114.932218209687
 20
-92.31117629815756
 30
0.0
 10
-113.8557133805926
 20
-92.06778222386127
 30
0.0
 10
-112.7772754686241
 20
-91.81642458848096
 30
0.0
 10
-111.6958322189166
 20
-91.55683496903055
 30
0.0
 10
-110.6099545280319
 20
-91.2886973974803
 30
0.0
 10
-109.5264328904929
 20
-91.01353435045543
 30
0.0
 10
-108.0921212642467
 20
-90.63886170985624
 30
0.0
 10
-106.3157219867755
 20
-90.15526900770276
 30
0.0
 10
-104.5628477255588
 20
-89.65171858248122
 30
0.0
 10
-103.1736410171139
 20
-89.23662308518402
 30
0.0
 10
-102.1400757945682
 20
-88.91973315899155
 30
0.0
 10
-101.1071047483405
 20
-88.59484925303215
 30
0.0
 10
-99.72706405632933
 20
-88.14989908585532
 30
0.0
 10
-97.99863154859541
 20
-87.57219526347494
 30
0.0
 10
-95.91786890342117
 20
-86.84409552446243
 30
0.0
 10
-93.83309315657351
 20
-86.08205013832315
 30
0.0
 10
-92.08381106680473
 20
-85.4156672136238
 30
0.0
 10
-90.67570804188034
 20
-84.86322375124357
 30
0.0
 10
-89.26173068271088
 20
-84.29783143792058
 30
0.0
 10
-87.49598012335228
 20
-83.57187764472647
 30
0.0
 10
-85.3757200075859
 20
-82.66825476753115
 30
0.0
 10
-83.26799362809182
 20
-81.73815453887127
 30
0.0
 10
-81.16833984425739
 20
-80.77949598111304
 30
0.0
 10
-79.46803513858062
 20
-79.97698891106783
 30
0.0
 10
-78.1360129471023
 20
-79.33223022038685
 30
0.0
 10
-77.14648287349264
 20
-78.84485395332553
 30
0.0
 10
-76.16496953279255
 20
-78.35292500251958
 30
0.0
 10
-75.35411285498755
 20
-77.9393925930002
 30
0.0
 10
-74.7094648892033
 20
-77.60630455993068
 30
0.0
 10
-74.06802429726763
 20
-77.27198462128806
 30
0.0
 10
-73.2871985688716
 20
-76.85971529937977
 30
0.0
 10
-72.38076762350929
 20
-76.37242973788665
 30
0.0
 10
-71.50521938690903
 20
-75.89274758880826
 30
0.0
 10
-70.66252062662387
 20
-75.42182219065415
 30
0.0
 10
-69.84422265124323
 20
-74.95484295548336
 30
0.0
 10
-69.18027288957953
 20
-74.56765227145907
 30
0.0
 10
-68.65943759127708
 20
-74.25880885382716
 30
0.0
 10
-68.13799378949346
 20
-73.94616415639848
 30
0.0
 10
-67.48789950614587
 20
-73.5499082212383
 30
0.0
 10
-66.83904907574144
 20
-73.14576811648679
 30
0.0
 10
-66.32322162342084
 20
-72.81925204935521
 30
0.0
 10
-65.93772826273798
 20
-72.57261007316991
 30
0.0
 10
-65.55383929765411
 20
-72.32436033340849
 30
0.0
 10
-65.23529129420191
 20
-72.11616136250375
 30
0.0
 10
-64.98144416459587
 20
-71.94892418073461
 30
0.0
 10
-64.79164572599572
 20
-71.82321724475575
 30
0.0
 10
-64.60251246800962
 20
-71.6972854114032
 30
0.0
 10
-64.41408239599366
 20
-71.57115279659641
 30
0.0
 10
-64.25630966490549
 20
-71.46497491989568
 30
0.0
 10
-64.12775567402393
 20
-71.37810426392763
 30
0.0
 10
-64.03255299226515
 20
-71.31362361928768
 30
0.0
 10
-63.92913916060525
 20
-71.24331452347592
 30
0.0
 10
-63.81438679325545
 20
-71.16503419299238
 30
0.0
 10
-63.70987994060099
 20
-71.09354477233197
 30
0.0
 10
-63.62140285340157
 20
-71.03291257183017
 30
0.0
 10
-63.57461283798278
 20
-71.00081277951824
 30
0.0
 10
-63.55154243816823
 20
-70.98497757638962
 30
0.0
  0
LINE
  5
7C
330
1F
100
AcDbEntity
  8
0
  6
Continuous
 62
     7
370
    25
100
AcDbLine
 10
-127.5403644888
 20
-94.5319954868
 30
0.0
 11
-127.414080462
 21
-94.5157853547
 31
0.0
  0
SPLINE
  5
7D
330
1F
100
AcDbEntity
  8
0
  6
Continuous
 62
     7
370
    25
100
AcDbSpline
210
0.0
220
0.0
230
1.0
 70
     8
 71
     3
 72
    13
 73
     9
 74
     0
 42
0.00000001
 43
0.00000001
 40
0.0000010551201236
 40
0.0000010551201236
 40
0.0000010551201236
 40
0.0000010551201236
 40
0.2500007913400927
 40
0.5000005275600617
 40
0.6250003956700463
 40
0.7500002637800309
 40
0.8750001318900155
 40
1.0
 40
1.0
 40
1.0
 40
1.0
 10
-154.2074921986706
 20
-96.42933332843259
 30
0.0
 10
-151.9788136625477
 20
-96.39714875818058
 30
0.0
 10
-147.5227608860172
 20
-96.26595732518489
 30
0.0
 10
-141.9569128700336
 20
-95.94365962082642
 30
0.0
 10
-137.512778367174
 20
-95.5944354616305
 30
0.0
 10
-134.182653123127
 20
-95.28801385864028
 30
0.0
 10
-130.8571163692552
 20
-94.93837538321831
 30
0.0
 10
-128.6453123152757
 20
-94.67343734244001
 30
0.0
 10
-127.5403644888059
 20
-94.53199548678027
 30
0.0
  0
LINE
  5
7E
330
1F
100
AcDbEntity
  8
0
  6
Continuous
 62
     7
370
    25
100
AcDbLine
 10
-154.2213319102
 20
-96.4295326656
 30
0.0
 11
-154.2074921987
 21
-96.4293333284
 31
0.0
  0
SPLINE
  5
7F
330
1F
100
AcDbEntity
  8
0
  6
Continuous
 62
     7
370
    25
100
AcDbSpline
210
0.0
220
0.0
230
1.0
 70
     8
 71
     3
 72
   130
 73
   126
 74
     0
 42
0.00000001
 43
0.00000001
 40
0.000002418884248
 40
0.000002418884248
 40
0.000002418884248
 40
0.000002418884248
 40
0.0156273186795118
 40
0.0234397685771436
 40
0.0312522184747755
 40
0.0351584434235914
 40
0.0390646683724074
 40
0.0468771182700392
 40
0.0546895681676711
 40
0.062502018065303
 40
0.0703144679629348
 40
0.0722675804373428
 40
0.0742206929117508
 40
0.0781269178605667
 40
0.0937518176558304
 40
0.0976580426046464
 40
0.1015642675534623
 40
0.1054704925022782
 40
0.1093767174510942
 40
0.1113298299255021
 40
0.1132829423999101
 40
0.1142594986371141
 40
0.1152360548743181
 40
0.1162126111115221
 40
0.117189167348726
 40
0.119142279823134
 40
0.121095392297542
 40
0.12304850477195
 40
0.1250016172463579
 40
0.1269547297207659
 40
0.1289078421951739
 40
0.1308609546695818
 40
0.1313492327881838
 40
0.1318375109067858
 40
0.1328140671439898
 40
0.1347671796183978
 40
0.1367202920928057
 40
0.1406265170416217
 40
0.1445327419904376
 40
0.1484389669392535
 40
0.1523451918880694
 40
0.1562514168368854
 40
0.1582045293112933
 40
0.1601576417857013
 40
0.1640638667345172
 40
0.1679700916833332
 40
0.1718763166321491
 40
0.1757825415809651
 40
0.179688766529781
 40
0.1875012164274129
 40
0.1953136663250447
 40
0.1992198912738606
 40
0.2031261162226766
 40
0.2109385661203085
 40
0.2187510160179403
 40
0.2343759158132041
 40
0.242188365710836
 40
0.2500008156084678
 40
0.2656257154037316
 40
0.2812506151989953
 40
0.296875514994259
 40
0.3125004147895228
 40
0.3437502143800503
 40
0.359375114175314
 40
0.3750000139705778
 40
0.3906249137658415
 40
0.4062498135611052
 40
0.4218747133563689
 40
0.4374996131516327
 40
0.4531245129468965
 40
0.4687494127421602
 40
0.4843743125374239
 40
0.4999992123326877
 40
0.5156241121279515
 40
0.5312490119232152
 40
0.5468739117184789
 40
0.5546863616161107
 40
0.5624988115137426
 40
0.5781237113090063
 40
0.59374861110427
 40
0.6093735108995337
 40
0.6249984106947976
 40
0.6406233104900614
 40
0.6562482102853251
 40
0.664060660182957
 40
0.6718731100805888
 40
0.6796855599782207
 40
0.6874980098758525
 40
0.7031229096711162
 40
0.7109353595687481
 40
0.71874780946638
 40
0.7343727092616437
 40
0.7421851591592756
 40
0.7499976090569075
 40
0.7656225088521713
 40
0.781247408647435
 40
0.8124972082379625
 40
0.8437470078284899
 40
0.8593719076237536
 40
0.8749968074190174
 40
0.8906217072142812
 40
0.906246607009545
 40
0.9218715068048087
 40
0.9374964066000724
 40
0.9453088564977042
 40
0.9531213063953361
 40
0.960933756292968
 40
0.9687462061905998
 40
0.9726524311394158
 40
0.9765586560882317
 40
0.9804648810370475
 40
0.9843711059858635
 40
0.9863242184602715
 40
0.9882773309346795
 40
0.9902304434090875
 40
0.9921835558834955
 40
0.9931601121206994
 40
0.9941366683579035
 40
0.9951132245951075
 40
0.9960897808323115
 40
0.9970663370695154
 40
0.9980428933067194
 40
0.9990194495439233
 40
0.9995077276625253
 40
0.9999960057811274
 40
0.9999960057811274
 40
0.9999960057811274
 40
0.9999960057811274
 10
-236.8970170452037
 20
-75.444300479322
 30
0.0
 10
-236.5104412544195
 20
-75.60490437543112
 30
0.0
 10
-235.9306845387694
 20
-75.84579233696655
 30
0.0
 10
-235.1573035920335
 20
-76.1671823358156
 30
0.0
 10
-234.6747620702024
 20
-76.36773390918398
 30
0.0
 10
-234.2868780900909
 20
-76.52895211151281
 30
0.0
 10
-233.9099419803271
 20
-76.68566211884318
 30
0.0
 10
-233.4603699450911
 20
-76.8726540507372
 30
0.0
 10
-232.9551186777246
 20
-77.08294444532588
 30
0.0
 10
-232.4841017036823
 20
-77.27913566538699
 30
0.0
 10
-232.1567148278243
 20
-77.41562114684567
 30
0.0
 10
-231.9488809924588
 20
-77.50231989490018
 30
0.0
 10
-231.8138442617044
 20
-77.55866608165641
 30
0.0
 10
-231.4348362913216
 20
-77.71687779235845
 30
0.0
 10
-230.9937791749459
 20
-77.90122160308847
 30
0.0
 10
-230.5250712589003
 20
-78.09733826112611
 30
0.0
 10
-230.2851902207285
 20
-78.19774986955524
 30
0.0
 10
-230.0397771883247
 20
-78.30051681199801
 30
0.0
 10
-229.8306669980141
 20
-78.38811423089656
 30
0.0
 10
-229.6605943848016
 20
-78.45937757608039
 30
0.0
 10
-229.5531909581499
 20
-78.5043892068297
 30
0.0
 10
-229.4664758435311
 20
-78.54073525139401
 30
0.0
 10
-229.4013704981497
 20
-78.5680258780065
 30
0.0
 10
-229.3348632604313
 20
-78.59590684760917
 30
0.0
 10
-229.2302213855083
 20
-78.63978357690766
 30
0.0
 10
-229.0745607698069
 20
-78.70506551111681
 30
0.0
 10
-228.8463625275872
 20
-78.80078635622655
 30
0.0
 10
-228.5771719940415
 20
-78.9137163352869
 30
0.0
 10
-228.2668742700399
 20
-79.04390364835544
 30
0.0
 10
-227.9154683019936
 20
-79.19134877146463
 30
0.0
 10
-227.5230467381467
 20
-79.35601269697065
 30
0.0
 10
-227.1976797669531
 20
-79.4925464187607
 30
0.0
 10
-226.9682803278507
 20
-79.58881120258455
 30
0.0
 10
-226.8110766440853
 20
-79.6547815291402
 30
0.0
 10
-226.5383361152184
 20
-79.76922463632258
 30
0.0
 10
-226.1584453582228
 20
-79.92858935847748
 30
0.0
 10
-225.5701601377305
 20
-80.1752922163525
 30
0.0
 10
-224.8720057297615
 20
-80.46790675666189
 30
0.0
 10
-224.093617404675
 20
-80.79387517176337
 30
0.0
 10
-223.374548248282
 20
-81.09470701220417
 30
0.0
 10
-222.7153310604714
 20
-81.37017964037886
 30
0.0
 10
-222.214258165835
 20
-81.57927743687617
 30
0.0
 10
-221.8460357705173
 20
-81.73274318786999
 30
0.0
 10
-221.4863400611808
 20
-81.88253281554002
 30
0.0
 10
-221.0419686659833
 20
-82.06736825716553
 30
0.0
 10
-220.5204933957046
 20
-82.28391765004227
 30
0.0
 10
-220.0098858776022
 20
-82.49559145700657
 30
0.0
 10
-219.510397162794
 20
-82.7022848297676
 30
0.0
 10
-218.8591217441999
 20
-82.97128362307642
 30
0.0
 10
-218.0728874508777
 20
-83.29505650347093
 30
0.0
 10
-217.3228656908101
 20
-83.60257979615017
 30
0.0
 10
-216.7465519347855
 20
-83.8380375537999
 30
0.0
 10
-216.1769006389173
 20
-84.0702091818978
 30
0.0
 10
-215.4757061608641
 20
-84.35492921363634
 30
0.0
 10
-214.3776444763267
 20
-84.7984886588494
 30
0.0
 10
-213.315255376938
 20
-85.22410418530136
 30
0.0
 10
-212.2882214016111
 20
-85.6319048961495
 30
0.0
 10
-211.2860266215538
 20
-86.02732530247592
 30
0.0
 10
-210.0607237899214
 20
-86.5060070005198
 30
0.0
 10
-208.6352772960231
 20
-87.05507707449507
 30
0.0
 10
-207.2547786088361
 20
-87.57880237375451
 30
0.0
 10
-205.4729032193549
 20
-88.24374091934602
 30
0.0
 10
-203.7477595270258
 20
-88.87022490167878
 30
0.0
 10
-202.0873269373746
 20
-89.4554002565693
 30
0.0
 10
-200.8624239164521
 20
-89.87786566366871
 30
0.0
 10
-199.6548407097872
 20
-90.28495552659568
 30
0.0
 10
-198.4732455188154
 20
-90.6738371600459
 30
0.0
 10
-197.3306103032244
 20
-91.04025704618395
 30
0.0
 10
-196.2262318620647
 20
-91.3845326033941
 30
0.0
 10
-195.1446484957133
 20
-91.71136139247113
 30
0.0
 10
-194.0855576551355
 20
-92.02085847126504
 30
0.0
 10
-193.0491423993083
 20
-92.31298687587994
 30
0.0
 10
-192.0352433853413
 20
-92.58781477020455
 30
0.0
 10
-191.0446087072567
 20
-92.84515138234991
 30
0.0
 10
-190.0703618604129
 20
-93.08696479489303
 30
0.0
 10
-189.2723837626582
 20
-93.2754728829436
 30
0.0
 10
-188.6430562245689
 20
-93.41833594897507
 30
0.0
 10
-188.0082667136222
 20
-93.55838682754094
 30
0.0
 10
-187.2062487064863
 20
-93.72779245840518
 30
0.0
 10
-186.2328795410111
 20
-93.92150473176686
 30
0.0
 10
-185.2365472150813
 20
-94.10795154942068
 30
0.0
 10
-184.2101267053319
 20
-94.28848407338877
 30
0.0
 10
-183.1556327804391
 20
-94.46268948506825
 30
0.0
 10
-182.2529565445968
 20
-94.6026672367986
 30
0.0
 10
-181.5168723401397
 20
-94.71145921149323
 30
0.0
 10
-180.9580211949829
 20
-94.79143008118287
 30
0.0
 10
-180.3883012219473
 20
-94.87036462151309
 30
0.0
 10
-179.6107697756512
 20
-94.97471777692641
 30
0.0
 10
-178.8076951545371
 20
-95.07753495739478
 30
0.0
 10
-177.9788287790693
 20
-95.1788421275692
 30
0.0
 10
-177.1426091031654
 20
-95.27801382589563
 30
0.0
 10
-176.2936995313524
 20
-95.37416522447496
 30
0.0
 10
-175.4307836449855
 20
-95.46745648576157
 30
0.0
 10
-174.5702448637941
 20
-95.55742914609512
 30
0.0
 10
-173.4981390011593
 20
-95.66377639853222
 30
0.0
 10
-171.7904696184957
 20
-95.82085780633076
 30
0.0
 10
-169.6720840417309
 20
-95.9925936639503
 30
0.0
 10
-167.5657481447818
 20
-96.13214990329553
 30
0.0
 10
-165.886319636703
 20
-96.22459053770078
 30
0.0
 10
-164.6316218591095
 20
-96.28420433034505
 30
0.0
 10
-163.3716188884179
 20
-96.33466891894862
 30
0.0
 10
-162.1052079750106
 20
-96.37604480052244
 30
0.0
 10
-160.8326539912675
 20
-96.40831366802263
 30
0.0
 10
-159.7670597801121
 20
-96.42761599590678
 30
0.0
 10
-158.9113750384003
 20
-96.43850623511301
 30
0.0
 10
-158.2678693782166
 20
-96.44440070771944
 30
0.0
 10
-157.6226882146447
 20
-96.44802112087591
 30
0.0
 10
-157.0835335324539
 20
-96.44914229641603
 30
0.0
 10
-156.6515321870691
 20
-96.44890318050363
 30
0.0
 10
-156.3274892577263
 20
-96.44815764762753
 30
0.0
 10
-156.0033431233729
 20
-96.446845468641
 30
0.0
 10
-155.7332210585803
 20
-96.4452805481076
 30
0.0
 10
-155.5170254235992
 20
-96.44374462138961
 30
0.0
 10
-155.3556777231316
 20
-96.44246369069987
 30
0.0
 10
-155.195721216163
 20
-96.44106190135237
 30
0.0
 10
-155.0637130301878
 20
-96.43979470856563
 30
0.0
 10
-154.9580757207663
 20
-96.43871061108736
 30
0.0
 10
-154.880986056303
 20
-96.43789174669968
 30
0.0
 10
-154.7967829872111
 20
-96.43693917823832
 30
0.0
 10
-154.7017623181664
 20
-96.43580441865325
 30
0.0
 10
-154.596970249209
 20
-96.43450065337143
 30
0.0
 10
-154.482244546237
 20
-96.43302564995827
 30
0.0
 10
-154.3782118732118
 20
-96.431651586616
 30
0.0
 10
-154.2904456918611
 20
-96.43047241541558
 30
0.0
 10
-154.2441704729918
 20
-96.42984419716596
 30
0.0
 10
-154.221331910219
 20
-96.42953266563396
 30
0.0
  0
SPLINE
  5
80
330
1F
100
AcDbEntity
  8
0
  6
Continuous
 62
     7
370
    25
100
AcDbSpline
210
0.0
220
0.0
230
1.0
 70
     8
 71
     2
 72
   104
 73
   101
 74
     0
 42
0.00000001
 43
0.00000001
 40
0.0586359514008099
 40
0.0586359514008099
 40
0.0586359514008099
 40
0.0641517014583548
 40
0.0696674515158996
 40
0.0806989516309893
 40
0.0954076184511088
 40
0.1064391185661985
 40
0.1137934519762583
 40
0.1193092020338031
 40
0.1220670770625755
 40
0.1239056604150905
 40
0.1257442437676054
 40
0.1275828271201204
 40
0.1303407021488928
 40
0.1358564522064376
 40
0.1432107856164974
 40
0.1542422857315871
 40
0.1689509525517066
 40
0.1836596193718262
 40
0.1983682861919457
 40
0.2130769530120653
 40
0.2241084531271549
 40
0.2314627865372147
 40
0.2388171199472745
 40
0.2443328700048193
 40
0.2470907450335917
 40
0.2489293283861067
 40
0.2507679117386216
 40
0.2526064950911366
 40
0.255364370119909
 40
0.2608801201774538
 40
0.2682344535875136
 40
0.2755887869975734
 40
0.2866202871126631
 40
0.3013289539327826
 40
0.3160376207529022
 40
0.3307462875730217
 40
0.3454549543931413
 40
0.356486454508231
 40
0.3638407879182908
 40
0.3693565379758356
 40
0.372114413004608
 40
0.373952996357123
 40
0.3757915797096379
 40
0.3776301630621529
 40
0.3803880380909253
 40
0.3859037881484701
 40
0.3932581215585298
 40
0.4042896216736195
 40
0.4189982884937391
 40
0.4337069553138586
 40
0.4484156221339781
 40
0.4631242889540977
 40
0.4741557890691874
 40
0.4815101224792472
 40
0.487025872536792
 40
0.4907030392418219
 40
0.4943802059468518
 40
0.4971380809756242
 40
0.4985170184900104
 40
0.4992064872472035
 40
0.4996661330853323
 40
0.5003556018425253
 40
0.5012748935187827
 40
0.502653831033169
 40
0.5054117060619414
 40
0.5090888727669713
 40
0.5127660394720013
 40
0.5182817895295462
 40
0.5256361229396058
 40
0.5366676230546955
 40
0.5513762898748151
 40
0.5734392901049945
 40
0.5955022903351738
 40
0.6065337904502635
 40
0.6138881238603233
 40
0.619403873917868
 40
0.6221617489466404
 40
0.6240003322991554
 40
0.6258389156516704
 40
0.6276774990041853
 40
0.6304353740329578
 40
0.6359511240905027
 40
0.6433054575005623
 40
0.654336957615652
 40
0.6690456244357716
 40
0.691108624665951
 40
0.7131716248961303
 40
0.7278802917162498
 40
0.7389117918313395
 40
0.7444275418888842
 40
0.7481047085939141
 40
0.751781875298944
 40
0.755459042003974
 40
0.7609747920615189
 40
0.7793606255866683
 40
0.8087779592269073
 40
0.8381952928671463
 40
0.8676126265073856
 40
0.9117386269677442
 40
0.9999906278884616
 40
0.9999906278884616
 40
0.9999906278884616
 10
-252.6668722341251
 20
-69.02865443097079
 30
0.0
 10
-252.6185541544365
 20
-69.04583047088306
 30
0.0
 10
-252.5270324972657
 20
-69.07849798686043
 30
0.0
 10
-252.3882615416178
 20
-69.12821785393803
 30
0.0
 10
-252.1699779961305
 20
-69.20701289874823
 30
0.0
 10
-251.9481061859535
 20
-69.28787281392681
 30
0.0
 10
-251.7877288489817
 20
-69.3467267718048
 30
0.0
 10
-251.674598599947
 20
-69.38842897441275
 30
0.0
 10
-251.601383189267
 20
-69.4155071261313
 30
0.0
 10
-251.5607353132834
 20
-69.43056484946625
 30
0.0
 10
-251.5274692309928
 20
-69.44290171117261
 30
0.0
 10
-251.4981675404772
 20
-69.45377969546296
 30
0.0
 10
-251.4611394416949
 20
-69.46753930857017
 30
0.0
 10
-251.3944137268832
 20
-69.49237130512431
 30
0.0
 10
-251.2900262266029
 20
-69.53133270352423
 30
0.0
 10
-251.1398554856916
 20
-69.58759733122109
 30
0.0
 10
-250.9273902467454
 20
-69.66765014979653
 30
0.0
 10
-250.6811809049045
 20
-69.76109219380847
 30
0.0
 10
-250.4315737940274
 20
-69.85648872253647
 30
0.0
 10
-250.1785645879474
 20
-69.95384063055288
 30
0.0
 10
-249.954200418533
 20
-70.04073553064457
 30
0.0
 10
-249.7923428652182
 20
-70.10372030977237
 30
0.0
 10
-249.6619982900409
 20
-70.15459968986879
 30
0.0
 10
-249.5472276496776
 20
-70.19953657062963
 30
0.0
 10
-249.4730081731845
 20
-70.22866184685246
 30
0.0
 10
-249.4318627159826
 20
-70.24482608596266
 30
0.0
 10
-249.3980151356713
 20
-70.25813349669299
 30
0.0
 10
-249.3692809317499
 20
-70.26943843854603
 30
0.0
 10
-249.3327613215592
 20
-70.28381520550928
 30
0.0
 10
-249.2670006642326
 20
-70.3097281535011
 30
0.0
 10
-249.164058937038
 20
-70.35036861839208
 30
0.0
 10
-249.045529366708
 20
-70.39727877329878
 30
0.0
 10
-248.8962419622165
 20
-70.45650535602296
 30
0.0
 10
-248.6848824355718
 20
-70.54065662425623
 30
0.0
 10
-248.4397320915334
 20
-70.63871146937252
 30
0.0
 10
-248.1909821344948
 20
-70.73864911264086
 30
0.0
 10
-247.9386287301398
 20
-70.84047075756754
 30
0.0
 10
-247.7146673551773
 20
-70.93121254899823
 30
0.0
 10
-247.5529942701384
 20
-70.99691567152676
 30
0.0
 10
-247.4390707389638
 20
-71.04330515350931
 30
0.0
 10
-247.3653475020339
 20
-71.07336912977964
 30
0.0
 10
-247.3245389036326
 20
-71.09002261306662
 30
0.0
 10
-247.2906450090288
 20
-71.10386123021019
 30
0.0
 10
-247.2637023606827
 20
-71.11486666701882
 30
0.0
 10
-247.2290465352898
 20
-71.12902821402096
 30
0.0
 10
-247.1666076192566
 20
-71.15455847597272
 30
0.0
 10
-247.0683814409431
 20
-71.19476936102802
 30
0.0
 10
-246.9261754850101
 20
-71.25307448803201
 30
0.0
 10
-246.7230585446011
 20
-71.33654012392888
 30
0.0
 10
-246.4847933633932
 20
-71.43472766437337
 30
0.0
 10
-246.2403884652113
 20
-71.53571656066417
 30
0.0
 10
-245.9898390280395
 20
-71.63950859285768
 30
0.0
 10
-245.7652275704248
 20
-71.73278094865267
 30
0.0
 10
-245.6019064118301
 20
-71.80071958799802
 30
0.0
 10
-245.4862351390606
 20
-71.84889069862501
 30
0.0
 10
-245.4028909797661
 20
-71.88362779925002
 30
0.0
 10
-245.3358319457704
 20
-71.9115925033711
 30
0.0
 10
-245.276812315516
 20
-71.93621778346889
 30
0.0
 10
-245.2387259618804
 20
-71.95211517764227
 30
0.0
 10
-245.2196048185779
 20
-71.96009799240683
 30
0.0
 10
-245.2090616767033
 20
-71.96450003394293
 30
0.0
 10
-245.1979788731239
 20
-71.9691277235664
 30
0.0
 10
-245.1890247378656
 20
-71.9728669333181
 30
0.0
 10
-245.175196360373
 20
-71.97864216747486
 30
0.0
 10
-245.1503808550667
 20
-71.98900773689802
 30
0.0
 10
-245.1109925118272
 20
-72.00546561417033
 30
0.0
 10
-245.0649670395515
 20
-72.0247044769752
 30
0.0
 10
-245.0061312400775
 20
-72.04930756974552
 30
0.0
 10
-244.9210348833664
 20
-72.08491132653819
 30
0.0
 10
-244.7942682257898
 20
-72.13798541566436
 30
0.0
 10
-244.6058650222374
 20
-72.21693714981222
 30
0.0
 10
-244.315875146285
 20
-72.33858844542199
 30
0.0
 10
-243.930329951827
 20
-72.50054053896346
 30
0.0
 10
-243.6129759459868
 20
-72.63399374226401
 30
0.0
 10
-243.4288272205899
 20
-72.71146848408186
 30
0.0
 10
-243.2962849987046
 20
-72.76724785804392
 30
0.0
 10
-243.2092603792229
 20
-72.8038792287139
 30
0.0
 10
-243.1605561560356
 20
-72.82438241053923
 30
0.0
 10
-243.1207106116205
 20
-72.84115758792248
 30
0.0
 10
-243.0842579985076
 20
-72.85650462093918
 30
0.0
 10
-243.0384371085787
 20
-72.87579483781482
 30
0.0
 10
-242.956744406933
 20
-72.91018471814782
 30
0.0
 10
-242.8315853338988
 20
-72.9628657771349
 30
0.0
 10
-242.6565618999311
 20
-73.03652246172504
 30
0.0
 10
-242.4194167296034
 20
-73.13629466328074
 30
0.0
 10
-242.095674200567
 20
-73.2724457143903
 30
0.0
 10
-241.7342505725784
 20
-73.4243409221573
 30
0.0
 10
-241.4556409044484
 20
-73.5413399841471
 30
0.0
 10
-241.2711232276783
 20
-73.61877974313366
 30
0.0
 10
-241.1576680537644
 20
-73.666371860172
 30
0.0
 10
-241.0958562802136
 20
-73.69229373393152
 30
0.0
 10
-241.0480652260526
 20
-73.71233211699929
 30
0.0
 10
-240.995701126595
 20
-73.73428402571406
 30
0.0
 10
-240.9307223411848
 20
-73.76151971073621
 30
0.0
 10
-240.7600705136702
 20
-73.83303051090319
 30
0.0
 10
-240.409966693794
 20
-73.97962407416212
 30
0.0
 10
-239.9613569751959
 20
-74.16724150227692
 30
0.0
 10
-239.4951064158007
 20
-74.36202332369686
 30
0.0
 10
-238.8902332685648
 20
-74.61445976660669
 30
0.0
 10
-237.7419198769336
 20
-75.09302653940102
 30
0.0
 10
-236.8970170452037
 20
-75.44430047932198
 30
0.0
  0
LINE
  5
81
330
1F
100
AcDbEntity
  8
0
  6
Continuous
 62
     7
370
    25
100
AcDbLine
 10
-252.6668722341
 20
-57.3955034093
 30
0.0
 11
-252.6668722341
 21
-69.028654431
 31
0.0
  0
SPLINE
  5
82
330
1F
100
AcDbEntity
  8
0
  6
Continuous
 62
     7
370
    25
100
AcDbSpline
210
0.0
220
0.0
230
1.0
 70
     8
 71
     2
 72
   109
 73
   106
 74
     0
 42
0.00000001
 43
0.00000001
 40
0.0000009047454455
 40
0.0000009047454455
 40
0.0000009047454455
 40
0.0882429712396931
 40
0.1323640044868169
 40
0.1617780266515661
 40
0.1911920488163153
 40
0.2206060709810645
 40
0.2389898348340328
 40
0.2445049639899233
 40
0.2481817167605169
 40
0.2518584695311106
 40
0.2555352223017042
 40
0.2610503514575947
 40
0.2720806097693756
 40
0.2867876208517502
 40
0.3088481374753121
 40
0.330908654098874
 40
0.3456156651812486
 40
0.3566459234930296
 40
0.3639994290342169
 40
0.3695145581901074
 40
0.3722721227680526
 40
0.3741104991533494
 40
0.3759488755386463
 40
0.3777872519239431
 40
0.3805448165018883
 40
0.3860599456577788
 40
0.3934134511989661
 40
0.404443709510747
 40
0.4265042261343089
 40
0.4485647427578708
 40
0.4632717538402454
 40
0.4743020121520264
 40
0.4816555176932137
 40
0.4871706468491043
 40
0.4908473996196979
 40
0.4945241523902916
 40
0.4972817169682368
 40
0.4986604992572095
 40
0.4993498904016958
 40
0.4998094844980199
 40
0.5002690785943442
 40
0.5007286726906683
 40
0.5014180638351546
 40
0.5027968461241272
 40
0.5055544107020725
 40
0.5092311634726662
 40
0.5129079162432598
 40
0.5184230453991503
 40
0.5257765509403376
 40
0.5368068092521185
 40
0.5515138203344931
 40
0.5662208314168677
 40
0.5809278424992423
 40
0.5956348535816169
 40
0.6066651118933979
 40
0.6140186174345852
 40
0.6195337465904757
 40
0.622291311168421
 40
0.6236700934573935
 40
0.6245892816500419
 40
0.6255084698426904
 40
0.6264276580353387
 40
0.6278064403243113
 40
0.6305640049022566
 40
0.6360791340581471
 40
0.6434326395993344
 40
0.6544628979111153
 40
0.6691699089934899
 40
0.6838769200758645
 40
0.6985839311582391
 40
0.7132909422406137
 40
0.7243212005523947
 40
0.731674706093582
 40
0.7390282116347693
 40
0.7445433407906598
 40
0.747300905368605
 40
0.7491392817539018
 40
0.7509776581391987
 40
0.7528160345244954
 40
0.7555735991024407
 40
0.7610887282583312
 40
0.7684422337995185
 40
0.7757957393407058
 40
0.7868259976524867
 40
0.8015330087348613
 40
0.8162400198172359
 40
0.8309470308996105
 40
0.8456540419819851
 40
0.8566843002937661
 40
0.8640378058349534
 40
0.8695529349908439
 40
0.8723104995687891
 40
0.8741488759540859
 40
0.8759872523393828
 40
0.8778256287246795
 40
0.8805831933026248
 40
0.8860983224585153
 40
0.8934518279997026
 40
0.9044820863114835
 40
0.9155123446232645
 40
0.9228658501644518
 40
0.9274617911276939
 40
0.9293001675129906
 40
0.9320577320909359
 40
0.94124961401742
 40
0.94124961401742
 40
0.94124961401742
 10
-236.8967989309296
 20
-50.97981489527016
 30
0.0
 10
-237.7427911329602
 20
-51.3315474806589
 30
0.0
 10
-238.8915223507549
 20
-51.81029216700988
 30
0.0
 10
-239.4962896259622
 20
-52.06268570337947
 30
0.0
 10
-239.9622749073262
 20
-52.25735746867165
 30
0.0
 10
-240.4104401205699
 20
-52.44478967675726
 30
0.0
 10
-240.7600302118035
 20
-52.59116876523592
 30
0.0
 10
-240.9303899387664
 20
-52.66255754946491
 30
0.0
 10
-240.9952334961003
 20
-52.68973671067465
 30
0.0
 10
-241.0475696888235
 20
-52.71167705895008
 30
0.0
 10
-241.0951125980027
 20
-52.73161152570769
 30
0.0
 10
-241.1566786346585
 20
-52.7574305243938
 30
0.0
 10
-241.2697170540671
 20
-52.80484818051669
 30
0.0
 10
-241.4537186164101
 20
-52.88207195174935
 30
0.0
 10
-241.7318303022861
 20
-52.99886276440053
 30
0.0
 10
-242.0930902752691
 20
-53.15068993859359
 30
0.0
 10
-242.417057236326
 20
-53.28693551756428
 30
0.0
 10
-242.6545281608624
 20
-53.38684457416221
 30
0.0
 10
-242.829873611364
 20
-53.46063645253388
 30
0.0
 10
-242.9553035989345
 20
-53.51343122501255
 30
0.0
 10
-243.0371810369861
 20
-53.54789862071077
 30
0.0
 10
-243.0831335520883
 20
-53.56724409966074
 30
0.0
 10
-243.1195852259166
 20
-53.58259059964627
 30
0.0
 10
-243.1595047676363
 20
-53.59939684737591
 30
0.0
 10
-243.2082830346228
 20
-53.61993109440753
 30
0.0
 10
-243.29544008786
 20
-53.65661804749737
 30
0.0
 10
-243.428168290924
 20
-53.71247550517035
 30
0.0
 10
-243.6125485745212
 20
-53.79004753126328
 30
0.0
 10
-243.9302254969748
 20
-53.92363660043426
 30
0.0
 10
-244.315951528882
 20
-54.08566546734551
 30
0.0
 10
-244.6058842275916
 20
-54.20729385039665
 30
0.0
 10
-244.794150615187
 20
-54.28618908754807
 30
0.0
 10
-244.9207677026797
 20
-54.33920115108753
 30
0.0
 10
-245.0057356441543
 20
-54.37475157647271
 30
0.0
 10
-245.06446563172
 20
-54.39931068762953
 30
0.0
 10
-245.1104051602457
 20
-54.41851382147265
 30
0.0
 10
-245.1496836585691
 20
-54.43492596800018
 30
0.0
 10
-245.1745062055215
 20
-54.44529456151121
 30
0.0
 10
-245.1867802384992
 20
-54.4504207045666
 30
0.0
 10
-245.1936347450614
 20
-54.45328318975761
 30
0.0
 10
-245.1987924800324
 20
-54.45543698794069
 30
0.0
 10
-245.2078671530116
 20
-54.45922620807882
 30
0.0
 10
-245.2183698505615
 20
-54.46361140469014
 30
0.0
 10
-245.237510806209
 20
-54.4716025707706
 30
0.0
 10
-245.2755944183913
 20
-54.48749897791672
 30
0.0
 10
-245.3346246334096
 20
-54.51212892665728
 30
0.0
 10
-245.4016912812
 20
-54.54009709962185
 30
0.0
 10
-245.4850451588065
 20
-54.57483862681627
 30
0.0
 10
-245.6007284846372
 20
-54.62301530009976
 30
0.0
 10
-245.7640643614089
 20
-54.69096086819258
 30
0.0
 10
-245.9886910190389
 20
-54.78424072216531
 30
0.0
 10
-246.2392496429461
 20
-54.88803798974949
 30
0.0
 10
-246.4836554624387
 20
-54.98902875448244
 30
0.0
 10
-246.7219138117409
 20
-55.08721500545179
 30
0.0
 10
-246.9250154541985
 20
-55.17067571467182
 30
0.0
 10
-247.0672134535464
 20
-55.22897853812285
 30
0.0
 10
-247.1654048465491
 20
-55.26917588704438
 30
0.0
 10
-247.2278983809383
 20
-55.29472886903554
 30
0.0
 10
-247.2589471973699
 20
-55.30741674842729
 30
0.0
 10
-247.2762404048596
 20
-55.31448131590557
 30
0.0
 10
-247.2896359554544
 20
-55.31995256889395
 30
0.0
 10
-247.3066030193247
 20
-55.32688100456847
 30
0.0
 10
-247.3270327060976
 20
-55.33522130044675
 30
0.0
 10
-247.3639928310102
 20
-55.35030466723108
 30
0.0
 10
-247.4376154067351
 20
-55.38032813782742
 30
0.0
 10
-247.5515844576772
 20
-55.42673718855762
 30
0.0
 10
-247.7132551031804
 20
-55.49244074368963
 30
0.0
 10
-247.9372253304542
 20
-55.58318823037558
 30
0.0
 10
-248.1895790925702
 20
-55.68501251680402
 30
0.0
 10
-248.4383245331829
 20
-55.78495092949369
 30
0.0
 10
-248.6834646900714
 20
-55.88300434571743
 30
0.0
 10
-248.894810306967
 20
-55.96715242836099
 30
0.0
 10
-249.0440856170348
 20
-56.02637590211591
 30
0.0
 10
-249.1626020539575
 20
-56.07328221795721
 30
0.0
 10
-249.2655417360097
 20
-56.11392304685807
 30
0.0
 10
-249.3312705307362
 20
-56.13982421579605
 30
0.0
 10
-249.3678443309791
 20
-56.15422271951154
 30
0.0
 10
-249.3962848208146
 20
-56.16541246069867
 30
0.0
 10
-249.430188695331
 20
-56.1787424832657
 30
0.0
 10
-249.4713299439824
 20
-56.1949056285461
 30
0.0
 10
-249.5455641772678
 20
-56.22403774049949
 30
0.0
 10
-249.6603477847209
 20
-56.26898135860812
 30
0.0
 10
-249.7907066520394
 20
-56.31986828644544
 30
0.0
 10
-249.9525782687616
 20
-56.38286107266347
 30
0.0
 10
-250.1769552215071
 20
-56.46976460883256
 30
0.0
 10
-250.4299683320585
 20
-56.56712239150563
 30
0.0
 10
-250.6795687241103
 20
-56.66252082961391
 30
0.0
 10
-250.9257606020427
 20
-56.75596077085462
 30
0.0
 10
-251.138201904851
 20
-56.83600851433797
 30
0.0
 10
-251.2883486739522
 20
-56.89226695222096
 30
0.0
 10
-251.3927248492867
 20
-56.93122603603844
 30
0.0
 10
-251.4594201493154
 20
-56.95604795481373
 30
0.0
 10
-251.4964840227215
 20
-56.96982151778007
 30
0.0
 10
-251.5255663902336
 20
-56.98061863539285
 30
0.0
 10
-251.558482907373
 20
-56.99282647186222
 30
0.0
 10
-251.5987380185164
 20
-57.00773933154405
 30
0.0
 10
-251.6712753259527
 20
-57.03456758210299
 30
0.0
 10
-251.7834727192091
 20
-57.07592672100729
 30
0.0
 10
-251.942740999324
 20
-57.13437438916566
 30
0.0
 10
-252.1319997694211
 20
-57.20335036486546
 30
0.0
 10
-252.288098414385
 20
-57.25983918080184
 30
0.0
 10
-252.3891086573314
 20
-57.29621565896553
 30
0.0
 10
-252.4428347621463
 20
-57.31550494526009
 30
0.0
 10
-252.482934522646
 20
-57.32988341335186
 30
0.0
 10
-252.586922018164
 20
-57.36709239474314
 30
0.0
 10
-252.666872234125
 20
-57.39550340932861
 30
0.0
  0
SPLINE
  5
83
330
1F
100
AcDbEntity
  8
0
  6
Continuous
 62
     7
370
    25
100
AcDbSpline
210
0.0
220
0.0
230
1.0
 70
     8
 71
     3
 72
   124
 73
   120
 74
     0
 42
0.00000001
 43
0.00000001
 40
0.0000033523582677
 40
0.0000033523582677
 40
0.0000033523582677
 40
0.0000033523582677
 40
0.0009799112272742
 40
0.0019564700962808
 40
0.0039095878342939
 40
0.005862705572307
 40
0.0078158233103201
 40
0.0117220587863463
 40
0.0156282942623725
 40
0.0234407652144249
 40
0.0312532361664773
 40
0.0390657071185297
 40
0.0468781780705821
 40
0.0546906490226345
 40
0.062503119974687
 40
0.0781280618787918
 40
0.0937530037828966
 40
0.1093779456870014
 40
0.1250028875911062
 40
0.140627829495211
 40
0.1562527713993159
 40
0.1875026552075255
 40
0.2187525390157351
 40
0.2343774809198399
 40
0.2500024228239447
 40
0.2578148937759972
 40
0.2656273647280496
 40
0.2812523066321544
 40
0.2890647775842068
 40
0.2968772485362592
 40
0.312502190440364
 40
0.3281271323444688
 40
0.3437520742485736
 40
0.3593770161526785
 40
0.3750019580567833
 40
0.3906268999608881
 40
0.4062518418649929
 40
0.4218767837690978
 40
0.4296892547211502
 40
0.4375017256732026
 40
0.445314196625255
 40
0.4531266675773074
 40
0.4687516094814122
 40
0.4843765513855171
 40
0.5000014932896218
 40
0.5156264351937268
 40
0.5312513770978315
 40
0.5468763190019363
 40
0.5546887899539887
 40
0.5625012609060411
 40
0.5781262028101459
 40
0.5859386737621983
 40
0.5937511447142507
 40
0.6093760866183555
 40
0.6250010285224603
 40
0.6406259704265651
 40
0.6562509123306699
 40
0.6718758542347747
 40
0.6796883251868271
 40
0.6875007961388796
 40
0.7031257380429845
 40
0.7187506799470893
 40
0.7265631508991417
 40
0.7343756218511941
 40
0.7500005637552989
 40
0.7578130347073513
 40
0.7656255056594037
 40
0.7734379766114561
 40
0.7773442120874823
 40
0.7812504475635085
 40
0.7890629185155609
 40
0.7968753894676133
 40
0.8046878604196657
 40
0.8085940958956919
 40
0.8125003313717182
 40
0.8144534491097313
 40
0.8164065668477445
 40
0.8203128023237707
 40
0.8242190377997969
 40
0.8281252732758231
 40
0.8300783910138362
 40
0.8320315087518493
 40
0.8339846264898624
 40
0.8359377442278755
 40
0.836914303096882
 40
0.8378908619658886
 40
0.8388674208348952
 40
0.8398439797039017
 40
0.8408205385729082
 40
0.8417970974419148
 40
0.8437502151799279
 40
0.845703332917941
 40
0.8476564506559541
 40
0.8496095683939672
 40
0.8515626861319803
 40
0.8535158038699934
 40
0.854492362739
 40
0.8554689216080065
 40
0.856445480477013
 40
0.8574220393460196
 40
0.8593751570840327
 40
0.8613282748220458
 40
0.8632813925600589
 40
0.8671876280360851
 40
0.8710938635121113
 40
0.8750000989881375
 40
0.8828125699401899
 40
0.8906250408922423
 40
0.8945312763682685
 40
0.8984375118442947
 40
0.906249982796347
 40
0.9140624537483995
 40
0.9218749247004518
 40
0.9296873956525042
 40
0.9374998666045568
 40
0.9453123375566093
 40
0.9531248085086617
 40
0.9687497504127665
 40
0.999999634220976
 40
0.999999634220976
 40
0.999999634220976
 40
0.999999634220976
 10
-154.2212638688648
 20
-29.99469530543527
 30
0.0
 10
-154.2551064689691
 20
-29.99423025172166
 30
0.0
 10
-154.3231031519832
 20
-29.99330838313872
 30
0.0
 10
-154.4566067054054
 20
-29.99154891531749
 30
0.0
 10
-154.6205313903147
 20
-29.98948399818298
 30
0.0
 10
-154.8119945827446
 20
-29.98722813400605
 30
0.0
 10
-155.0603509279958
 20
-29.98451525387663
 30
0.0
 10
-155.3585198399963
 20
-29.98166649816782
 30
0.0
 10
-155.8040600875042
 20
-29.97833851013828
 30
0.0
 10
-156.3608856226026
 20
-29.97567435077748
 30
0.0
 10
-157.0273497315679
 20
-29.97488089711101
 30
0.0
 10
-157.6922657496154
 20
-29.97648966899528
 30
0.0
 10
-158.3553905898574
 20
-29.98050215605395
 30
0.0
 10
-159.0167901534572
 20
-29.98691757664426
 30
0.0
 10
-159.8963289395157
 20
-29.99867504037568
 30
0.0
 10
-160.991426831342
 20
-30.01937831474878
 30
0.0
 10
-162.2985067136957
 20
-30.05382374709488
 30
0.0
 10
-163.5989338794282
 20
-30.09788836025445
 30
0.0
 10
-164.8912871206769
 20
-30.15149519072235
 30
0.0
 10
-166.1808684463068
 20
-30.21491917003952
 30
0.0
 10
-167.9058070094602
 20
-30.31305584220706
 30
0.0
 10
-170.0686884249956
 20
-30.46097858557716
 30
0.0
 10
-172.2454667842967
 20
-30.64288420740052
 30
0.0
 10
-174.0014627069177
 20
-30.80921514792065
 30
0.0
 10
-175.1035821241335
 20
-30.92171644698727
 30
0.0
 10
-175.9898023462512
 20
-31.01704404960525
 30
0.0
 10
-176.86867126179
 20
-31.11469500513275
 30
0.0
 10
-177.7360281031524
 20
-31.21578096397027
 30
0.0
 10
-178.5941346074832
 20
-31.32054517327879
 30
0.0
 10
-179.4343882494324
 20
-31.42646945563994
 30
0.0
 10
-180.4514087438303
 20
-31.56109239688
 30
0.0
 10
-181.6154590084367
 20
-31.72570436036604
 30
0.0
 10
-182.7509260719247
 20
-31.89738551479189
 30
0.0
 10
-183.8551247822784
 20
-32.07572445713067
 30
0.0
 10
-184.9287810883166
 20
-32.26080454873069
 30
0.0
 10
-185.9713816101935
 20
-32.4525096124937
 30
0.0
 10
-186.9839356255929
 20
-32.65100019423192
 30
0.0
 10
-187.8173365546097
 20
-32.82484791212937
 30
0.0
 10
-188.4766463911389
 20
-32.96877241603944
 30
0.0
 10
-188.9660244046539
 20
-33.07882840079314
 30
0.0
 10
-189.4576070304258
 20
-33.19257283237936
 30
0.0
 10
-190.1197588043418
 20
-33.34995079943402
 30
0.0
 10
-190.9584961026372
 20
-33.55709482458958
 30
0.0
 10
-191.9820195024591
 20
-33.82215430047309
 30
0.0
 10
-193.0301774485235
 20
-34.10585840852931
 30
0.0
 10
-194.1025533834283
 20
-34.40811356201391
 30
0.0
 10
-195.1990813890391
 20
-34.72892317899065
 30
0.0
 10
-196.1332769812115
 20
-35.01183461672378
 30
0.0
 10
-196.8920611186092
 20
-35.24726422694726
 30
0.0
 10
-197.6641209248029
 20
-35.49048506737696
 30
0.0
 10
-198.4558617378731
 20
-35.74532971849327
 30
0.0
 10
-199.2669351288923
 20
-36.01169538050778
 30
0.0
 10
-200.0920392143524
 20
-36.28611321231748
 30
0.0
 10
-201.1381961542878
 20
-36.64051558940691
 30
0.0
 10
-202.4155085847686
 20
-37.08344941033973
 30
0.0
 10
-203.716606125934
 20
-37.54469559338536
 30
0.0
 10
-205.0535390618827
 20
-38.02856528931686
 30
0.0
 10
-206.1956851211826
 20
-38.4500041290901
 30
0.0
 10
-207.1257780091125
 20
-38.79791827655072
 30
0.0
 10
-208.0723526566196
 20
-39.15507281108342
 30
0.0
 10
-209.2860631043891
 20
-39.61869186181349
 30
0.0
 10
-210.5405052503589
 20
-40.10524830839286
 30
0.0
 10
-211.5684101723477
 20
-40.50822550456459
 30
0.0
 10
-212.612698867079
 20
-40.92041847441656
 30
0.0
 10
-213.6972994787063
 20
-41.35271197981988
 30
0.0
 10
-214.8202470436901
 20
-41.80432817338257
 30
0.0
 10
-215.6816755181275
 20
-42.15271679475126
 30
0.0
 10
-216.4164137071222
 20
-42.45146191571199
 30
0.0
 10
-217.0122055961772
 20
-42.69463700245935
 30
0.0
 10
-217.6231255612624
 20
-42.94462224078316
 30
0.0
 10
-218.4171860348347
 20
-43.27071343726124
 30
0.0
 10
-219.4179753352628
 20
-43.68349518964504
 30
0.0
 10
-220.2921972057484
 20
-44.04549899723403
 30
0.0
 10
-221.0152760926464
 20
-44.34573129360604
 30
0.0
 10
-221.4779268984246
 20
-44.53816123918111
 30
0.0
 10
-221.8524061178775
 20
-44.69410735216684
 30
0.0
 10
-222.2368912922559
 20
-44.85435759039706
 30
0.0
 10
-222.7618996021972
 20
-45.0734622466717
 30
0.0
 10
-223.4551753358271
 20
-45.36320314932638
 30
0.0
 10
-224.0873349203886
 20
-45.6277144998197
 30
0.0
 10
-224.6254063910517
 20
-45.85302866331777
 30
0.0
 10
-225.0451804034997
 20
-46.0288871233464
 30
0.0
 10
-225.481154869126
 20
-46.21161007123266
 30
0.0
 10
-225.8579836203725
 20
-46.36960646984519
 30
0.0
 10
-226.1675224119722
 20
-46.49942555443682
 30
0.0
 10
-226.4037984144188
 20
-46.59853621021006
 30
0.0
 10
-226.6438537555159
 20
-46.69924903155094
 30
0.0
 10
-226.8896752499526
 20
-46.80240019515462
 30
0.0
 10
-227.1315228499532
 20
-46.90389049451046
 30
0.0
 10
-227.4364377248195
 20
-47.03184138183859
 30
0.0
 10
-227.7903197351216
 20
-47.18033641109155
 30
0.0
 10
-228.1695873917125
 20
-47.33947494033212
 30
0.0
 10
-228.503952703918
 20
-47.4797634777247
 30
0.0
 10
-228.7932494661179
 20
-47.60113212708954
 30
0.0
 10
-229.0376795807074
 20
-47.70366564814841
 30
0.0
 10
-229.2034864635706
 20
-47.7732061627037
 30
0.0
 10
-229.3142217072146
 20
-47.81964048042353
 30
0.0
 10
-229.384817730201
 20
-47.84923761536473
 30
0.0
 10
-229.4496070717504
 20
-47.87639607990324
 30
0.0
 10
-229.5374364933659
 20
-47.91321020740704
 30
0.0
 10
-229.6457002785931
 20
-47.95858336472089
 30
0.0
 10
-229.7745069658889
 20
-48.01255673166943
 30
0.0
 10
-229.9442983022016
 20
-48.08369098110278
 30
0.0
 10
-230.1530964049346
 20
-48.17114310080806
 30
0.0
 10
-230.398082117841
 20
-48.27371271517327
 30
0.0
 10
-230.717319769342
 20
-48.40731640866925
 30
0.0
 10
-231.1025025820373
 20
-48.56841633934818
 30
0.0
 10
-231.4690493861981
 20
-48.72157987278352
 30
0.0
 10
-231.7514359435432
 20
-48.83948832906595
 30
0.0
 10
-232.0254843360961
 20
-48.95384937024485
 30
0.0
 10
-232.3637988383263
 20
-49.09495680977687
 30
0.0
 10
-232.763870301885
 20
-49.26170839780543
 30
0.0
 10
-233.1578010440275
 20
-49.42578414864487
 30
0.0
 10
-233.5456454906073
 20
-49.58720638348277
 30
0.0
 10
-233.9274238481471
 20
-49.74598555833859
 30
0.0
 10
-234.3030041962676
 20
-49.90205884997735
 30
0.0
 10
-234.7961953510397
 20
-50.10687172036735
 30
0.0
 10
-235.661689091618
 20
-50.46643616041665
 30
0.0
 10
-236.4026565338194
 20
-50.77438312621864
 30
0.0
 10
-236.8967989309296
 20
-50.97981489527017
 30
0.0
  0
SPLINE
  5
84
330
1F
100
AcDbEntity
  8
0
  6
Continuous
 62
     7
370
    25
100
AcDbSpline
210
0.0
220
0.0
230
1.0
 70
     8
 71
     2
 72
   109
 73
   106
 74
     0
 42
0.00000001
 43
0.00000001
 40
-0.079103755101408
 40
-0.079103755101408
 40
-0.079103755101408
 40
-0.0369507767601719
 40
-0.0200895854236774
 40
-0.0074436919213066
 40
-0.0011207451701212
 40
0.0030945526640024
 40
0.0136327972493115
 40
0.0304939885858059
 40
0.0473551799223004
 40
0.0578934245076094
 40
0.0610548978832021
 40
0.0631625468002639
 40
0.0684316690929184
 40
0.0810775625952893
 40
0.0937234560976601
 40
0.1021540517659073
 40
0.1105846474341545
 40
0.1169075941853399
 40
0.1211228920194636
 40
0.1242843653950563
 40
0.1263920143121181
 40
0.1295534876877108
 40
0.1358764344388962
 40
0.148522327941267
 40
0.1653835192777615
 40
0.1822447106142559
 40
0.1991059019507503
 40
0.2159670932872448
 40
0.2286129867896157
 40
0.2370435824578629
 40
0.2433665292090483
 40
0.246528002584641
 40
0.2486356515017028
 40
0.2507433004187646
 40
0.2528509493358264
 40
0.2560124227114191
 40
0.2623353694626046
 40
0.2707659651308518
 40
0.2834118586332226
 40
0.300273049969717
 40
0.3171342413062115
 40
0.3339954326427059
 40
0.3508566239792004
 40
0.3635025174815712
 40
0.3698254642327566
 40
0.3729869376083493
 40
0.3745676742961457
 40
0.3756214987546765
 40
0.3772022354424729
 40
0.3793098843595347
 40
0.3824713577351274
 40
0.3887943044863129
 40
0.3972249001545601
 40
0.4056554958228073
 40
0.4183013893251781
 40
0.4351625806616726
 40
0.452023771998167
 40
0.4646696655005378
 40
0.4731002611687851
 40
0.4815308568370323
 40
0.4878538035882177
 40
0.4920691014223414
 40
0.4952305747979341
 40
0.4973382237149959
 40
0.4989189604027923
 40
0.4997093287466904
 40
0.5002362409759559
 40
0.5010266093198541
 40
0.5020804337783851
 40
0.5036611704661813
 40
0.5057688193832431
 40
0.5089302927588358
 40
0.5131455905929595
 40
0.517360888427083
 40
0.5236838351782684
 40
0.5363297286806393
 40
0.5531909200171338
 40
0.5700521113536282
 40
0.5869133026901227
 40
0.6037744940266171
 40
0.616420387528988
 40
0.6216895098216424
 40
0.6237971587387042
 40
0.6259048076557661
 40
0.6280124565728278
 40
0.6332815788654824
 40
0.6417121745337295
 40
0.6543580680361004
 40
0.6796498550408421
 40
0.7049416420455837
 40
0.7218028333820782
 40
0.7344487268844491
 40
0.7407716736356345
 40
0.744986971469758
 40
0.7481484448453508
 40
0.7502560937624125
 40
0.7534175671380052
 40
0.7597405138891906
 40
0.7723864073915615
 40
0.7892475987280559
 40
0.8145393857327976
 40
0.8482617684057865
 40
0.8819841510787754
 40
0.9157065337517643
 40
1.000012490434236
 40
1.000012490434236
 40
1.000012490434236
 10
-256.166872234125
 20
-71.52871257628551
 30
0.0
 10
-255.8052713259227
 20
-71.65144770829733
 30
0.0
 10
-255.2990074280636
 20
-71.82328521095401
 30
0.0
 10
-255.0459252571607
 20
-71.9091856630341
 30
0.0
 10
-254.8830877569754
 20
-71.96445951726203
 30
0.0
 10
-254.7929636929208
 20
-71.99504177805565
 30
0.0
 10
-254.6703332144853
 20
-72.0367636180041
 30
0.0
 10
-254.4422146474882
 20
-72.1150319671537
 30
0.0
 10
-254.1632687251699
 20
-72.21201669875963
 30
0.0
 10
-253.9376531905068
 20
-72.29150443238406
 30
0.0
 10
-253.8253555361912
 20
-72.3313957550247
 30
0.0
 10
-253.78196906524
 20
-72.34684625960953
 30
0.0
 10
-253.7232248839748
 20
-72.36779928305867
 30
0.0
 10
-253.5798353365934
 20
-72.41913059504752
 30
0.0
 10
-253.3740312979818
 20
-72.49343893259412
 30
0.0
 10
-253.199824079851
 20
-72.55685951486622
 30
0.0
 10
-253.0590080185252
 20
-72.60839778691908
 30
0.0
 10
-252.9345252159688
 20
-72.65419560029171
 30
0.0
 10
-252.8449401283357
 20
-72.68728045356141
 30
0.0
 10
-252.7818795931875
 20
-72.71062785120097
 30
0.0
 10
-252.7367777964313
 20
-72.72735767341037
 30
0.0
 10
-252.696660257515
 20
-72.74225618073179
 30
0.0
 10
-252.622632077966
 20
-72.7697938499605
 30
0.0
 10
-252.4742751763683
 20
-72.8251671950134
 30
0.0
 10
-252.2400923013205
 20
-72.91314757547302
 30
0.0
 10
-251.9677328268109
 20
-73.0163349042695
 30
0.0
 10
-251.6905831106282
 20
-73.12218752260586
 30
0.0
 10
-251.4086653314441
 20
-73.23069865141292
 30
0.0
 10
-251.1578234534452
 20
-73.32797012021919
 30
0.0
 10
-250.9764156382867
 20
-73.3986972016402
 30
0.0
 10
-250.8484194422984
 20
-73.44877575594937
 30
0.0
 10
-250.7655559276455
 20
-73.48128036463588
 30
0.0
 10
-250.7195734895649
 20
-73.49934073127208
 30
0.0
 10
-250.6818163281226
 20
-73.51418347951582
 30
0.0
 10
-250.6492654191409
 20
-73.52698991675366
 30
0.0
 10
-250.6084879187875
 20
-73.5430442767025
 30
0.0
 10
-250.5348242354912
 20
-73.57207784153947
 30
0.0
 10
-250.4194233829103
 20
-73.61765949705138
 30
0.0
 10
-250.2530157771328
 20
-73.6835735315186
 30
0.0
 10
-250.0167952677902
 20
-73.77752657967342
 30
0.0
 10
-249.7418834666072
 20
-73.88744954722173
 30
0.0
 10
-249.4620325718651
 20
-73.99991876745037
 30
0.0
 10
-249.1772512395374
 20
-74.11493142676079
 30
0.0
 10
-248.9237461721945
 20
-74.21779656182447
 30
0.0
 10
-248.7587321356761
 20
-74.28498397182953
 30
0.0
 10
-248.6756418786603
 20
-74.31887192679082
 30
0.0
 10
-248.6341084096331
 20
-74.33582512663327
 30
0.0
 10
-248.6106539022817
 20
-74.34540287510525
 30
0.0
 10
-248.591931585547
 20
-74.35305015163595
 30
0.0
 10
-248.5644776659624
 20
-74.36426768291585
 30
0.0
 10
-248.5254698325661
 20
-74.38021359165613
 30
0.0
 10
-248.4547018266835
 20
-74.4091625361796
 30
0.0
 10
-248.3432958970831
 20
-74.45479685005114
 30
0.0
 10
-248.2138875347807
 20
-74.50789821716886
 30
0.0
 10
-248.0495359222346
 20
-74.57545251111848
 30
0.0
 10
-247.8140016526035
 20
-74.67250188166157
 30
0.0
 10
-247.536538921601
 20
-74.7871799436804
 30
0.0
 10
-247.2865225993876
 20
-74.89081376633527
 30
0.0
 10
-247.1040668600162
 20
-74.96659920316203
 30
0.0
 10
-246.9560382506515
 20
-75.02816636731323
 30
0.0
 10
-246.8247070242013
 20
-75.08285920778093
 30
0.0
 10
-246.7299350818479
 20
-75.122364129764
 30
0.0
 10
-246.6631324513378
 20
-75.1502274577195
 30
0.0
 10
-246.615210194999
 20
-75.17022492153951
 30
0.0
 10
-246.5814085190611
 20
-75.18433430119569
 30
0.0
 10
-246.5600313187024
 20
-75.19325946998234
 30
0.0
 10
-246.5471614328115
 20
-75.19863340225626
 30
0.0
 10
-246.5400022388052
 20
-75.20162300015666
 30
0.0
 10
-246.5289701342778
 20
-75.20623027082826
 30
0.0
 10
-246.513409250729
 20
-75.21272970014863
 30
0.0
 10
-246.4913206623085
 20
-75.22195728242113
 30
0.0
 10
-246.4593544503682
 20
-75.23531446329307
 30
0.0
 10
-246.413682313472
 20
-75.25440530278667
 30
0.0
 10
-246.3600961548359
 20
-75.27681404428003
 30
0.0
 10
-246.2913758148668
 20
-75.30556363526439
 30
0.0
 10
-246.1629922077185
 20
-75.35930537794643
 30
0.0
 10
-245.9487219097527
 20
-75.44909451701919
 30
0.0
 10
-245.6816898727172
 20
-75.56112839875239
 30
0.0
 10
-245.3925383229559
 20
-75.68256666758955
 30
0.0
 10
-245.0812773101244
 20
-75.81340522933648
 30
0.0
 10
-244.789650984274
 20
-75.93608362450786
 30
0.0
 10
-244.6036651513808
 20
-76.01436202954318
 30
0.0
 10
-244.5257714628412
 20
-76.04715263060237
 30
0.0
 10
-244.4802608441252
 20
-76.06631270044659
 30
0.0
 10
-244.4382914479033
 20
-76.08398237744962
 30
0.0
 10
-244.3647697935699
 20
-76.11493414936191
 30
0.0
 10
-244.2303942672276
 20
-76.17149806229762
 30
0.0
 10
-244.0285181223698
 20
-76.25645869307985
 30
0.0
 10
-243.6784554096318
 20
-76.40373771782492
 30
0.0
 10
-243.2471361040209
 20
-76.58507383170152
 30
0.0
 10
-242.9172147618362
 20
-76.72366330343648
 30
0.0
 10
-242.7000366605714
 20
-76.81483355157975
 30
0.0
 10
-242.5670423303671
 20
-76.87063341985821
 30
0.0
 10
-242.4950249338947
 20
-76.90084057526782
 30
0.0
 10
-242.4453606888764
 20
-76.92166759404668
 30
0.0
 10
-242.4106965286481
 20
-76.93620194777057
 30
0.0
 10
-242.374317002609
 20
-76.95145389824586
 30
0.0
 10
-242.3067889061051
 20
-76.97976074155542
 30
0.0
 10
-242.1713116424477
 20
-77.03653486690295
 30
0.0
 10
-241.9565023926647
 20
-77.12650514571803
 30
0.0
 10
-241.6425197274125
 20
-77.25792063614742
 30
0.0
 10
-241.1877874978281
 20
-77.4480565762127
 30
0.0
 10
-240.6450287101733
 20
-77.6747198892282
 30
0.0
 10
-240.079189694287
 20
-77.91075484713019
 30
0.0
 10
-239.0485715346241
 20
-78.34022048273857
 30
0.0
 10
-238.2402452798944
 20
-78.67628719267076
 30
0.0
  0
SPLINE
  5
85
330
1F
100
AcDbEntity
  8
0
  6
Continuous
 62
     7
370
    25
100
AcDbSpline
210
0.0
220
0.0
230
1.0
 70
     8
 71
     3
 72
   125
 73
   121
 74
     0
 42
0.00000001
 43
0.00000001
 40
-0.00000322489493
 40
-0.00000322489493
 40
-0.00000322489493
 40
-0.00000322489493
 40
0.0156219085222171
 40
0.0234344752307906
 40
0.0312470419393642
 40
0.035153325293651
 40
0.0390596086479377
 40
0.0468721753565113
 40
0.0546847420650848
 40
0.0624973087736584
 40
0.070309875482232
 40
0.0722630171593753
 40
0.0742161588365187
 40
0.0781224421908055
 40
0.0937475756079526
 40
0.0976538589622394
 40
0.1015601423165262
 40
0.1054664256708129
 40
0.1093727090250997
 40
0.1113258507022431
 40
0.1132789923793865
 40
0.1142555632179582
 40
0.1152321340565299
 40
0.1162087048951016
 40
0.1171852757336733
 40
0.1191384174108167
 40
0.1210915590879601
 40
0.1230447007651034
 40
0.1249978424422468
 40
0.1269509841193902
 40
0.1289041257965336
 40
0.130857267473677
 40
0.1313455528929628
 40
0.1318338383122487
 40
0.1328104091508204
 40
0.1347635508279638
 40
0.1367166925051072
 40
0.140622975859394
 40
0.1445292592136807
 40
0.1484355425679675
 40
0.1523418259222543
 40
0.1562481092765411
 40
0.1582012509536845
 40
0.1601543926308278
 40
0.1640606759851146
 40
0.1679669593394014
 40
0.1718732426936882
 40
0.1757795260479749
 40
0.1796858094022617
 40
0.1874983761108353
 40
0.1953109428194088
 40
0.1992172261736956
 40
0.2031235095279824
 40
0.2109360762365559
 40
0.2187486429451295
 40
0.2343737763622766
 40
0.2421863430708502
 40
0.2499989097794237
 40
0.2656240431965708
 40
0.281249176613718
 40
0.2968743100308651
 40
0.3124994434480122
 40
0.3437497102823064
 40
0.3593748436994535
 40
0.3749999771166006
 40
0.3906251105337477
 40
0.4062502439508948
 40
0.4218753773680419
 40
0.437500510785189
 40
0.4531256442023361
 40
0.4687507776194832
 40
0.5000010444537775
 40
0.5156261778709246
 40
0.5312513112880717
 40
0.5468764447052188
 40
0.5546890114137923
 40
0.5625015781223659
 40
0.578126711539513
 40
0.5937518449566601
 40
0.6093769783738072
 40
0.6250021117909543
 40
0.6406272452081014
 40
0.6562523786252485
 40
0.6875026454595428
 40
0.7031277788766899
 40
0.7109403455852634
 40
0.718752912293837
 40
0.7343780457109841
 40
0.7421906124195576
 40
0.7500031791281312
 40
0.7656283125452783
 40
0.7812534459624254
 40
0.8125037127967196
 40
0.8437539796310138
 40
0.859379113048161
 40
0.875004246465308
 40
0.8906293798824552
 40
0.9062545132996023
 40
0.9218796467167494
 40
0.9375047801338965
 40
0.94531734684247
 40
0.9531299135510436
 40
0.9609424802596171
 40
0.9687550469681907
 40
0.9726613303224775
 40
0.9765676136767643
 40
0.980473897031051
 40
0.9843801803853378
 40
0.9882864637396246
 40
0.9902396054167679
 40
0.9921927470939114
 40
0.9931693179324831
 40
0.9941458887710548
 40
0.9951224596096264
 40
0.9960990304481981
 40
0.9970756012867699
 40
0.9980521721253415
 40
0.9990287429639132
 40
0.9995170283831991
 40
1.000005313802485
 40
1.000005313802485
 40
1.000005313802485
 40
1.000005313802485
 10
-238.2402452798944
 20
-78.67628719267076
 30
0.0
 10
-237.853747011735
 20
-78.8368588763826
 30
0.0
 10
-237.2741012650202
 20
-79.07770070430539
 30
0.0
 10
-236.5008895034322
 20
-79.39902037125837
 30
0.0
 10
-236.0184095749615
 20
-79.5995463347515
 30
0.0
 10
-235.6306754535361
 20
-79.7607022316953
 30
0.0
 10
-235.2542104187632
 20
-79.91721633169102
 30
0.0
 10
-234.805177760221
 20
-80.10398384768568
 30
0.0
 10
-234.3007180544288
 20
-80.31394470930384
 30
0.0
 10
-233.8306028092822
 20
-80.50976025340186
 30
0.0
 10
-233.5040120019376
 20
-80.64591380067355
 30
0.0
 10
-233.2967641029118
 20
-80.73236807161324
 30
0.0
 10
-233.1621462775085
 20
-80.78853942762389
 30
0.0
 10
-232.7842770952125
 20
-80.9462756639794
 30
0.0
 10
-232.3442889328384
 20
-81.13017253167186
 30
0.0
 10
-231.8765392892665
 20
-81.32588814075565
 30
0.0
 10
-231.6371148548379
 20
-81.42610857619472
 30
0.0
 10
-231.3921385736248
 20
-81.52869258669872
 30
0.0
 10
-231.18337454313
 20
-81.61614496436889
 30
0.0
 10
-231.0135738736227
 20
-81.68729433411217
 30
0.0
 10
-230.9063276893515
 20
-81.73224005209276
 30
0.0
 10
-230.8197570950636
 20
-81.76852550730527
 30
0.0
 10
-230.7547020626519
 20
-81.7957950403398
 30
0.0
 10
-230.6884619522349
 20
-81.82356400247195
 30
0.0
 10
-230.5841207621248
 20
-81.8673146228642
 30
0.0
 10
-230.4287301450196
 20
-81.9324832913598
 30
0.0
 10
-230.2007794001804
 20
-82.0281002907441
 30
0.0
 10
-229.9317869972319
 20
-82.14094712624846
 30
0.0
 10
-229.6216568997956
 20
-82.27106408970732
 30
0.0
 10
-229.2703962388024
 20
-82.41844822608725
 30
0.0
 10
-228.878107852661
 20
-82.58305625204555
 30
0.0
 10
-228.5528228503385
 20
-82.7195555686278
 30
0.0
 10
-228.3234895172542
 20
-82.8157926023568
 30
0.0
 10
-228.1662955495802
 20
-82.88175885488938
 30
0.0
 10
-227.8932373144183
 20
-82.9963353661376
 30
0.0
 10
-227.5130502617531
 20
-83.1558244647206
 30
0.0
 10
-226.924160790118
 20
-83.40278089379058
 30
0.0
 10
-226.2252137639976
 20
-83.69572785608581
 30
0.0
 10
-225.4457197186163
 20
-84.02215960746462
 30
0.0
 10
-224.7253754875326
 20
-84.32352521158593
 30
0.0
 10
-224.0646457782989
 20
-84.59963023039833
 30
0.0
 10
-223.5620988881409
 20
-84.8093434922922
 30
0.0
 10
-223.1924240361492
 20
-84.96341482968944
 30
0.0
 10
-222.8315959467633
 20
-85.11367618602429
 30
0.0
 10
-222.3856445123149
 20
-85.29916913406514
 30
0.0
 10
-221.8622443014245
 20
-85.51651818327512
 30
0.0
 10
-221.3496135195841
 20
-85.72903106604437
 30
0.0
 10
-220.8480146505848
 20
-85.93659796283644
 30
0.0
 10
-220.1937950819944
 20
-86.20681322625971
 30
0.0
 10
-219.4036228223843
 20
-86.5322084943807
 30
0.0
 10
-218.6492608491725
 20
-86.84151218161868
 30
0.0
 10
-218.0692054081987
 20
-87.07849908179432
 30
0.0
 10
-217.4958741125071
 20
-87.31217094124531
 30
0.0
 10
-216.7898794412615
 20
-87.59884076393253
 30
0.0
 10
-215.6838164092498
 20
-88.04563331629679
 30
0.0
 10
-214.6128666980972
 20
-88.47468048956381
 30
0.0
 10
-213.576622680907
 20
-88.88613930306217
 30
0.0
 10
-212.5648032467589
 20
-89.28535813069799
 30
0.0
 10
-211.3270204227183
 20
-89.76891751589265
 30
0.0
 10
-209.885500257083
 20
-90.3241820381848
 30
0.0
 10
-208.4878530649657
 20
-90.85441673028622
 30
0.0
 10
-206.6811927950631
 20
-91.52860823651831
 30
0.0
 10
-204.9293576813189
 20
-92.16480008539679
 30
0.0
 10
-203.2398527543224
 20
-92.76022545119773
 30
0.0
 10
-201.9923166259578
 20
-93.19049917223012
 30
0.0
 10
-200.7612095484745
 20
-93.60552157308028
 30
0.0
 10
-199.555231746917
 20
-94.00243132834483
 30
0.0
 10
-198.3863577611531
 20
-94.37727230624981
 30
0.0
 10
-197.2536456163292
 20
-94.73038571260058
 30
0.0
 10
-196.1420626358572
 20
-95.06628404190484
 30
0.0
 10
-194.6881253730573
 20
-95.49117306185812
 30
0.0
 10
-193.2758735917023
 20
-95.88171059995787
 30
0.0
 10
-191.9064368013806
 20
-96.23745785178942
 30
0.0
 10
-190.8945423605756
 20
-96.48861704273038
 30
0.0
 10
-190.0640917234185
 20
-96.68480373750407
 30
0.0
 10
-189.4072809848095
 20
-96.83390499928994
 30
0.0
 10
-188.7449283464692
 20
-96.98003465859843
 30
0.0
 10
-187.9090985375915
 20
-97.15657762158968
 30
0.0
 10
-186.8956849713904
 20
-97.35825126553878
 30
0.0
 10
-185.8608088617842
 20
-97.55190058299125
 30
0.0
 10
-184.7977293909894
 20
-97.73886920355524
 30
0.0
 10
-183.7083775348605
 20
-97.918826210452
 30
0.0
 10
-182.2190523675443
 20
-98.14975809504841
 30
0.0
 10
-180.6808201166462
 20
-98.36629053529319
 30
0.0
 10
-179.2424342463406
 20
-98.55045079326355
 30
0.0
 10
-178.3967795696181
 20
-98.65380503682098
 30
0.0
 10
-177.5440601681649
 20
-98.75493163618586
 30
0.0
 10
-176.6792045272081
 20
-98.8528854964671
 30
0.0
 10
-175.8004939024549
 20
-98.94788233936248
 30
0.0
 10
-174.9234691160745
 20
-99.03957701307644
 30
0.0
 10
-173.8307899889989
 20
-99.14796217973522
 30
0.0
 10
-172.0897365012218
 20
-99.30811117147458
 30
0.0
 10
-169.9289005474604
 20
-99.48328609725164
 30
0.0
 10
-167.779320392207
 20
-99.62570373868418
 30
0.0
 10
-166.0650281981009
 20
-99.72005831098355
 30
0.0
 10
-164.7839847403747
 20
-99.78091910840746
 30
0.0
 10
-163.4981119684955
 20
-99.83241407267722
 30
0.0
 10
-162.2059877971727
 20
-99.87462488786045
 30
0.0
 10
-160.9079681560586
 20
-99.90753395345963
 30
0.0
 10
-159.8213300468579
 20
-99.92721279632568
 30
0.0
 10
-158.9489449836318
 20
-99.93831209415096
 30
0.0
 10
-158.2929744429183
 20
-99.94431809205805
 30
0.0
 10
-157.635399092669
 20
-99.94800542412298
 30
0.0
 10
-157.0859461982893
 20
-99.94914571311934
 30
0.0
 10
-156.6457879978949
 20
-99.94890034246738
 30
0.0
 10
-156.3156137850444
 20
-99.94813931815851
 30
0.0
 10
-155.9853815208178
 20
-99.94680137958665
 30
0.0
 10
-155.6550051628807
 20
-99.94488546782698
 30
0.0
 10
-155.3799822926999
 20
-99.94281155896955
 30
0.0
 10
-155.1628352244885
 20
-99.94090791556563
 30
0.0
 10
-155.0283380138758
 20
-99.93961627955983
 30
0.0
 10
-154.9207175035079
 20
-99.93851137864068
 30
0.0
 10
-154.8420616657131
 20
-99.93767565173587
 30
0.0
 10
-154.7549772728819
 20
-99.93668992203725
 30
0.0
 10
-154.6580575661717
 20
-99.93553178626588
 30
0.0
 10
-154.5515638616721
 20
-99.93420638719556
 30
0.0
 10
-154.4354287175337
 20
-99.93271279911679
 30
0.0
 10
-154.3303812422161
 20
-99.93132498776879
 30
0.0
 10
-154.2418760332131
 20
-99.93013566296143
 30
0.0
 10
-154.1952680516169
 20
-99.92950276230249
 30
0.0
 10
-154.1722585131347
 20
-99.92918887425536
 30
0.0
  0
LINE
  5
86
330
1F
100
AcDbEntity
  8
0
  6
Continuous
 62
     7
370
    25
100
AcDbLine
 10
-154.1722585131
 20
-99.9291888743
 30
0.0
 11
-154.1569822777
 21
-99.928968845
 31
0.0
  0
SPLINE
  5
87
330
1F
100
AcDbEntity
  8
0
  6
Continuous
 62
     7
370
    25
100
AcDbSpline
210
0.0
220
0.0
230
1.0
 70
     8
 71
     3
 72
    14
 73
    10
 74
     0
 42
0.00000001
 43
0.00000001
 40
0.0
 40
0.0
 40
0.0
 40
0.0
 40
0.1250016169934291
 40
0.2500032339868583
 40
0.5000064679737165
 40
0.6250080849671455
 40
0.7500097019605747
 40
0.8750113189540039
 40
1.000012935947433
 40
1.000012935947433
 40
1.000012935947433
 40
1.000012935947433
 10
-154.1569822777073
 20
-99.92896884498184
 30
0.0
 10
-153.0253743129365
 20
-99.91262732479584
 30
0.0
 10
-150.7620309715245
 20
-99.86288651063721
 30
0.0
 10
-146.2400355843346
 20
-99.69770900908959
 30
0.0
 10
-141.7223267369614
 20
-99.43604034937756
 30
0.0
 10
-137.2146505140727
 20
-99.08182171641684
 30
0.0
 10
-133.8391596947504
 20
-98.77121073977614
 30
0.0
 10
-130.46742152492
 20
-98.41674217222483
 30
0.0
 10
-128.2183617945903
 20
-98.14734332228569
 30
0.0
 10
-127.0956181369717
 20
-98.00362346279591
 30
0.0
  0
LINE
  5
88
330
1F
100
AcDbEntity
  8
0
  6
Continuous
 62
     7
370
    25
100
AcDbLine
 10
-127.095618137
 20
-98.0036234628
 30
0.0
 11
-126.9667459417
 21
-97.9870812006
 31
0.0
  0
SPLINE
  5
89
330
1F
100
AcDbEntity
  8
0
  6
Continuous
 62
     7
370
    25
100
AcDbSpline
210
0.0
220
0.0
230
1.0
 70
     8
 71
     3
 72
    82
 73
    78
 74
     0
 42
0.00000001
 43
0.00000001
 40
-0.0000121508584279
 40
-0.0000121508584279
 40
-0.0000121508584279
 40
-0.0000121508584279
 40
0.001941026517261
 40
0.0038942038929498
 40
0.0058473812686387
 40
0.0078005586443275
 40
0.0117069133957052
 40
0.0136600907713941
 40
0.0156132681470829
 40
0.0195196228984606
 40
0.0234259776498383
 40
0.0312386871525937
 40
0.0390513966553491
 40
0.0468641061581045
 40
0.0546768156608598
 40
0.0624895251636152
 40
0.078114944169126
 40
0.0937403631746368
 40
0.1249912011856583
 40
0.1562420391966799
 40
0.1718674582021906
 40
0.1874928772077014
 40
0.2031182962132122
 40
0.218743715218723
 40
0.2343691342242337
 40
0.2499945532297445
 40
0.2656199722352553
 40
0.2812453912407661
 40
0.3124962292517876
 40
0.3437470672628091
 40
0.3593724862683199
 40
0.3749979052738307
 40
0.3906233242793415
 40
0.4062487432848523
 40
0.4374995812958738
 40
0.4687504193068953
 40
0.5000012573179169
 40
0.5312520953289385
 40
0.5468775143344493
 40
0.56250293333996
 40
0.5937537713509815
 40
0.6250046093620031
 40
0.6562554473730247
 40
0.6875062853840461
 40
0.7187571233950677
 40
0.7343825424005785
 40
0.7500079614060893
 40
0.7656333804116
 40
0.7812587994171108
 40
0.7890715089198663
 40
0.7968842184226217
 40
0.8125096374281324
 40
0.8281350564336432
 40
0.8437604754391539
 40
0.8593858944446646
 40
0.8750113134501755
 40
0.8906367324556863
 40
0.8984494419584417
 40
0.906262151461197
 40
0.9218875704667078
 40
0.9375129894722185
 40
0.9453256989749739
 40
0.9531384084777292
 40
0.9609511179804846
 40
0.9687638274832401
 40
0.9726701822346178
 40
0.9765765369859956
 40
0.9804828917373732
 40
0.9843892464887509
 40
0.9882956012401286
 40
0.9902487786158174
 40
0.9922019559915063
 40
0.9941551333671952
 40
0.996108310742884
 40
0.9980614881185728
 40
0.9990380768064172
 40
1.000014665494262
 40
1.000014665494262
 40
1.000014665494262
 40
1.000014665494262
 10
-126.9667459416873
 20
-97.9870812006207
 30
0.0
 10
-126.9140847936001
 20
-97.98026837854049
 30
0.0
 10
-126.8078661738105
 20
-97.96648467116611
 30
0.0
 10
-126.6539649500689
 20
-97.94638114298873
 30
0.0
 10
-126.5033276444273
 20
-97.92657056894157
 30
0.0
 10
-126.3075728131441
 20
-97.90064244850285
 30
0.0
 10
-126.11924499207
 20
-97.87541533049674
 30
0.0
 10
-125.9381138432966
 20
-97.85085675783174
 30
0.0
 10
-125.7625480429866
 20
-97.82684588300138
 30
0.0
 10
-125.5430165311663
 20
-97.7965039368295
 30
0.0
 10
-125.1924138671047
 20
-97.74735160282441
 30
0.0
 10
-124.7550020612008
 20
-97.68473229198088
 30
0.0
 10
-124.2316335974682
 20
-97.60772358511524
 30
0.0
 10
-123.7098951065925
 20
-97.5288639256004
 30
0.0
 10
-123.1896086758376
 20
-97.44812568891426
 30
0.0
 10
-122.498640460146
 20
-97.33809416234081
 30
0.0
 10
-121.6344455837572
 20
-97.19522168633377
 30
0.0
 10
-120.2421877505306
 20
-96.95393084697696
 30
0.0
 10
-118.4870217127322
 20
-96.6290435003158
 30
0.0
 10
-116.707591158177
 20
-96.27229285315576
 30
0.0
 10
-115.264485321625
 20
-95.96685512188566
 30
0.0
 10
-114.1726090968683
 20
-95.72778038691632
 30
0.0
 10
-113.0733382970539
 20
-95.47924353384599
 30
0.0
 10
-111.9723019320163
 20
-95.22262471031512
 30
0.0
 10
-110.86839419828
 20
-94.95764611207333
 30
0.0
 10
-109.7607097334912
 20
-94.68413000011654
 30
0.0
 10
-108.6539741929175
 20
-94.4030784356209
 30
0.0
 10
-107.1889219013033
 20
-94.02038118153996
 30
0.0
 10
-105.3734821496172
 20
-93.52617166217007
 30
0.0
 10
-103.5811108254886
 20
-93.01128316497996
 30
0.0
 10
-102.1599959125727
 20
-92.58665802051792
 30
0.0
 10
-101.1022909993389
 20
-92.26236936776742
 30
0.0
 10
-100.0451710912291
 20
-91.92989178711248
 30
0.0
 10
-98.63331975774796
 20
-91.47468623756512
 30
0.0
 10
-96.8656615132835
 20
-90.88386949790447
 30
0.0
 10
-94.73878657346718
 20
-90.13963082564433
 30
0.0
 10
-92.60871147539716
 20
-89.36101995322335
 30
0.0
 10
-90.82302846180829
 20
-88.68076143862652
 30
0.0
 10
-89.38641948997731
 20
-88.11713040324759
 30
0.0
 10
-87.9443511439753
 20
-87.54050181818775
 30
0.0
 10
-86.14376810203545
 20
-86.80021962904348
 30
0.0
 10
-83.9824938043243
 20
-85.87910962505434
 30
0.0
 10
-81.83379369466533
 20
-84.93091586258426
 30
0.0
 10
-79.69419613934694
 20
-83.95401206804289
 30
0.0
 10
-77.95982057436476
 20
-83.13542336854567
 30
0.0
 10
-76.59962696777988
 20
-82.47702125231838
 30
0.0
 10
-75.58824279752561
 20
-81.97887514624321
 30
0.0
 10
-74.58488149013466
 20
-81.47598797759422
 30
0.0
 10
-73.7557209269902
 20
-81.05311483609331
 30
0.0
 10
-73.09625831599315
 20
-80.71236583509639
 30
0.0
 10
-72.44037138946901
 20
-80.37051073119567
 30
0.0
 10
-71.64082249844792
 20
-79.94835181034645
 30
0.0
 10
-70.71066033847491
 20
-79.4483034154004
 30
0.0
 10
-69.81007167349414
 20
-78.9548979375137
 30
0.0
 10
-68.94080387921773
 20
-78.46911962723095
 30
0.0
 10
-68.09449468329387
 20
-77.9861488432515
 30
0.0
 10
-67.40639136049478
 20
-77.584865314826
 30
0.0
 10
-66.86582989925806
 20
-77.26431565842616
 30
0.0
 10
-66.3248913582283
 20
-76.93997220006763
 30
0.0
 10
-65.6506193241151
 20
-76.52896594221974
 30
0.0
 10
-64.97788408984577
 20
-76.10993591703877
 30
0.0
 10
-64.44289147417463
 20
-75.77127797435979
 30
0.0
 10
-64.04308601312775
 20
-75.51547075281175
 30
0.0
 10
-63.64491051800908
 20
-75.25797410239642
 30
0.0
 10
-63.31446844174828
 20
-75.04199427964
 30
0.0
 10
-63.0511219601059
 20
-74.86849309414153
 30
0.0
 10
-62.85418351574753
 20
-74.73805290542438
 30
0.0
 10
-62.65791469043571
 20
-74.60736544808225
 30
0.0
 10
-62.46234643363368
 20
-74.47645054382787
 30
0.0
 10
-62.29837012279521
 20
-74.36609362755598
 30
0.0
 10
-62.16520417715295
 20
-74.27610339060439
 30
0.0
 10
-62.0661875347583
 20
-74.20903751032765
 30
0.0
 10
-61.95714238870309
 20
-74.13489620382116
 30
0.0
 10
-61.83837576351774
 20
-74.05387309692256
 30
0.0
 10
-61.73088537577767
 20
-73.9803401719526
 30
0.0
 10
-61.64028292348332
 20
-73.918249708839
 30
0.0
 10
-61.59254622255693
 20
-73.88549921149948
 30
0.0
 10
-61.56898792324865
 20
-73.86932893595511
 30
0.0
  0
SPLINE
  5
8A
330
1F
100
AcDbEntity
  8
0
  6
Continuous
 62
     7
370
    25
100
AcDbSpline
210
0.0
220
0.0
230
1.0
 70
     8
 71
     2
 72
    94
 73
    91
 74
     0
 42
0.00000001
 43
0.00000001
 40
-0.0001158850376906
 40
-0.0001158850376906
 40
-0.0001158850376906
 40
0.0467993808110835
 40
0.0702570137354706
 40
0.085895435685062
 40
0.1015338576346534
 40
0.1132626740968469
 40
0.1191270823279437
 40
0.122059286443492
 40
0.124014089187191
 40
0.1259688919308899
 40
0.1279236946745888
 40
0.1308558987901372
 40
0.1367203070212339
 40
0.1484491234834275
 40
0.1640875454330188
 40
0.1797259673826102
 40
0.1953643893322016
 40
0.211002811281793
 40
0.2266412332313844
 40
0.2383700496935779
 40
0.2442344579246747
 40
0.2471666620402231
 40
0.249121464783922
 40
0.2510762675276209
 40
0.2530310702713198
 40
0.2559632743868682
 40
0.261827682617965
 40
0.2735564990801585
 40
0.2891949210297499
 40
0.3048333429793413
 40
0.3282909759037283
 40
0.3517486088281153
 40
0.3634774252903089
 40
0.3693418335214056
 40
0.3732514390088035
 40
0.3771610444962013
 40
0.3810706499835991
 40
0.3869350582146959
 40
0.3986638746768895
 40
0.4143022966264808
 40
0.4299407185760722
 40
0.4533983515004593
 40
0.4768559844248463
 40
0.4885848008870399
 40
0.4964040118618356
 40
0.5042232228366312
 40
0.512042433811427
 40
0.5237712502736205
 40
0.5394096722232118
 40
0.5511384886854054
 40
0.5570028969165022
 40
0.5609125024039001
 40
0.5648221078912978
 40
0.5687317133786958
 40
0.5745961216097925
 40
0.5863249380719859
 40
0.6019633600215775
 40
0.613692176483771
 40
0.6195565847148676
 40
0.6234661902022656
 40
0.6273757956896633
 40
0.6312854011770612
 40
0.6371498094081579
 40
0.6488786258703514
 40
0.6645170478199429
 40
0.6762458642821364
 40
0.684065075256932
 40
0.6918842862317277
 40
0.6997034972065234
 40
0.7114323136687168
 40
0.7270707356183084
 40
0.7427091575678997
 40
0.758347579517491
 40
0.7739860014670823
 40
0.7974436343914695
 40
0.8287204782906522
 40
0.8521781112150393
 40
0.8639069276772328
 40
0.8717261386520285
 40
0.8795453496268242
 40
0.88736456060162
 40
0.8990933770638134
 40
0.9225510099882005
 40
0.9538278538873832
 40
0.9772854868117704
 40
0.9890143032739639
 40
0.9948787115050606
 40
0.997810915620609
 40
0.9992770176783832
 40
1.000743119736157
 40
1.000743119736157
 40
1.000743119736157
 10
-61.56898792324866
 20
-73.86932893595511
 30
0.0
 10
-61.34837282250763
 20
-73.717485839334
 30
0.0
 10
-61.04211983816156
 20
-73.50400115906241
 30
0.0
 10
-60.87878737512436
 20
-73.38932665204618
 30
0.0
 10
-60.75172927791061
 20
-73.29966330726451
 30
0.0
 10
-60.64370596921457
 20
-73.2230193409796
 30
0.0
 10
-60.57573829032268
 20
-73.17458887674955
 30
0.0
 10
-60.54219495869345
 20
-73.15063484324158
 30
0.0
 10
-60.52350458377197
 20
-73.1372724336833
 30
0.0
 10
-60.50935254985237
 20
-73.12714749659938
 30
0.0
 10
-60.49087173489555
 20
-73.11391477599423
 30
0.0
 10
-60.46872704197939
 20
-73.098044317652
 30
0.0
 10
-60.42872655303982
 20
-73.06934027616393
 30
0.0
 10
-60.34940622722142
 20
-73.01227084598614
 30
0.0
 10
-60.22769235917789
 20
-72.9242308449363
 30
0.0
 10
-60.09121301382924
 20
-72.82478190438148
 30
0.0
 10
-59.95733135402109
 20
-72.72647988540336
 30
0.0
 10
-59.82603888592814
 20
-72.6293145974739
 30
0.0
 10
-59.69732208075722
 20
-72.53327169166505
 30
0.0
 10
-59.58694368616275
 20
-72.45020844747783
 30
0.0
 10
-59.51704722055785
 20
-72.39726067095536
 30
0.0
 10
-59.48240009500994
 20
-72.37092634194151
 30
0.0
 10
-59.46314603915356
 20
-72.35626667216829
 30
0.0
 10
-59.44815696698166
 20
-72.34484187698996
 30
0.0
 10
-59.43003965696492
 20
-72.33101518799893
 30
0.0
 10
-59.40811089746671
 20
-72.31425597958379
 30
0.0
 10
-59.36855575058396
 20
-72.28396413129603
 30
0.0
 10
-59.29003338662703
 20
-72.22358111028691
 30
0.0
 10
-59.16938618539474
 20
-72.13002212319608
 30
0.0
 10
-59.03384009660117
 20
-72.02369495225192
 30
0.0
 10
-58.86730377164753
 20
-71.89150451927813
 30
0.0
 10
-58.67265911331771
 20
-71.7341360197987
 30
0.0
 10
-58.53052654620646
 20
-71.61698738290131
 30
0.0
 10
-58.46045724818934
 20
-71.55865643963766
 30
0.0
 10
-58.42171142101835
 20
-71.52623676800164
 30
0.0
 10
-58.39125473292314
 20
-71.50066769927972
 30
0.0
 10
-58.35752125685582
 20
-71.47224629334265
 30
0.0
 10
-58.31615815316088
 20
-71.4372652057323
 30
0.0
 10
-58.2417345380133
 20
-71.37397669322131
 30
0.0
 10
-58.12681892725774
 20
-71.27516202259396
 30
0.0
 10
-57.99665042047696
 20
-71.16155444883206
 30
0.0
 10
-57.83542854401281
 20
-71.01872445979336
 30
0.0
 10
-57.64462894034389
 20
-70.84583131375648
 30
0.0
 10
-57.50357623086614
 20
-70.71507380049792
 30
0.0
 10
-57.4257004948568
 20
-70.64204886504028
 30
0.0
 10
-57.36404752041879
 20
-70.58379521114489
 30
0.0
 10
-57.29997687180819
 20
-70.52278503838814
 30
0.0
 10
-57.22110567676519
 20
-70.4470792500077
 30
0.0
 10
-57.11180104628764
 20
-70.3408957260409
 30
0.0
 10
-57.00420711181413
 20
-70.23465291473286
 30
0.0
 10
-56.93587103523926
 20
-70.16632909476485
 30
0.0
 10
-56.89807749101211
 20
-70.1283019248944
 30
0.0
 10
-56.86822027889949
 20
-70.098137327418
 30
0.0
 10
-56.8345874167163
 20
-70.06399683193466
 30
0.0
 10
-56.7937575175355
 20
-70.02233125339845
 30
0.0
 10
-56.72093853106995
 20
-69.94743921236285
 30
0.0
 10
-56.61066044984042
 20
-69.83214967742065
 30
0.0
 10
-56.50415308901717
 20
-69.7181764420962
 30
0.0
 10
-56.43750632152363
 20
-69.64550954118495
 30
0.0
 10
-56.40092222132854
 20
-69.60522637541648
 30
0.0
 10
-56.37215870184496
 20
-69.57334895755503
 30
0.0
 10
-56.3389754457106
 20
-69.53630296708556
 30
0.0
 10
-56.29878657146652
 20
-69.4910762520989
 30
0.0
 10
-56.22695341417572
 20
-69.40928556542201
 30
0.0
 10
-56.1178408388061
 20
-69.28198971342894
 30
0.0
 10
-56.01209585268418
 20
-69.1543630994469
 30
0.0
 10
-55.93828846921879
 20
-69.06285755099366
 30
0.0
 10
-55.88059752844583
 20
-68.9900166450546
 30
0.0
 10
-55.82031189188649
 20
-68.91240396859367
 30
0.0
 10
-55.74655213440283
 20
-68.81550949903888
 30
0.0
 10
-55.6449926370759
 20
-68.67804205593708
 30
0.0
 10
-55.53191121521559
 20
-68.51870536381237
 30
0.0
 10
-55.42137683399639
 20
-68.3564740591736
 30
0.0
 10
-55.31622571867269
 20
-68.19585607659708
 30
0.0
 10
-55.1878756218166
 20
-67.99191664881333
 30
0.0
 10
-55.01596658333442
 20
-67.70162261061478
 30
0.0
 10
-54.8543117486496
 20
-67.40487154971134
 30
0.0
 10
-54.75539608373987
 20
-67.21114858071194
 30
0.0
 10
-54.70180562459058
 20
-67.10265390472253
 30
0.0
 10
-54.65980015904755
 20
-67.01570259905075
 30
0.0
 10
-54.61693427244743
 20
-66.92490472190154
 30
0.0
 10
-54.56489184857797
 20
-66.81198422796794
 30
0.0
 10
-54.47425400434699
 20
-66.60792835310878
 30
0.0
 10
-54.3432500329209
 20
-66.28884067499857
 30
0.0
 10
-54.22582882144478
 20
-65.96740330159177
 30
0.0
 10
-54.15706010859713
 20
-65.75964688186829
 30
0.0
 10
-54.12439290495852
 20
-65.6555411493707
 30
0.0
 10
-54.10846208614615
 20
-65.60333253949096
 30
0.0
 10
-54.10066242880496
 20
-65.5774086026925
 30
0.0
 10
-54.09532886256906
 20
-65.55954530155536
 30
0.0
 10
-54.09342462825575
 20
-65.553133976767
 30
0.0
  0
SPLINE
  5
8B
330
1F
100
AcDbEntity
  8
0
  6
Continuous
 62
     7
370
    25
100
AcDbSpline
210
0.0
220
0.0
230
1.0
 70
     8
 71
     3
 72
    31
 73
    27
 74
     0
 42
0.00000001
 43
0.00000001
 40
-0.005575813335274
 40
-0.005575813335274
 40
-0.005575813335274
 40
-0.005575813335274
 40
0.0023020621410613
 40
0.0101799376173967
 40
0.0259356885700673
 40
0.0574471904754086
 40
0.0889586923807498
 40
0.1204701942860911
 40
0.1519816961914323
 40
0.1834931980967736
 40
0.2465162019074562
 40
0.3725622095288212
 40
0.4986082171501863
 40
0.6246542247715513
 40
0.6876772285822339
 40
0.7191887304875751
 40
0.7507002323929164
 40
0.7822117342982576
 40
0.8137232362035989
 40
0.8767462400142815
 40
0.9397692438249641
 40
0.9712807457303053
 40
0.9870364966829759
 40
0.9949143721593112
 40
0.9988533098974789
 40
1.002792247635647
 40
1.002792247635647
 40
1.002792247635647
 40
1.002792247635647
 10
-54.09342462825575
 20
-65.553133976767
 30
0.0
 10
-54.09243762106183
 20
-65.54972812115997
 30
0.0
 10
-54.09055454315956
 20
-65.54323440506012
 30
0.0
 10
-54.08606415914524
 20
-65.5277020662138
 30
0.0
 10
-54.07875834957297
 20
-65.50229649521873
 30
0.0
 10
-54.06864013496905
 20
-65.46672303333904
 30
0.0
 10
-54.05713733507737
 20
-65.42550138880031
 30
0.0
 10
-54.04636717189054
 20
-65.38598869735148
 30
0.0
 10
-54.03446728851508
 20
-65.34096151590009
 30
0.0
 10
-54.01917444975263
 20
-65.28160418598756
 30
0.0
 10
-53.99327385431003
 20
-65.17673257849607
 30
0.0
 10
-53.95957847041408
 20
-65.02749081421507
 30
0.0
 10
-53.92340621774894
 20
-64.84492681238662
 30
0.0
 10
-53.89809551009991
 20
-64.69729620326693
 30
0.0
 10
-53.88205316678591
 20
-64.59205694387477
 30
0.0
 10
-53.87351031200516
 20
-64.53236460659704
 30
0.0
 10
-53.86717651974397
 20
-64.48606641034068
 30
0.0
 10
-53.8619003624318
 20
-64.44564674099348
 30
0.0
 10
-53.85487556024771
 20
-64.3893338910971
 30
0.0
 10
-53.84670071856728
 20
-64.31897812571195
 30
0.0
 10
-53.83905897749219
 20
-64.24701801707162
 30
0.0
 10
-53.83399426668962
 20
-64.19605001944562
 30
0.0
 10
-53.83150461693818
 20
-64.1701470427207
 30
0.0
 10
-53.83030150067341
 20
-64.15742601544501
 30
0.0
 10
-53.82957539744363
 20
-64.14968156042912
 30
0.0
 10
-53.82929439809165
 20
-64.14666852887387
 30
0.0
 10
-53.82914370183571
 20
-64.14505460800346
 30
0.0
  0
SPLINE
  5
8C
330
1F
100
AcDbEntity
  8
0
  6
Continuous
 62
     7
370
    25
100
AcDbSpline
210
0.0
220
0.0
230
1.0
 70
     8
 71
     3
 72
    26
 73
    22
 74
     0
 42
0.00000001
 43
0.00000001
 40
-0.0000823107830198
 40
-0.0000823107830198
 40
-0.0000823107830198
 40
-0.0000823107830198
 40
0.0000672164974564
 40
0.0002167437779327
 40
0.0005157983388851
 40
0.0011139074607899
 40
0.0023101257045997
 40
0.0047025621922191
 40
0.0094874351674581
 40
0.0190571811179359
 40
0.0214496176055554
 40
0.0238420540931748
 40
0.0286269270684137
 40
0.0334118000436526
 40
0.0358042365312721
 40
0.0370004547750818
 40
0.0375985638969867
 40
0.0378976184579391
 40
0.0380471457384154
 40
0.0381219093786535
 40
0.0381966730188916
 40
0.0381966730188916
 40
0.0381966730188916
 40
0.0381966730188916
 10
-53.82914370183571
 20
-64.14505460800346
 30
0.0
 10
-53.82894255857749
 20
-64.14282216041785
 30
0.0
 10
-53.82856652309513
 20
-64.1386548408795
 30
0.0
 10
-53.82761007102611
 20
-64.12793909003081
 30
0.0
 10
-53.82606246781268
 20
-64.11032063642745
 30
0.0
 10
-53.82300132742405
 20
-64.0743879798455
 30
0.0
 10
-53.81733960969662
 20
-64.00345505836572
 30
0.0
 10
-53.80755359905186
 20
-63.86263232487301
 30
0.0
 10
-53.79377646102184
 20
-63.58796932846845
 30
0.0
 10
-53.78937066704113
 20
-63.32212157449781
 30
0.0
 10
-53.7903266168835
 20
-63.10086803498345
 30
0.0
 10
-53.79229829598464
 20
-62.95021908535591
 30
0.0
 10
-53.7975994501623
 20
-62.75829736104455
 30
0.0
 10
-53.80751064267819
 20
-62.56097755788229
 30
0.0
 10
-53.81732004769353
 20
-62.42029202267111
 30
0.0
 10
-53.82301481461695
 20
-62.34917015423743
 30
0.0
 10
-53.82604899162127
 20
-62.31361713408883
 30
0.0
 10
-53.82763938011657
 20
-62.29556022936696
 30
0.0
 10
-53.82841679504676
 20
-62.28686049250943
 30
0.0
 10
-53.82891439731228
 20
-62.28133987868326
 30
0.0
 10
-53.82906772466984
 20
-62.27964364738099
 30
0.0
 10
-53.82915632257053
 20
-62.27866252227852
 30
0.0
  0
SPLINE
  5
8D
330
1F
100
AcDbEntity
  8
0
  6
Continuous
 62
     7
370
    25
100
AcDbSpline
210
0.0
220
0.0
230
1.0
 70
     8
 71
     3
 72
    30
 73
    26
 74
     0
 42
0.00000001
 43
0.00000001
 40
-0.0025622434375124
 40
-0.0025622434375124
 40
-0.0025622434375124
 40
-0.0025622434375124
 40
0.0013766672731716
 40
0.0053155779838556
 40
0.0131933994052236
 40
0.0289490422479595
 40
0.0604603279334314
 40
0.1234828993043752
 40
0.1865054706753189
 40
0.2180167563607908
 40
0.2495280420462627
 40
0.2810393277317346
 40
0.3125506134172065
 40
0.3755731847881502
 40
0.5016183275300378
 40
0.6276634702719253
 40
0.7537086130138129
 40
0.8167311843847567
 40
0.8482424700702285
 40
0.8797537557557004
 40
0.942776327126644
 40
0.974287612812116
 40
0.990043255654852
 40
0.9979210770762199
 40
1.005798898497588
 40
1.005798898497588
 40
1.005798898497588
 40
1.005798898497588
 10
-53.82915632257053
 20
-62.27866252227852
 30
0.0
 10
-53.82930904620518
 20
-62.27702568570861
 30
0.0
 10
-53.82959504905738
 20
-62.27395694971104
 30
0.0
 10
-53.83032405759365
 20
-62.26618011566209
 30
0.0
 10
-53.83153626221115
 20
-62.25336414356368
 30
0.0
 10
-53.83404405672044
 20
-62.22729242659447
 30
0.0
 10
-53.83915674449485
 20
-62.17594592474402
 30
0.0
 10
-53.84689326402672
 20
-62.10340779745707
 30
0.0
 10
-53.85521100639997
 20
-62.03234217179843
 30
0.0
 10
-53.86236300925045
 20
-61.97552040606008
 30
0.0
 10
-53.86778681492873
 20
-61.93440817161292
 30
0.0
 10
-53.87411235185984
 20
-61.88867662862417
 30
0.0
 10
-53.88268516151317
 20
-61.8293827277795
 30
0.0
 10
-53.89876093636938
 20
-61.72489828776304
 30
0.0
 10
-53.92414349953598
 20
-61.57766747367343
 30
0.0
 10
-53.96003660996228
 20
-61.39633579758383
 30
0.0
 10
-53.99315745331126
 20
-61.24889460345042
 30
0.0
 10
-54.01906172934681
 20
-61.14345231517609
 30
0.0
 10
-54.03486964340843
 20
-61.0819301146102
 30
0.0
 10
-54.04973113309992
 20
-61.02570066424067
 30
0.0
 10
-54.06515673619857
 20
-60.96972137082783
 30
0.0
 10
-54.07959974449906
 20
-60.91887922182759
 30
0.0
 10
-54.08686640335979
 20
-60.89363122112587
 30
0.0
 10
-54.09136238227693
 20
-60.8781118111777
 30
0.0
 10
-54.09310916114301
 20
-60.87210470919106
 30
0.0
 10
-54.09404540749917
 20
-60.86888214255189
 30
0.0
  0
SPLINE
  5
8E
330
1F
100
AcDbEntity
  8
0
  6
Continuous
 62
     7
370
    25
100
AcDbSpline
210
0.0
220
0.0
230
1.0
 70
     8
 71
     2
 72
    95
 73
    92
 74
     0
 42
0.00000001
 43
0.00000001
 40
-0.0007225159344247
 40
-0.0007225159344247
 40
-0.0007225159344247
 40
0.0007435641927113
 40
0.0022096443198473
 40
0.0051418045741193
 40
0.0110061250826632
 40
0.0227347660997511
 40
0.0461920481339269
 40
0.0774684241794946
 40
0.1009257062136704
 40
0.1126543472307583
 40
0.1204734412421503
 40
0.1282925352535422
 40
0.1361116292649341
 40
0.147840270282022
 40
0.1712975523161978
 40
0.2025739283617655
 40
0.2260312103959413
 40
0.2416693984187252
 40
0.2573075864415091
 40
0.2729457744642929
 40
0.2885839624870769
 40
0.3003126035041647
 40
0.3081316975155566
 40
0.3159507915269485
 40
0.3237698855383405
 40
0.3354985265554284
 40
0.3511367145782123
 40
0.3628653555953001
 40
0.3687296761038441
 40
0.3726392231095401
 40
0.376548770115236
 40
0.380458317120932
 40
0.386322637629476
 40
0.3980512786465639
 40
0.4136894666693477
 40
0.4254181076864356
 40
0.4312824281949796
 40
0.4351919752006755
 40
0.4391015222063716
 40
0.4430110692120675
 40
0.4488753897206114
 40
0.4606040307376993
 40
0.4762422187604832
 40
0.4879708597775711
 40
0.495789953788963
 40
0.503609047800355
 40
0.5114281418117468
 40
0.5231567828288347
 40
0.5466140648630105
 40
0.5700713468971863
 40
0.5857095349199702
 40
0.6013477229427541
 40
0.613076363959842
 40
0.6189406844683858
 40
0.6228502314740818
 40
0.6267597784797778
 40
0.6306693254854738
 40
0.6365336459940176
 40
0.6482622870111057
 40
0.6717195690452815
 40
0.6951768510794573
 40
0.7108150391022411
 40
0.7264532271250249
 40
0.7381818681421128
 40
0.7440461886506569
 40
0.7469783489049289
 40
0.7489331224077769
 40
0.7508878959106247
 40
0.7528426694134727
 40
0.7557748296677447
 40
0.7616391501762887
 40
0.7733677911933766
 40
0.7890059792161604
 40
0.8046441672389443
 40
0.8202823552617281
 40
0.835920543284512
 40
0.8515587313072959
 40
0.8632873723243839
 40
0.8691516928329277
 40
0.8720838530871997
 40
0.8740386265900477
 40
0.8759934000928957
 40
0.8779481735957437
 40
0.8808803338500157
 40
0.8867446543585595
 40
0.8945637483699516
 40
0.9023828423813434
 40
0.9141114833984313
 40
0.9297496714212152
 40
0.9532069534553911
 40
1.000121517523743
 40
1.000121517523743
 40
1.000121517523743
 10
-54.09404540749917
 20
-60.86888214255189
 30
0.0
 10
-54.09597643895023
 20
-60.86239231038989
 30
0.0
 10
-54.10131531582696
 20
-60.84454473503029
 30
0.0
 10
-54.10913070175127
 20
-60.81861519030976
 30
0.0
 10
-54.12508748406739
 20
-60.76641006201261
 30
0.0
 10
-54.15780147234506
 20
-60.66231026531362
 30
0.0
 10
-54.22663678052147
 20
-60.45458999098349
 30
0.0
 10
-54.34408744193805
 20
-60.13328228867573
 30
0.0
 10
-54.47503521138978
 20
-59.81444187525989
 30
0.0
 10
-54.56559893705509
 20
-59.61061369223559
 30
0.0
 10
-54.61759285668496
 20
-59.49783446536628
 30
0.0
 10
-54.66040324512761
 20
-59.40718521203126
 30
0.0
 10
-54.70241623984442
 20
-59.32024956178283
 30
0.0
 10
-54.75601494063956
 20
-59.2117757971426
 30
0.0
 10
-54.8549440407062
 20
-59.01809060702271
 30
0.0
 10
-55.01661499276823
 20
-58.7213998212466
 30
0.0
 10
-55.18853372612467
 20
-58.43116841058821
 30
0.0
 10
-55.31688873877361
 20
-58.22727313603228
 30
0.0
 10
-55.4220371203206
 20
-58.06669826211561
 30
0.0
 10
-55.53259697757247
 20
-57.90446790338646
 30
0.0
 10
-55.64569176638954
 20
-57.74515018143578
 30
0.0
 10
-55.74726033243332
 20
-57.60770397938646
 30
0.0
 10
-55.82102487996492
 20
-57.51082787588892
 30
0.0
 10
-55.88131230472713
 20
-57.43323362972401
 30
0.0
 10
-55.93901094603345
 20
-57.36040180243721
 30
0.0
 10
-56.0128304707741
 20
-57.26890181612326
 30
0.0
 10
-56.11857833419294
 20
-57.14129686100086
 30
0.0
 10
-56.22767729281878
 20
-57.01403971258576
 30
0.0
 10
-56.29949267582914
 20
-56.93228403941269
 30
0.0
 10
-56.33966994174058
 20
-56.88707875842908
 30
0.0
 10
-56.3728391165387
 20
-56.8500555443042
 30
0.0
 10
-56.40160753869411
 20
-56.81817857108058
 30
0.0
 10
-56.43822058961771
 20
-56.77787007739209
 30
0.0
 10
-56.50490148796181
 20
-56.70517632340725
 30
0.0
 10
-56.61143235264088
 20
-56.59119123481978
 30
0.0
 10
-56.72168647609223
 20
-56.47594016325775
 30
0.0
 10
-56.79446541452248
 20
-56.40109948924986
 30
0.0
 10
-56.83526743487923
 20
-56.35946864365552
 30
0.0
 10
-56.86886815841651
 20
-56.32536637358871
 30
0.0
 10
-56.8987252754395
 20
-56.29520680647195
 30
0.0
 10
-56.9365339797517
 20
-56.25716990634878
 30
0.0
 10
-57.00488259531178
 20
-56.18884211015642
 30
0.0
 10
-57.11247011036555
 20
-56.08261524358314
 30
0.0
 10
-57.22172897585497
 20
-55.97648241437261
 30
0.0
 10
-57.30055020546131
 20
-55.90082807408013
 30
0.0
 10
-57.36455550877525
 20
-55.83988255858664
 30
0.0
 10
-57.42621687914715
 20
-55.78162327674451
 30
0.0
 10
-57.50409616432872
 20
-55.70859808704758
 30
0.0
 10
-57.64515381177227
 20
-55.57784177378537
 30
0.0
 10
-57.83595085021952
 20
-55.40495983448212
 30
0.0
 10
-57.99716352115876
 20
-55.26214677263724
 30
0.0
 10
-58.12732081566948
 20
-55.14855690276232
 30
0.0
 10
-58.24222329172475
 20
-55.04976135377614
 30
0.0
 10
-58.3166367480162
 20
-54.98648699810536
 30
0.0
 10
-58.35799397984262
 20
-54.9515140713229
 30
0.0
 10
-58.39172147441549
 20
-54.92310039998522
 30
0.0
 10
-58.42217808062127
 20
-54.89753379777893
 30
0.0
 10
-58.46093505431148
 20
-54.86510763942501
 30
0.0
 10
-58.53101803483361
 20
-54.80677002328408
 30
0.0
 10
-58.673169097348
 20
-54.68961413293267
 30
0.0
 10
-58.86780909481245
 20
-54.53225723260141
 30
0.0
 10
-59.03431700311057
 20
-54.40009453842102
 30
0.0
 10
-59.16982699549607
 20
-54.29379950335501
 30
0.0
 10
-59.29043080789265
 20
-54.20027747572156
 30
0.0
 10
-59.36891946004274
 20
-54.13992259430567
 30
0.0
 10
-59.40845642063569
 20
-54.10964582046766
 30
0.0
 10
-59.4303743830309
 20
-54.09289550866396
 30
0.0
 10
-59.44848419610924
 20
-54.07907508487556
 30
0.0
 10
-59.46345757198262
 20
-54.06766269272811
 30
0.0
 10
-59.48271371815932
 20
-54.05300197499593
 30
0.0
 10
-59.51735777506486
 20
-54.02667093608608
 30
0.0
 10
-59.58725062231735
 20
-53.97372770844921
 30
0.0
 10
-59.69762060706869
 20
-53.89067331524439
 30
0.0
 10
-59.82632548645734
 20
-53.79464177496562
 30
0.0
 10
-59.9576033431469
 20
-53.69748939553095
 30
0.0
 10
-60.0914677259176
 20
-53.59920182078675
 30
0.0
 10
-60.22792712331587
 20
-53.49976887267123
 30
0.0
 10
-60.3496210064887
 20
-53.41174436424931
 30
0.0
 10
-60.42892773732854
 20
-53.35468528042375
 30
0.0
 10
-60.4689202472556
 20
-53.32598722146232
 30
0.0
 10
-60.49106259548351
 20
-53.31011858105348
 30
0.0
 10
-60.50953134363021
 20
-53.29689460818327
 30
0.0
 10
-60.52363263707337
 20
-53.28680606527637
 30
0.0
 10
-60.5422696789562
 20
-53.27348193125013
 30
0.0
 10
-60.57571863259015
 20
-53.24959562889559
 30
0.0
 10
-60.6284514749732
 20
-53.21202144699216
 30
0.0
 10
-60.68960337687459
 20
-53.16857336005459
 30
0.0
 10
-60.76719394699768
 20
-53.11359894624657
 30
0.0
 10
-60.87823221135221
 20
-53.0352422237715
 30
0.0
 10
-61.04147798845202
 20
-52.92062981256075
 30
0.0
 10
-61.34786684606374
 20
-52.70704695135797
 30
0.0
 10
-61.56896825288928
 20
-52.55485365990647
 30
0.0
  0
SPLINE
  5
8F
330
1F
100
AcDbEntity
  8
0
  6
Continuous
 62
     7
370
    25
100
AcDbSpline
210
0.0
220
0.0
230
1.0
 70
     8
 71
     3
 72
    80
 73
    76
 74
     0
 42
0.00000001
 43
0.00000001
 40
-0.0000142015502778
 40
-0.0000142015502778
 40
-0.0000142015502778
 40
-0.0000142015502778
 40
0.0009623877715856
 40
0.0019389770934489
 40
0.0038921557371757
 40
0.0058453343809024
 40
0.0077985130246291
 40
0.0117048703120826
 40
0.015611227599536
 40
0.0195175848869895
 40
0.0234239421744429
 40
0.0273302994618963
 40
0.0312366567493498
 40
0.0390493713242567
 40
0.0468620858991636
 40
0.0546748004740705
 40
0.0624875150489774
 40
0.0781129441987912
 40
0.093738373348605
 40
0.1015510879235119
 40
0.1093638024984188
 40
0.1249892316482326
 40
0.1406146607980464
 40
0.1562400899478602
 40
0.171865519097674
 40
0.1874909482474878
 40
0.2031163773973016
 40
0.2109290919722085
 40
0.2187418065471154
 40
0.2343672356969292
 40
0.249992664846743
 40
0.2656180939965568
 40
0.2812435231463706
 40
0.3124943814459982
 40
0.3437452397456258
 40
0.3749960980452534
 40
0.4062469563448809
 40
0.4374978146445085
 40
0.4531232437943223
 40
0.4687486729441361
 40
0.4999995312437637
 40
0.5312503895433913
 40
0.5625012478430189
 40
0.5937521061426465
 40
0.6093775352924603
 40
0.6250029644422741
 40
0.6406283935920879
 40
0.6562538227419017
 40
0.6875046810415293
 40
0.7187555393411569
 40
0.7343809684909707
 40
0.7500063976407845
 40
0.7656318267905983
 40
0.7812572559404121
 40
0.7968826850902259
 40
0.8125081142400397
 40
0.8281335433898535
 40
0.8437589725396673
 40
0.8750098308392948
 40
0.9062606891389224
 40
0.9218861182887362
 40
0.93751154743855
 40
0.945324262013457
 40
0.9531369765883638
 40
0.9609496911632707
 40
0.9687624057381776
 40
0.9765751203130846
 40
0.9804814776005379
 40
0.9843878348879914
 40
0.9863410135317181
 40
0.9882941921754449
 40
0.9922005494628983
 40
0.9961069067503517
 40
0.9980600853940784
 40
1.000013264037805
 40
1.000013264037805
 40
1.000013264037805
 40
1.000013264037805
 10
-61.56896825288928
 20
-52.55485365990647
 30
0.0
 10
-61.594306402348
 20
-52.53746238589049
 30
0.0
 10
-61.64594465933166
 20
-52.50203540357903
 30
0.0
 10
-61.74161613561994
 20
-52.43646898236499
 30
0.0
 10
-61.85203666395103
 20
-52.3609296796075
 30
0.0
 10
-61.96940059704372
 20
-52.28087913486647
 30
0.0
 10
-62.1021464634712
 20
-52.19072009528933
 30
0.0
 10
-62.26652187002528
 20
-52.07950514368243
 30
0.0
 10
-62.46292939808566
 20
-51.94732421719725
 30
0.0
 10
-62.65880917315029
 20
-51.81620213369408
 30
0.0
 10
-62.85541837401355
 20
-51.68528956648115
 30
0.0
 10
-63.05248723583934
 20
-51.55476841883608
 30
0.0
 10
-63.31610727203123
 20
-51.38109405494338
 30
0.0
 10
-63.64696624263259
 20
-51.16485158457915
 30
0.0
 10
-64.04560731437878
 20
-50.9070692104963
 30
0.0
 10
-64.44588017891229
 20
-50.6509810988219
 30
0.0
 10
-64.98148032730327
 20
-50.31196701967016
 30
0.0
 10
-65.65493533877674
 20
-49.89253258592122
 30
0.0
 10
-66.32991021478108
 20
-49.48115082915313
 30
0.0
 10
-66.87140120626204
 20
-49.15652412313719
 30
0.0
 10
-67.41253069768368
 20
-48.83568976539453
 30
0.0
 10
-68.10148722005395
 20
-48.4339793731912
 30
0.0
 10
-68.94877504595264
 20
-47.95054384649757
 30
0.0
 10
-69.81916077939269
 20
-47.46423987731009
 30
0.0
 10
-70.72083833854816
 20
-46.97034053525226
 30
0.0
 10
-71.65207874191047
 20
-46.46982040370279
 30
0.0
 10
-72.4525303396855
 20
-46.04727948396454
 30
0.0
 10
-73.10910078615127
 20
-45.70514831332603
 30
0.0
 10
-73.76900943470488
 20
-45.3642510630295
 30
0.0
 10
-74.59874801562285
 20
-44.94118469399761
 30
0.0
 10
-75.60269674634412
 20
-44.43812684645838
 30
0.0
 10
-76.61457481796232
 20
-43.93986481564197
 30
0.0
 10
-77.97541959120035
 20
-43.28131762635778
 30
0.0
 10
-79.71058463200055
 20
-42.462565861802
 30
0.0
 10
-81.85074953632044
 20
-41.48566538577359
 30
0.0
 10
-83.99956757692706
 20
-40.53768120807777
 30
0.0
 10
-86.16070828836973
 20
-39.61689110176594
 30
0.0
 10
-87.9609714931039
 20
-38.87695233681919
 30
0.0
 10
-89.40262213857069
 20
-38.30066041918094
 30
0.0
 10
-90.83867704183595
 20
-37.73741026151419
 30
0.0
 10
-92.62353059227142
 20
-37.05766438538362
 30
0.0
 10
-94.75251923203265
 20
-36.27967889437988
 30
0.0
 10
-96.87829913812708
 20
-35.5360305779103
 30
0.0
 10
-98.64500511119215
 20
-34.94569117799123
 30
0.0
 10
-100.0560877645794
 20
-34.490852620215
 30
0.0
 10
-101.1125958059707
 20
-34.15865308493523
 30
0.0
 10
-102.1697805664094
 20
-33.8346049773764
 30
0.0
 10
-103.590151590595
 20
-33.41030068738431
 30
0.0
 10
-105.3816496144253
 20
-32.89577853166548
 30
0.0
 10
-107.1957713182269
 20
-32.40200597817735
 30
0.0
 10
-108.6601213236376
 20
-32.01956108606943
 30
0.0
 10
-109.7662907270936
 20
-31.73870100696207
 30
0.0
 10
-110.8731938346371
 20
-31.46541320444273
 30
0.0
 10
-111.9763217381798
 20
-31.20065231291892
 30
0.0
 10
-113.0765215642871
 20
-30.94425313031997
 30
0.0
 10
-114.1749155108763
 20
-30.69593519774674
 30
0.0
 10
-115.2658504695417
 20
-30.45708053707512
 30
0.0
 10
-116.7076722583278
 20
-30.15192216666996
 30
0.0
 10
-118.4854246508592
 20
-29.79550310412453
 30
0.0
 10
-120.2387810191159
 20
-29.47091659140443
 30
0.0
 10
-121.6296117624667
 20
-29.22982747515002
 30
0.0
 10
-122.4928643872852
 20
-29.08707488966854
 30
0.0
 10
-123.1830140419915
 20
-28.97714008801752
 30
0.0
 10
-123.7026925264304
 20
-28.89646852066646
 30
0.0
 10
-124.2237861458337
 20
-28.81767587160655
 30
0.0
 10
-124.7466060495781
 20
-28.74071595529097
 30
0.0
 10
-125.1832324098346
 20
-28.67817885512396
 30
0.0
 10
-125.5326014377379
 20
-28.62917256384464
 30
0.0
 10
-125.7513558177723
 20
-28.59892295461785
 30
0.0
 10
-125.9257343191403
 20
-28.57506049263816
 30
0.0
 10
-126.1063755988541
 20
-28.55055638440414
 30
0.0
 10
-126.3428719120608
 20
-28.51886646477061
 30
0.0
 10
-126.5944163839491
 20
-28.48565597488078
 30
0.0
 10
-126.8037506197364
 20
-28.4582944780169
 30
0.0
 10
-126.9126880452618
 20
-28.44414636284614
 30
0.0
 10
-126.9666269803531
 20
-28.43716165267771
 30
0.0
  0
LINE
  5
90
330
1F
100
AcDbEntity
  8
0
  6
Continuous
 62
     7
370
    25
100
AcDbLine
 10
-126.9666269804
 20
-28.4371616527
 30
0.0
 11
-127.0956181496
 21
-28.4206041204
 31
0.0
  0
SPLINE
  5
91
330
1F
100
AcDbEntity
  8
0
  6
Continuous
 62
     7
370
    25
100
AcDbSpline
210
0.0
220
0.0
230
1.0
 70
     8
 71
     3
 72
    14
 73
    10
 74
     0
 42
0.00000001
 43
0.00000001
 40
-0.0000129367872547
 40
-0.0000129367872547
 40
-0.0000129367872547
 40
-0.0000129367872547
 40
0.1250580795939582
 40
0.2501290959751711
 40
0.375200112356384
 40
0.5002711287375969
 40
0.7504131615000228
 40
0.8754841778812357
 40
1.000555194262449
 40
1.000555194262449
 40
1.000555194262449
 40
1.000555194262449
 10
-127.095618149584
 20
-28.42060412041557
 30
0.0
 10
-128.2191887368396
 20
-28.2767784209805
 30
0.0
 10
-130.4697436605761
 20
-28.00721244418281
 30
0.0
 10
-133.8447045460267
 20
-27.6524546483254
 30
0.0
 10
-137.2240200362226
 20
-27.3415887680831
 30
0.0
 10
-141.7358402725352
 20
-26.98725417493761
 30
0.0
 10
-146.2528492858102
 20
-26.72593691124433
 30
0.0
 10
-150.7756294356109
 20
-26.56087254122438
 30
0.0
 10
-153.0400126461827
 20
-26.51131604272368
 30
0.0
 10
-154.1720585670913
 20
-26.49504102661562
 30
0.0
  0
SPLINE
  5
92
330
1F
100
AcDbEntity
  8
0
  6
Continuous
 62
     7
370
    25
100
AcDbSpline
210
0.0
220
0.0
230
1.0
 70
     8
 71
     3
 72
   124
 73
   120
 74
     0
 42
0.00000001
 43
0.00000001
 40
-0.0000072139495102
 40
-0.0000072139495102
 40
-0.0000072139495102
 40
-0.0000072139495102
 40
0.000969356071491
 40
0.0019459260924923
 40
0.0038990661344948
 40
0.0078053462184998
 40
0.0117116263025048
 40
0.0136647663445073
 40
0.0156179063865098
 40
0.0195241864705148
 40
0.0234304665545198
 40
0.0312430267225298
 40
0.0390555868905398
 40
0.0468681470585498
 40
0.0546807072265598
 40
0.0624932673945698
 40
0.0781183877305898
 40
0.0937435080666098
 40
0.1093686284026298
 40
0.1249937487386499
 40
0.1406188690746699
 40
0.1562439894106899
 40
0.1874942300827299
 40
0.2187444707547699
 40
0.23436959109079
 40
0.24999471142681
 40
0.25780727159482
 40
0.26561983176283
 40
0.28124495209885
 40
0.2890575122668601
 40
0.2968700724348701
 40
0.3124951927708901
 40
0.32812031310691
 40
0.3437454334429301
 40
0.3593705537789501
 40
0.3749956741149701
 40
0.3906207944509901
 40
0.4062459147870101
 40
0.4218710351230301
 40
0.4296835952910402
 40
0.4374961554590502
 40
0.4453087156270602
 40
0.4531212757950702
 40
0.4687463961310902
 40
0.4843715164671102
 40
0.4999966368031302
 40
0.5156217571391501
 40
0.5312468774751702
 40
0.5468719978111902
 40
0.5546845579792002
 40
0.5624971181472103
 40
0.5781222384832303
 40
0.5859347986512403
 40
0.5937473588192503
 40
0.6093724791552704
 40
0.6249975994912904
 40
0.6406227198273104
 40
0.6562478401633305
 40
0.6718729604993505
 40
0.6796855206673604
 40
0.6874980808353705
 40
0.7031232011713904
 40
0.7187483215074104
 40
0.7265608816754204
 40
0.7343734418434305
 40
0.7499985621794505
 40
0.7578111223474605
 40
0.7656236825154705
 40
0.7734362426834805
 40
0.7773425227674855
 40
0.7812488028514906
 40
0.7890613630195006
 40
0.7968739231875106
 40
0.8046864833555205
 40
0.8085927634395256
 40
0.8124990435235305
 40
0.814452183565533
 40
0.8164053236075355
 40
0.8203116036915405
 40
0.8242178837755455
 40
0.8281241638595505
 40
0.830077303901553
 40
0.8320304439435555
 40
0.833983583985558
 40
0.8359367240275605
 40
0.8369132940485617
 40
0.8378898640695629
 40
0.8388664340905642
 40
0.8398430041115654
 40
0.8408195741325667
 40
0.841796144153568
 40
0.8437492841955705
 40
0.845702424237573
 40
0.8476555642795756
 40
0.8496087043215781
 40
0.8515618443635805
 40
0.8535149844055829
 40
0.8544915544265842
 40
0.8554681244475855
 40
0.8564446944685867
 40
0.857421264489588
 40
0.8593744045315905
 40
0.8613275445735931
 40
0.8632806846155956
 40
0.8671869646996005
 40
0.8710932447836055
 40
0.8749995248676106
 40
0.8828120850356206
 40
0.8906246452036306
 40
0.8945309252876357
 40
0.8984372053716406
 40
0.9062497655396506
 40
0.9140623257076607
 40
0.9218748858756707
 40
0.9296874460436806
 40
0.9375000062116906
 40
0.9531251265477105
 40
0.9687502468837306
 40
1.000000487555771
 40
1.000000487555771
 40
1.000000487555771
 40
1.000000487555771
 10
-154.1720585670913
 20
-26.49504102661562
 30
0.0
 10
-154.206338370138
 20
-26.49456992175001
 30
0.0
 10
-154.2751998183033
 20
-26.49363591820413
 30
0.0
 10
-154.4105100241424
 20
-26.4918521378924
 30
0.0
 10
-154.6432665634592
 20
-26.48891907264813
 30
0.0
 10
-154.9630756703967
 20
-26.48528495209541
 30
0.0
 10
-155.2663622623928
 20
-26.4823872579953
 30
0.0
 10
-155.4989485818784
 20
-26.4805157110013
 30
0.0
 10
-155.7252470535436
 20
-26.47893171485331
 30
0.0
 10
-156.0093174471095
 20
-26.47731340669321
 30
0.0
 10
-156.4625973261214
 20
-26.47555098242556
 30
0.0
 10
-157.0286250112829
 20
-26.47487301135147
 30
0.0
 10
-157.7061853664009
 20
-26.47650967398287
 30
0.0
 10
-158.3820695407461
 20
-26.48059591020992
 30
0.0
 10
-159.0562790462265
 20
-26.48713240344991
 30
0.0
 10
-159.9529887350294
 20
-26.49911508320659
 30
0.0
 10
-161.0697050638741
 20
-26.52022131085216
 30
0.0
 10
-162.4029840157672
 20
-26.55535026818304
 30
0.0
 10
-163.7298735451135
 20
-26.60030482853708
 30
0.0
 10
-165.0489139883835
 20
-26.65501171905784
 30
0.0
 10
-166.3655499456875
 20
-26.71976023457015
 30
0.0
 10
-168.1261788347896
 20
-26.81992047794379
 30
0.0
 10
-170.3334509070023
 20
-26.9708733270299
 30
0.0
 10
-172.5535766100897
 20
-27.15639854093195
 30
0.0
 10
-174.343591048232
 20
-27.32594549750275
 30
0.0
 10
-175.4668588779451
 20
-27.44060273100529
 30
0.0
 10
-176.3695505316717
 20
-27.53769896913278
 30
0.0
 10
-177.264745911035
 20
-27.63716073036521
 30
0.0
 10
-178.1488638747487
 20
-27.74019538508607
 30
0.0
 10
-179.0242299116153
 20
-27.84706276089159
 30
0.0
 10
-179.8831840937978
 20
-27.95533970229106
 30
0.0
 10
-180.9247073146783
 20
-28.09319491961429
 30
0.0
 10
-182.1211445924984
 20
-28.26237347702371
 30
0.0
 10
-183.2905913113902
 20
-28.4391816602607
 30
0.0
 10
-184.4304389358588
 20
-28.62326581298209
 30
0.0
 10
-185.541520980623
 20
-28.81478426841249
 30
0.0
 10
-186.6235048845476
 20
-29.01371618829181
 30
0.0
 10
-187.6773117810484
 20
-29.22028099086643
 30
0.0
 10
-188.5456670526594
 20
-29.401414418243
 30
0.0
 10
-189.2333213805352
 20
-29.55152093918461
 30
0.0
 10
-189.7444481235464
 20
-29.66646648755966
 30
0.0
 10
-190.2564778861756
 20
-29.78494179218856
 30
0.0
 10
-190.9456232178499
 20
-29.94873327885165
 30
0.0
 10
-191.8168845248377
 20
-30.16391183629882
 30
0.0
 10
-192.8781697921198
 20
-30.43875322442892
 30
0.0
 10
-193.9623578227796
 20
-30.73221338047632
 30
0.0
 10
-195.0688694631053
 20
-31.04409330302892
 30
0.0
 10
-196.1978369316887
 20
-31.3743962951226
 30
0.0
 10
-197.1577600807916
 20
-31.66510091979519
 30
0.0
 10
-197.9363328590888
 20
-31.90666939312792
 30
0.0
 10
-198.7273080574367
 20
-32.15584857556536
 30
0.0
 10
-199.536993022565
 20
-32.41647119149624
 30
0.0
 10
-200.3650711133959
 20
-32.68842061771381
 30
0.0
 10
-201.2066281627166
 20
-32.96830933639119
 30
0.0
 10
-202.2730751378286
 20
-33.32958511546735
 30
0.0
 10
-203.5735600914818
 20
-33.78055514079877
 30
0.0
 10
-204.8970031349863
 20
-34.2497235660631
 30
0.0
 10
-206.254967666133
 20
-34.74120662143594
 30
0.0
 10
-207.4137157125977
 20
-35.16877200513908
 30
0.0
 10
-208.3565375719029
 20
-35.52144696642324
 30
0.0
 10
-209.3153098411752
 20
-35.88320334813436
 30
0.0
 10
-210.5434632861009
 20
-36.35234037563107
 30
0.0
 10
-211.8113710010827
 20
-36.84412059875989
 30
0.0
 10
-212.8494801653163
 20
-37.2510976456113
 30
0.0
 10
-213.9037670709964
 20
-37.66723664282146
 30
0.0
 10
-214.9976469481544
 20
-38.10322964007888
 30
0.0
 10
-216.1292210362706
 20
-38.55831482400077
 30
0.0
 10
-216.9968287271228
 20
-38.90920232372264
 30
0.0
 10
-217.7364607172249
 20
-39.20993704935086
 30
0.0
 10
-218.3360892791456
 20
-39.45467785649279
 30
0.0
 10
-218.9508010602234
 20
-39.70621447223735
 30
0.0
 10
-219.7491868148503
 20
-40.03408194759631
 30
0.0
 10
-220.7546957139709
 20
-40.44881025755777
 30
0.0
 10
-221.6324978873705
 20
-40.81229658518301
 30
0.0
 10
-222.358240490955
 20
-41.11363472392669
 30
0.0
 10
-222.8225213397449
 20
-41.30674258378738
 30
0.0
 10
-223.1981780067217
 20
-41.46317893148395
 30
0.0
 10
-223.5841286790395
 20
-41.62403987850802
 30
0.0
 10
-224.1105918798414
 20
-41.84375171471811
 30
0.0
 10
-224.805342840516
 20
-42.134109083611
 30
0.0
 10
-225.4385220131565
 20
-42.39904700706965
 30
0.0
 10
-225.9773187702604
 20
-42.6246648224794
 30
0.0
 10
-226.3975953198368
 20
-42.80073377364666
 30
0.0
 10
-226.834035600743
 20
-42.98365191295213
 30
0.0
 10
-227.2112259252998
 20
-43.14179988168097
 30
0.0
 10
-227.5210378308567
 20
-43.27173348472667
 30
0.0
 10
-227.7575157558889
 20
-43.37092882374298
 30
0.0
 10
-227.9977509674055
 20
-43.47171709043342
 30
0.0
 10
-228.2438130233556
 20
-43.57496917765346
 30
0.0
 10
-228.4855882726205
 20
-43.67642912486072
 30
0.0
 10
-228.7905119231366
 20
-43.80438369506578
 30
0.0
 10
-229.1443610014018
 20
-43.95286490969431
 30
0.0
 10
-229.5235906507249
 20
-44.11198749535386
 30
0.0
 10
-229.857894031732
 20
-44.25225005302175
 30
0.0
 10
-230.147099422132
 20
-44.37358037445603
 30
0.0
 10
-230.3913967538191
 20
-44.4760581998038
 30
0.0
 10
-230.5570131606997
 20
-44.54551883339126
 30
0.0
 10
-230.6675529646075
 20
-44.59187119845247
 30
0.0
 10
-230.7378571219129
 20
-44.62134597773936
 30
0.0
 10
-230.8026031179
 20
-44.64848627619265
 30
0.0
 10
-230.8902863193024
 20
-44.68523911627043
 30
0.0
 10
-230.998394544825
 20
-44.73054708270228
 30
0.0
 10
-231.1269974079663
 20
-44.78443504500549
 30
0.0
 10
-231.2965154195578
 20
-44.85545478955222
 30
0.0
 10
-231.5049586994836
 20
-44.94275830136959
 30
0.0
 10
-231.749499230713
 20
-45.04514153437214
 30
0.0
 10
-232.0681151799248
 20
-45.17848504613206
 30
0.0
 10
-232.4524598598883
 20
-45.33923443538614
 30
0.0
 10
-232.8180956557232
 20
-45.49201728714132
 30
0.0
 10
-233.0996589049308
 20
-45.60958198420954
 30
0.0
 10
-233.3729596423376
 20
-45.72363103071649
 30
0.0
 10
-233.7107526255106
 20
-45.86452099672213
 30
0.0
 10
-234.1099860259476
 20
-46.03092316634237
 30
0.0
 10
-234.5031211583898
 20
-46.19466788763824
 30
0.0
 10
-234.8900599371418
 20
-46.3557118784499
 30
0.0
 10
-235.3982075186659
 20
-46.56705373222065
 30
0.0
 10
-236.0153732618749
 20
-46.82335954669888
 30
0.0
 10
-237.0045896982004
 20
-47.23430700114314
 30
0.0
 10
-237.7460496366916
 20
-47.54246496148316
 30
0.0
 10
-238.2404243619096
 20
-47.747993318644
 30
0.0
  0
SPLINE
  5
93
330
1F
100
AcDbEntity
  8
0
  6
Continuous
 62
     7
370
    25
100
AcDbSpline
210
0.0
220
0.0
230
1.0
 70
     8
 71
     2
 72
   114
 73
   111
 74
     0
 42
0.00000001
 43
0.00000001
 40
-0.0000012057006099
 40
-0.0000012057006099
 40
-0.0000012057006099
 40
0.0843934839149013
 40
0.1181513597611058
 40
0.1519092356073102
 40
0.1856671114535147
 40
0.2109855183381681
 40
0.2278644562612703
 40
0.240523659703597
 40
0.2468532614247604
 40
0.2494905954752451
 40
0.2505455290954389
 40
0.2521279295257298
 40
0.2574025976266993
 40
0.2658420665882504
 40
0.278501270030577
 40
0.2953802079536793
 40
0.3206986148383326
 40
0.346017021722986
 40
0.3586762251653127
 40
0.365005826886476
 40
0.3692255613672516
 40
0.3734452958480271
 40
0.3766100967086088
 40
0.3787199639489966
 40
0.383994632049966
 40
0.3966538354922927
 40
0.413532773415395
 40
0.4304117113384972
 40
0.4472906492615994
 40
0.4599498527039261
 40
0.4683893216654773
 40
0.4768287906270284
 40
0.4831583923481917
 40
0.4873781268289673
 40
0.4915978613097428
 40
0.4947626621703245
 40
0.4968725294107123
 40
0.4984549298410031
 40
0.4992461300561485
 40
0.4997735968662455
 40
0.5003010636763424
 40
0.5008285304864394
 40
0.5016197307015848
 40
0.5032021311318757
 40
0.5053119983722634
 40
0.5084767992328451
 40
0.5126965337136207
 40
0.519026135434784
 40
0.527465604396335
 40
0.5359050733578863
 40
0.5485642768002129
 40
0.5654432147233152
 40
0.5823221526464174
 40
0.594981356088744
 40
0.6034208250502953
 40
0.6118602940118463
 40
0.6181898957330096
 40
0.6213546965935914
 40
0.6234645638339791
 40
0.6247832308592215
 40
0.6253106976693185
 40
0.6261018978844639
 40
0.6276842983147546
 40
0.6308490991753364
 40
0.6371787008964998
 40
0.6456181698580508
 40
0.654057638819602
 40
0.6667168422619286
 40
0.6835957801850309
 40
0.7004747181081331
 40
0.7173536560312354
 40
0.730012859473562
 40
0.7384523284351132
 40
0.7447819301562765
 40
0.7479467310168582
 40
0.749529131447149
 40
0.750584065067343
 40
0.7521664654976337
 40
0.7542763327380215
 40
0.7574411335986032
 40
0.7637707353197665
 40
0.7722102042813177
 40
0.7848694077236443
 40
0.8017483456467465
 40
0.8270667525313997
 40
0.8523851594160531
 40
0.8650443628583797
 40
0.8713739645795431
 40
0.8740112986300279
 40
0.8750662322502218
 40
0.8766486326805125
 40
0.8798134335410942
 40
0.8840331680218698
 40
0.8903627697430332
 40
0.8988022387045842
 40
0.9072417076661354
 40
0.9156811766276864
 40
0.9241206455892377
 40
0.9325601145507887
 40
0.9409995835123399
 40
0.9536587869546665
 40
0.9705377248777688
 40
0.9831969283200954
 40
0.9916363972816467
 40
0.9979659990028099
 40
1.002185733483585
 40
1.008515335204749
 40
1.021174538647076
 40
1.038053476570178
 40
1.080250821377933
 40
1.080250821377933
 40
1.080250821377933
 10
-238.2404243619096
 20
-47.747993318644
 30
0.0
 10
-239.0507121920767
 20
-48.08488122046043
 30
0.0
 10
-240.0828046908266
 20
-48.51496625830509
 30
0.0
 10
-240.6491954316826
 20
-48.75123393893647
 30
0.0
 10
-241.192217253905
 20
-48.97800961925058
 30
0.0
 10
-241.646917390411
 20
-49.16813452723351
 30
0.0
 10
-241.9607674690052
 20
-49.29949648047407
 30
0.0
 10
-242.1753146475345
 20
-49.38935846972218
 30
0.0
 10
-242.3108933416616
 20
-49.44617621068911
 30
0.0
 10
-242.3740962467545
 20
-49.47267048787334
 30
0.0
 10
-242.4003812650841
 20
-49.48369032916776
 30
0.0
 10
-242.4174568740426
 20
-49.49084954737491
 30
0.0
 10
-242.4629403269688
 20
-49.5099207349864
 30
0.0
 10
-242.5555733334171
 20
-49.54877190094025
 30
0.0
 10
-242.7032379422504
 20
-49.61072832336433
 30
0.0
 10
-242.9204367103364
 20
-49.70190925866652
 30
0.0
 10
-243.2507555991152
 20
-49.84066848145897
 30
0.0
 10
-243.6832015011283
 20
-50.02248095626435
 30
0.0
 10
-244.0346013593823
 20
-50.17032386915542
 30
0.0
 10
-244.2170748854876
 20
-50.24711924176027
 30
0.0
 10
-244.3203182264901
 20
-50.29057645933492
 30
0.0
 10
-244.4039689250071
 20
-50.32578998595417
 30
0.0
 10
-244.4777678238024
 20
-50.356859878577
 30
0.0
 10
-244.5344588963198
 20
-50.38072643297632
 30
0.0
 10
-244.6124891032326
 20
-50.41357378668567
 30
0.0
 10
-244.798599036874
 20
-50.49190272759058
 30
0.0
 10
-245.0903794919145
 20
-50.61464333770058
 30
0.0
 10
-245.4015975251402
 20
-50.74546097370587
 30
0.0
 10
-245.6905111477957
 20
-50.86679646792024
 30
0.0
 10
-245.9237809273171
 20
-50.96466268478988
 30
0.0
 10
-246.079926036657
 20
-51.03011370317716
 30
0.0
 10
-246.1992493134875
 20
-51.08009707717181
 30
0.0
 10
-246.298758291326
 20
-51.12175013115007
 30
0.0
 10
-246.3672086603593
 20
-51.15038547846892
 30
0.0
 10
-246.4205662210751
 20
-51.17269752731102
 30
0.0
 10
-246.4660269709474
 20
-51.19169899164682
 30
0.0
 10
-246.4978370023091
 20
-51.20499015334315
 30
0.0
 10
-246.5198103007917
 20
-51.21416902612133
 30
0.0
 10
-246.5337486222749
 20
-51.21999038726389
 30
0.0
 10
-246.5415448541487
 20
-51.22324618209802
 30
0.0
 10
-246.5473205480747
 20
-51.22565804470618
 30
0.0
 10
-246.5576590930936
 20
-51.22997499054523
 30
0.0
 10
-246.5696014478972
 20
-51.23496121608758
 30
0.0
 10
-246.5913693049959
 20
-51.24404882860067
 30
0.0
 10
-246.6250381995743
 20
-51.25810168190689
 30
0.0
 10
-246.6730097563713
 20
-51.27811818034021
 30
0.0
 10
-246.7398220643962
 20
-51.30598335115248
 30
0.0
 10
-246.8346242611058
 20
-51.34549771948014
 30
0.0
 10
-246.9659882890905
 20
-51.40019969642884
 30
0.0
 10
-247.1140479617677
 20
-51.46177446980895
 30
0.0
 10
-247.2965327446543
 20
-51.53756514503718
 30
0.0
 10
-247.546569738044
 20
-51.64119756309262
 30
0.0
 10
-247.8240254504221
 20
-51.75586063192758
 30
0.0
 10
-248.0595266118539
 20
-51.85288510988042
 30
0.0
 10
-248.2238402965126
 20
-51.92041538682788
 30
0.0
 10
-248.3532096900176
 20
-51.97349380223896
 30
0.0
 10
-248.4645793037048
 20
-52.01910694001032
 30
0.0
 10
-248.535307834266
 20
-52.04803559431062
 30
0.0
 10
-248.5743237185599
 20
-52.06398244991456
 30
0.0
 10
-248.599704084543
 20
-52.07435122865304
 30
0.0
 10
-248.6130850653639
 20
-52.0798162675914
 30
0.0
 10
-248.6250186375522
 20
-52.08468952806127
 30
0.0
 10
-248.6457497018673
 20
-52.09315358073676
 30
0.0
 10
-248.6874810482827
 20
-52.11018462165205
 30
0.0
 10
-248.7705309181049
 20
-52.14405001820318
 30
0.0
 10
-248.8989642525466
 20
-52.19633368993991
 30
0.0
 10
-249.0444957526553
 20
-52.255443140878
 30
0.0
 10
-249.2248684287552
 20
-52.328534114696
 30
0.0
 10
-249.4741433900595
 20
-52.42918667732992
 30
0.0
 10
-249.75407750495
 20
-52.54166505156157
 30
0.0
 10
-250.0290529593421
 20
-52.65158814337904
 30
0.0
 10
-250.2653143123577
 20
-52.74553429167239
 30
0.0
 10
-250.4317348675128
 20
-52.81143639429075
 30
0.0
 10
-250.5471689987651
 20
-52.85701893611279
 30
0.0
 10
-250.6207711266383
 20
-52.88602029674187
 30
0.0
 10
-250.6576146790806
 20
-52.90052177092252
 30
0.0
 10
-250.6776233369997
 20
-52.90839290345974
 30
0.0
 10
-250.7012996716396
 20
-52.91770313330506
 30
0.0
 10
-250.7335026370977
 20
-52.93035801411587
 30
0.0
 10
-250.7797033710012
 20
-52.94849831942751
 30
0.0
 10
-250.862523987003
 20
-52.98097524902821
 30
0.0
 10
-250.9906052379567
 20
-53.03107022420193
 30
0.0
 10
-251.1720758824694
 20
-53.10179720592129
 30
0.0
 10
-251.4230005059488
 20
-53.19906551405158
 30
0.0
 10
-251.7754812226812
 20
-53.33468431119271
 30
0.0
 10
-252.1876489528911
 20
-53.49141100517372
 30
0.0
 10
-252.4887019878183
 20
-53.60446123248462
 30
0.0
 10
-252.6370838835585
 20
-53.65981658316606
 30
0.0
 10
-252.7068966855518
 20
-53.68577325724191
 30
0.0
 10
-252.735222092878
 20
-53.69628994577233
 30
0.0
 10
-252.7568371733078
 20
-53.70431058503211
 30
0.0
 10
-252.7973954807697
 20
-53.71934645388313
 30
0.0
 10
-252.8596747838761
 20
-53.74239113289331
 30
0.0
 10
-252.9484717767476
 20
-53.77516515853626
 30
0.0
 10
-253.0719548475552
 20
-53.82056650360614
 30
0.0
 10
-253.2119018460367
 20
-53.87175329595524
 30
0.0
 10
-253.3506150752692
 20
-53.92221932552314
 30
0.0
 10
-253.4883337950228
 20
-53.97205014379137
 30
0.0
 10
-253.6236673943663
 20
-54.02075091676149
 30
0.0
 10
-253.7647075353174
 20
-54.07120325072071
 30
0.0
 10
-253.9397359318631
 20
-54.13341145137792
 30
0.0
 10
-254.184525095798
 20
-54.21958197213109
 30
0.0
 10
-254.4286032713476
 20
-54.30438824927509
 30
0.0
 10
-254.6025538371329
 20
-54.36423031107519
 30
0.0
 10
-254.7243169738362
 20
-54.40584167856266
 30
0.0
 10
-254.8106810615008
 20
-54.43519805179317
 30
0.0
 10
-254.9003415120922
 20
-54.46562581640249
 30
0.0
 10
-255.060715374547
 20
-54.52006591179283
 30
0.0
 10
-255.3105503834948
 20
-54.60486899352095
 30
0.0
 10
-255.8100558837027
 20
-54.77442168506392
 30
0.0
 10
-256.166872234125
 20
-54.89553943095716
 30
0.0
  0
LINE
  5
94
330
1F
100
AcDbEntity
  8
0
  6
Continuous
 62
     7
370
    25
100
AcDbLine
 10
-256.1668722341
 20
-54.895539431
 30
0.0
 11
-256.1668722341
 21
-71.5287125763
 31
0.0
  0
MTEXT
  5
96
330
1F
100
AcDbEntity
  8
0
  6
Continuous
 62
     7
100
AcDbMText
 10
-256.1668722341
 20
-99.9891283128
 30
0.0
 40
0.1903
 41
0.0
 71
     1
 72
     1
  1
SOLIDWORKS Educational Product.
  7
SLDTEXTSTYLE0
 73
     1
 44
1.0
  0
MTEXT
  5
97
330
1F
100
AcDbEntity
  8
0
  6
Continuous
 62
     7
100
AcDbMText
 10
-256.1668722341
 20
-100.2745783128
 30
0.0
 40
0.1903
 41
0.0
 71
     1
 72
     1
  1
For Instructional Use Only.
  7
SLDTEXTSTYLE0
 73
     1
 44
1.0
  0
ENDSEC
  0
SECTION
  2
OBJECTS
  0
DICTIONARY
  5
C
330
0
100
AcDbDictionary
281
     1
  3
ACAD_GROUP
350
D
  3
ACAD_LAYOUT
350
1A
  3
ACAD_MLINESTYLE
350
17
  3
ACAD_PLOTSETTINGS
350
19
  3
ACAD_PLOTSTYLENAME
350
E
  3
ACAD_SCALELIST
350
47
  3
DWGPROPS
350
98
  0
DICTIONARY
  5
D
102
{ACAD_REACTORS
330
C
102
}
330
C
100
AcDbDictionary
281
     1
  0
DICTIONARY
  5
1A
102
{ACAD_REACTORS
330
C
102
}
330
C
100
AcDbDictionary
281
     1
  3
Layout1
350
1E
  3
Layout2
350
26
  3
Model
350
22
  0
DICTIONARY
  5
17
102
{ACAD_REACTORS
330
C
102
}
330
C
100
AcDbDictionary
281
     1
  3
Standard
350
18
  0
DICTIONARY
  5
19
102
{ACAD_REACTORS
330
C
102
}
330
C
100
AcDbDictionary
281
     1
  0
ACDBDICTIONARYWDFLT
  5
E
102
{ACAD_REACTORS
330
C
102
}
330
C
100
AcDbDictionary
281
     1
  3
Normal
350
F
100
AcDbDictionaryWithDefault
340
F
  0
DICTIONARY
  5
47
102
{ACAD_REACTORS
330
C
102
}
330
C
100
AcDbDictionary
281
     1
  3
A0
350
48
  3
A1
350
49
  3
A2
350
4A
  3
A3
350
4B
  3
A4
350
4C
  3
A5
350
4D
  3
A6
350
4E
  3
A7
350
4F
  3
A8
350
50
  3
A9
350
51
  3
B0
350
52
  3
B1
350
53
  3
B2
350
54
  3
B3
350
55
  3
B4
350
56
  3
B5
350
57
  3
B6
350
58
  3
B7
350
59
  3
B8
350
5A
  3
B9
350
5B
  3
C0
350
5C
  3
C1
350
5D
  3
C2
350
5E
  3
C3
350
5F
  3
C4
350
60
  3
C5
350
61
  3
C6
350
62
  3
C7
350
63
  3
C8
350
64
  3
C9
350
65
  3
D0
350
66
  3
D1
350
67
  3
D2
350
68
  0
XRECORD
  5
98
102
{ACAD_REACTORS
330
C
102
}
330
C
100
AcDbXrecord
280
     1
  1
DWGPROPS COOKIE
  2

  3

  4

  6

  7

  8
lucie
  9

300
=
301
=
302
=
303
=
304
=
305
=
306
=
307
=
308
=
309
=
 40
0.0
 41
2460006.631331088
 42
2460006.63135941
  1

 90
        0
  0
LAYOUT
  5
1E
102
{ACAD_REACTORS
330
1A
102
}
330
1A
100
AcDbPlotSettings
  1

  2
none_device
  4

  6

 40
0.0
 41
0.0
 42
0.0
 43
0.0
 44
0.0
 45
0.0
 46
0.0
 47
0.0
 48
0.0
 49
0.0
140
0.0
141
0.0
142
1.0
143
1.0
 70
   688
 72
     0
 73
     0
 74
     5
  7

 75
    16
147
1.0
148
0.0
149
0.0
100
AcDbLayout
  1
Layout1
 70
     1
 71
     1
 10
0.0
 20
0.0
 11
12.0
 21
9.0
 12
0.0
 22
0.0
 32
0.0
 14
1.0000000000E+20
 24
1.0000000000E+20
 34
1.0000000000E+20
 15
-1.0000000000E+20
 25
-1.0000000000E+20
 35
-1.0000000000E+20
146
0.0
 13
0.0
 23
0.0
 33
0.0
 16
1.0
 26
0.0
 36
0.0
 17
0.0
 27
1.0
 37
0.0
 76
     0
330
1B
  0
LAYOUT
  5
26
102
{ACAD_REACTORS
330
1A
102
}
330
1A
100
AcDbPlotSettings
  1

  2
none_device
  4

  6

 40
0.0
 41
0.0
 42
0.0
 43
0.0
 44
0.0
 45
0.0
 46
0.0
 47
0.0
 48
0.0
 49
0.0
140
0.0
141
0.0
142
1.0
143
1.0
 70
   688
 72
     0
 73
     0
 74
     5
  7

 75
    16
147
1.0
148
0.0
149
0.0
100
AcDbLayout
  1
Layout2
 70
     1
 71
     2
 10
0.0
 20
0.0
 11
0.0
 21
0.0
 12
0.0
 22
0.0
 32
0.0
 14
0.0
 24
0.0
 34
0.0
 15
0.0
 25
0.0
 35
0.0
146
0.0
 13
0.0
 23
0.0
 33
0.0
 16
1.0
 26
0.0
 36
0.0
 17
0.0
 27
1.0
 37
0.0
 76
     0
330
23
  0
LAYOUT
  5
22
102
{ACAD_REACTORS
330
1A
102
}
330
1A
100
AcDbPlotSettings
  1

  2
none_device
  4
ANSI_A_(11.00_x_8.50_Inches)
  6

 40
6.35
 41
19.05
 42
6.35000508
 43
19.05000254
 44
279.4
 45
215.9
 46
345.1724604892
 47
175.297500944
 48
0.0
 49
0.0
140
0.0
141
0.0
142
0.0538104983
143
1.0
 70
  1696
 72
     0
 73
     0
 74
     0
  7

 75
     0
147
0.5913241897
148
-39.4088153714
149
0.0
100
AcDbLayout
  1
Model
 70
     1
 71
     0
 10
0.0
 20
0.0
 11
12.0
 21
9.0
 12
0.0
 22
0.0
 32
0.0
 14
-256.1668722341
 24
-99.9489879036
 34
0.0
 15
-53.7900063868
 25
-26.4752813827
 35
0.0
146
0.0
 13
0.0
 23
0.0
 33
0.0
 16
1.0
 26
0.0
 36
0.0
 17
0.0
 27
1.0
 37
0.0
 76
     0
330
1F
331
29
  0
MLINESTYLE
  5
18
102
{ACAD_REACTORS
330
17
102
}
330
17
100
AcDbMlineStyle
  2
Standard
 70
     0
  3

 62
   256
 51
90.0
 52
90.0
 71
     2
 49
0.5
 62
   256
  6
BYLAYER
 49
-0.5
 62
   256
  6
BYLAYER
  0
ACDBPLACEHOLDER
  5
F
102
{ACAD_REACTORS
330
E
102
}
330
E
  0
SCALE
  5
48
102
{ACAD_REACTORS
330
47
102
}
330
47
100
AcDbScale
 70
     0
300
1:1
140
1.0
141
1.0
290
     1
  0
SCALE
  5
49
102
{ACAD_REACTORS
330
47
102
}
330
47
100
AcDbScale
 70
     0
300
1:2
140
1.0
141
2.0
290
     0
  0
SCALE
  5
4A
102
{ACAD_REACTORS
330
47
102
}
330
47
100
AcDbScale
 70
     0
300
1:4
140
1.0
141
4.0
290
     0
  0
SCALE
  5
4B
102
{ACAD_REACTORS
330
47
102
}
330
47
100
AcDbScale
 70
     0
300
1:5
140
1.0
141
5.0
290
     0
  0
SCALE
  5
4C
102
{ACAD_REACTORS
330
47
102
}
330
47
100
AcDbScale
 70
     0
300
1:8
140
1.0
141
8.0
290
     0
  0
SCALE
  5
4D
102
{ACAD_REACTORS
330
47
102
}
330
47
100
AcDbScale
 70
     0
300
1:10
140
1.0
141
10.0
290
     0
  0
SCALE
  5
4E
102
{ACAD_REACTORS
330
47
102
}
330
47
100
AcDbScale
 70
     0
300
1:16
140
1.0
141
16.0
290
     0
  0
SCALE
  5
4F
102
{ACAD_REACTORS
330
47
102
}
330
47
100
AcDbScale
 70
     0
300
1:20
140
1.0
141
20.0
290
     0
  0
SCALE
  5
50
102
{ACAD_REACTORS
330
47
102
}
330
47
100
AcDbScale
 70
     0
300
1:30
140
1.0
141
30.0
290
     0
  0
SCALE
  5
51
102
{ACAD_REACTORS
330
47
102
}
330
47
100
AcDbScale
 70
     0
300
1:40
140
1.0
141
40.0
290
     0
  0
SCALE
  5
52
102
{ACAD_REACTORS
330
47
102
}
330
47
100
AcDbScale
 70
     0
300
1:50
140
1.0
141
50.0
290
     0
  0
SCALE
  5
53
102
{ACAD_REACTORS
330
47
102
}
330
47
100
AcDbScale
 70
     0
300
1:100
140
1.0
141
100.0
290
     0
  0
SCALE
  5
54
102
{ACAD_REACTORS
330
47
102
}
330
47
100
AcDbScale
 70
     0
300
2:1
140
2.0
141
1.0
290
     0
  0
SCALE
  5
55
102
{ACAD_REACTORS
330
47
102
}
330
47
100
AcDbScale
 70
     0
300
4:1
140
4.0
141
1.0
290
     0
  0
SCALE
  5
56
102
{ACAD_REACTORS
330
47
102
}
330
47
100
AcDbScale
 70
     0
300
8:1
140
8.0
141
1.0
290
     0
  0
SCALE
  5
57
102
{ACAD_REACTORS
330
47
102
}
330
47
100
AcDbScale
 70
     0
300
10:1
140
10.0
141
1.0
290
     0
  0
SCALE
  5
58
102
{ACAD_REACTORS
330
47
102
}
330
47
100
AcDbScale
 70
     0
300
100:1
140
100.0
141
1.0
290
     0
  0
SCALE
  5
59
102
{ACAD_REACTORS
330
47
102
}
330
47
100
AcDbScale
 70
     0
300
1/128" = 1'-0"
140
0.0078125
141
12.0
290
     0
  0
SCALE
  5
5A
102
{ACAD_REACTORS
330
47
102
}
330
47
100
AcDbScale
 70
     0
300
1/64" = 1'-0"
140
0.015625
141
12.0
290
     0
  0
SCALE
  5
5B
102
{ACAD_REACTORS
330
47
102
}
330
47
100
AcDbScale
 70
     0
300
1/32" = 1'-0"
140
0.03125
141
12.0
290
     0
  0
SCALE
  5
5C
102
{ACAD_REACTORS
330
47
102
}
330
47
100
AcDbScale
 70
     0
300
1/16" = 1'-0"
140
0.0625
141
12.0
290
     0
  0
SCALE
  5
5D
102
{ACAD_REACTORS
330
47
102
}
330
47
100
AcDbScale
 70
     0
300
3/32" = 1'-0"
140
0.09375
141
12.0
290
     0
  0
SCALE
  5
5E
102
{ACAD_REACTORS
330
47
102
}
330
47
100
AcDbScale
 70
     0
300
1/8" = 1'-0"
140
0.125
141
12.0
290
     0
  0
SCALE
  5
5F
102
{ACAD_REACTORS
330
47
102
}
330
47
100
AcDbScale
 70
     0
300
3/16" = 1'-0"
140
0.1875
141
12.0
290
     0
  0
SCALE
  5
60
102
{ACAD_REACTORS
330
47
102
}
330
47
100
AcDbScale
 70
     0
300
1/4" = 1'-0"
140
0.25
141
12.0
290
     0
  0
SCALE
  5
61
102
{ACAD_REACTORS
330
47
102
}
330
47
100
AcDbScale
 70
     0
300
3/8" = 1'-0"
140
0.375
141
12.0
290
     0
  0
SCALE
  5
62
102
{ACAD_REACTORS
330
47
102
}
330
47
100
AcDbScale
 70
     0
300
1/2" = 1'-0"
140
0.5
141
12.0
290
     0
  0
SCALE
  5
63
102
{ACAD_REACTORS
330
47
102
}
330
47
100
AcDbScale
 70
     0
300
3/4" = 1'-0"
140
0.75
141
12.0
290
     0
  0
SCALE
  5
64
102
{ACAD_REACTORS
330
47
102
}
330
47
100
AcDbScale
 70
     0
300
1" = 1'-0"
140
1.0
141
12.0
290
     0
  0
SCALE
  5
65
102
{ACAD_REACTORS
330
47
102
}
330
47
100
AcDbScale
 70
     0
300
1-1/2" = 1'-0"
140
1.5
141
12.0
290
     0
  0
SCALE
  5
66
102
{ACAD_REACTORS
330
47
102
}
330
47
100
AcDbScale
 70
     0
300
3" = 1'-0"
140
3.0
141
12.0
290
     0
  0
SCALE
  5
67
102
{ACAD_REACTORS
330
47
102
}
330
47
100
AcDbScale
 70
     0
300
6" = 1'-0"
140
6.0
141
12.0
290
     0
  0
SCALE
  5
68
102
{ACAD_REACTORS
330
47
102
}
330
47
100
AcDbScale
 70
     0
300
1'-0" = 1'-0"
140
12.0
141
12.0
290
     0
  0
ENDSEC
  0
EOF
