  0
SECTION
  2
HEADER
  9
$ACADVER
  1
AC1015
  9
$ACADMAINTVER
 70
     6
  9
$DWGCODEPAGE
  3
ANSI_1252
  9
$INSBASE
 10
0.0
 20
0.0
 30
0.0
  9
$EXTMIN
 10
-146.4642607745
 20
167.8458585292
 30
0.0
  9
$EXTMAX
 10
-113.023171024
 20
195.2580755779
 30
0.0
  9
$LIMMIN
 10
0.0
 20
0.0
  9
$LIMMAX
 10
12.0
 20
9.0
  9
$ORTHOMODE
 70
     0
  9
$REGENMODE
 70
     1
  9
$FILLMODE
 70
     1
  9
$QTEXTMODE
 70
     0
  9
$MIRRTEXT
 70
     1
  9
$LTSCALE
 40
1.0
  9
$ATTMODE
 70
     1
  9
$TEXTSIZE
 40
0.125
  9
$TRACEWID
 40
0.05
  9
$TEXTSTYLE
  7
Standard
  9
$CLAYER
  8
0
  9
$CELTYPE
  6
ByLayer
  9
$CECOLOR
 62
   256
  9
$CELTSCALE
 40
1.0
  9
$DISPSILH
 70
     0
  9
$DIMSCALE
 40
1.0
  9
$DIMASZ
 40
0.13
  9
$DIMEXO
 40
0.0
  9
$DIMDLI
 40
0.38
  9
$DIMRND
 40
0.0
  9
$DIMDLE
 40
0.0
  9
$DIMEXE
 40
0.125
  9
$DIMTP
 40
0.0
  9
$DIMTM
 40
0.0
  9
$DIMTXT
 40
0.125
  9
$DIMCEN
 40
0.09
  9
$DIMTSZ
 40
0.0
  9
$DIMTOL
 70
     0
  9
$DIMLIM
 70
     0
  9
$DIMTIH
 70
     1
  9
$DIMTOH
 70
     1
  9
$DIMSE1
 70
     0
  9
$DIMSE2
 70
     0
  9
$DIMTAD
 70
     0
  9
$DIMZIN
 70
     1
  9
$DIMBLK
  1

  9
$DIMASO
 70
     1
  9
$DIMSHO
 70
     1
  9
$DIMPOST
  1

  9
$DIMAPOST
  1

  9
$DIMALT
 70
     0
  9
$DIMALTD
 70
     2
  9
$DIMALTF
 40
25.4
  9
$DIMLFAC
 40
1.0
  9
$DIMTOFL
 70
     0
  9
$DIMTVP
 40
0.0
  9
$DIMTIX
 70
     0
  9
$DIMSOXD
 70
     0
  9
$DIMSAH
 70
     0
  9
$DIMBLK1
  1

  9
$DIMBLK2
  1

  9
$DIMSTYLE
  2
Standard
  9
$DIMCLRD
 70
     0
  9
$DIMCLRE
 70
     0
  9
$DIMCLRT
 70
     0
  9
$DIMTFAC
 40
1.0
  9
$DIMGAP
 40
0.06
  9
$DIMJUST
 70
     0
  9
$DIMSD1
 70
     0
  9
$DIMSD2
 70
     0
  9
$DIMTOLJ
 70
     1
  9
$DIMTZIN
 70
     1
  9
$DIMALTZ
 70
     0
  9
$DIMALTTZ
 70
     0
  9
$DIMUPT
 70
     0
  9
$DIMDEC
 70
     2
  9
$DIMTDEC
 70
     2
  9
$DIMALTU
 70
     2
  9
$DIMALTTD
 70
     2
  9
$DIMTXSTY
  7
Standard
  9
$DIMAUNIT
 70
     0
  9
$DIMADEC
 70
     2
  9
$DIMALTRND
 40
0.0
  9
$DIMAZIN
 70
     0
  9
$DIMDSEP
 70
    46
  9
$DIMATFIT
 70
     3
  9
$DIMFRAC
 70
     0
  9
$DIMLDRBLK
  1

  9
$DIMLUNIT
 70
     2
  9
$DIMLWD
 70
    -2
  9
$DIMLWE
 70
    -2
  9
$DIMTMOVE
 70
     0
  9
$LUNITS
 70
     2
  9
$LUPREC
 70
     2
  9
$SKETCHINC
 40
0.1
  9
$FILLETRAD
 40
0.5
  9
$AUNITS
 70
     0
  9
$AUPREC
 70
     2
  9
$MENU
  1
.
  9
$ELEVATION
 40
0.0
  9
$PELEVATION
 40
0.0
  9
$THICKNESS
 40
0.0
  9
$LIMCHECK
 70
     0
  9
$CHAMFERA
 40
0.0
  9
$CHAMFERB
 40
0.0
  9
$CHAMFERC
 40
0.0
  9
$CHAMFERD
 40
0.0
  9
$SKPOLY
 70
     0
  9
$TDCREATE
 40
2460052.403365787
  9
$TDUCREATE
 40
2460052.695032454
  9
$TDUPDATE
 40
2460052.403392558
  9
$TDUUPDATE
 40
2460052.695059224
  9
$TDINDWG
 40
0.0000000116
  9
$TDUSRTIMER
 40
0.0000000116
  9
$USRTIMER
 70
     1
  9
$ANGBASE
 50
0.0
  9
$ANGDIR
 70
     0
  9
$PDMODE
 70
     0
  9
$PDSIZE
 40
-1.0
  9
$PLINEWID
 40
0.0
  9
$SPLFRAME
 70
     0
  9
$SPLINETYPE
 70
     6
  9
$SPLINESEGS
 70
     8
  9
$HANDSEED
  5
80
  9
$SURFTAB1
 70
     6
  9
$SURFTAB2
 70
     6
  9
$SURFTYPE
 70
     6
  9
$SURFU
 70
     6
  9
$SURFV
 70
     6
  9
$UCSBASE
  2

  9
$UCSNAME
  2

  9
$UCSORG
 10
0.0
 20
0.0
 30
0.0
  9
$UCSXDIR
 10
1.0
 20
0.0
 30
0.0
  9
$UCSYDIR
 10
0.0
 20
1.0
 30
0.0
  9
$UCSORTHOREF
  2

  9
$UCSORTHOVIEW
 70
     0
  9
$UCSORGTOP
 10
0.0
 20
0.0
 30
0.0
  9
$UCSORGBOTTOM
 10
0.0
 20
0.0
 30
0.0
  9
$UCSORGLEFT
 10
0.0
 20
0.0
 30
0.0
  9
$UCSORGRIGHT
 10
0.0
 20
0.0
 30
0.0
  9
$UCSORGFRONT
 10
0.0
 20
0.0
 30
0.0
  9
$UCSORGBACK
 10
0.0
 20
0.0
 30
0.0
  9
$PUCSBASE
  2

  9
$PUCSNAME
  2

  9
$PUCSORG
 10
0.0
 20
0.0
 30
0.0
  9
$PUCSXDIR
 10
1.0
 20
0.0
 30
0.0
  9
$PUCSYDIR
 10
0.0
 20
1.0
 30
0.0
  9
$PUCSORTHOREF
  2

  9
$PUCSORTHOVIEW
 70
     0
  9
$PUCSORGTOP
 10
0.0
 20
0.0
 30
0.0
  9
$PUCSORGBOTTOM
 10
0.0
 20
0.0
 30
0.0
  9
$PUCSORGLEFT
 10
0.0
 20
0.0
 30
0.0
  9
$PUCSORGRIGHT
 10
0.0
 20
0.0
 30
0.0
  9
$PUCSORGFRONT
 10
0.0
 20
0.0
 30
0.0
  9
$PUCSORGBACK
 10
0.0
 20
0.0
 30
0.0
  9
$USERI1
 70
     0
  9
$USERI2
 70
     0
  9
$USERI3
 70
     0
  9
$USERI4
 70
     0
  9
$USERI5
 70
     0
  9
$USERR1
 40
0.0
  9
$USERR2
 40
0.0
  9
$USERR3
 40
0.0
  9
$USERR4
 40
0.0
  9
$USERR5
 40
0.0
  9
$WORLDVIEW
 70
     1
  9
$SHADEDGE
 70
     3
  9
$SHADEDIF
 70
    70
  9
$TILEMODE
 70
     1
  9
$MAXACTVP
 70
    64
  9
$PINSBASE
 10
0.0
 20
0.0
 30
0.0
  9
$PLIMCHECK
 70
     0
  9
$PEXTMIN
 10
1.0000000000E+20
 20
1.0000000000E+20
 30
1.0000000000E+20
  9
$PEXTMAX
 10
-1.0000000000E+20
 20
-1.0000000000E+20
 30
-1.0000000000E+20
  9
$PLIMMIN
 10
0.0
 20
0.0
  9
$PLIMMAX
 10
12.0
 20
9.0
  9
$UNITMODE
 70
     0
  9
$VISRETAIN
 70
     1
  9
$PLINEGEN
 70
     0
  9
$PSLTSCALE
 70
     1
  9
$TREEDEPTH
 70
  3020
  9
$CMLSTYLE
  2
Standard
  9
$CMLJUST
 70
     0
  9
$CMLSCALE
 40
1.0
  9
$PROXYGRAPHICS
 70
     1
  9
$MEASUREMENT
 70
     0
  9
$CELWEIGHT
370
    -1
  9
$ENDCAPS
280
     0
  9
$JOINSTYLE
280
     0
  9
$LWDISPLAY
290
     1
  9
$INSUNITS
 70
     1
  9
$HYPERLINKBASE
  1

  9
$STYLESHEET
  1

  9
$XEDIT
290
     1
  9
$CEPSNTYPE
380
     0
  9
$PSTYLEMODE
290
     1
  9
$FINGERPRINTGUID
  2
{87cad4c7-5b93-4541-be4f-fd88a67af043}
  9
$VERSIONGUID
  2
{FAEB1C32-E019-11D5-929B-00C0DF256EC4}
  9
$EXTNAMES
290
     1
  9
$PSVPSCALE
 40
0.0
  9
$OLESTARTUP
290
     0
  0
ENDSEC
  0
SECTION
  2
CLASSES
  0
CLASS
  1
ACDBDICTIONARYWDFLT
  2
AcDbDictionaryWithDefault
  3
ObjectDBX Classes
 90
        0
280
     0
281
     0
  0
CLASS
  1
VISUALSTYLE
  2
AcDbVisualStyle
  3
ObjectDBX Classes
 90
     4095
280
     0
281
     0
  0
CLASS
  1
MATERIAL
  2
AcDbMaterial
  3
ObjectDBX Classes
 90
     1153
280
     0
281
     0
  0
CLASS
  1
SCALE
  2
AcDbScale
  3
ObjectDBX Classes
 90
     1153
280
     0
281
     0
  0
CLASS
  1
TABLESTYLE
  2
AcDbTableStyle
  3
ObjectDBX Classes
 90
     4095
280
     0
281
     0
  0
CLASS
  1
MLEADERSTYLE
  2
AcDbMLeaderStyle
  3
ACDB_MLEADERSTYLE_CLASS
 90
     4095
280
     0
281
     0
  0
CLASS
  1
SUN
  2
AcDbSun
  3
SCENEOE
 90
     1153
280
     0
281
     0
  0
CLASS
  1
ACDBPLACEHOLDER
  2
AcDbPlaceHolder
  3
ObjectDBX Classes
 90
        0
280
     0
281
     0
  0
CLASS
  1
LAYOUT
  2
AcDbLayout
  3
ObjectDBX Classes
 90
        0
280
     0
281
     0
  0
ENDSEC
  0
SECTION
  2
TABLES
  0
TABLE
  2
VPORT
  5
8
330
0
100
AcDbSymbolTable
 70
     1
  0
VPORT
  5
29
330
8
100
AcDbSymbolTableRecord
100
AcDbViewportTableRecord
  2
*Active
 70
     0
 10
0.0
 20
0.0
 11
1.0
 21
1.0
 12
-129.7437158992
 22
181.5519670536
 13
0.0
 23
0.0
 14
0.5
 24
0.5
 15
0.5
 25
0.5
 16
0.0
 26
0.0
 36
1.0
 17
0.0
 27
0.0
 37
0.0
 40
27.9604613896
 41
1.2199337869
 42
50.0
 43
0.0
 44
0.0
 50
0.0
 51
0.0
 71
     0
 72
   100
 73
     1
 74
     3
 75
     0
 76
     0
 77
     0
 78
     0
281
     0
 65
     1
110
0.0
120
0.0
130
0.0
111
1.0
121
0.0
131
0.0
112
0.0
122
1.0
132
0.0
 79
     0
146
0.0
  0
ENDTAB
  0
TABLE
  2
LTYPE
  5
5
330
0
100
AcDbSymbolTable
 70
     6
  0
LTYPE
  5
14
330
5
100
AcDbSymbolTableRecord
100
AcDbLinetypeTableRecord
  2
ByBlock
 70
     0
  3

 72
    65
 73
     0
 40
0.0
  0
LTYPE
  5
15
330
5
100
AcDbSymbolTableRecord
100
AcDbLinetypeTableRecord
  2
ByLayer
 70
     0
  3

 72
    65
 73
     0
 40
0.0
  0
LTYPE
  5
16
330
5
100
AcDbSymbolTableRecord
100
AcDbLinetypeTableRecord
  2
Continuous
 70
     0
  3
Solid line
 72
    65
 73
     0
 40
0.0
  0
LTYPE
  5
6E
330
5
100
AcDbSymbolTableRecord
100
AcDbLinetypeTableRecord
  2
HIDDEN
 70
     0
  3
Hidden __ __ __ __ __ __ __ __ __ __ __ __ __ __
 72
    65
 73
     2
 40
0.075
 49
0.05
 74
     0
 49
-0.025
 74
     0
  0
LTYPE
  5
6F
330
5
100
AcDbSymbolTableRecord
100
AcDbLinetypeTableRecord
  2
PHANTOM
 70
     0
  3
Phantom ______  __  __  ______  __  __  ______
 72
    65
 73
     6
 40
0.5
 49
0.25
 74
     0
 49
-0.05
 74
     0
 49
0.05
 74
     0
 49
-0.05
 74
     0
 49
0.05
 74
     0
 49
-0.05
 74
     0
  0
LTYPE
  5
70
330
5
100
AcDbSymbolTableRecord
100
AcDbLinetypeTableRecord
  2
CENTER
 70
     0
  3
Center ____ _ ____ _ ____ _ ____ _ ____ _ ____
 72
    65
 73
     4
 40
0.4
 49
0.25
 74
     0
 49
-0.05
 74
     0
 49
0.05
 74
     0
 49
-0.05
 74
     0
  0
LTYPE
  5
71
330
5
100
AcDbSymbolTableRecord
100
AcDbLinetypeTableRecord
  2
CENTERX2
 70
     0
  3
Center (2x) ________  __  ________  __  _____
 72
    65
 73
     4
 40
0.8
 49
0.5
 74
     0
 49
-0.1
 74
     0
 49
0.1
 74
     0
 49
-0.1
 74
     0
  0
LTYPE
  5
72
330
5
100
AcDbSymbolTableRecord
100
AcDbLinetypeTableRecord
  2
DOT2
 70
     0
  3
Dot (.5x) ........................................
 72
    65
 73
     2
 40
0.025
 49
0.0
 74
     0
 49
-0.025
 74
     0
  0
ENDTAB
  0
TABLE
  2
LAYER
  5
2
330
0
100
AcDbSymbolTable
 70
     1
  0
LAYER
  5
10
330
2
100
AcDbSymbolTableRecord
100
AcDbLayerTableRecord
  2
0
 70
     0
 62
     7
  6
Continuous
370
    -3
390
F
  0
ENDTAB
  0
TABLE
  2
STYLE
  5
3
330
0
100
AcDbSymbolTable
 70
     2
  0
STYLE
  5
11
330
3
100
AcDbSymbolTableRecord
100
AcDbTextStyleTableRecord
  2
Standard
 70
     0
 40
0.0
 41
1.0
 50
0.0
 71
     0
 42
0.125
  3
txt
  4

  0
STYLE
  5
7C
330
3
100
AcDbSymbolTableRecord
100
AcDbTextStyleTableRecord
  2
SLDTEXTSTYLE0
 70
     0
 40
0.0
 41
0.7
 50
0.0
 71
     0
 42
0.125
  3
TXT
  4

  0
ENDTAB
  0
TABLE
  2
VIEW
  5
6
330
0
100
AcDbSymbolTable
 70
     0
  0
ENDTAB
  0
TABLE
  2
UCS
  5
7
330
0
100
AcDbSymbolTable
 70
     0
  0
ENDTAB
  0
TABLE
  2
APPID
  5
9
330
0
100
AcDbSymbolTable
 70
     1
  0
APPID
  5
12
330
9
100
AcDbSymbolTableRecord
100
AcDbRegAppTableRecord
  2
ACAD
 70
     0
  0
ENDTAB
  0
TABLE
  2
DIMSTYLE
  5
A
330
0
100
AcDbSymbolTable
 70
     1
100
AcDbDimStyleTable
  0
DIMSTYLE
105
27
330
A
100
AcDbSymbolTableRecord
100
AcDbDimStyleTableRecord
  2
Standard
 70
     0
178
     0
340
11
  0
ENDTAB
  0
TABLE
  2
BLOCK_RECORD
  5
1
330
0
100
AcDbSymbolTable
 70
     1
  0
BLOCK_RECORD
  5
1F
330
1
100
AcDbSymbolTableRecord
100
AcDbBlockTableRecord
  2
*Model_Space
340
22
  0
BLOCK_RECORD
  5
1B
330
1
100
AcDbSymbolTableRecord
100
AcDbBlockTableRecord
  2
*Paper_Space
340
1E
  0
BLOCK_RECORD
  5
23
330
1
100
AcDbSymbolTableRecord
100
AcDbBlockTableRecord
  2
*Paper_Space0
340
26
  0
ENDTAB
  0
ENDSEC
  0
SECTION
  2
BLOCKS
  0
BLOCK
  5
20
330
1F
100
AcDbEntity
  8
0
100
AcDbBlockBegin
  2
*Model_Space
 70
     0
 10
0.0
 20
0.0
 30
0.0
  3
*Model_Space
  1

  0
ENDBLK
  5
21
330
1F
100
AcDbEntity
  8
0
100
AcDbBlockEnd
  0
BLOCK
  5
1C
330
1B
100
AcDbEntity
 67
     1
  8
0
100
AcDbBlockBegin
  2
*Paper_Space
 70
     0
 10
0.0
 20
0.0
 30
0.0
  3
*Paper_Space
  1

  0
ENDBLK
  5
1D
330
1B
100
AcDbEntity
 67
     1
  8
0
100
AcDbBlockEnd
  0
BLOCK
  5
24
330
23
100
AcDbEntity
  8
0
100
AcDbBlockBegin
  2
*Paper_Space0
 70
     0
 10
0.0
 20
0.0
 30
0.0
  3
*Paper_Space0
  1

  0
ENDBLK
  5
25
330
23
100
AcDbEntity
  8
0
100
AcDbBlockEnd
  0
ENDSEC
  0
SECTION
  2
ENTITIES
  0
SPLINE
  5
73
330
1F
100
AcDbEntity
  8
0
  6
Continuous
 62
     7
370
    25
100
AcDbSpline
210
0.0
220
0.0
230
1.0
 70
     8
 71
     3
 72
    48
 73
    44
 74
     0
 42
0.00000001
 43
0.00000001
 40
0.0
 40
0.0
 40
0.0
 40
0.0
 40
0.0156249999999972
 40
0.0156249999999972
 40
0.0312499999999946
 40
0.0312499999999946
 40
0.0624999999999933
 40
0.0624999999999933
 40
0.1249999999999946
 40
0.1249999999999946
 40
0.1874999999999959
 40
0.1874999999999959
 40
0.2499999999999971
 40
0.2499999999999971
 40
0.3750000000000002
 40
0.3750000000000002
 40
0.4375000000000034
 40
0.4375000000000034
 40
0.5000000000000066
 40
0.5000000000000066
 40
0.6250000000000123
 40
0.6250000000000123
 40
0.6562500000000113
 40
0.6562500000000113
 40
0.6875000000000102
 40
0.6875000000000102
 40
0.7187500000000092
 40
0.7187500000000092
 40
0.7500000000000082
 40
0.7500000000000082
 40
0.7812500000000072
 40
0.7812500000000072
 40
0.8125000000000062
 40
0.8125000000000062
 40
0.8750000000000041
 40
0.8750000000000041
 40
0.9062500000000031
 40
0.9062500000000031
 40
0.937500000000002
 40
0.937500000000002
 40
0.968750000000001
 40
0.968750000000001
 40
1.0
 40
1.0
 40
1.0
 40
1.0
 10
-146.4642607552778
 20
176.3546034665899
 30
0.0
 10
-146.2900323056599
 20
176.2994385637369
 30
0.0
 10
-146.1961470561826
 20
176.2695790430629
 30
0.0
 10
-145.9416514154499
 20
176.1884130029225
 30
0.0
 10
-145.7943091373802
 20
176.1412395770444
 30
0.0
 10
-145.4328006503337
 20
176.0251594267729
 30
0.0
 10
-145.1257712450688
 20
175.9260000885432
 30
0.0
 10
-144.401191466687
 20
175.6911144812928
 30
0.0
 10
-143.8053849166023
 20
175.4967381747114
 30
0.0
 10
-142.8077661475577
 20
175.1703388857535
 30
0.0
 10
-142.2513799951557
 20
174.9878277681541
 30
0.0
 10
-141.2083447093372
 20
174.6450660968847
 30
0.0
 10
-140.702307505421
 20
174.4784997802445
 30
0.0
 10
-139.0565757520117
 20
173.9357606257921
 30
0.0
 10
-138.0884135504788
 20
173.6153765417894
 30
0.0
 10
-136.4609162845671
 20
173.073262097727
 30
0.0
 10
-135.9258924836217
 20
172.8943370682537
 30
0.0
 10
-134.9335716172119
 20
172.5611178858958
 30
0.0
 10
-134.3536530340251
 20
172.3656270240952
 30
0.0
 10
-132.8645373871578
 20
171.8621951024826
 30
0.0
 10
-131.7092521296528
 20
171.4694710598062
 30
0.0
 10
-130.4663315458988
 20
171.045755398289
 30
0.0
 10
-130.1736004521859
 20
170.9458947090922
 30
0.0
 10
-129.6857473376004
 20
170.7793878915004
 30
0.0
 10
-129.3519079468328
 20
170.6653861509832
 30
0.0
 10
-128.9371212674627
 20
170.5236986308536
 30
0.0
 10
-128.7025763553081
 20
170.4435595265975
 30
0.0
 10
-128.1791833860599
 20
170.264690629703
 30
0.0
 10
-127.8360239083973
 20
170.1473943639123
 30
0.0
 10
-127.3126474919032
 20
169.9684770370683
 30
0.0
 10
-127.0998026125884
 20
169.8957172941157
 30
0.0
 10
-126.4787344795293
 20
169.6834169208808
 30
0.0
 10
-126.2750515113906
 20
169.6137974841366
 30
0.0
 10
-125.4624588988024
 20
169.3361242079571
 30
0.0
 10
-124.8986640205327
 20
169.1435950318883
 30
0.0
 10
-124.2015058432161
 20
168.9056635870368
 30
0.0
 10
-123.9726436570402
 20
168.8275799117293
 30
0.0
 10
-123.3247051003954
 20
168.6065116099747
 30
0.0
 10
-123.1488389962281
 20
168.5465117374786
 30
0.0
 10
-122.5781046747519
 20
168.3516353853981
 30
0.0
 10
-122.3602715472978
 20
168.2772132468355
 30
0.0
 10
-121.7965398500123
 20
168.0841908946857
 30
0.0
 10
-121.6390090501552
 20
168.0302453952351
 30
0.0
 10
-121.2937259293459
 20
167.9112034244308
 30
0.0
  0
SPLINE
  5
74
330
1F
100
AcDbEntity
  8
0
  6
Continuous
 62
     7
370
    25
100
AcDbSpline
210
0.0
220
0.0
230
1.0
 70
     8
 71
     3
 72
     8
 73
     4
 74
     0
 42
0.00000001
 43
0.00000001
 40
0.0
 40
0.0
 40
0.0
 40
0.0
 40
1.0
 40
1.0
 40
1.0
 40
1.0
 10
-121.2937259293459
 20
167.9112034244308
 30
0.0
 10
-121.2095463497208
 20
167.8821949118469
 30
0.0
 10
-121.1885043585992
 20
167.8749343680573
 30
0.0
 10
-121.1043480099093
 20
167.8458585292432
 30
0.0
  0
SPLINE
  5
75
330
1F
100
AcDbEntity
  8
0
  6
Continuous
 62
     7
370
    25
100
AcDbSpline
210
0.0
220
0.0
230
1.0
 70
     8
 71
     3
 72
    14
 73
    10
 74
     0
 42
0.00000001
 43
0.00000001
 40
0.0
 40
0.0
 40
0.0
 40
0.0
 40
0.25
 40
0.25
 40
0.5
 40
0.5
 40
0.75
 40
0.75
 40
1.0
 40
1.0
 40
1.0
 40
1.0
 10
-121.1043480099093
 20
167.8458585292432
 30
0.0
 10
-120.9791883530525
 20
168.1499360435367
 30
0.0
 10
-120.9167482276107
 20
168.3016542114856
 30
0.0
 10
-120.7435506778165
 20
168.725893928291
 30
0.0
 10
-120.6447979765483
 20
168.9699351533677
 30
0.0
 10
-120.4748792040725
 20
169.3966055075632
 30
0.0
 10
-120.3812803898059
 20
169.6354693450743
 30
0.0
 10
-120.2125460481302
 20
170.0759270173332
 30
0.0
 10
-120.1540858597649
 20
170.2305334230495
 30
0.0
 10
-120.0439523743576
 20
170.5319348475371
 30
0.0
  0
SPLINE
  5
76
330
1F
100
AcDbEntity
  8
0
  6
Continuous
 62
     7
370
    25
100
AcDbSpline
210
0.0
220
0.0
230
1.0
 70
     8
 71
     3
 72
    52
 73
    48
 74
     0
 42
0.00000001
 43
0.00000001
 40
0.0
 40
0.0
 40
0.0
 40
0.0
 40
0.0312499999999974
 40
0.0312499999999974
 40
0.062499999999995
 40
0.062499999999995
 40
0.1249999999999898
 40
0.1249999999999898
 40
0.1874999999999847
 40
0.1874999999999847
 40
0.2499999999999795
 40
0.2499999999999795
 40
0.2812499999999751
 40
0.2812499999999751
 40
0.3124999999999709
 40
0.3124999999999709
 40
0.3437499999999666
 40
0.359374999999964
 40
0.359374999999964
 40
0.3749999999999616
 40
0.3749999999999616
 40
0.4374999999999623
 40
0.4374999999999623
 40
0.4687499999999617
 40
0.4843749999999626
 40
0.4843749999999626
 40
0.4999999999999636
 40
0.4999999999999636
 40
0.624999999999968
 40
0.624999999999968
 40
0.7499999999999725
 40
0.7499999999999725
 40
0.812499999999975
 40
0.812499999999975
 40
0.8437499999999772
 40
0.8437499999999772
 40
0.8749999999999795
 40
0.8749999999999795
 40
0.9062499999999816
 40
0.9062499999999816
 40
0.9218749999999838
 40
0.9218749999999838
 40
0.937499999999986
 40
0.937499999999986
 40
0.968749999999993
 40
0.968749999999993
 40
1.0
 40
1.0
 40
1.0
 40
1.0
 10
-120.0439520688182
 20
170.5319356853317
 30
0.0
 10
-119.9568069201161
 20
170.7708892269663
 30
0.0
 10
-119.8954651297621
 20
170.9395650165891
 30
0.0
 10
-119.7565528449219
 20
171.3220407879376
 30
0.0
 10
-119.676176793993
 20
171.5437465692581
 30
0.0
 10
-119.4739646331372
 20
172.1022880907371
 30
0.0
 10
-119.3105598177641
 20
172.5548633061919
 30
0.0
 10
-119.0410996631376
 20
173.3025944484667
 30
0.0
 10
-118.8778569887075
 20
173.7564111973988
 30
0.0
 10
-118.6108313331856
 20
174.499700961096
 30
0.0
 10
-118.4447794018699
 20
174.9624992238772
 30
0.0
 10
-118.2483735602906
 20
175.5103554693559
 30
0.0
 10
-118.1798175780334
 20
175.7016574190583
 30
0.0
 10
-118.036530876724
 20
176.1016277208818
 30
0.0
 10
-117.9465596738313
 20
176.3528638480009
 30
0.0
 10
-117.8214045400861
 20
176.7024311994516
 30
0.0
 10
-117.7207863244891
 20
176.9835248225721
 30
0.0
 10
-117.6100403109599
 20
177.2929956099918
 30
0.0
 10
-117.5339590135111
 20
177.5056155047824
 30
0.0
 10
-117.4795531068677
 20
177.6576748346008
 30
0.0
 10
-117.3542968235763
 20
178.0077719998716
 30
0.0
 10
-117.2245489603844
 20
178.370475033035
 30
0.0
 10
-116.9255202042487
 20
179.2064684588986
 30
0.0
 10
-116.7971017911212
 20
179.5654811457739
 30
0.0
 10
-116.7003273254042
 20
179.8360177935646
 30
0.0
 10
-116.6428430032397
 20
179.9967142167395
 30
0.0
 10
-116.635047699146
 20
180.0185069263187
 30
0.0
 10
-116.2827778287109
 20
181.0032137689367
 30
0.0
 10
-116.0268410942899
 20
181.7183977591168
 30
0.0
 10
-115.4470011675676
 20
183.3376091867426
 30
0.0
 10
-115.155033293814
 20
184.1523454656207
 30
0.0
 10
-114.737931798494
 20
185.3154384185027
 30
0.0
 10
-114.5756705665541
 20
185.7677348229965
 30
0.0
 10
-114.382036692706
 20
186.3073280621442
 30
0.0
 10
-114.313880662295
 20
186.4972305905418
 30
0.0
 10
-114.1703457898829
 20
186.897111878034
 30
0.0
 10
-114.0715241800967
 20
187.1723873622336
 30
0.0
 10
-113.9604292406233
 20
187.481827603675
 30
0.0
 10
-113.9079671877096
 20
187.6279472492093
 30
0.0
 10
-113.7469514750492
 20
188.0763930926726
 30
0.0
 10
-113.7021691233995
 20
188.2011175914198
 30
0.0
 10
-113.6303835252408
 20
188.4010516907665
 30
0.0
 10
-113.6281314593299
 20
188.4073217190064
 30
0.0
 10
-113.4995368031772
 20
188.7654969813028
 30
0.0
 10
-113.4486056543858
 20
188.9073642424837
 30
0.0
 10
-113.2912923634767
 20
189.3456955745621
 30
0.0
 10
-113.249656634505
 20
189.4617285174527
 30
0.0
 10
-113.1547679717567
 20
189.7263953375958
 30
0.0
  0
SPLINE
  5
77
330
1F
100
AcDbEntity
  8
0
  6
Continuous
 62
     7
370
    25
100
AcDbSpline
210
0.0
220
0.0
230
1.0
 70
     8
 71
     3
 72
     8
 73
     4
 74
     0
 42
0.00000001
 43
0.00000001
 40
0.0
 40
0.0
 40
0.0
 40
0.0
 40
1.0
 40
1.0
 40
1.0
 40
1.0
 10
-113.1547679717567
 20
189.7263953375958
 30
0.0
 10
-113.0920840595268
 20
189.9026711291048
 30
0.0
 10
-113.0772062022111
 20
189.947073919022
 30
0.0
 10
-113.0231710239956
 20
190.1261909229231
 30
0.0
  0
SPLINE
  5
78
330
1F
100
AcDbEntity
  8
0
  6
Continuous
 62
     7
370
    25
100
AcDbSpline
210
0.0
220
0.0
230
1.0
 70
     8
 71
     3
 72
    30
 73
    26
 74
     0
 42
0.00000001
 43
0.00000001
 40
0.0
 40
0.0
 40
0.0
 40
0.0
 40
0.0156249999999984
 40
0.0156249999999984
 40
0.031249999999997
 40
0.031249999999997
 40
0.0624999999999978
 40
0.0624999999999978
 40
0.1249999999999988
 40
0.1249999999999988
 40
0.2499999999999971
 40
0.2499999999999971
 40
0.4999999999999969
 40
0.4999999999999969
 40
0.7499999999999967
 40
0.7499999999999967
 40
0.8749999999999948
 40
0.8749999999999948
 40
0.9374999999999941
 40
0.9374999999999941
 40
0.9687499999999953
 40
0.9687499999999953
 40
0.9843749999999977
 40
0.9843749999999977
 40
1.0
 40
1.0
 40
1.0
 40
1.0
 10
-113.0231710239956
 20
190.1261909229231
 30
0.0
 10
-113.2181116941158
 20
190.1757630060081
 30
0.0
 10
-113.3044098366811
 20
190.1977887774262
 30
0.0
 10
-113.5748407294174
 20
190.2663500658819
 30
0.0
 10
-113.7205554139793
 20
190.3031707967861
 30
0.0
 10
-114.1276004706399
 20
190.4056368757119
 30
0.0
 10
-114.4162113558021
 20
190.4777418708513
 30
0.0
 10
-115.237664518853
 20
190.6812427360472
 30
0.0
 10
-115.8067648767779
 20
190.8198708018532
 30
0.0
 10
-117.4666768796341
 20
191.2165544957164
 30
0.0
 10
-118.6020223705631
 20
191.477469813483
 30
0.0
 10
-121.9277094170823
 20
192.2075557829208
 30
0.0
 10
-124.1646610950854
 20
192.6520901830181
 30
0.0
 10
-128.7380631777311
 20
193.4923120986433
 30
0.0
 10
-130.966885784634
 20
193.8692249409842
 30
0.0
 10
-134.3587508649807
 20
194.4115589057808
 30
0.0
 10
-135.4774418743727
 20
194.58507053536
 30
0.0
 10
-137.1988218549099
 20
194.8448681396989
 30
0.0
 10
-137.751536517779
 20
194.927138530972
 30
0.0
 10
-138.6118751416933
 20
195.0535417037574
 30
0.0
 10
-138.8909503965137
 20
195.0942725631592
 30
0.0
 10
-139.3177591678167
 20
195.1561656166677
 30
0.0
 10
-139.45845176531
 20
195.1765011084301
 30
0.0
 10
-139.7430935458628
 20
195.2175106595071
 30
0.0
 10
-139.8433111689029
 20
195.2317985668847
 30
0.0
 10
-140.0261135816012
 20
195.2580755779125
 30
0.0
  0
SPLINE
  5
79
330
1F
100
AcDbEntity
  8
0
  6
Continuous
 62
     7
370
    25
100
AcDbSpline
210
0.0
220
0.0
230
1.0
 70
     8
 71
     3
 72
     8
 73
     4
 74
     0
 42
0.00000001
 43
0.00000001
 40
0.0
 40
0.0
 40
0.0
 40
0.0
 40
1.0
 40
1.0
 40
1.0
 40
1.0
 10
-140.0261135862119
 20
195.2580755586879
 30
0.0
 10
-140.050951414229
 20
195.1545129323364
 30
0.0
 10
-140.0580831313364
 20
195.1288113386453
 30
0.0
 10
-140.0898391131958
 20
195.0271572116219
 30
0.0
  0
SPLINE
  5
7A
330
1F
100
AcDbEntity
  8
0
  6
Continuous
 62
     7
370
    25
100
AcDbSpline
210
0.0
220
0.0
230
1.0
 70
     8
 71
     3
 72
    37
 73
    33
 74
     0
 42
0.00000001
 43
0.00000001
 40
0.0
 40
0.0
 40
0.0
 40
0.0
 40
0.0625000000000144
 40
0.0625000000000144
 40
0.1250000000000288
 40
0.1250000000000288
 40
0.2500000000000618
 40
0.2500000000000618
 40
0.3125000000000793
 40
0.3125000000000793
 40
0.343750000000088
 40
0.3593750000000904
 40
0.3593750000000904
 40
0.3750000000000927
 40
0.3750000000000927
 40
0.4062500000000878
 40
0.4062500000000878
 40
0.4375000000000828
 40
0.4375000000000828
 40
0.4687500000000779
 40
0.4687500000000779
 40
0.500000000000073
 40
0.500000000000073
 40
0.7500000000000353
 40
0.7500000000000353
 40
0.8750000000000169
 40
0.8750000000000169
 40
0.9375000000000071
 40
0.9375000000000071
 40
0.9687500000000036
 40
0.9687500000000036
 40
1.0
 40
1.0
 40
1.0
 40
1.0
 10
-140.0898392584022
 20
195.0271567594437
 30
0.0
 10
-140.1713479952627
 20
194.7733356794392
 30
0.0
 10
-140.2975591778126
 20
194.3803831545123
 30
0.0
 10
-140.5119481715268
 20
193.7130485512827
 30
0.0
 10
-140.6176704421534
 20
193.3840486163367
 30
0.0
 10
-140.9240552606154
 20
192.4308540577402
 30
0.0
 10
-141.1502064216393
 20
191.7276762063912
 30
0.0
 10
-141.4504170988747
 20
190.794662099115
 30
0.0
 10
-141.5719067153699
 20
190.4171788536266
 30
0.0
 10
-141.7127861358167
 20
189.9795221888731
 30
0.0
 10
-141.7874530198501
 20
189.7475795199825
 30
0.0
 10
-141.8684606645983
 20
189.4959653463212
 30
0.0
 10
-141.9238748190338
 20
189.3238511183758
 30
0.0
 10
-141.9702884132991
 20
189.1796979130141
 30
0.0
 10
-142.0036306139962
 20
189.0761440875212
 30
0.0
 10
-142.041046735027
 20
188.9599417471104
 30
0.0
 10
-142.1462549515538
 20
188.6332041527914
 30
0.0
 10
-142.2311182118853
 20
188.3696529432997
 30
0.0
 10
-142.3629359792447
 20
187.9602816456584
 30
0.0
 10
-142.4221910514166
 20
187.7762540153295
 30
0.0
 10
-142.5273935727451
 20
187.4495147916549
 30
0.0
 10
-142.5537746693432
 20
187.3675800420858
 30
0.0
 10
-143.0835148949203
 20
185.7221052999532
 30
0.0
 10
-143.4300888286975
 20
184.6455032934406
 30
0.0
 10
-144.0941351065321
 20
182.5719668451302
 30
0.0
 10
-144.2779058146891
 20
181.9967900770801
 30
0.0
 10
-144.6095257528027
 20
180.9532587985344
 30
0.0
 10
-144.7027514257206
 20
180.6591186528363
 30
0.0
 10
-144.8636281537654
 20
180.1495685767768
 30
0.0
 10
-144.912272223089
 20
179.9951898359907
 30
0.0
 10
-145.0171715181958
 20
179.6614647093709
 30
0.0
 10
-145.0535137975979
 20
179.5456285786562
 30
0.0
 10
-145.1187368121763
 20
179.3370146123193
 30
0.0
  0
SPLINE
  5
7B
330
1F
100
AcDbEntity
  8
0
  6
Continuous
 62
     7
370
    25
100
AcDbSpline
210
0.0
220
0.0
230
1.0
 70
     8
 71
     3
 72
    18
 73
    14
 74
     0
 42
0.00000001
 43
0.00000001
 40
0.0
 40
0.0
 40
0.0
 40
0.0
 40
0.124999999999996
 40
0.124999999999996
 40
0.249999999999992
 40
0.249999999999992
 40
0.499999999999988
 40
0.499999999999988
 40
0.749999999999984
 40
0.749999999999984
 40
0.874999999999992
 40
0.874999999999992
 40
1.0
 40
1.0
 40
1.0
 40
1.0
 10
-145.118739637591
 20
179.3370056412785
 30
0.0
 10
-145.1734481778056
 20
179.1632993000725
 30
0.0
 10
-145.2027653124273
 20
179.0761486763438
 30
0.0
 10
-145.2925757665656
 20
178.8199468451081
 30
0.0
 10
-145.3407497901686
 20
178.6896813182821
 30
0.0
 10
-145.4875924131204
 20
178.3116618020878
 30
0.0
 10
-145.5982750405421
 20
178.0525065505131
 30
0.0
 10
-145.8221293115275
 20
177.5664857372751
 30
0.0
 10
-145.9479663129802
 20
177.312234153714
 30
0.0
 10
-146.1342091548633
 20
176.9552537712366
 30
0.0
 10
-146.2015864689328
 20
176.8293572616074
 30
0.0
 10
-146.3288386876601
 20
176.5962465921409
 30
0.0
 10
-146.3748490745293
 20
176.5132753006604
 30
0.0
 10
-146.464260774452
 20
176.354603472661
 30
0.0
  0
MTEXT
  5
7D
330
1F
100
AcDbEntity
  8
0
  6
Continuous
 62
     7
100
AcDbMText
 10
-146.4642607745
 20
167.8057181201
 30
0.0
 40
0.1903
 41
0.0
 71
     1
 72
     1
  1
SOLIDWORKS Educational Product.
  7
SLDTEXTSTYLE0
 73
     1
 44
1.0
  0
MTEXT
  5
7E
330
1F
100
AcDbEntity
  8
0
  6
Continuous
 62
     7
100
AcDbMText
 10
-146.4642607745
 20
167.5202681201
 30
0.0
 40
0.1903
 41
0.0
 71
     1
 72
     1
  1
For Instructional Use Only.
  7
SLDTEXTSTYLE0
 73
     1
 44
1.0
  0
ENDSEC
  0
SECTION
  2
OBJECTS
  0
DICTIONARY
  5
C
330
0
100
AcDbDictionary
281
     1
  3
ACAD_GROUP
350
D
  3
ACAD_LAYOUT
350
1A
  3
ACAD_MLINESTYLE
350
17
  3
ACAD_PLOTSETTINGS
350
19
  3
ACAD_PLOTSTYLENAME
350
E
  3
ACAD_SCALELIST
350
47
  3
DWGPROPS
350
7F
  0
DICTIONARY
  5
D
102
{ACAD_REACTORS
330
C
102
}
330
C
100
AcDbDictionary
281
     1
  0
DICTIONARY
  5
1A
102
{ACAD_REACTORS
330
C
102
}
330
C
100
AcDbDictionary
281
     1
  3
Layout1
350
1E
  3
Layout2
350
26
  3
Model
350
22
  0
DICTIONARY
  5
17
102
{ACAD_REACTORS
330
C
102
}
330
C
100
AcDbDictionary
281
     1
  3
Standard
350
18
  0
DICTIONARY
  5
19
102
{ACAD_REACTORS
330
C
102
}
330
C
100
AcDbDictionary
281
     1
  0
ACDBDICTIONARYWDFLT
  5
E
102
{ACAD_REACTORS
330
C
102
}
330
C
100
AcDbDictionary
281
     1
  3
Normal
350
F
100
AcDbDictionaryWithDefault
340
F
  0
DICTIONARY
  5
47
102
{ACAD_REACTORS
330
C
102
}
330
C
100
AcDbDictionary
281
     1
  3
A0
350
48
  3
A1
350
49
  3
A2
350
4A
  3
A3
350
4B
  3
A4
350
4C
  3
A5
350
4D
  3
A6
350
4E
  3
A7
350
4F
  3
A8
350
50
  3
A9
350
51
  3
B0
350
52
  3
B1
350
53
  3
B2
350
54
  3
B3
350
55
  3
B4
350
56
  3
B5
350
57
  3
B6
350
58
  3
B7
350
59
  3
B8
350
5A
  3
B9
350
5B
  3
C0
350
5C
  3
C1
350
5D
  3
C2
350
5E
  3
C3
350
5F
  3
C4
350
60
  3
C5
350
61
  3
C6
350
62
  3
C7
350
63
  3
C8
350
64
  3
C9
350
65
  3
D0
350
66
  3
D1
350
67
  3
D2
350
68
  0
XRECORD
  5
7F
102
{ACAD_REACTORS
330
C
102
}
330
C
100
AcDbXrecord
280
     1
  1
DWGPROPS COOKIE
  2

  3

  4

  6

  7

  8
lucie
  9

300
=
301
=
302
=
303
=
304
=
305
=
306
=
307
=
308
=
309
=
 40
0.0
 41
2460052.695032454
 42
2460052.695059224
  1

 90
        0
  0
LAYOUT
  5
1E
102
{ACAD_REACTORS
330
1A
102
}
330
1A
100
AcDbPlotSettings
  1

  2
none_device
  4

  6

 40
0.0
 41
0.0
 42
0.0
 43
0.0
 44
0.0
 45
0.0
 46
0.0
 47
0.0
 48
0.0
 49
0.0
140
0.0
141
0.0
142
1.0
143
1.0
 70
   688
 72
     0
 73
     0
 74
     5
  7

 75
    16
147
1.0
148
0.0
149
0.0
100
AcDbLayout
  1
Layout1
 70
     1
 71
     1
 10
0.0
 20
0.0
 11
12.0
 21
9.0
 12
0.0
 22
0.0
 32
0.0
 14
1.0000000000E+20
 24
1.0000000000E+20
 34
1.0000000000E+20
 15
-1.0000000000E+20
 25
-1.0000000000E+20
 35
-1.0000000000E+20
146
0.0
 13
0.0
 23
0.0
 33
0.0
 16
1.0
 26
0.0
 36
0.0
 17
0.0
 27
1.0
 37
0.0
 76
     0
330
1B
  0
LAYOUT
  5
26
102
{ACAD_REACTORS
330
1A
102
}
330
1A
100
AcDbPlotSettings
  1

  2
none_device
  4

  6

 40
0.0
 41
0.0
 42
0.0
 43
0.0
 44
0.0
 45
0.0
 46
0.0
 47
0.0
 48
0.0
 49
0.0
140
0.0
141
0.0
142
1.0
143
1.0
 70
   688
 72
     0
 73
     0
 74
     5
  7

 75
    16
147
1.0
148
0.0
149
0.0
100
AcDbLayout
  1
Layout2
 70
     1
 71
     2
 10
0.0
 20
0.0
 11
0.0
 21
0.0
 12
0.0
 22
0.0
 32
0.0
 14
0.0
 24
0.0
 34
0.0
 15
0.0
 25
0.0
 35
0.0
146
0.0
 13
0.0
 23
0.0
 33
0.0
 16
1.0
 26
0.0
 36
0.0
 17
0.0
 27
1.0
 37
0.0
 76
     0
330
23
  0
LAYOUT
  5
22
102
{ACAD_REACTORS
330
1A
102
}
330
1A
100
AcDbPlotSettings
  1

  2
none_device
  4
ANSI_A_(11.00_x_8.50_Inches)
  6

 40
6.35
 41
19.05
 42
6.35000508
 43
19.05000254
 44
279.4
 45
215.9
 46
1144.9993482141
 47
-1326.7132995706
 48
0.0
 49
0.0
140
0.0
141
0.0
142
0.3069799128
143
1.0
 70
  1696
 72
     0
 73
     0
 74
     0
  7

 75
     0
147
0.5913241897
148
-39.4088153714
149
0.0
100
AcDbLayout
  1
Model
 70
     1
 71
     0
 10
0.0
 20
0.0
 11
12.0
 21
9.0
 12
0.0
 22
0.0
 32
0.0
 14
-146.4642607745
 24
167.8458585292
 34
0.0
 15
-113.023171024
 25
195.2580755779
 35
0.0
146
0.0
 13
0.0
 23
0.0
 33
0.0
 16
1.0
 26
0.0
 36
0.0
 17
0.0
 27
1.0
 37
0.0
 76
     0
330
1F
331
29
  0
MLINESTYLE
  5
18
102
{ACAD_REACTORS
330
17
102
}
330
17
100
AcDbMlineStyle
  2
Standard
 70
     0
  3

 62
   256
 51
90.0
 52
90.0
 71
     2
 49
0.5
 62
   256
  6
BYLAYER
 49
-0.5
 62
   256
  6
BYLAYER
  0
ACDBPLACEHOLDER
  5
F
102
{ACAD_REACTORS
330
E
102
}
330
E
  0
SCALE
  5
48
102
{ACAD_REACTORS
330
47
102
}
330
47
100
AcDbScale
 70
     0
300
1:1
140
1.0
141
1.0
290
     1
  0
SCALE
  5
49
102
{ACAD_REACTORS
330
47
102
}
330
47
100
AcDbScale
 70
     0
300
1:2
140
1.0
141
2.0
290
     0
  0
SCALE
  5
4A
102
{ACAD_REACTORS
330
47
102
}
330
47
100
AcDbScale
 70
     0
300
1:4
140
1.0
141
4.0
290
     0
  0
SCALE
  5
4B
102
{ACAD_REACTORS
330
47
102
}
330
47
100
AcDbScale
 70
     0
300
1:5
140
1.0
141
5.0
290
     0
  0
SCALE
  5
4C
102
{ACAD_REACTORS
330
47
102
}
330
47
100
AcDbScale
 70
     0
300
1:8
140
1.0
141
8.0
290
     0
  0
SCALE
  5
4D
102
{ACAD_REACTORS
330
47
102
}
330
47
100
AcDbScale
 70
     0
300
1:10
140
1.0
141
10.0
290
     0
  0
SCALE
  5
4E
102
{ACAD_REACTORS
330
47
102
}
330
47
100
AcDbScale
 70
     0
300
1:16
140
1.0
141
16.0
290
     0
  0
SCALE
  5
4F
102
{ACAD_REACTORS
330
47
102
}
330
47
100
AcDbScale
 70
     0
300
1:20
140
1.0
141
20.0
290
     0
  0
SCALE
  5
50
102
{ACAD_REACTORS
330
47
102
}
330
47
100
AcDbScale
 70
     0
300
1:30
140
1.0
141
30.0
290
     0
  0
SCALE
  5
51
102
{ACAD_REACTORS
330
47
102
}
330
47
100
AcDbScale
 70
     0
300
1:40
140
1.0
141
40.0
290
     0
  0
SCALE
  5
52
102
{ACAD_REACTORS
330
47
102
}
330
47
100
AcDbScale
 70
     0
300
1:50
140
1.0
141
50.0
290
     0
  0
SCALE
  5
53
102
{ACAD_REACTORS
330
47
102
}
330
47
100
AcDbScale
 70
     0
300
1:100
140
1.0
141
100.0
290
     0
  0
SCALE
  5
54
102
{ACAD_REACTORS
330
47
102
}
330
47
100
AcDbScale
 70
     0
300
2:1
140
2.0
141
1.0
290
     0
  0
SCALE
  5
55
102
{ACAD_REACTORS
330
47
102
}
330
47
100
AcDbScale
 70
     0
300
4:1
140
4.0
141
1.0
290
     0
  0
SCALE
  5
56
102
{ACAD_REACTORS
330
47
102
}
330
47
100
AcDbScale
 70
     0
300
8:1
140
8.0
141
1.0
290
     0
  0
SCALE
  5
57
102
{ACAD_REACTORS
330
47
102
}
330
47
100
AcDbScale
 70
     0
300
10:1
140
10.0
141
1.0
290
     0
  0
SCALE
  5
58
102
{ACAD_REACTORS
330
47
102
}
330
47
100
AcDbScale
 70
     0
300
100:1
140
100.0
141
1.0
290
     0
  0
SCALE
  5
59
102
{ACAD_REACTORS
330
47
102
}
330
47
100
AcDbScale
 70
     0
300
1/128" = 1'-0"
140
0.0078125
141
12.0
290
     0
  0
SCALE
  5
5A
102
{ACAD_REACTORS
330
47
102
}
330
47
100
AcDbScale
 70
     0
300
1/64" = 1'-0"
140
0.015625
141
12.0
290
     0
  0
SCALE
  5
5B
102
{ACAD_REACTORS
330
47
102
}
330
47
100
AcDbScale
 70
     0
300
1/32" = 1'-0"
140
0.03125
141
12.0
290
     0
  0
SCALE
  5
5C
102
{ACAD_REACTORS
330
47
102
}
330
47
100
AcDbScale
 70
     0
300
1/16" = 1'-0"
140
0.0625
141
12.0
290
     0
  0
SCALE
  5
5D
102
{ACAD_REACTORS
330
47
102
}
330
47
100
AcDbScale
 70
     0
300
3/32" = 1'-0"
140
0.09375
141
12.0
290
     0
  0
SCALE
  5
5E
102
{ACAD_REACTORS
330
47
102
}
330
47
100
AcDbScale
 70
     0
300
1/8" = 1'-0"
140
0.125
141
12.0
290
     0
  0
SCALE
  5
5F
102
{ACAD_REACTORS
330
47
102
}
330
47
100
AcDbScale
 70
     0
300
3/16" = 1'-0"
140
0.1875
141
12.0
290
     0
  0
SCALE
  5
60
102
{ACAD_REACTORS
330
47
102
}
330
47
100
AcDbScale
 70
     0
300
1/4" = 1'-0"
140
0.25
141
12.0
290
     0
  0
SCALE
  5
61
102
{ACAD_REACTORS
330
47
102
}
330
47
100
AcDbScale
 70
     0
300
3/8" = 1'-0"
140
0.375
141
12.0
290
     0
  0
SCALE
  5
62
102
{ACAD_REACTORS
330
47
102
}
330
47
100
AcDbScale
 70
     0
300
1/2" = 1'-0"
140
0.5
141
12.0
290
     0
  0
SCALE
  5
63
102
{ACAD_REACTORS
330
47
102
}
330
47
100
AcDbScale
 70
     0
300
3/4" = 1'-0"
140
0.75
141
12.0
290
     0
  0
SCALE
  5
64
102
{ACAD_REACTORS
330
47
102
}
330
47
100
AcDbScale
 70
     0
300
1" = 1'-0"
140
1.0
141
12.0
290
     0
  0
SCALE
  5
65
102
{ACAD_REACTORS
330
47
102
}
330
47
100
AcDbScale
 70
     0
300
1-1/2" = 1'-0"
140
1.5
141
12.0
290
     0
  0
SCALE
  5
66
102
{ACAD_REACTORS
330
47
102
}
330
47
100
AcDbScale
 70
     0
300
3" = 1'-0"
140
3.0
141
12.0
290
     0
  0
SCALE
  5
67
102
{ACAD_REACTORS
330
47
102
}
330
47
100
AcDbScale
 70
     0
300
6" = 1'-0"
140
6.0
141
12.0
290
     0
  0
SCALE
  5
68
102
{ACAD_REACTORS
330
47
102
}
330
47
100
AcDbScale
 70
     0
300
1'-0" = 1'-0"
140
12.0
141
12.0
290
     0
  0
ENDSEC
  0
EOF
