  0
SECTION
  2
HEADER
  9
$ACADVER
  1
AC1015
  9
$ACADMAINTVER
 70
     6
  9
$DWGCODEPAGE
  3
ANSI_1252
  9
$INSBASE
 10
0.0
 20
0.0
 30
0.0
  9
$EXTMIN
 10
-38.3453252236
 20
0.4305706532
 30
0.0
  9
$EXTMAX
 10
-0.5229992845
 20
36.604155935
 30
0.0
  9
$LIMMIN
 10
0.0
 20
0.0
  9
$LIMMAX
 10
12.0
 20
9.0
  9
$ORTHOMODE
 70
     0
  9
$REGENMODE
 70
     1
  9
$FILLMODE
 70
     1
  9
$QTEXTMODE
 70
     0
  9
$MIRRTEXT
 70
     1
  9
$LTSCALE
 40
1.0
  9
$ATTMODE
 70
     1
  9
$TEXTSIZE
 40
0.1377952756
  9
$TRACEWID
 40
0.05
  9
$TEXTSTYLE
  7
Standard
  9
$CLAYER
  8
0
  9
$CELTYPE
  6
ByLayer
  9
$CECOLOR
 62
   256
  9
$CELTSCALE
 40
1.0
  9
$DISPSILH
 70
     0
  9
$DIMSCALE
 40
1.0
  9
$DIMASZ
 40
0.13
  9
$DIMEXO
 40
0.0
  9
$DIMDLI
 40
0.38
  9
$DIMRND
 40
0.0
  9
$DIMDLE
 40
0.0
  9
$DIMEXE
 40
0.0393700787
  9
$DIMTP
 40
0.0
  9
$DIMTM
 40
0.0
  9
$DIMTXT
 40
0.1377952756
  9
$DIMCEN
 40
0.09
  9
$DIMTSZ
 40
0.0
  9
$DIMTOL
 70
     0
  9
$DIMLIM
 70
     0
  9
$DIMTIH
 70
     1
  9
$DIMTOH
 70
     1
  9
$DIMSE1
 70
     0
  9
$DIMSE2
 70
     0
  9
$DIMTAD
 70
     1
  9
$DIMZIN
 70
     1
  9
$DIMBLK
  1

  9
$DIMASO
 70
     1
  9
$DIMSHO
 70
     1
  9
$DIMPOST
  1

  9
$DIMAPOST
  1

  9
$DIMALT
 70
     0
  9
$DIMALTD
 70
     2
  9
$DIMALTF
 40
25.4
  9
$DIMLFAC
 40
1.0
  9
$DIMTOFL
 70
     0
  9
$DIMTVP
 40
0.0
  9
$DIMTIX
 70
     0
  9
$DIMSOXD
 70
     0
  9
$DIMSAH
 70
     0
  9
$DIMBLK1
  1

  9
$DIMBLK2
  1

  9
$DIMSTYLE
  2
Standard
  9
$DIMCLRD
 70
     0
  9
$DIMCLRE
 70
     0
  9
$DIMCLRT
 70
     0
  9
$DIMTFAC
 40
1.0
  9
$DIMGAP
 40
0.06
  9
$DIMJUST
 70
     0
  9
$DIMSD1
 70
     0
  9
$DIMSD2
 70
     0
  9
$DIMTOLJ
 70
     1
  9
$DIMTZIN
 70
     1
  9
$DIMALTZ
 70
     0
  9
$DIMALTTZ
 70
     0
  9
$DIMUPT
 70
     0
  9
$DIMDEC
 70
     2
  9
$DIMTDEC
 70
     2
  9
$DIMALTU
 70
     2
  9
$DIMALTTD
 70
     2
  9
$DIMTXSTY
  7
Standard
  9
$DIMAUNIT
 70
     0
  9
$DIMADEC
 70
     2
  9
$DIMALTRND
 40
0.0
  9
$DIMAZIN
 70
     0
  9
$DIMDSEP
 70
    46
  9
$DIMATFIT
 70
     3
  9
$DIMFRAC
 70
     0
  9
$DIMLDRBLK
  1

  9
$DIMLUNIT
 70
     2
  9
$DIMLWD
 70
    -2
  9
$DIMLWE
 70
    -2
  9
$DIMTMOVE
 70
     0
  9
$LUNITS
 70
     2
  9
$LUPREC
 70
     2
  9
$SKETCHINC
 40
0.1
  9
$FILLETRAD
 40
0.5
  9
$AUNITS
 70
     0
  9
$AUPREC
 70
     2
  9
$MENU
  1
.
  9
$ELEVATION
 40
0.0
  9
$PELEVATION
 40
0.0
  9
$THICKNESS
 40
0.0
  9
$LIMCHECK
 70
     0
  9
$CHAMFERA
 40
0.0
  9
$CHAMFERB
 40
0.0
  9
$CHAMFERC
 40
0.0
  9
$CHAMFERD
 40
0.0
  9
$SKPOLY
 70
     0
  9
$TDCREATE
 40
2460027.357071354
  9
$TDUCREATE
 40
2460027.648738021
  9
$TDUPDATE
 40
2460027.357098171
  9
$TDUUPDATE
 40
2460027.648764838
  9
$TDINDWG
 40
0.0000000116
  9
$TDUSRTIMER
 40
0.0000000116
  9
$USRTIMER
 70
     1
  9
$ANGBASE
 50
0.0
  9
$ANGDIR
 70
     0
  9
$PDMODE
 70
     0
  9
$PDSIZE
 40
-1.0
  9
$PLINEWID
 40
0.0
  9
$SPLFRAME
 70
     0
  9
$SPLINETYPE
 70
     6
  9
$SPLINESEGS
 70
     8
  9
$HANDSEED
  5
7F
  9
$SURFTAB1
 70
     6
  9
$SURFTAB2
 70
     6
  9
$SURFTYPE
 70
     6
  9
$SURFU
 70
     6
  9
$SURFV
 70
     6
  9
$UCSBASE
  2

  9
$UCSNAME
  2

  9
$UCSORG
 10
0.0
 20
0.0
 30
0.0
  9
$UCSXDIR
 10
1.0
 20
0.0
 30
0.0
  9
$UCSYDIR
 10
0.0
 20
1.0
 30
0.0
  9
$UCSORTHOREF
  2

  9
$UCSORTHOVIEW
 70
     0
  9
$UCSORGTOP
 10
0.0
 20
0.0
 30
0.0
  9
$UCSORGBOTTOM
 10
0.0
 20
0.0
 30
0.0
  9
$UCSORGLEFT
 10
0.0
 20
0.0
 30
0.0
  9
$UCSORGRIGHT
 10
0.0
 20
0.0
 30
0.0
  9
$UCSORGFRONT
 10
0.0
 20
0.0
 30
0.0
  9
$UCSORGBACK
 10
0.0
 20
0.0
 30
0.0
  9
$PUCSBASE
  2

  9
$PUCSNAME
  2

  9
$PUCSORG
 10
0.0
 20
0.0
 30
0.0
  9
$PUCSXDIR
 10
1.0
 20
0.0
 30
0.0
  9
$PUCSYDIR
 10
0.0
 20
1.0
 30
0.0
  9
$PUCSORTHOREF
  2

  9
$PUCSORTHOVIEW
 70
     0
  9
$PUCSORGTOP
 10
0.0
 20
0.0
 30
0.0
  9
$PUCSORGBOTTOM
 10
0.0
 20
0.0
 30
0.0
  9
$PUCSORGLEFT
 10
0.0
 20
0.0
 30
0.0
  9
$PUCSORGRIGHT
 10
0.0
 20
0.0
 30
0.0
  9
$PUCSORGFRONT
 10
0.0
 20
0.0
 30
0.0
  9
$PUCSORGBACK
 10
0.0
 20
0.0
 30
0.0
  9
$USERI1
 70
     0
  9
$USERI2
 70
     0
  9
$USERI3
 70
     0
  9
$USERI4
 70
     0
  9
$USERI5
 70
     0
  9
$USERR1
 40
0.0
  9
$USERR2
 40
0.0
  9
$USERR3
 40
0.0
  9
$USERR4
 40
0.0
  9
$USERR5
 40
0.0
  9
$WORLDVIEW
 70
     1
  9
$SHADEDGE
 70
     3
  9
$SHADEDIF
 70
    70
  9
$TILEMODE
 70
     1
  9
$MAXACTVP
 70
    64
  9
$PINSBASE
 10
0.0
 20
0.0
 30
0.0
  9
$PLIMCHECK
 70
     0
  9
$PEXTMIN
 10
1.0000000000E+20
 20
1.0000000000E+20
 30
1.0000000000E+20
  9
$PEXTMAX
 10
-1.0000000000E+20
 20
-1.0000000000E+20
 30
-1.0000000000E+20
  9
$PLIMMIN
 10
0.0
 20
0.0
  9
$PLIMMAX
 10
12.0
 20
9.0
  9
$UNITMODE
 70
     0
  9
$VISRETAIN
 70
     1
  9
$PLINEGEN
 70
     0
  9
$PSLTSCALE
 70
     1
  9
$TREEDEPTH
 70
  3020
  9
$CMLSTYLE
  2
Standard
  9
$CMLJUST
 70
     0
  9
$CMLSCALE
 40
1.0
  9
$PROXYGRAPHICS
 70
     1
  9
$MEASUREMENT
 70
     0
  9
$CELWEIGHT
370
    -1
  9
$ENDCAPS
280
     0
  9
$JOINSTYLE
280
     0
  9
$LWDISPLAY
290
     1
  9
$INSUNITS
 70
     1
  9
$HYPERLINKBASE
  1

  9
$STYLESHEET
  1

  9
$XEDIT
290
     1
  9
$CEPSNTYPE
380
     0
  9
$PSTYLEMODE
290
     1
  9
$FINGERPRINTGUID
  2
{7c0f311d-940c-4622-b49d-8cac8a093880}
  9
$VERSIONGUID
  2
{FAEB1C32-E019-11D5-929B-00C0DF256EC4}
  9
$EXTNAMES
290
     1
  9
$PSVPSCALE
 40
0.0
  9
$OLESTARTUP
290
     0
  0
ENDSEC
  0
SECTION
  2
CLASSES
  0
CLASS
  1
ACDBDICTIONARYWDFLT
  2
AcDbDictionaryWithDefault
  3
ObjectDBX Classes
 90
        0
280
     0
281
     0
  0
CLASS
  1
VISUALSTYLE
  2
AcDbVisualStyle
  3
ObjectDBX Classes
 90
     4095
280
     0
281
     0
  0
CLASS
  1
MATERIAL
  2
AcDbMaterial
  3
ObjectDBX Classes
 90
     1153
280
     0
281
     0
  0
CLASS
  1
SCALE
  2
AcDbScale
  3
ObjectDBX Classes
 90
     1153
280
     0
281
     0
  0
CLASS
  1
TABLESTYLE
  2
AcDbTableStyle
  3
ObjectDBX Classes
 90
     4095
280
     0
281
     0
  0
CLASS
  1
MLEADERSTYLE
  2
AcDbMLeaderStyle
  3
ACDB_MLEADERSTYLE_CLASS
 90
     4095
280
     0
281
     0
  0
CLASS
  1
SUN
  2
AcDbSun
  3
SCENEOE
 90
     1153
280
     0
281
     0
  0
CLASS
  1
ACDBPLACEHOLDER
  2
AcDbPlaceHolder
  3
ObjectDBX Classes
 90
        0
280
     0
281
     0
  0
CLASS
  1
LAYOUT
  2
AcDbLayout
  3
ObjectDBX Classes
 90
        0
280
     0
281
     0
  0
ENDSEC
  0
SECTION
  2
TABLES
  0
TABLE
  2
VPORT
  5
8
330
0
100
AcDbSymbolTable
 70
     1
  0
VPORT
  5
29
330
8
100
AcDbSymbolTableRecord
100
AcDbViewportTableRecord
  2
*Active
 70
     0
 10
0.0
 20
0.0
 11
1.0
 21
1.0
 12
-19.4341622541
 22
18.5173632941
 13
0.0
 23
0.0
 14
0.5
 24
0.5
 15
0.5
 25
0.5
 16
0.0
 26
0.0
 36
1.0
 17
0.0
 27
0.0
 37
0.0
 40
36.8970569874
 41
1.0455785802
 42
50.0
 43
0.0
 44
0.0
 50
0.0
 51
0.0
 71
     0
 72
   100
 73
     1
 74
     3
 75
     0
 76
     0
 77
     0
 78
     0
281
     0
 65
     1
110
0.0
120
0.0
130
0.0
111
1.0
121
0.0
131
0.0
112
0.0
122
1.0
132
0.0
 79
     0
146
0.0
  0
ENDTAB
  0
TABLE
  2
LTYPE
  5
5
330
0
100
AcDbSymbolTable
 70
     6
  0
LTYPE
  5
14
330
5
100
AcDbSymbolTableRecord
100
AcDbLinetypeTableRecord
  2
ByBlock
 70
     0
  3

 72
    65
 73
     0
 40
0.0
  0
LTYPE
  5
15
330
5
100
AcDbSymbolTableRecord
100
AcDbLinetypeTableRecord
  2
ByLayer
 70
     0
  3

 72
    65
 73
     0
 40
0.0
  0
LTYPE
  5
16
330
5
100
AcDbSymbolTableRecord
100
AcDbLinetypeTableRecord
  2
Continuous
 70
     0
  3
Solid line
 72
    65
 73
     0
 40
0.0
  0
LTYPE
  5
6E
330
5
100
AcDbSymbolTableRecord
100
AcDbLinetypeTableRecord
  2
HIDDEN
 70
     0
  3
Hidden __ __ __ __ __ __ __ __ __ __ __ __ __ __
 72
    65
 73
     2
 40
0.075
 49
0.05
 74
     0
 49
-0.025
 74
     0
  0
LTYPE
  5
6F
330
5
100
AcDbSymbolTableRecord
100
AcDbLinetypeTableRecord
  2
PHANTOM
 70
     0
  3
Phantom ______  __  __  ______  __  __  ______
 72
    65
 73
     6
 40
0.5
 49
0.25
 74
     0
 49
-0.05
 74
     0
 49
0.05
 74
     0
 49
-0.05
 74
     0
 49
0.05
 74
     0
 49
-0.05
 74
     0
  0
LTYPE
  5
70
330
5
100
AcDbSymbolTableRecord
100
AcDbLinetypeTableRecord
  2
CENTER
 70
     0
  3
Center ____ _ ____ _ ____ _ ____ _ ____ _ ____
 72
    65
 73
     4
 40
0.4
 49
0.25
 74
     0
 49
-0.05
 74
     0
 49
0.05
 74
     0
 49
-0.05
 74
     0
  0
LTYPE
  5
71
330
5
100
AcDbSymbolTableRecord
100
AcDbLinetypeTableRecord
  2
CENTERX2
 70
     0
  3
Center (2x) ________  __  ________  __  _____
 72
    65
 73
     4
 40
0.8
 49
0.5
 74
     0
 49
-0.1
 74
     0
 49
0.1
 74
     0
 49
-0.1
 74
     0
  0
LTYPE
  5
72
330
5
100
AcDbSymbolTableRecord
100
AcDbLinetypeTableRecord
  2
DOT2
 70
     0
  3
Dot (.5x) ........................................
 72
    65
 73
     2
 40
0.025
 49
0.0
 74
     0
 49
-0.025
 74
     0
  0
ENDTAB
  0
TABLE
  2
LAYER
  5
2
330
0
100
AcDbSymbolTable
 70
     1
  0
LAYER
  5
10
330
2
100
AcDbSymbolTableRecord
100
AcDbLayerTableRecord
  2
0
 70
     0
 62
     7
  6
Continuous
370
    -3
390
F
  0
ENDTAB
  0
TABLE
  2
STYLE
  5
3
330
0
100
AcDbSymbolTable
 70
     2
  0
STYLE
  5
11
330
3
100
AcDbSymbolTableRecord
100
AcDbTextStyleTableRecord
  2
Standard
 70
     0
 40
0.0
 41
1.0
 50
0.0
 71
     0
 42
0.1377952756
  3
txt
  4

  0
STYLE
  5
7B
330
3
100
AcDbSymbolTableRecord
100
AcDbTextStyleTableRecord
  2
SLDTEXTSTYLE0
 70
     0
 40
0.0
 41
0.7
 50
0.0
 71
     0
 42
0.1377952756
  3
TXT
  4

  0
ENDTAB
  0
TABLE
  2
VIEW
  5
6
330
0
100
AcDbSymbolTable
 70
     0
  0
ENDTAB
  0
TABLE
  2
UCS
  5
7
330
0
100
AcDbSymbolTable
 70
     0
  0
ENDTAB
  0
TABLE
  2
APPID
  5
9
330
0
100
AcDbSymbolTable
 70
     1
  0
APPID
  5
12
330
9
100
AcDbSymbolTableRecord
100
AcDbRegAppTableRecord
  2
ACAD
 70
     0
  0
ENDTAB
  0
TABLE
  2
DIMSTYLE
  5
A
330
0
100
AcDbSymbolTable
 70
     1
100
AcDbDimStyleTable
  0
DIMSTYLE
105
27
330
A
100
AcDbSymbolTableRecord
100
AcDbDimStyleTableRecord
  2
Standard
 70
     0
178
     0
340
11
  0
ENDTAB
  0
TABLE
  2
BLOCK_RECORD
  5
1
330
0
100
AcDbSymbolTable
 70
     1
  0
BLOCK_RECORD
  5
1F
330
1
100
AcDbSymbolTableRecord
100
AcDbBlockTableRecord
  2
*Model_Space
340
22
  0
BLOCK_RECORD
  5
1B
330
1
100
AcDbSymbolTableRecord
100
AcDbBlockTableRecord
  2
*Paper_Space
340
1E
  0
BLOCK_RECORD
  5
23
330
1
100
AcDbSymbolTableRecord
100
AcDbBlockTableRecord
  2
*Paper_Space0
340
26
  0
ENDTAB
  0
ENDSEC
  0
SECTION
  2
BLOCKS
  0
BLOCK
  5
20
330
1F
100
AcDbEntity
  8
0
100
AcDbBlockBegin
  2
*Model_Space
 70
     0
 10
0.0
 20
0.0
 30
0.0
  3
*Model_Space
  1

  0
ENDBLK
  5
21
330
1F
100
AcDbEntity
  8
0
100
AcDbBlockEnd
  0
BLOCK
  5
1C
330
1B
100
AcDbEntity
 67
     1
  8
0
100
AcDbBlockBegin
  2
*Paper_Space
 70
     0
 10
0.0
 20
0.0
 30
0.0
  3
*Paper_Space
  1

  0
ENDBLK
  5
1D
330
1B
100
AcDbEntity
 67
     1
  8
0
100
AcDbBlockEnd
  0
BLOCK
  5
24
330
23
100
AcDbEntity
  8
0
100
AcDbBlockBegin
  2
*Paper_Space0
 70
     0
 10
0.0
 20
0.0
 30
0.0
  3
*Paper_Space0
  1

  0
ENDBLK
  5
25
330
23
100
AcDbEntity
  8
0
100
AcDbBlockEnd
  0
ENDSEC
  0
SECTION
  2
ENTITIES
  0
SPLINE
  5
73
330
1F
100
AcDbEntity
  8
0
  6
Continuous
 62
     7
370
    25
100
AcDbSpline
210
0.0
220
0.0
230
1.0
 70
     8
 71
     3
 72
    46
 73
    42
 74
     0
 42
0.00000001
 43
0.00000001
 40
0.0
 40
0.0
 40
0.0
 40
0.0
 40
0.0078125
 40
0.0078125
 40
0.0156250000000001
 40
0.0156250000000001
 40
0.03125
 40
0.03125
 40
0.0625
 40
0.0625
 40
0.125
 40
0.125
 40
0.1875
 40
0.1875
 40
0.2500000000000001
 40
0.2500000000000001
 40
0.3750000000000003
 40
0.3750000000000003
 40
0.4375000000000004
 40
0.4375000000000004
 40
0.4687500000000006
 40
0.4687500000000006
 40
0.5000000000000007
 40
0.5000000000000007
 40
0.5625000000000007
 40
0.5625000000000007
 40
0.6250000000000007
 40
0.6250000000000007
 40
0.7500000000000006
 40
0.7500000000000006
 40
0.8750000000000004
 40
0.8750000000000004
 40
0.9375000000000003
 40
0.9375000000000003
 40
0.9687500000000001
 40
0.9687500000000001
 40
0.9843750000000001
 40
0.9843750000000001
 40
0.9921875000000001
 40
0.9921875000000001
 40
1.0
 40
1.0
 40
1.0
 40
1.0
 10
-0.5654495002887755
 20
8.914778932848963
 30
0.0
 10
-0.7279330339793407
 20
8.916153004606269
 30
0.0
 10
-0.7986430842299193
 20
8.916747923796574
 30
0.0
 10
-1.063431188013154
 20
8.919063918787431
 30
0.0
 10
-1.192573534015854
 20
8.920246410241655
 30
0.0
 10
-1.504721402451559
 20
8.923239149994831
 30
0.0
 10
-1.777776517200391
 20
8.926067339016912
 30
0.0
 10
-2.527804973217742
 20
8.93419137212718
 30
0.0
 10
-2.988074169603574
 20
8.939619047558015
 30
0.0
 10
-4.494112534452554
 20
8.959080372481935
 30
0.0
 10
-5.412811314076343
 20
8.972986090825756
 30
0.0
 10
-7.416271620816293
 20
9.00969925663827
 30
0.0
 10
-8.326174113274664
 20
9.029139924289348
 30
0.0
 10
-10.35108258290079
 20
9.0827200901165
 30
0.0
 10
-11.24311326525912
 20
9.110520512580347
 30
0.0
 10
-14.29942103273039
 20
9.230927147653059
 30
0.0
 10
-16.12481178693613
 20
9.321650905815307
 30
0.0
 10
-19.08488561611199
 20
9.634311629921422
 30
0.0
 10
-20.01621853128183
 20
9.752913162352264
 30
0.0
 10
-21.47190726656559
 20
10.09182904983935
 30
0.0
 10
-21.92002550052639
 20
10.21744048662264
 30
0.0
 10
-22.83463551212403
 20
10.63329131968176
 30
0.0
 10
-23.24902626677738
 20
10.91616410125
 30
0.0
 10
-23.96330749990839
 20
12.20512167843673
 30
0.0
 10
-23.62664352391048
 20
13.29705223863179
 30
0.0
 10
-23.01445910959569
 20
15.08425049359376
 30
0.0
 10
-22.58129427121
 20
16.03346545403786
 30
0.0
 10
-21.34678223207361
 20
18.56630690064945
 30
0.0
 10
-20.32525036584186
 20
20.40493336444008
 30
0.0
 10
-18.46975804998063
 20
23.65025463762307
 30
0.0
 10
-17.43393184876262
 20
25.40143471740918
 30
0.0
 10
-15.93205966971929
 20
27.90439540579376
 30
0.0
 10
-15.42211917775942
 20
28.74814300999491
 30
0.0
 10
-14.66991457322118
 20
29.98650711029692
 30
0.0
 10
-14.42058067606388
 20
30.39598527096427
 30
0.0
 10
-14.02986405940842
 20
31.03620153480017
 30
0.0
 10
-13.88755635018663
 20
31.26913373453002
 30
0.0
 10
-13.72451129560148
 20
31.53554781694511
 30
0.0
 10
-13.65708182195751
 20
31.64562033604324
 30
0.0
 10
-13.5186645696816
 20
31.8713664004893
 30
0.0
 10
-13.4816830301532
 20
31.93163491900773
 30
0.0
 10
-13.39670680579867
 20
32.07013340353227
 30
0.0
  0
SPLINE
  5
74
330
1F
100
AcDbEntity
  8
0
  6
Continuous
 62
     7
370
    25
100
AcDbSpline
210
0.0
220
0.0
230
1.0
 70
     8
 71
     3
 72
    28
 73
    24
 74
     0
 42
0.00000001
 43
0.00000001
 40
0.0
 40
0.0
 40
0.0
 40
0.0
 40
0.125000000000001
 40
0.125000000000001
 40
0.1562500000000012
 40
0.1562500000000012
 40
0.1875000000000016
 40
0.1875000000000016
 40
0.2500000000000009
 40
0.2500000000000009
 40
0.5000000000000004
 40
0.5000000000000004
 40
0.75
 40
0.75
 40
0.8124999999999996
 40
0.8124999999999996
 40
0.8749999999999992
 40
0.8749999999999992
 40
0.90625
 40
0.90625
 40
0.9375000000000009
 40
0.9375000000000009
 40
1.0
 40
1.0
 40
1.0
 40
1.0
 10
-13.39670680579867
 20
32.07013340353227
 30
0.0
 10
-13.79530340564067
 20
32.3217095051743
 30
0.0
 10
-13.95318930696315
 20
32.42138853749547
 30
0.0
 10
-14.37846866800464
 20
32.69014728979725
 30
0.0
 10
-14.39448267561004
 20
32.70026954601474
 30
0.0
 10
-14.54389844015044
 20
32.79470234935165
 30
0.0
 10
-14.63472161732954
 20
32.85210501657313
 30
0.0
 10
-14.95553703359359
 20
33.05487181489663
 30
0.0
 10
-15.05721592936465
 20
33.119142506164
 30
0.0
 10
-15.72061020813712
 20
33.53849136320782
 30
0.0
 10
-16.33410665334238
 20
33.92638916680824
 30
0.0
 10
-17.63123333905843
 20
34.74669952031577
 30
0.0
 10
-18.12382245880247
 20
35.05827939288598
 30
0.0
 10
-18.93810657903079
 20
35.57341199679522
 30
0.0
 10
-19.07530872231822
 20
35.66021087699028
 30
0.0
 10
-19.37143426108491
 20
35.84755399953281
 30
0.0
 10
-19.61135567970736
 20
35.99934462415754
 30
0.0
 10
-19.70155512099679
 20
36.05640767772271
 30
0.0
 10
-19.83742144106794
 20
36.14235489287621
 30
0.0
 10
-19.98680661950143
 20
36.23683606777258
 30
0.0
 10
-20.05598333469568
 20
36.28058096918336
 30
0.0
 10
-20.24696585821095
 20
36.40132861530348
 30
0.0
 10
-20.36865430260588
 20
36.47824372969071
 30
0.0
 10
-20.56787418500799
 20
36.60415593495758
 30
0.0
  0
SPLINE
  5
75
330
1F
100
AcDbEntity
  8
0
  6
Continuous
 62
     7
370
    25
100
AcDbSpline
210
0.0
220
0.0
230
1.0
 70
     8
 71
     3
 72
    62
 73
    58
 74
     0
 42
0.00000001
 43
0.00000001
 40
0.0
 40
0.0
 40
0.0
 40
0.0
 40
0.0078124999999999
 40
0.0078124999999999
 40
0.0117187499999999
 40
0.0117187499999999
 40
0.0156249999999999
 40
0.0156249999999999
 40
0.0312499999999999
 40
0.0312499999999999
 40
0.0624999999999999
 40
0.0624999999999999
 40
0.1249999999999998
 40
0.1249999999999998
 40
0.1874999999999998
 40
0.1874999999999998
 40
0.2187499999999998
 40
0.2187499999999998
 40
0.2499999999999998
 40
0.2499999999999998
 40
0.2812499999999997
 40
0.2812499999999997
 40
0.3124999999999997
 40
0.3124999999999997
 40
0.3749999999999996
 40
0.3749999999999996
 40
0.4374999999999993
 40
0.4374999999999993
 40
0.4687499999999993
 40
0.4687499999999993
 40
0.4999999999999993
 40
0.4999999999999993
 40
0.5312499999999993
 40
0.5312499999999993
 40
0.5624999999999993
 40
0.5624999999999993
 40
0.6249999999999994
 40
0.6249999999999994
 40
0.6562499999999994
 40
0.6562499999999994
 40
0.6874999999999996
 40
0.6874999999999996
 40
0.7499999999999996
 40
0.7499999999999996
 40
0.8749999999999998
 40
0.8749999999999998
 40
0.9374999999999999
 40
0.9374999999999999
 40
0.96875
 40
0.96875
 40
0.984375
 40
0.984375
 40
0.98828125
 40
0.98828125
 40
0.9921875
 40
0.9921875
 40
1.0
 40
1.0
 40
1.0
 40
1.0
 10
-20.56787419548131
 20
36.60415591828173
 30
0.0
 10
-20.70862575901242
 20
36.38004803404119
 30
0.0
 10
-20.80553757261193
 20
36.22575632020276
 30
0.0
 10
-20.92411534697612
 20
36.03701442406159
 30
0.0
 10
-20.96707240773609
 20
35.96864699778531
 30
0.0
 10
-21.11890060964603
 20
35.72703181649327
 30
0.0
 10
-21.14714726251743
 20
35.68208297630577
 30
0.0
 10
-21.41835284908099
 20
35.2504353401525
 30
0.0
 10
-21.61723756344187
 20
34.93364381663437
 30
0.0
 10
-22.26923412381834
 20
33.89413832586386
 30
0.0
 10
-22.66605568493834
 20
33.26025223615616
 30
0.0
 10
-23.96266399009166
 20
31.18422506757437
 30
0.0
 10
-24.75493759511891
 20
29.909905850623
 30
0.0
 10
-26.46948828820801
 20
27.13425327501449
 30
0.0
 10
-27.25553128753054
 20
25.85365620467298
 30
0.0
 10
-28.5258961264303
 20
23.76508540411246
 30
0.0
 10
-28.92007426462488
 20
23.11407118522641
 30
0.0
 10
-29.76375820269388
 20
21.71282158345439
 30
0.0
 10
-30.13660860635484
 20
21.09021555633139
 30
0.0
 10
-30.98131506757627
 20
19.66979308445027
 30
0.0
 10
-31.34925204086231
 20
19.04690212180929
 30
0.0
 10
-32.1899351464081
 20
17.61080808577073
 30
0.0
 10
-32.5463334622865
 20
16.99675656569019
 30
0.0
 10
-33.79947069611008
 20
14.8112236799925
 30
0.0
 10
-34.49864359281787
 20
13.56609103060458
 30
0.0
 10
-36.05771678107504
 20
10.64344668501559
 30
0.0
 10
-36.73839566327702
 20
9.322583421694107
 30
0.0
 10
-37.69190434683785
 20
7.08167119326999
 30
0.0
 10
-37.97169436020797
 20
6.364797497501979
 30
0.0
 10
-38.35974776962592
 20
4.804380456668848
 30
0.0
 10
-38.47627823364602
 20
3.954053609908443
 30
0.0
 10
-37.70132719519086
 20
2.55572666792302
 30
0.0
 10
-36.88821193453595
 20
2.1939186679862
 30
0.0
 10
-35.42002358784592
 20
1.7154949785405
 30
0.0
 10
-34.60277406370385
 20
1.557960449968932
 30
0.0
 10
-32.28946683340385
 20
1.193002340158942
 30
0.0
 10
-30.61881481852442
 20
1.05136533119295
 30
0.0
 10
-28.33277702962709
 20
0.8939959273731843
 30
0.0
 10
-27.46431816067946
 20
0.8438505800327885
 30
0.0
 10
-25.9700480311433
 20
0.7682971762530773
 30
0.0
 10
-25.09298322642698
 20
0.7301826072745261
 30
0.0
 10
-22.82720405198353
 20
0.6436630433686492
 30
0.0
 10
-21.09692197992954
 20
0.5946316847956656
 30
0.0
 10
-16.53503516697716
 20
0.4929543850110696
 30
0.0
 10
-13.14065949821008
 20
0.455287788353564
 30
0.0
 10
-8.504788891953332
 20
0.4299636074946057
 30
0.0
 10
-6.826463726964988
 20
0.4255970564001855
 30
0.0
 10
-4.516591149545364
 20
0.4243992010527631
 30
0.0
 10
-3.722665579894158
 20
0.4247688200669593
 30
0.0
 10
-2.495825158978964
 20
0.4264766047829125
 30
0.0
 10
-2.121609238466593
 20
0.4271565710456393
 30
0.0
 10
-1.611954251429818
 20
0.4282636471084119
 30
0.0
 10
-1.558962301685536
 20
0.4283831289984527
 30
0.0
 10
-1.273365331347512
 20
0.4290209943502341
 30
0.0
 10
-1.192785370062129
 20
0.4291973494029527
 30
0.0
 10
-0.9697563775096497
 20
0.4296737770313464
 30
0.0
 10
-0.7876406841967287
 20
0.4300436494458723
 30
0.0
 10
-0.5229992845321909
 20
0.4305706532283359
 30
0.0
  0
SPLINE
  5
76
330
1F
100
AcDbEntity
  8
0
  6
Continuous
 62
     7
370
    25
100
AcDbSpline
210
0.0
220
0.0
230
1.0
 70
     8
 71
     3
 72
    24
 73
    20
 74
     0
 42
0.00000001
 43
0.00000001
 40
0.0
 40
0.0
 40
0.0
 40
0.0
 40
0.0625000000000001
 40
0.0625000000000001
 40
0.1250000000000001
 40
0.1250000000000001
 40
0.2500000000000002
 40
0.2500000000000002
 40
0.5000000000000007
 40
0.5000000000000007
 40
0.7500000000000011
 40
0.7500000000000011
 40
0.8125000000000009
 40
0.8125000000000009
 40
0.843750000000001
 40
0.843750000000001
 40
0.875000000000001
 40
0.875000000000001
 40
1.0
 40
1.0
 40
1.0
 40
1.0
 10
-0.5229992846273467
 20
0.4305706729132272
 30
0.0
 10
-0.5241384759457581
 20
0.6662433287902632
 30
0.0
 10
-0.5247034894653122
 20
0.7831610669488496
 30
0.0
 10
-0.526476037434201
 20
1.138506959331186
 30
0.0
 10
-0.5273833818503303
 20
1.314342575162071
 30
0.0
 10
-0.5301882033667993
 20
1.844604828663874
 30
0.0
 10
-0.5318794561369957
 20
2.165251578831159
 30
0.0
 10
-0.5379718332853549
 20
3.324360625681891
 30
0.0
 10
-0.5409844595711923
 20
3.903972327585487
 30
0.0
 10
-0.548837678854069
 20
5.441370498621961
 30
0.0
 10
-0.5524814667037741
 20
6.167676646875486
 30
0.0
 10
-0.5563272064682556
 20
6.950235049955572
 30
0.0
 10
-0.5569092742831466
 20
7.069199474199111
 30
0.0
 10
-0.5587633886172717
 20
7.451380354256367
 30
0.0
 10
-0.5592861241529612
 20
7.559265790262332
 30
0.0
 10
-0.5601409900729801
 20
7.736020280914696
 30
0.0
 10
-0.5602269504335209
 20
7.753581319293401
 30
0.0
 10
-0.5626419396213486
 20
8.25692572582186
 30
0.0
 10
-0.5634549808776705
 20
8.443432322814953
 30
0.0
 10
-0.5654494805810804
 20
8.914778932682303
 30
0.0
  0
SPLINE
  5
77
330
1F
100
AcDbEntity
  8
0
  6
Continuous
 62
     7
370
    25
100
AcDbSpline
210
0.0
220
0.0
230
1.0
 70
     8
 71
     3
 72
    42
 73
    38
 74
     0
 42
0.00000001
 43
0.00000001
 40
0.0
 40
0.0
 40
0.0
 40
0.0
 40
0.0156249999999999
 40
0.0156249999999999
 40
0.0312499999999998
 40
0.0312499999999998
 40
0.0624999999999998
 40
0.0624999999999998
 40
0.1249999999999996
 40
0.1249999999999996
 40
0.1874999999999993
 40
0.1874999999999993
 40
0.2499999999999991
 40
0.2499999999999991
 40
0.3749999999999988
 40
0.3749999999999988
 40
0.4374999999999987
 40
0.4374999999999987
 40
0.4687499999999987
 40
0.4687499999999987
 40
0.4999999999999986
 40
0.4999999999999986
 40
0.5624999999999987
 40
0.5624999999999987
 40
0.6249999999999987
 40
0.6249999999999987
 40
0.7499999999999991
 40
0.7499999999999991
 40
0.8749999999999996
 40
0.8749999999999996
 40
0.9374999999999999
 40
0.9374999999999999
 40
0.9687499999999999
 40
0.9687499999999999
 40
0.984375
 40
0.984375
 40
1.0
 40
1.0
 40
1.0
 40
1.0
 10
-14.34929461197774
 20
31.8528528801417
 30
0.0
 10
-14.52284399289462
 20
31.56945514492748
 30
0.0
 10
-14.60771344346518
 20
31.43086739008706
 30
0.0
 10
-14.87167539559407
 20
30.99944288956339
 30
0.0
 10
-14.99555166138802
 20
30.79681927582906
 30
0.0
 10
-15.39797346320529
 20
30.13799589999481
 30
0.0
 10
-15.64123294882977
 20
29.7390425213747
 30
0.0
 10
-16.44192771748759
 20
28.42303683629743
 30
0.0
 10
-16.92268748032202
 20
27.62961149632189
 30
0.0
 10
-17.99153464186564
 20
25.85419482306041
 30
0.0
 10
-18.46098941546987
 20
25.0695351537483
 30
0.0
 10
-19.52070111767085
 20
23.27900233772781
 30
0.0
 10
-19.97846280391871
 20
22.49773531579282
 30
0.0
 10
-21.54144890158945
 20
19.77995310181442
 30
0.0
 10
-22.45348140086636
 20
18.15742926603626
 30
0.0
 10
-23.79396021677038
 20
15.42022164936879
 30
0.0
 10
-24.19749725161201
 20
14.54558415293379
 30
0.0
 10
-24.69062930611307
 20
13.10609119554644
 30
0.0
 10
-24.82625409767332
 20
12.64298397770975
 30
0.0
 10
-24.95792806554419
 20
11.63287698827668
 30
0.0
 10
-24.93389670646924
 20
11.10684456772458
 30
0.0
 10
-24.21821208740747
 20
9.815190847598343
 30
0.0
 10
-23.09095777796932
 20
9.498803603794096
 30
0.0
 10
-21.18631087347607
 20
9.055415411838784
 30
0.0
 10
-20.1479384491815
 20
8.920717538918987
 30
0.0
 10
-17.25785280817911
 20
8.620928169904145
 30
0.0
 10
-15.11830784301647
 20
8.517469370839217
 30
0.0
 10
-11.31287333752206
 20
8.377169356030254
 30
0.0
 10
-9.170788324849497
 20
8.329327314570833
 30
0.0
 10
-6.268459264508674
 20
8.280387465186655
 30
0.0
 10
-5.209756435818804
 20
8.265478480056066
 30
0.0
 10
-3.76318139074403
 20
8.247855399803662
 30
0.0
 10
-3.264739762058863
 20
8.242230691576738
 30
0.0
 10
-2.492702397871105
 20
8.234168107014016
 30
0.0
 10
-2.255341714553469
 20
8.231782839212977
 30
0.0
 10
-1.74941019897163
 20
8.226873469610934
 30
0.0
 10
-1.58700037864724
 20
8.225362181910802
 30
0.0
 10
-1.254699150224427
 20
8.222269957769571
 30
0.0
  0
SPLINE
  5
78
330
1F
100
AcDbEntity
  8
0
  6
Continuous
 62
     7
370
    25
100
AcDbSpline
210
0.0
220
0.0
230
1.0
 70
     8
 71
     3
 72
    24
 73
    20
 74
     0
 42
0.00000001
 43
0.00000001
 40
0.0
 40
0.0
 40
0.0
 40
0.0
 40
0.1250000000000001
 40
0.1250000000000001
 40
0.1875
 40
0.1875
 40
0.2499999999999999
 40
0.2499999999999999
 40
0.5000000000000001
 40
0.5000000000000001
 40
0.7500000000000003
 40
0.7500000000000003
 40
0.8125000000000002
 40
0.8125000000000002
 40
0.8750000000000002
 40
0.8750000000000002
 40
0.9375000000000001
 40
0.9375000000000001
 40
1.0
 40
1.0
 40
1.0
 40
1.0
 10
-1.254699150224427
 20
8.222269957769571
 30
0.0
 10
-1.252616899832715
 20
7.830390556418966
 30
0.0
 10
-1.251054366011707
 20
7.534797917539263
 30
0.0
 10
-1.249490140136249
 20
7.235839102926054
 30
0.0
 10
-1.248463434724916
 20
7.039899326244679
 30
0.0
 10
-1.246910819549596
 20
6.744306634954707
 30
0.0
 10
-1.246158934104237
 20
6.60164896074655
 30
0.0
 10
-1.242116751782254
 20
5.836974078475198
 30
0.0
 10
-1.239334911587639
 20
5.31620701156094
 30
0.0
 10
-1.23244160216353
 20
4.034110215007435
 30
0.0
 10
-1.229564925161403
 20
3.503251007206797
 30
0.0
 10
-1.225465252090256
 20
2.751192247090467
 30
0.0
 10
-1.224281252946245
 20
2.534120083810394
 30
0.0
 10
-1.222667176739922
 20
2.238527721761843
 30
0.0
 10
-1.221990091154066
 20
2.114695391822496
 30
0.0
 10
-1.220895825016975
 20
1.91495843411366
 30
0.0
 10
-1.219805668058029
 20
1.716695242508164
 30
0.0
 10
-1.218198219599326
 20
1.426181716005222
 30
0.0
 10
-1.217636754841886
 20
1.325111621718899
 30
0.0
 10
-1.216541926517661
 20
1.128050150260129
 30
0.0
  0
SPLINE
  5
79
330
1F
100
AcDbEntity
  8
0
  6
Continuous
 62
     7
370
    25
100
AcDbSpline
210
0.0
220
0.0
230
1.0
 70
     8
 71
     3
 72
    50
 73
    46
 74
     0
 42
0.00000001
 43
0.00000001
 40
0.0
 40
0.0
 40
0.0
 40
0.0
 40
0.0078125
 40
0.0078125
 40
0.015625
 40
0.015625
 40
0.0312500000000001
 40
0.0312500000000001
 40
0.0625
 40
0.0625
 40
0.1250000000000001
 40
0.1250000000000001
 40
0.1875000000000001
 40
0.1875000000000001
 40
0.2500000000000002
 40
0.2500000000000002
 40
0.3750000000000001
 40
0.3750000000000001
 40
0.4375000000000002
 40
0.4375000000000002
 40
0.4687500000000001
 40
0.4687500000000001
 40
0.5000000000000002
 40
0.5000000000000002
 40
0.5312500000000002
 40
0.5312500000000002
 40
0.5625000000000002
 40
0.5625000000000002
 40
0.6250000000000002
 40
0.6250000000000002
 40
0.6875000000000002
 40
0.6875000000000002
 40
0.7500000000000002
 40
0.7500000000000002
 40
0.875
 40
0.875
 40
0.9375
 40
0.9375
 40
0.9687499999999999
 40
0.9687499999999999
 40
0.984375
 40
0.984375
 40
0.9921875
 40
0.9921875
 40
1.0
 40
1.0
 40
1.0
 40
1.0
 10
-1.216541946207476
 20
1.128050150225832
 30
0.0
 10
-1.467959635642183
 20
1.127612222555792
 30
0.0
 10
-1.605426100283097
 20
1.127376026959205
 30
0.0
 10
-1.959037563124627
 20
1.126857780228915
 30
0.0
 10
-2.153312830489433
 20
1.12662937965751
 30
0.0
 10
-2.737140614106457
 20
1.126084337806177
 30
0.0
 10
-3.090931930861566
 20
1.125883504489182
 30
0.0
 10
-4.256045811985993
 20
1.125743318610437
 30
0.0
 10
-4.966318090144754
 20
1.126264500919638
 30
0.0
 10
-7.293558332911522
 20
1.130370313728366
 30
0.0
 10
-8.715308913822229
 20
1.13573192259023
 30
0.0
 10
-11.81978738601704
 20
1.156399929968715
 30
0.0
 10
-13.23465824831258
 20
1.1697567070529
 30
0.0
 10
-16.35102709461767
 20
1.212019713149278
 30
0.0
 10
-17.7461765246147
 20
1.236353076453961
 30
0.0
 10
-22.46042421812509
 20
1.348200053504472
 30
0.0
 10
-25.22138124551799
 20
1.43258827628823
 30
0.0
 10
-29.92867908021781
 20
1.773123591608551
 30
0.0
 10
-31.34108215584352
 20
1.897002193439187
 30
0.0
 10
-33.61514308787078
 20
2.274414155477354
 30
0.0
 10
-34.32962291283083
 20
2.416314031232205
 30
0.0
 10
-35.78662001717911
 20
2.911989290490768
 30
0.0
 10
-36.513626992912
 20
3.259570048062156
 30
0.0
 10
-37.24981344172065
 20
4.587958616950195
 30
0.0
 10
-37.15132842805502
 20
5.42211780082283
 30
0.0
 10
-36.81495687565896
 20
6.853402565894392
 30
0.0
 10
-36.53712825552191
 20
7.595566549203677
 30
0.0
 10
-35.6861032911395
 20
9.640835325847673
 30
0.0
 10
-34.96235122737792
 20
11.06715791141954
 30
0.0
 10
-33.60509936614019
 20
13.6329603968106
 30
0.0
 10
-32.80668068431057
 20
15.06540817819808
 30
0.0
 10
-31.38466737808576
 20
17.55711702234096
 30
0.0
 10
-30.55833202038994
 20
18.97131448911827
 30
0.0
 10
-28.33538727402883
 20
22.72157003612853
 30
0.0
 10
-26.66504078838279
 20
25.4667316709974
 30
0.0
 10
-24.35871350446371
 20
29.21039769912724
 30
0.0
 10
-23.51743926588488
 20
30.5673158269835
 30
0.0
 10
-22.35702969134888
 20
32.4304325393286
 30
0.0
 10
-21.95765368524349
 20
33.07027475907694
 30
0.0
 10
-21.33973045384031
 20
34.05824306271933
 30
0.0
 10
-21.15204058837844
 20
34.3580335969588
 30
0.0
 10
-20.84202405597907
 20
34.85281059366189
 30
0.0
 10
-20.73884656042069
 20
35.01739038515759
 30
0.0
 10
-20.55092207426635
 20
35.31695870714019
 30
0.0
 10
-20.47784737854282
 20
35.4333810810618
 30
0.0
 10
-20.34418261620304
 20
35.64632422124993
 30
0.0
  0
SPLINE
  5
7A
330
1F
100
AcDbEntity
  8
0
  6
Continuous
 62
     7
370
    25
100
AcDbSpline
210
0.0
220
0.0
230
1.0
 70
     8
 71
     3
 72
    23
 73
    19
 74
     0
 42
0.00000001
 43
0.00000001
 40
0.0
 40
0.0
 40
0.0
 40
0.0
 40
0.0625000000000003
 40
0.0625000000000003
 40
0.1250000000000008
 40
0.1250000000000008
 40
0.2500000000000002
 40
0.2500000000000002
 40
0.4999999999999999
 40
0.4999999999999999
 40
0.6249999999999992
 40
0.6874999999999993
 40
0.6874999999999993
 40
0.7499999999999993
 40
0.7499999999999993
 40
0.8749999999999997
 40
0.8749999999999997
 40
1.0
 40
1.0
 40
1.0
 40
1.0
 10
-20.34418259957045
 20
35.64632421072075
 30
0.0
 10
-20.17767759803778
 20
35.54091894098219
 30
0.0
 10
-20.09237592339494
 20
35.48691915276615
 30
0.0
 10
-19.84671305840219
 20
35.33141140833404
 30
0.0
 10
-19.68124616550299
 20
35.22667699083702
 30
0.0
 10
-19.42219523042931
 20
35.06271496095345
 30
0.0
 10
-19.09960864386381
 20
34.85854878766843
 30
0.0
 10
-18.33751152132668
 20
34.37622324509915
 30
0.0
 10
-17.88673063299191
 20
34.0909492246066
 30
0.0
 10
-17.07697056117275
 20
33.57854795053454
 30
0.0
 10
-16.68718486576048
 20
33.33191022936987
 30
0.0
 10
-16.32004068109416
 20
33.0996168820123
 30
0.0
 10
-16.08030933814904
 20
32.94794228906438
 30
0.0
 10
-16.0068016209156
 20
32.90143551738931
 30
0.0
 10
-15.53077225124194
 20
32.60027642529977
 30
0.0
 10
-15.36693900255504
 20
32.49664347809799
 30
0.0
 10
-14.83046745578231
 20
32.15727960886174
 30
0.0
 10
-14.68235940704878
 20
32.06357685458858
 30
0.0
 10
-14.34929460169431
 20
31.85285289693405
 30
0.0
  0
MTEXT
  5
7C
330
1F
100
AcDbEntity
  8
0
  6
Continuous
 62
     7
100
AcDbMText
 10
-38.3453252236
 20
0.3904302441
 30
0.0
 40
0.1903
 41
0.0
 71
     1
 72
     1
  1
SOLIDWORKS Educational Product.
  7
SLDTEXTSTYLE0
 73
     1
 44
1.0
  0
MTEXT
  5
7D
330
1F
100
AcDbEntity
  8
0
  6
Continuous
 62
     7
100
AcDbMText
 10
-38.3453252236
 20
0.1049802441
 30
0.0
 40
0.1903
 41
0.0
 71
     1
 72
     1
  1
For Instructional Use Only.
  7
SLDTEXTSTYLE0
 73
     1
 44
1.0
  0
ENDSEC
  0
SECTION
  2
OBJECTS
  0
DICTIONARY
  5
C
330
0
100
AcDbDictionary
281
     1
  3
ACAD_GROUP
350
D
  3
ACAD_LAYOUT
350
1A
  3
ACAD_MLINESTYLE
350
17
  3
ACAD_PLOTSETTINGS
350
19
  3
ACAD_PLOTSTYLENAME
350
E
  3
ACAD_SCALELIST
350
47
  3
DWGPROPS
350
7E
  0
DICTIONARY
  5
D
102
{ACAD_REACTORS
330
C
102
}
330
C
100
AcDbDictionary
281
     1
  0
DICTIONARY
  5
1A
102
{ACAD_REACTORS
330
C
102
}
330
C
100
AcDbDictionary
281
     1
  3
Layout1
350
1E
  3
Layout2
350
26
  3
Model
350
22
  0
DICTIONARY
  5
17
102
{ACAD_REACTORS
330
C
102
}
330
C
100
AcDbDictionary
281
     1
  3
Standard
350
18
  0
DICTIONARY
  5
19
102
{ACAD_REACTORS
330
C
102
}
330
C
100
AcDbDictionary
281
     1
  0
ACDBDICTIONARYWDFLT
  5
E
102
{ACAD_REACTORS
330
C
102
}
330
C
100
AcDbDictionary
281
     1
  3
Normal
350
F
100
AcDbDictionaryWithDefault
340
F
  0
DICTIONARY
  5
47
102
{ACAD_REACTORS
330
C
102
}
330
C
100
AcDbDictionary
281
     1
  3
A0
350
48
  3
A1
350
49
  3
A2
350
4A
  3
A3
350
4B
  3
A4
350
4C
  3
A5
350
4D
  3
A6
350
4E
  3
A7
350
4F
  3
A8
350
50
  3
A9
350
51
  3
B0
350
52
  3
B1
350
53
  3
B2
350
54
  3
B3
350
55
  3
B4
350
56
  3
B5
350
57
  3
B6
350
58
  3
B7
350
59
  3
B8
350
5A
  3
B9
350
5B
  3
C0
350
5C
  3
C1
350
5D
  3
C2
350
5E
  3
C3
350
5F
  3
C4
350
60
  3
C5
350
61
  3
C6
350
62
  3
C7
350
63
  3
C8
350
64
  3
C9
350
65
  3
D0
350
66
  3
D1
350
67
  3
D2
350
68
  0
XRECORD
  5
7E
102
{ACAD_REACTORS
330
C
102
}
330
C
100
AcDbXrecord
280
     1
  1
DWGPROPS COOKIE
  2

  3

  4

  6

  7

  8
lucie
  9

300
=
301
=
302
=
303
=
304
=
305
=
306
=
307
=
308
=
309
=
 40
0.0
 41
2460027.648738021
 42
2460027.648764838
  1

 90
        0
  0
LAYOUT
  5
1E
102
{ACAD_REACTORS
330
1A
102
}
330
1A
100
AcDbPlotSettings
  1

  2
none_device
  4

  6

 40
0.0
 41
0.0
 42
0.0
 43
0.0
 44
0.0
 45
0.0
 46
0.0
 47
0.0
 48
0.0
 49
0.0
140
0.0
141
0.0
142
1.0
143
1.0
 70
   688
 72
     0
 73
     0
 74
     5
  7

 75
    16
147
1.0
148
0.0
149
0.0
100
AcDbLayout
  1
Layout1
 70
     1
 71
     1
 10
0.0
 20
0.0
 11
12.0
 21
9.0
 12
0.0
 22
0.0
 32
0.0
 14
1.0000000000E+20
 24
1.0000000000E+20
 34
1.0000000000E+20
 15
-1.0000000000E+20
 25
-1.0000000000E+20
 35
-1.0000000000E+20
146
0.0
 13
0.0
 23
0.0
 33
0.0
 16
1.0
 26
0.0
 36
0.0
 17
0.0
 27
1.0
 37
0.0
 76
     0
330
1B
  0
LAYOUT
  5
26
102
{ACAD_REACTORS
330
1A
102
}
330
1A
100
AcDbPlotSettings
  1

  2
none_device
  4

  6

 40
0.0
 41
0.0
 42
0.0
 43
0.0
 44
0.0
 45
0.0
 46
0.0
 47
0.0
 48
0.0
 49
0.0
140
0.0
141
0.0
142
1.0
143
1.0
 70
   688
 72
     0
 73
     0
 74
     5
  7

 75
    16
147
1.0
148
0.0
149
0.0
100
AcDbLayout
  1
Layout2
 70
     1
 71
     2
 10
0.0
 20
0.0
 11
0.0
 21
0.0
 12
0.0
 22
0.0
 32
0.0
 14
0.0
 24
0.0
 34
0.0
 15
0.0
 25
0.0
 35
0.0
146
0.0
 13
0.0
 23
0.0
 33
0.0
 16
1.0
 26
0.0
 36
0.0
 17
0.0
 27
1.0
 37
0.0
 76
     0
330
23
  0
LAYOUT
  5
22
102
{ACAD_REACTORS
330
1A
102
}
330
1A
100
AcDbPlotSettings
  1

  2
none_device
  4
ANSI_A_(11.00_x_8.50_Inches)
  6

 40
6.35
 41
19.05
 42
6.35000508
 43
19.05000254
 44
279.4
 45
215.9
 46
248.181779878
 47
-20.514639521
 48
0.0
 49
0.0
140
0.0
141
0.0
142
0.2326283097
143
1.0
 70
  1696
 72
     0
 73
     0
 74
     0
  7

 75
     0
147
0.5913241897
148
-39.4088153714
149
0.0
100
AcDbLayout
  1
Model
 70
     1
 71
     0
 10
0.0
 20
0.0
 11
12.0
 21
9.0
 12
0.0
 22
0.0
 32
0.0
 14
-38.3453252236
 24
0.4305706532
 34
0.0
 15
-0.5229992845
 25
36.604155935
 35
0.0
146
0.0
 13
0.0
 23
0.0
 33
0.0
 16
1.0
 26
0.0
 36
0.0
 17
0.0
 27
1.0
 37
0.0
 76
     0
330
1F
331
29
  0
MLINESTYLE
  5
18
102
{ACAD_REACTORS
330
17
102
}
330
17
100
AcDbMlineStyle
  2
Standard
 70
     0
  3

 62
   256
 51
90.0
 52
90.0
 71
     2
 49
0.5
 62
   256
  6
BYLAYER
 49
-0.5
 62
   256
  6
BYLAYER
  0
ACDBPLACEHOLDER
  5
F
102
{ACAD_REACTORS
330
E
102
}
330
E
  0
SCALE
  5
48
102
{ACAD_REACTORS
330
47
102
}
330
47
100
AcDbScale
 70
     0
300
1:1
140
1.0
141
1.0
290
     1
  0
SCALE
  5
49
102
{ACAD_REACTORS
330
47
102
}
330
47
100
AcDbScale
 70
     0
300
1:2
140
1.0
141
2.0
290
     0
  0
SCALE
  5
4A
102
{ACAD_REACTORS
330
47
102
}
330
47
100
AcDbScale
 70
     0
300
1:4
140
1.0
141
4.0
290
     0
  0
SCALE
  5
4B
102
{ACAD_REACTORS
330
47
102
}
330
47
100
AcDbScale
 70
     0
300
1:5
140
1.0
141
5.0
290
     0
  0
SCALE
  5
4C
102
{ACAD_REACTORS
330
47
102
}
330
47
100
AcDbScale
 70
     0
300
1:8
140
1.0
141
8.0
290
     0
  0
SCALE
  5
4D
102
{ACAD_REACTORS
330
47
102
}
330
47
100
AcDbScale
 70
     0
300
1:10
140
1.0
141
10.0
290
     0
  0
SCALE
  5
4E
102
{ACAD_REACTORS
330
47
102
}
330
47
100
AcDbScale
 70
     0
300
1:16
140
1.0
141
16.0
290
     0
  0
SCALE
  5
4F
102
{ACAD_REACTORS
330
47
102
}
330
47
100
AcDbScale
 70
     0
300
1:20
140
1.0
141
20.0
290
     0
  0
SCALE
  5
50
102
{ACAD_REACTORS
330
47
102
}
330
47
100
AcDbScale
 70
     0
300
1:30
140
1.0
141
30.0
290
     0
  0
SCALE
  5
51
102
{ACAD_REACTORS
330
47
102
}
330
47
100
AcDbScale
 70
     0
300
1:40
140
1.0
141
40.0
290
     0
  0
SCALE
  5
52
102
{ACAD_REACTORS
330
47
102
}
330
47
100
AcDbScale
 70
     0
300
1:50
140
1.0
141
50.0
290
     0
  0
SCALE
  5
53
102
{ACAD_REACTORS
330
47
102
}
330
47
100
AcDbScale
 70
     0
300
1:100
140
1.0
141
100.0
290
     0
  0
SCALE
  5
54
102
{ACAD_REACTORS
330
47
102
}
330
47
100
AcDbScale
 70
     0
300
2:1
140
2.0
141
1.0
290
     0
  0
SCALE
  5
55
102
{ACAD_REACTORS
330
47
102
}
330
47
100
AcDbScale
 70
     0
300
4:1
140
4.0
141
1.0
290
     0
  0
SCALE
  5
56
102
{ACAD_REACTORS
330
47
102
}
330
47
100
AcDbScale
 70
     0
300
8:1
140
8.0
141
1.0
290
     0
  0
SCALE
  5
57
102
{ACAD_REACTORS
330
47
102
}
330
47
100
AcDbScale
 70
     0
300
10:1
140
10.0
141
1.0
290
     0
  0
SCALE
  5
58
102
{ACAD_REACTORS
330
47
102
}
330
47
100
AcDbScale
 70
     0
300
100:1
140
100.0
141
1.0
290
     0
  0
SCALE
  5
59
102
{ACAD_REACTORS
330
47
102
}
330
47
100
AcDbScale
 70
     0
300
1/128" = 1'-0"
140
0.0078125
141
12.0
290
     0
  0
SCALE
  5
5A
102
{ACAD_REACTORS
330
47
102
}
330
47
100
AcDbScale
 70
     0
300
1/64" = 1'-0"
140
0.015625
141
12.0
290
     0
  0
SCALE
  5
5B
102
{ACAD_REACTORS
330
47
102
}
330
47
100
AcDbScale
 70
     0
300
1/32" = 1'-0"
140
0.03125
141
12.0
290
     0
  0
SCALE
  5
5C
102
{ACAD_REACTORS
330
47
102
}
330
47
100
AcDbScale
 70
     0
300
1/16" = 1'-0"
140
0.0625
141
12.0
290
     0
  0
SCALE
  5
5D
102
{ACAD_REACTORS
330
47
102
}
330
47
100
AcDbScale
 70
     0
300
3/32" = 1'-0"
140
0.09375
141
12.0
290
     0
  0
SCALE
  5
5E
102
{ACAD_REACTORS
330
47
102
}
330
47
100
AcDbScale
 70
     0
300
1/8" = 1'-0"
140
0.125
141
12.0
290
     0
  0
SCALE
  5
5F
102
{ACAD_REACTORS
330
47
102
}
330
47
100
AcDbScale
 70
     0
300
3/16" = 1'-0"
140
0.1875
141
12.0
290
     0
  0
SCALE
  5
60
102
{ACAD_REACTORS
330
47
102
}
330
47
100
AcDbScale
 70
     0
300
1/4" = 1'-0"
140
0.25
141
12.0
290
     0
  0
SCALE
  5
61
102
{ACAD_REACTORS
330
47
102
}
330
47
100
AcDbScale
 70
     0
300
3/8" = 1'-0"
140
0.375
141
12.0
290
     0
  0
SCALE
  5
62
102
{ACAD_REACTORS
330
47
102
}
330
47
100
AcDbScale
 70
     0
300
1/2" = 1'-0"
140
0.5
141
12.0
290
     0
  0
SCALE
  5
63
102
{ACAD_REACTORS
330
47
102
}
330
47
100
AcDbScale
 70
     0
300
3/4" = 1'-0"
140
0.75
141
12.0
290
     0
  0
SCALE
  5
64
102
{ACAD_REACTORS
330
47
102
}
330
47
100
AcDbScale
 70
     0
300
1" = 1'-0"
140
1.0
141
12.0
290
     0
  0
SCALE
  5
65
102
{ACAD_REACTORS
330
47
102
}
330
47
100
AcDbScale
 70
     0
300
1-1/2" = 1'-0"
140
1.5
141
12.0
290
     0
  0
SCALE
  5
66
102
{ACAD_REACTORS
330
47
102
}
330
47
100
AcDbScale
 70
     0
300
3" = 1'-0"
140
3.0
141
12.0
290
     0
  0
SCALE
  5
67
102
{ACAD_REACTORS
330
47
102
}
330
47
100
AcDbScale
 70
     0
300
6" = 1'-0"
140
6.0
141
12.0
290
     0
  0
SCALE
  5
68
102
{ACAD_REACTORS
330
47
102
}
330
47
100
AcDbScale
 70
     0
300
1'-0" = 1'-0"
140
12.0
141
12.0
290
     0
  0
ENDSEC
  0
EOF
