  0
SECTION
  2
HEADER
  9
$ACADVER
  1
AC1015
  9
$ACADMAINTVER
 70
     6
  9
$DWGCODEPAGE
  3
ANSI_1252
  9
$INSBASE
 10
0.0
 20
0.0
 30
0.0
  9
$EXTMIN
 10
22.9136475546
 20
-262.3661962495
 30
0.0
  9
$EXTMAX
 10
92.1352232601
 20
-65.5332644915
 30
0.0
  9
$LIMMIN
 10
0.0
 20
0.0
  9
$LIMMAX
 10
12.0
 20
9.0
  9
$ORTHOMODE
 70
     0
  9
$REGENMODE
 70
     1
  9
$FILLMODE
 70
     1
  9
$QTEXTMODE
 70
     0
  9
$MIRRTEXT
 70
     1
  9
$LTSCALE
 40
1.0
  9
$ATTMODE
 70
     1
  9
$TEXTSIZE
 40
0.1377952756
  9
$TRACEWID
 40
0.05
  9
$TEXTSTYLE
  7
Standard
  9
$CLAYER
  8
0
  9
$CELTYPE
  6
ByLayer
  9
$CECOLOR
 62
   256
  9
$CELTSCALE
 40
1.0
  9
$DISPSILH
 70
     0
  9
$DIMSCALE
 40
1.0
  9
$DIMASZ
 40
0.13
  9
$DIMEXO
 40
0.0
  9
$DIMDLI
 40
0.38
  9
$DIMRND
 40
0.0
  9
$DIMDLE
 40
0.0
  9
$DIMEXE
 40
0.0393700787
  9
$DIMTP
 40
0.0
  9
$DIMTM
 40
0.0
  9
$DIMTXT
 40
0.1377952756
  9
$DIMCEN
 40
0.09
  9
$DIMTSZ
 40
0.0
  9
$DIMTOL
 70
     0
  9
$DIMLIM
 70
     0
  9
$DIMTIH
 70
     1
  9
$DIMTOH
 70
     1
  9
$DIMSE1
 70
     0
  9
$DIMSE2
 70
     0
  9
$DIMTAD
 70
     1
  9
$DIMZIN
 70
     1
  9
$DIMBLK
  1

  9
$DIMASO
 70
     1
  9
$DIMSHO
 70
     1
  9
$DIMPOST
  1

  9
$DIMAPOST
  1

  9
$DIMALT
 70
     0
  9
$DIMALTD
 70
     2
  9
$DIMALTF
 40
25.4
  9
$DIMLFAC
 40
1.0
  9
$DIMTOFL
 70
     0
  9
$DIMTVP
 40
0.0
  9
$DIMTIX
 70
     0
  9
$DIMSOXD
 70
     0
  9
$DIMSAH
 70
     0
  9
$DIMBLK1
  1

  9
$DIMBLK2
  1

  9
$DIMSTYLE
  2
Standard
  9
$DIMCLRD
 70
     0
  9
$DIMCLRE
 70
     0
  9
$DIMCLRT
 70
     0
  9
$DIMTFAC
 40
1.0
  9
$DIMGAP
 40
0.06
  9
$DIMJUST
 70
     0
  9
$DIMSD1
 70
     0
  9
$DIMSD2
 70
     0
  9
$DIMTOLJ
 70
     1
  9
$DIMTZIN
 70
     1
  9
$DIMALTZ
 70
     0
  9
$DIMALTTZ
 70
     0
  9
$DIMUPT
 70
     0
  9
$DIMDEC
 70
     2
  9
$DIMTDEC
 70
     2
  9
$DIMALTU
 70
     2
  9
$DIMALTTD
 70
     2
  9
$DIMTXSTY
  7
Standard
  9
$DIMAUNIT
 70
     0
  9
$DIMADEC
 70
     2
  9
$DIMALTRND
 40
0.0
  9
$DIMAZIN
 70
     0
  9
$DIMDSEP
 70
    46
  9
$DIMATFIT
 70
     3
  9
$DIMFRAC
 70
     0
  9
$DIMLDRBLK
  1

  9
$DIMLUNIT
 70
     2
  9
$DIMLWD
 70
    -2
  9
$DIMLWE
 70
    -2
  9
$DIMTMOVE
 70
     0
  9
$LUNITS
 70
     2
  9
$LUPREC
 70
     2
  9
$SKETCHINC
 40
0.1
  9
$FILLETRAD
 40
0.5
  9
$AUNITS
 70
     0
  9
$AUPREC
 70
     2
  9
$MENU
  1
.
  9
$ELEVATION
 40
0.0
  9
$PELEVATION
 40
0.0
  9
$THICKNESS
 40
0.0
  9
$LIMCHECK
 70
     0
  9
$CHAMFERA
 40
0.0
  9
$CHAMFERB
 40
0.0
  9
$CHAMFERC
 40
0.0
  9
$CHAMFERD
 40
0.0
  9
$SKPOLY
 70
     0
  9
$TDCREATE
 40
2459941.547222754
  9
$TDUCREATE
 40
2459941.880556088
  9
$TDUPDATE
 40
2459941.547261308
  9
$TDUUPDATE
 40
2459941.880594641
  9
$TDINDWG
 40
0.0000000116
  9
$TDUSRTIMER
 40
0.0000000116
  9
$USRTIMER
 70
     1
  9
$ANGBASE
 50
0.0
  9
$ANGDIR
 70
     0
  9
$PDMODE
 70
     0
  9
$PDSIZE
 40
-1.0
  9
$PLINEWID
 40
0.0
  9
$SPLFRAME
 70
     0
  9
$SPLINETYPE
 70
     6
  9
$SPLINESEGS
 70
     8
  9
$HANDSEED
  5
83
  9
$SURFTAB1
 70
     6
  9
$SURFTAB2
 70
     6
  9
$SURFTYPE
 70
     6
  9
$SURFU
 70
     6
  9
$SURFV
 70
     6
  9
$UCSBASE
  2

  9
$UCSNAME
  2

  9
$UCSORG
 10
0.0
 20
0.0
 30
0.0
  9
$UCSXDIR
 10
1.0
 20
0.0
 30
0.0
  9
$UCSYDIR
 10
0.0
 20
1.0
 30
0.0
  9
$UCSORTHOREF
  2

  9
$UCSORTHOVIEW
 70
     0
  9
$UCSORGTOP
 10
0.0
 20
0.0
 30
0.0
  9
$UCSORGBOTTOM
 10
0.0
 20
0.0
 30
0.0
  9
$UCSORGLEFT
 10
0.0
 20
0.0
 30
0.0
  9
$UCSORGRIGHT
 10
0.0
 20
0.0
 30
0.0
  9
$UCSORGFRONT
 10
0.0
 20
0.0
 30
0.0
  9
$UCSORGBACK
 10
0.0
 20
0.0
 30
0.0
  9
$PUCSBASE
  2

  9
$PUCSNAME
  2

  9
$PUCSORG
 10
0.0
 20
0.0
 30
0.0
  9
$PUCSXDIR
 10
1.0
 20
0.0
 30
0.0
  9
$PUCSYDIR
 10
0.0
 20
1.0
 30
0.0
  9
$PUCSORTHOREF
  2

  9
$PUCSORTHOVIEW
 70
     0
  9
$PUCSORGTOP
 10
0.0
 20
0.0
 30
0.0
  9
$PUCSORGBOTTOM
 10
0.0
 20
0.0
 30
0.0
  9
$PUCSORGLEFT
 10
0.0
 20
0.0
 30
0.0
  9
$PUCSORGRIGHT
 10
0.0
 20
0.0
 30
0.0
  9
$PUCSORGFRONT
 10
0.0
 20
0.0
 30
0.0
  9
$PUCSORGBACK
 10
0.0
 20
0.0
 30
0.0
  9
$USERI1
 70
     0
  9
$USERI2
 70
     0
  9
$USERI3
 70
     0
  9
$USERI4
 70
     0
  9
$USERI5
 70
     0
  9
$USERR1
 40
0.0
  9
$USERR2
 40
0.0
  9
$USERR3
 40
0.0
  9
$USERR4
 40
0.0
  9
$USERR5
 40
0.0
  9
$WORLDVIEW
 70
     1
  9
$SHADEDGE
 70
     3
  9
$SHADEDIF
 70
    70
  9
$TILEMODE
 70
     1
  9
$MAXACTVP
 70
    64
  9
$PINSBASE
 10
0.0
 20
0.0
 30
0.0
  9
$PLIMCHECK
 70
     0
  9
$PEXTMIN
 10
1.0000000000E+20
 20
1.0000000000E+20
 30
1.0000000000E+20
  9
$PEXTMAX
 10
-1.0000000000E+20
 20
-1.0000000000E+20
 30
-1.0000000000E+20
  9
$PLIMMIN
 10
0.0
 20
0.0
  9
$PLIMMAX
 10
12.0
 20
9.0
  9
$UNITMODE
 70
     0
  9
$VISRETAIN
 70
     1
  9
$PLINEGEN
 70
     0
  9
$PSLTSCALE
 70
     1
  9
$TREEDEPTH
 70
  3020
  9
$CMLSTYLE
  2
Standard
  9
$CMLJUST
 70
     0
  9
$CMLSCALE
 40
1.0
  9
$PROXYGRAPHICS
 70
     1
  9
$MEASUREMENT
 70
     0
  9
$CELWEIGHT
370
    -1
  9
$ENDCAPS
280
     0
  9
$JOINSTYLE
280
     0
  9
$LWDISPLAY
290
     1
  9
$INSUNITS
 70
     1
  9
$HYPERLINKBASE
  1

  9
$STYLESHEET
  1

  9
$XEDIT
290
     1
  9
$CEPSNTYPE
380
     0
  9
$PSTYLEMODE
290
     1
  9
$FINGERPRINTGUID
  2
{4bf80ec5-dc64-4166-8c3b-480e910bc89f}
  9
$VERSIONGUID
  2
{FAEB1C32-E019-11D5-929B-00C0DF256EC4}
  9
$EXTNAMES
290
     1
  9
$PSVPSCALE
 40
0.0
  9
$OLESTARTUP
290
     0
  0
ENDSEC
  0
SECTION
  2
CLASSES
  0
CLASS
  1
ACDBDICTIONARYWDFLT
  2
AcDbDictionaryWithDefault
  3
ObjectDBX Classes
 90
        0
280
     0
281
     0
  0
CLASS
  1
VISUALSTYLE
  2
AcDbVisualStyle
  3
ObjectDBX Classes
 90
     4095
280
     0
281
     0
  0
CLASS
  1
MATERIAL
  2
AcDbMaterial
  3
ObjectDBX Classes
 90
     1153
280
     0
281
     0
  0
CLASS
  1
SCALE
  2
AcDbScale
  3
ObjectDBX Classes
 90
     1153
280
     0
281
     0
  0
CLASS
  1
TABLESTYLE
  2
AcDbTableStyle
  3
ObjectDBX Classes
 90
     4095
280
     0
281
     0
  0
CLASS
  1
MLEADERSTYLE
  2
AcDbMLeaderStyle
  3
ACDB_MLEADERSTYLE_CLASS
 90
     4095
280
     0
281
     0
  0
CLASS
  1
SUN
  2
AcDbSun
  3
SCENEOE
 90
     1153
280
     0
281
     0
  0
CLASS
  1
ACDBPLACEHOLDER
  2
AcDbPlaceHolder
  3
ObjectDBX Classes
 90
        0
280
     0
281
     0
  0
CLASS
  1
LAYOUT
  2
AcDbLayout
  3
ObjectDBX Classes
 90
        0
280
     0
281
     0
  0
ENDSEC
  0
SECTION
  2
TABLES
  0
TABLE
  2
VPORT
  5
8
330
0
100
AcDbSymbolTable
 70
     1
  0
VPORT
  5
29
330
8
100
AcDbSymbolTableRecord
100
AcDbViewportTableRecord
  2
*Active
 70
     0
 10
0.0
 20
0.0
 11
1.0
 21
1.0
 12
57.5244354073
 22
-163.9497303705
 13
0.0
 23
0.0
 14
0.5
 24
0.5
 15
0.5
 25
0.5
 16
0.0
 26
0.0
 36
1.0
 17
0.0
 27
0.0
 37
0.0
 40
200.7695903931
 41
0.3516768007
 42
50.0
 43
0.0
 44
0.0
 50
0.0
 51
0.0
 71
     0
 72
   100
 73
     1
 74
     3
 75
     0
 76
     0
 77
     0
 78
     0
281
     0
 65
     1
110
0.0
120
0.0
130
0.0
111
1.0
121
0.0
131
0.0
112
0.0
122
1.0
132
0.0
 79
     0
146
0.0
  0
ENDTAB
  0
TABLE
  2
LTYPE
  5
5
330
0
100
AcDbSymbolTable
 70
     6
  0
LTYPE
  5
14
330
5
100
AcDbSymbolTableRecord
100
AcDbLinetypeTableRecord
  2
ByBlock
 70
     0
  3

 72
    65
 73
     0
 40
0.0
  0
LTYPE
  5
15
330
5
100
AcDbSymbolTableRecord
100
AcDbLinetypeTableRecord
  2
ByLayer
 70
     0
  3

 72
    65
 73
     0
 40
0.0
  0
LTYPE
  5
16
330
5
100
AcDbSymbolTableRecord
100
AcDbLinetypeTableRecord
  2
Continuous
 70
     0
  3
Solid line
 72
    65
 73
     0
 40
0.0
  0
LTYPE
  5
6E
330
5
100
AcDbSymbolTableRecord
100
AcDbLinetypeTableRecord
  2
HIDDEN
 70
     0
  3
Hidden __ __ __ __ __ __ __ __ __ __ __ __ __ __
 72
    65
 73
     2
 40
0.075
 49
0.05
 74
     0
 49
-0.025
 74
     0
  0
LTYPE
  5
6F
330
5
100
AcDbSymbolTableRecord
100
AcDbLinetypeTableRecord
  2
PHANTOM
 70
     0
  3
Phantom ______  __  __  ______  __  __  ______
 72
    65
 73
     6
 40
0.5
 49
0.25
 74
     0
 49
-0.05
 74
     0
 49
0.05
 74
     0
 49
-0.05
 74
     0
 49
0.05
 74
     0
 49
-0.05
 74
     0
  0
LTYPE
  5
70
330
5
100
AcDbSymbolTableRecord
100
AcDbLinetypeTableRecord
  2
CENTER
 70
     0
  3
Center ____ _ ____ _ ____ _ ____ _ ____ _ ____
 72
    65
 73
     4
 40
0.4
 49
0.25
 74
     0
 49
-0.05
 74
     0
 49
0.05
 74
     0
 49
-0.05
 74
     0
  0
LTYPE
  5
71
330
5
100
AcDbSymbolTableRecord
100
AcDbLinetypeTableRecord
  2
CENTERX2
 70
     0
  3
Center (2x) ________  __  ________  __  _____
 72
    65
 73
     4
 40
0.8
 49
0.5
 74
     0
 49
-0.1
 74
     0
 49
0.1
 74
     0
 49
-0.1
 74
     0
  0
LTYPE
  5
72
330
5
100
AcDbSymbolTableRecord
100
AcDbLinetypeTableRecord
  2
DOT2
 70
     0
  3
Dot (.5x) ........................................
 72
    65
 73
     2
 40
0.025
 49
0.0
 74
     0
 49
-0.025
 74
     0
  0
ENDTAB
  0
TABLE
  2
LAYER
  5
2
330
0
100
AcDbSymbolTable
 70
     1
  0
LAYER
  5
10
330
2
100
AcDbSymbolTableRecord
100
AcDbLayerTableRecord
  2
0
 70
     0
 62
     7
  6
Continuous
370
    -3
390
F
  0
ENDTAB
  0
TABLE
  2
STYLE
  5
3
330
0
100
AcDbSymbolTable
 70
     2
  0
STYLE
  5
11
330
3
100
AcDbSymbolTableRecord
100
AcDbTextStyleTableRecord
  2
Standard
 70
     0
 40
0.0
 41
1.0
 50
0.0
 71
     0
 42
0.1377952756
  3
txt
  4

  0
STYLE
  5
7F
330
3
100
AcDbSymbolTableRecord
100
AcDbTextStyleTableRecord
  2
SLDTEXTSTYLE0
 70
     0
 40
0.0
 41
0.7
 50
0.0
 71
     0
 42
0.1377952756
  3
TXT
  4

  0
ENDTAB
  0
TABLE
  2
VIEW
  5
6
330
0
100
AcDbSymbolTable
 70
     0
  0
ENDTAB
  0
TABLE
  2
UCS
  5
7
330
0
100
AcDbSymbolTable
 70
     0
  0
ENDTAB
  0
TABLE
  2
APPID
  5
9
330
0
100
AcDbSymbolTable
 70
     1
  0
APPID
  5
12
330
9
100
AcDbSymbolTableRecord
100
AcDbRegAppTableRecord
  2
ACAD
 70
     0
  0
ENDTAB
  0
TABLE
  2
DIMSTYLE
  5
A
330
0
100
AcDbSymbolTable
 70
     1
100
AcDbDimStyleTable
  0
DIMSTYLE
105
27
330
A
100
AcDbSymbolTableRecord
100
AcDbDimStyleTableRecord
  2
Standard
 70
     0
178
     0
340
11
  0
ENDTAB
  0
TABLE
  2
BLOCK_RECORD
  5
1
330
0
100
AcDbSymbolTable
 70
     1
  0
BLOCK_RECORD
  5
1F
330
1
100
AcDbSymbolTableRecord
100
AcDbBlockTableRecord
  2
*Model_Space
340
22
  0
BLOCK_RECORD
  5
1B
330
1
100
AcDbSymbolTableRecord
100
AcDbBlockTableRecord
  2
*Paper_Space
340
1E
  0
BLOCK_RECORD
  5
23
330
1
100
AcDbSymbolTableRecord
100
AcDbBlockTableRecord
  2
*Paper_Space0
340
26
  0
ENDTAB
  0
ENDSEC
  0
SECTION
  2
BLOCKS
  0
BLOCK
  5
20
330
1F
100
AcDbEntity
  8
0
100
AcDbBlockBegin
  2
*Model_Space
 70
     0
 10
0.0
 20
0.0
 30
0.0
  3
*Model_Space
  1

  0
ENDBLK
  5
21
330
1F
100
AcDbEntity
  8
0
100
AcDbBlockEnd
  0
BLOCK
  5
1C
330
1B
100
AcDbEntity
 67
     1
  8
0
100
AcDbBlockBegin
  2
*Paper_Space
 70
     0
 10
0.0
 20
0.0
 30
0.0
  3
*Paper_Space
  1

  0
ENDBLK
  5
1D
330
1B
100
AcDbEntity
 67
     1
  8
0
100
AcDbBlockEnd
  0
BLOCK
  5
24
330
23
100
AcDbEntity
  8
0
100
AcDbBlockBegin
  2
*Paper_Space0
 70
     0
 10
0.0
 20
0.0
 30
0.0
  3
*Paper_Space0
  1

  0
ENDBLK
  5
25
330
23
100
AcDbEntity
  8
0
100
AcDbBlockEnd
  0
ENDSEC
  0
SECTION
  2
ENTITIES
  0
SPLINE
  5
73
330
1F
100
AcDbEntity
  8
0
  6
Continuous
 62
     7
370
    25
100
AcDbSpline
210
0.0
220
0.0
230
1.0
 70
     8
 71
     3
 72
   108
 73
   104
 74
     0
 42
0.00000001
 43
0.00000001
 40
0.0
 40
0.0
 40
0.0
 40
0.0
 40
0.062499999999986
 40
0.062499999999986
 40
0.1249999999999721
 40
0.1249999999999721
 40
0.1874999999999581
 40
0.1874999999999581
 40
0.2187499999999516
 40
0.2187499999999516
 40
0.2343749999999488
 40
0.2343749999999488
 40
0.249999999999946
 40
0.249999999999946
 40
0.3124999999999359
 40
0.3124999999999359
 40
0.3437499999999308
 40
0.3437499999999308
 40
0.3749999999999257
 40
0.3749999999999257
 40
0.4374999999999145
 40
0.4374999999999145
 40
0.4687499999999089
 40
0.4687499999999089
 40
0.4843749999999066
 40
0.4843749999999066
 40
0.4999999999999043
 40
0.4999999999999043
 40
0.5312499999998986
 40
0.5468749999998954
 40
0.5468749999998954
 40
0.5624999999998921
 40
0.5624999999998921
 40
0.5781249999998889
 40
0.5781249999998889
 40
0.5937499999998855
 40
0.5937499999998855
 40
0.6093749999998823
 40
0.6093749999998823
 40
0.624999999999879
 40
0.624999999999879
 40
0.6406249999998758
 40
0.6406249999998758
 40
0.6562499999998724
 40
0.6562499999998724
 40
0.6718749999998692
 40
0.6796874999998671
 40
0.6796874999998671
 40
0.687499999999865
 40
0.687499999999865
 40
0.703124999999862
 40
0.7109374999998609
 40
0.7148437499998603
 40
0.7148437499998603
 40
0.7187499999998598
 40
0.7187499999998598
 40
0.7343749999998562
 40
0.7343749999998562
 40
0.7421874999998544
 40
0.746093749999854
 40
0.746093749999854
 40
0.7499999999998536
 40
0.7499999999998536
 40
0.7656249999998532
 40
0.7656249999998532
 40
0.7734374999998525
 40
0.7734374999998525
 40
0.7812499999998518
 40
0.7812499999998518
 40
0.7968749999998493
 40
0.7968749999998493
 40
0.812499999999847
 40
0.812499999999847
 40
0.8281249999998446
 40
0.8359374999998433
 40
0.8359374999998433
 40
0.8437499999998422
 40
0.8437499999998422
 40
0.8593749999998405
 40
0.8593749999998405
 40
0.8749999999998388
 40
0.8749999999998388
 40
0.8789062499998385
 40
0.8808593749998382
 40
0.8808593749998382
 40
0.882812499999838
 40
0.882812499999838
 40
0.8867187499998438
 40
0.8867187499998438
 40
0.8906249999998496
 40
0.8906249999998496
 40
0.8984374999998619
 40
0.9023437499998676
 40
0.9023437499998676
 40
0.9062499999998732
 40
0.9062499999998732
 40
0.9374999999999155
 40
0.9374999999999155
 40
0.9687499999999578
 40
0.9687499999999578
 40
0.9843749999999789
 40
0.9843749999999789
 40
1.0
 40
1.0
 40
1.0
 40
1.0
 10
22.91364755455659
 20
-162.3532914567887
 30
0.0
 10
22.88112077326904
 20
-164.5795903455465
 30
0.0
 10
22.88657416959746
 20
-166.7345177943162
 30
0.0
 10
22.97866942869199
 20
-171.1524280199931
 30
0.0
 10
23.06713122742076
 20
-173.3708537351084
 30
0.0
 10
23.32112462861225
 20
-177.6788846085631
 30
0.0
 10
23.49585021769521
 20
-179.9120317495629
 30
0.0
 10
23.80606228998999
 20
-183.1364973577637
 30
0.0
 10
23.91475269611488
 20
-184.1746784987003
 30
0.0
 10
24.10887413558842
 20
-185.8804685083442
 30
0.0
 10
24.17450094410851
 20
-186.4346128190205
 30
0.0
 10
24.30759388520657
 20
-187.5139967219636
 30
0.0
 10
24.36837662532567
 20
-187.9893167138052
 30
0.0
 10
24.74372256065428
 20
-190.7928508812388
 30
0.0
 10
25.06388679999523
 20
-192.8180588552528
 30
0.0
 10
25.69575490464227
 20
-196.0557926160413
 30
0.0
 10
25.92783135638693
 20
-197.1313015075369
 30
0.0
 10
26.4104276394272
 20
-199.1822905264879
 30
0.0
 10
26.69506354567826
 20
-200.2989749449659
 30
0.0
 10
27.52134998828966
 20
-203.3420551354801
 30
0.0
 10
28.19075106236582
 20
-205.5406792977595
 30
0.0
 10
29.18527028898706
 20
-208.5835332611469
 30
0.0
 10
29.55167104230882
 20
-209.6686552354287
 30
0.0
 10
30.07590005783358
 20
-211.17873449157
 30
0.0
 10
30.25513846101184
 20
-211.6883016446835
 30
0.0
 10
30.622606063375
 20
-212.7198507530434
 30
0.0
 10
30.82870625874248
 20
-213.2908107324135
 30
0.0
 10
31.35326706175951
 20
-214.7284447289804
 30
0.0
 10
31.90720429271274
 20
-216.2162658301741
 30
0.0
 10
32.50520616557026
 20
-217.779367588308
 30
0.0
 10
32.91366622345399
 20
-218.8381644619395
 30
0.0
 10
33.1440801730613
 20
-219.4302483272141
 30
0.0
 10
33.52954881755032
 20
-220.4138614485549
 30
0.0
 10
33.72701317559409
 20
-220.9143875909416
 30
0.0
 10
34.1314019632801
 20
-221.9328790391476
 30
0.0
 10
34.35515387380947
 20
-222.4927181597246
 30
0.0
 10
34.74480784291827
 20
-223.4623403052805
 30
0.0
 10
34.94522600203741
 20
-223.9584716855289
 30
0.0
 10
35.3572446694051
 20
-224.9733750609664
 30
0.0
 10
35.59084649951978
 20
-225.5458449290138
 30
0.0
 10
35.98122722141422
 20
-226.498633788617
 30
0.0
 10
36.18326871099189
 20
-226.9898446956074
 30
0.0
 10
36.6010539474082
 20
-228.0018994639657
 30
0.0
 10
36.84757935516792
 20
-228.5968174246389
 30
0.0
 10
37.23120578426391
 20
-229.5199899031419
 30
0.0
 10
37.53320512446261
 20
-230.244908443023
 30
0.0
 10
37.85662374222635
 20
-231.0186357544098
 30
0.0
 10
38.07699599352776
 20
-231.545300355669
 30
0.0
 10
38.21724537280363
 20
-231.8800884479617
 30
0.0
 10
38.47903326644527
 20
-232.5045267463667
 30
0.0
 10
38.76889976330227
 20
-233.1949452516637
 30
0.0
 10
39.15621489859562
 20
-234.1158988699044
 30
0.0
 10
39.3327365756414
 20
-234.5353358553064
 30
0.0
 10
39.4527575772732
 20
-234.8204588628153
 30
0.0
 10
39.54503567448848
 20
-235.0396153449406
 30
0.0
 10
39.70129932358059
 20
-235.4106856011665
 30
0.0
 10
39.94136644880114
 20
-235.9805588320957
 30
0.0
 10
40.34905665326501
 20
-236.9482173073564
 30
0.0
 10
40.53056392343759
 20
-237.3790747472359
 30
0.0
 10
40.67856444552115
 20
-237.7304744904891
 30
0.0
 10
40.76978551622374
 20
-237.9470837200741
 30
0.0
 10
40.79058357250249
 20
-237.9964685614657
 30
0.0
 10
41.08685406447336
 20
-238.7001610080572
 30
0.0
 10
41.28505095633284
 20
-239.17129780182
 30
0.0
 10
41.58595391335706
 20
-239.8874495614793
 30
0.0
 10
41.68895781789077
 20
-240.1327916124428
 30
0.0
 10
41.90037146467613
 20
-240.636725309857
 30
0.0
 10
42.02965291477848
 20
-240.945135942597
 30
0.0
 10
42.30037577455829
 20
-241.5913283163127
 30
0.0
 10
42.54196356871707
 20
-242.168596740118
 30
0.0
 10
42.96348742067217
 20
-243.1764621342745
 30
0.0
 10
43.14240818679318
 20
-243.6043450781633
 30
0.0
 10
43.62736164502099
 20
-244.7644156473082
 30
0.0
 10
43.96744205259242
 20
-245.5771542521371
 30
0.0
 10
44.27207043101468
 20
-246.3039213739214
 30
0.0
 10
44.4672777879297
 20
-246.7693280144344
 30
0.0
 10
44.54207200681458
 20
-246.9475565949127
 30
0.0
 10
44.86785939175581
 20
-247.7231192919715
 30
0.0
 10
45.08249709000625
 20
-248.2330467712142
 30
0.0
 10
45.50666470308637
 20
-249.2386730921063
 30
0.0
 10
45.74011290357978
 20
-249.7908330832761
 30
0.0
 10
45.96893507539924
 20
-250.3309872999417
 30
0.0
 10
46.04319850388475
 20
-250.5061733945788
 30
0.0
 10
46.12588709777984
 20
-250.7010692336721
 30
0.0
 10
46.18288508602312
 20
-250.8353797362802
 30
0.0
 10
46.23908068346649
 20
-250.9677554734241
 30
0.0
 10
46.24991302127572
 20
-250.9932695142726
 30
0.0
 10
46.28017540975524
 20
-251.064527345314
 30
0.0
 10
46.38678184659442
 20
-251.3155399483489
 30
0.0
 10
46.495625121701
 20
-251.5718146554333
 30
0.0
 10
46.69628207635937
 20
-252.0442645775678
 30
0.0
 10
46.87642468772565
 20
-252.4687536020351
 30
0.0
 10
47.02579578415379
 20
-252.8213012800009
 30
0.0
 10
47.11853840067518
 20
-253.0403460994223
 30
0.0
 10
47.14261674516545
 20
-253.0972194075741
 30
0.0
 10
47.66828064863133
 20
-254.3409389694965
 30
0.0
 10
48.02589228715396
 20
-255.1940550772329
 30
0.0
 10
48.89290909059014
 20
-257.3131947450822
 30
0.0
 10
49.25833298067104
 20
-258.2269919639351
 30
0.0
 10
49.86845361920108
 20
-259.8234272887154
 30
0.0
 10
50.04050645402621
 20
-260.283898167833
 30
0.0
 10
50.43047708796889
 20
-261.3612589886842
 30
0.0
 10
50.61012501918309
 20
-261.8757982124204
 30
0.0
 10
50.77443556464013
 20
-262.3661962494671
 30
0.0
  0
LINE
  5
74
330
1F
100
AcDbEntity
  8
0
  6
Continuous
 62
     7
370
    25
100
AcDbLine
 10
50.7744355646
 20
-262.3661962495
 30
0.0
 11
64.2744355646
 21
-262.3661962495
 31
0.0
  0
SPLINE
  5
75
330
1F
100
AcDbEntity
  8
0
  6
Continuous
 62
     7
370
    25
100
AcDbSpline
210
0.0
220
0.0
230
1.0
 70
     8
 71
     3
 72
   109
 73
   105
 74
     0
 42
0.00000001
 43
0.00000001
 40
0.0
 40
0.0
 40
0.0
 40
0.0
 40
0.0312499999999824
 40
0.0312499999999824
 40
0.0624999999999648
 40
0.0624999999999648
 40
0.0703124999999599
 40
0.0703124999999599
 40
0.0781249999999549
 40
0.0781249999999549
 40
0.08593749999995
 40
0.08593749999995
 40
0.0937499999999451
 40
0.0937499999999451
 40
0.0976562499999431
 40
0.0976562499999431
 40
0.1015624999999411
 40
0.1015624999999411
 40
0.1093749999999383
 40
0.1093749999999383
 40
0.1171874999999355
 40
0.1171874999999355
 40
0.1249999999999327
 40
0.1249999999999327
 40
0.1406249999999281
 40
0.1406249999999281
 40
0.1562499999999235
 40
0.1562499999999235
 40
0.1640624999999216
 40
0.1640624999999216
 40
0.1718749999999198
 40
0.1718749999999198
 40
0.179687499999918
 40
0.1835937499999176
 40
0.1855468749999173
 40
0.1855468749999173
 40
0.1874999999999171
 40
0.1874999999999171
 40
0.1953124999999161
 40
0.1992187499999157
 40
0.2011718749999154
 40
0.2011718749999154
 40
0.2031249999999152
 40
0.2031249999999152
 40
0.2109374999999121
 40
0.2109374999999121
 40
0.218749999999909
 40
0.218749999999909
 40
0.2343749999999027
 40
0.2343749999999027
 40
0.2421874999999001
 40
0.2460937499998988
 40
0.2460937499998988
 40
0.2499999999998975
 40
0.2499999999998975
 40
0.2656249999998962
 40
0.2656249999998962
 40
0.2734374999998956
 40
0.2773437499998958
 40
0.2773437499998958
 40
0.2812499999998959
 40
0.2812499999998959
 40
0.2968749999998972
 40
0.3046874999998983
 40
0.3046874999998983
 40
0.3124999999998994
 40
0.3124999999998994
 40
0.3281249999999026
 40
0.3281249999999026
 40
0.3437499999999057
 40
0.3437499999999057
 40
0.359374999999909
 40
0.359374999999909
 40
0.3749999999999121
 40
0.3749999999999121
 40
0.4374999999999235
 40
0.4374999999999235
 40
0.4687499999999287
 40
0.4687499999999287
 40
0.4999999999999339
 40
0.4999999999999339
 40
0.5312499999999392
 40
0.5312499999999392
 40
0.5624999999999444
 40
0.5624999999999444
 40
0.6249999999999549
 40
0.6249999999999549
 40
0.6562499999999601
 40
0.6562499999999601
 40
0.6874999999999654
 40
0.6874999999999654
 40
0.7187499999999707
 40
0.7187499999999707
 40
0.7343749999999727
 40
0.7343749999999727
 40
0.7499999999999748
 40
0.7499999999999748
 40
0.7812499999999779
 40
0.7812499999999779
 40
0.812499999999981
 40
0.812499999999981
 40
0.8749999999999873
 40
0.8749999999999873
 40
1.0
 40
1.0
 40
1.0
 40
1.0
 10
64.2744355646381
 20
-262.3661962494671
 30
0.0
 10
64.60355847033941
 20
-261.3838996859879
 30
0.0
 10
65.01430742994965
 20
-260.2578935536467
 30
0.0
 10
65.7578309987862
 20
-258.3127451174377
 30
0.0
 10
66.20741391650351
 20
-257.187215347222
 30
0.0
 10
66.69250809479762
 20
-256.0018377809749
 30
0.0
 10
66.79325854114461
 20
-255.7570024769557
 30
0.0
 10
67.00222265521498
 20
-255.2518122873777
 30
0.0
 10
67.12763743888829
 20
-254.9502598479708
 30
0.0
 10
67.31712576381153
 20
-254.4964256030102
 30
0.0
 10
67.41748179336743
 20
-254.2569302899624
 30
0.0
 10
67.62941758666784
 20
-253.7527832827325
 30
0.0
 10
67.76203191203669
 20
-253.4383719849579
 30
0.0
 10
67.9062675158584
 20
-253.0971665632218
 30
0.0
 10
67.9569723415975
 20
-252.9773369271804
 30
0.0
 10
68.06363457533945
 20
-252.7254886641724
 30
0.0
 10
68.1371469141431
 20
-252.5520836730336
 30
0.0
 10
68.26023321914471
 20
-252.2619033982618
 30
0.0
 10
68.35850201201369
 20
-252.0304238609501
 30
0.0
 10
68.63924035576058
 20
-251.3695179246892
 30
0.0
 10
68.76286747656187
 20
-251.0783563973758
 30
0.0
 10
68.97663761602007
 20
-250.5746162243829
 30
0.0
 10
69.0365617623859
 20
-250.4333791983813
 30
0.0
 10
69.34742128201343
 20
-249.6994927247605
 30
0.0
 10
69.55741160860681
 20
-249.202649262362
 30
0.0
 10
69.9828935554769
 20
-248.193790710929
 30
0.0
 10
70.22213606338268
 20
-247.6252284516021
 30
0.0
 10
70.5138731326167
 20
-246.9306478535118
 30
0.0
 10
70.61544481625829
 20
-246.6886167255194
 30
0.0
 10
70.82724017133528
 20
-246.1835459456096
 30
0.0
 10
70.96364769974875
 20
-245.8579794002486
 30
0.0
 10
71.1403793164573
 20
-245.4359453593765
 30
0.0
 10
71.28594524682016
 20
-245.088168230318
 30
0.0
 10
71.47855229678191
 20
-244.6277379492091
 30
0.0
 10
71.56597963202374
 20
-244.418691336475
 30
0.0
 10
71.62534929033761
 20
-244.2767226281185
 30
0.0
 10
71.63745733250428
 20
-244.2477699836538
 30
0.0
 10
71.88190117438486
 20
-243.6631574151929
 30
0.0
 10
72.10783727982637
 20
-243.1228121117601
 30
0.0
 10
72.2534855194147
 20
-242.7744913705156
 30
0.0
 10
72.29063250421828
 20
-242.6856572198595
 30
0.0
 10
72.30978078535271
 20
-242.6398669343154
 30
0.0
 10
72.29038843316296
 20
-242.6862301914081
 30
0.0
 10
72.4409687842744
 20
-242.326206089925
 30
0.0
 10
72.55410566936727
 20
-242.0558020592538
 30
0.0
 10
72.76572464796043
 20
-241.5502244989422
 30
0.0
 10
72.84518513695188
 20
-241.3604496996729
 30
0.0
 10
73.17571404359049
 20
-240.5715786711837
 30
0.0
 10
73.4046174648617
 20
-240.026085013182
 30
0.0
 10
73.68517263231324
 20
-239.3584438090386
 30
0.0
 10
73.8350420815715
 20
-239.0020070832206
 30
0.0
 10
73.99929932912842
 20
-238.6116461717825
 30
0.0
 10
74.11200144934386
 20
-238.3438668562416
 30
0.0
 10
74.19269904021435
 20
-238.1521812176433
 30
0.0
 10
74.37670135077012
 20
-237.7151725235646
 30
0.0
 10
74.57792897792562
 20
-237.2374460388191
 30
0.0
 10
75.01329078462693
 20
-236.2041112849037
 30
0.0
 10
75.2019842337507
 20
-235.7562132767433
 30
0.0
 10
75.347196501534
 20
-235.4114693217788
 30
0.0
 10
75.43434219531396
 20
-235.2045631414017
 30
0.0
 10
75.44471171996422
 20
-235.1799493261007
 30
0.0
 10
75.7561239300452
 20
-234.4404109227125
 30
0.0
 10
76.10241531339071
 20
-233.6173172150834
 30
0.0
 10
76.4076017936087
 20
-232.8907520721093
 30
0.0
 10
76.60192502417016
 20
-232.4278261022722
 30
0.0
 10
76.66728223837906
 20
-232.272070046542
 30
0.0
 10
77.01307538430929
 20
-231.4470888688762
 30
0.0
 10
77.23406361158918
 20
-230.9188248474176
 30
0.0
 10
77.65695899280175
 20
-229.9057436651373
 30
0.0
 10
77.82829853177223
 20
-229.4945134449563
 30
0.0
 10
78.27416699621492
 20
-228.4211521026694
 30
0.0
 10
78.49035551739367
 20
-227.8990061816179
 30
0.0
 10
78.909241137666
 20
-226.8837838396988
 30
0.0
 10
79.09019919818779
 20
-226.4437972996563
 30
0.0
 10
80.1786513313013
 20
-223.7856395416503
 30
0.0
 10
80.93954804045302
 20
-221.8956567477327
 30
0.0
 10
82.17435387305343
 20
-218.7409848481612
 30
0.0
 10
82.55675285310927
 20
-217.7500330428195
 30
0.0
 10
83.35899465589262
 20
-215.6334484635921
 30
0.0
 10
83.71414775895545
 20
-214.6796953528611
 30
0.0
 10
84.485408628868
 20
-212.5613363435852
 30
0.0
 10
84.83592510851705
 20
-211.576205124591
 30
0.0
 10
85.56897936923845
 20
-209.4586785526127
 30
0.0
 10
85.89690770149964
 20
-208.4851007599698
 30
0.0
 10
86.95248560887872
 20
-205.2439270341683
 30
0.0
 10
87.54305378917672
 20
-203.2986465935948
 30
0.0
 10
88.41535982781382
 20
-200.0644312367643
 30
0.0
 10
88.67080071931062
 20
-199.0534590456296
 30
0.0
 10
89.16798663440449
 20
-196.9214634790261
 30
0.0
 10
89.39731096267278
 20
-195.8386103972202
 30
0.0
 10
89.79376508651609
 20
-193.7868690243453
 30
0.0
 10
89.99378192688839
 20
-192.6413632569521
 30
0.0
 10
90.2384088109861
 20
-191.1077789499485
 30
0.0
 10
90.31812124297024
 20
-190.5847251631846
 30
0.0
 10
90.47388638150834
 20
-189.5148995541311
 30
0.0
 10
90.5565794031849
 20
-188.9181500615814
 30
0.0
 10
90.75932698933359
 20
-187.3921905522057
 30
0.0
 10
90.89600190529788
 20
-186.2728994791402
 30
0.0
 10
91.14156970221035
 20
-184.1025734766565
 30
0.0
 10
91.25167892803655
 20
-183.0505367762951
 30
0.0
 10
91.56562247155153
 20
-179.7675090326024
 30
0.0
 10
91.73128081259752
 20
-177.6319860624381
 30
0.0
 10
92.11249498069314
 20
-171.1263393296079
 30
0.0
 10
92.20013131775409
 20
-166.7959523036448
 30
0.0
 10
92.13522326006341
 20
-162.3532915105655
 30
0.0
  0
SPLINE
  5
76
330
1F
100
AcDbEntity
  8
0
  6
Continuous
 62
     7
370
    25
100
AcDbSpline
210
0.0
220
0.0
230
1.0
 70
     8
 71
     3
 72
    10
 73
     6
 74
     0
 42
0.00000001
 43
0.00000001
 40
0.0
 40
0.0
 40
0.0
 40
0.0
 40
0.5
 40
0.5
 40
1.0
 40
1.0
 40
1.0
 40
1.0
 10
92.13522326006341
 20
-162.3532915105655
 30
0.0
 10
92.06980282111185
 20
-157.8755605548413
 30
0.0
 10
91.86913329593453
 20
-153.3333441868265
 30
0.0
 10
91.22752260092517
 20
-144.3726978387597
 30
0.0
 10
90.77732614327286
 20
-139.7747071674473
 30
0.0
 10
90.21702731179082
 20
-135.4009258943438
 30
0.0
  0
SPLINE
  5
77
330
1F
100
AcDbEntity
  8
0
  6
Continuous
 62
     7
370
    25
100
AcDbSpline
210
0.0
220
0.0
230
1.0
 70
     8
 71
     3
 72
    58
 73
    54
 74
     0
 42
0.00000001
 43
0.00000001
 40
0.0
 40
0.0
 40
0.0
 40
0.0
 40
0.1249999999999983
 40
0.1249999999999983
 40
0.2499999999999966
 40
0.2499999999999966
 40
0.3124999999999957
 40
0.3124999999999957
 40
0.3437499999999952
 40
0.3437499999999952
 40
0.3749999999999947
 40
0.3749999999999947
 40
0.4062499999999943
 40
0.4062499999999943
 40
0.4218749999999942
 40
0.4218749999999942
 40
0.4296874999999942
 40
0.4296874999999942
 40
0.4374999999999942
 40
0.4374999999999942
 40
0.4687499999999941
 40
0.4687499999999941
 40
0.4843749999999941
 40
0.4843749999999941
 40
0.4999999999999941
 40
0.4999999999999941
 40
0.5156249999999943
 40
0.5156249999999943
 40
0.5312499999999946
 40
0.5312499999999946
 40
0.5468749999999948
 40
0.5468749999999948
 40
0.562499999999995
 40
0.562499999999995
 40
0.5781249999999952
 40
0.5781249999999952
 40
0.5937499999999954
 40
0.5937499999999954
 40
0.6249999999999958
 40
0.6249999999999958
 40
0.6874999999999966
 40
0.6874999999999966
 40
0.7499999999999972
 40
0.7499999999999972
 40
0.8124999999999979
 40
0.8124999999999979
 40
0.8749999999999986
 40
0.8749999999999986
 40
0.906249999999999
 40
0.906249999999999
 40
0.9374999999999993
 40
0.9374999999999993
 40
1.0
 40
1.0
 40
1.0
 40
1.0
 10
90.21702731179082
 20
-135.4009258943438
 30
0.0
 10
89.35579649974062
 20
-128.678021997502
 30
0.0
 10
88.01766157959688
 20
-122.2428021369979
 30
0.0
 10
84.50192070384782
 20
-109.1710425451075
 30
0.0
 10
82.35211984019587
 20
-102.9421098025578
 30
0.0
 10
78.60245880525062
 20
-93.88017287633757
 30
0.0
 10
77.28585822218521
 20
-90.94268761063238
 30
0.0
 10
75.12124035209497
 20
-86.48529941891655
 30
0.0
 10
74.4101572640338
 20
-85.07825103539801
 30
0.0
 10
72.87188076712357
 20
-82.1647691746548
 30
0.0
 10
72.12544995705031
 20
-80.8041082345308
 30
0.0
 10
70.44635744856207
 20
-77.90799335784251
 30
0.0
 10
69.6189269467959
 20
-76.56313896809768
 30
0.0
 10
68.27345395285828
 20
-74.51228234232055
 30
0.0
 10
67.8178423202362
 20
-73.83908121520658
 30
0.0
 10
67.11838083977248
 20
-72.83722446935987
 30
0.0
 10
66.90459301805909
 20
-72.53529754454067
 30
0.0
 10
66.38693315143458
 20
-71.81666817862599
 30
0.0
 10
66.18630620217196
 20
-71.54193617305968
 30
0.0
 10
64.87905498135562
 20
-69.79663340029293
 30
0.0
 10
63.98597889616322
 20
-68.68756361001324
 30
0.0
 10
61.98529405504172
 20
-66.96048647968203
 30
0.0
 10
61.32597540261052
 20
-66.5378436545502
 30
0.0
 10
59.76887691889632
 20
-65.82890475910376
 30
0.0
 10
58.90273906509359
 20
-65.58437766525302
 30
0.0
 10
57.31039250200703
 20
-65.4821513177999
 30
0.0
 10
56.38527803135102
 20
-65.53381145826589
 30
0.0
 10
54.77170255155648
 20
-66.01845824788784
 30
0.0
 10
53.98685216461248
 20
-66.38895270841678
 30
0.0
 10
52.5667230812986
 20
-67.33498226589693
 30
0.0
 10
51.95774736591141
 20
-67.90783229979138
 30
0.0
 10
50.80314658250499
 20
-69.09021848470064
 30
0.0
 10
50.2223746597209
 20
-69.77673045421162
 30
0.0
 10
49.27406986571782
 20
-70.9810099787413
 30
0.0
 10
48.74537650428911
 20
-71.697368913568
 30
0.0
 10
47.78997594188429
 20
-73.03156818987273
 30
0.0
 10
47.31674290024555
 20
-73.71376880240676
 30
0.0
 10
45.93548018229092
 20
-75.76843379911438
 30
0.0
 10
45.0197849517625
 20
-77.2247071241719
 30
0.0
 10
42.58415849168066
 20
-81.3395878440634
 30
0.0
 10
40.95379681258819
 20
-84.40846870172662
 30
0.0
 10
38.05225367759613
 20
-90.31740257394365
 30
0.0
 10
36.6593384954428
 20
-93.39045976051911
 30
0.0
 10
34.07029574097755
 20
-99.60067170648364
 30
0.0
 10
32.87955993246589
 20
-102.7186126974246
 30
0.0
 10
30.69378462909816
 20
-109.0762886481801
 30
0.0
 10
29.70513671043761
 20
-112.3175014022668
 30
0.0
 10
28.40888363303202
 20
-117.1129539785534
 30
0.0
 10
27.99894588109345
 20
-118.7280966455524
 30
0.0
 10
27.20273634183908
 20
-122.0784971200493
 30
0.0
 10
26.85328664228302
 20
-123.6517186219676
 30
0.0
 10
25.81541949757785
 20
-128.7281208567469
 30
0.0
 10
25.26902927419354
 20
-131.9881889347236
 30
0.0
 10
24.8318441065582
 20
-135.4009259122817
 30
0.0
  0
SPLINE
  5
78
330
1F
100
AcDbEntity
  8
0
  6
Continuous
 62
     7
370
    25
100
AcDbSpline
210
0.0
220
0.0
230
1.0
 70
     8
 71
     3
 72
    12
 73
     8
 74
     0
 42
0.00000001
 43
0.00000001
 40
0.0
 40
0.0
 40
0.0
 40
0.0
 40
0.2500000000000004
 40
0.2500000000000004
 40
0.5000000000000009
 40
0.5000000000000009
 40
1.0
 40
1.0
 40
1.0
 40
1.0
 10
24.83184410655821
 20
-135.4009259122817
 30
0.0
 10
24.55135397795737
 20
-137.5904764839389
 30
0.0
 10
24.29617189150338
 20
-139.8678417599906
 30
0.0
 10
23.85284884045746
 20
-144.3646682867214
 30
0.0
 10
23.6627985453455
 20
-146.5875833620851
 30
0.0
 10
23.1770143479031
 20
-153.3701906020784
 30
0.0
 10
22.97908033998883
 20
-157.874737731823
 30
0.0
 10
22.91364755455656
 20
-162.3532914567886
 30
0.0
  0
SPLINE
  5
79
330
1F
100
AcDbEntity
  8
0
  6
Continuous
 62
     7
370
    25
100
AcDbSpline
210
0.0
220
0.0
230
1.0
 70
     8
 71
     3
 72
    18
 73
    14
 74
     0
 42
0.00000001
 43
0.00000001
 40
0.0
 40
0.0
 40
0.0
 40
0.0
 40
0.2500000000000015
 40
0.2500000000000015
 40
0.500000000000001
 40
0.500000000000001
 40
0.6250000000000009
 40
0.6250000000000009
 40
0.7500000000000006
 40
0.7500000000000006
 40
0.8750000000000003
 40
0.8750000000000003
 40
1.0
 40
1.0
 40
1.0
 40
1.0
 10
91.24160350142955
 20
-162.3661962494672
 30
0.0
 10
91.20915999785436
 20
-160.1195676229677
 30
0.0
 10
91.1428419459403
 20
-157.8753582800336
 30
0.0
 10
90.94644471552876
 20
-153.3914933447905
 30
0.0
 10
90.81622651992038
 20
-151.151847680933
 30
0.0
 10
90.57484351837903
 20
-147.7956684339556
 30
0.0
 10
90.48666691386089
 20
-146.6774930583805
 30
0.0
 10
90.2952628768337
 20
-144.4422172210697
 30
0.0
 10
90.19214766716134
 20
-143.3251087445004
 30
0.0
 10
89.97117360104235
 20
-141.0919447666511
 30
0.0
 10
89.85336832479072
 20
-139.9758854387316
 30
0.0
 10
89.60149744709267
 20
-137.7449280777126
 30
0.0
 10
89.46730624709554
 20
-136.6300390147255
 30
0.0
 10
89.3239774549001
 20
-135.5158025486797
 30
0.0
  0
SPLINE
  5
7A
330
1F
100
AcDbEntity
  8
0
  6
Continuous
 62
     7
370
    25
100
AcDbSpline
210
0.0
220
0.0
230
1.0
 70
     8
 71
     3
 72
    70
 73
    66
 74
     0
 42
0.00000001
 43
0.00000001
 40
0.0071828259114482
 40
0.0071828259114482
 40
0.0071828259114482
 40
0.0071828259114482
 40
0.0078124999999995
 40
0.0078124999999995
 40
0.0156249999999988
 40
0.0156249999999988
 40
0.0312499999999986
 40
0.0312499999999986
 40
0.0468749999999984
 40
0.0468749999999984
 40
0.0624999999999982
 40
0.0624999999999982
 40
0.0937499999999986
 40
0.0937499999999986
 40
0.1249999999999991
 40
0.1249999999999991
 40
0.1562499999999995
 40
0.1562499999999995
 40
0.1874999999999999
 40
0.1874999999999999
 40
0.2187500000000003
 40
0.2187500000000003
 40
0.2343750000000005
 40
0.2343750000000005
 40
0.2500000000000007
 40
0.2500000000000007
 40
0.3125000000000016
 40
0.3125000000000016
 40
0.3750000000000025
 40
0.3750000000000025
 40
0.4375000000000034
 40
0.4375000000000034
 40
0.4687500000000033
 40
0.4687500000000033
 40
0.4843750000000039
 40
0.4843750000000039
 40
0.5000000000000044
 40
0.5000000000000044
 40
0.5312500000000056
 40
0.5312500000000056
 40
0.5625000000000066
 40
0.5625000000000066
 40
0.625000000000009
 40
0.625000000000009
 40
0.6562500000000101
 40
0.6562500000000101
 40
0.6718750000000102
 40
0.6718750000000102
 40
0.6875000000000103
 40
0.6875000000000103
 40
0.7500000000000107
 40
0.7500000000000107
 40
0.7656250000000099
 40
0.7656250000000099
 40
0.7812500000000092
 40
0.7812500000000092
 40
0.8125000000000077
 40
0.8125000000000077
 40
0.8750000000000048
 40
0.8750000000000048
 40
0.9062500000000039
 40
0.9062500000000039
 40
0.9375000000000029
 40
0.9375000000000029
 40
1.0
 40
1.0
 40
1.0
 40
1.0
 10
63.51167475038383
 20
-261.6515893309593
 30
0.0
 10
63.51885833945745
 20
-261.6307525684406
 30
0.0
 10
63.5260521805043
 20
-261.6099198035584
 30
0.0
 10
63.62263735450561
 20
-261.3306634508505
 30
0.0
 10
63.71357735094877
 20
-261.0728435580277
 30
0.0
 10
63.99040258743371
 20
-260.3009383928348
 30
0.0
 10
64.18022574140652
 20
-259.7883806609341
 30
0.0
 10
64.56789169970477
 20
-258.7663463603913
 30
0.0
 10
64.76572348024365
 20
-258.256865358566
 30
0.0
 10
65.16745505436978
 20
-257.2402037928881
 30
0.0
 10
65.37135221349922
 20
-256.7330221652281
 30
0.0
 10
65.98978934184613
 20
-255.2139848718381
 30
0.0
 10
66.41107853459559
 20
-254.2046384977197
 30
0.0
 10
67.26092966346258
 20
-252.1883395065781
 30
0.0
 10
67.68956660990592
 20
-251.1814170303967
 30
0.0
 10
68.54290555964187
 20
-249.1654653750453
 30
0.0
 10
68.9680562410144
 20
-248.1566160480159
 30
0.0
 10
69.81576128508138
 20
-246.1373460630011
 30
0.0
 10
70.23835517802239
 20
-245.1269412358203
 30
0.0
 10
71.08316525300587
 20
-243.1054513525484
 30
0.0
 10
71.50547284521494
 20
-242.0944030564509
 30
0.0
 10
72.14048192549251
 20
-240.578057484005
 30
0.0
 10
72.35238843484923
 20
-240.0726382833314
 30
0.0
 10
72.7769150101583
 20
-239.0619552762641
 30
0.0
 10
72.98948958770487
 20
-238.5566731696014
 30
0.0
 10
74.0532326574787
 20
-236.0302837417208
 30
0.0
 10
74.90698078698394
 20
-234.0092281921802
 30
0.0
 10
76.60631976072554
 20
-229.9617227224628
 30
0.0
 10
77.45231894159492
 20
-227.9354374437898
 30
0.0
 10
79.12236551948608
 20
-223.8718906824137
 30
0.0
 10
79.94648459144169
 20
-221.8346581950188
 30
0.0
 10
81.15463376852726
 20
-218.7658796513937
 30
0.0
 10
81.55267179506102
 20
-217.7407955528009
 30
0.0
 10
82.14111176356276
 20
-216.1992812017875
 30
0.0
 10
82.33581091953366
 20
-215.6847904628538
 30
0.0
 10
82.72196368847369
 20
-214.6543610592969
 30
0.0
 10
82.91336199392913
 20
-214.1385609002703
 30
0.0
 10
83.48153753972362
 20
-212.5904661432338
 30
0.0
 10
83.8524531150838
 20
-211.5570238251352
 30
0.0
 10
84.57583727883143
 20
-209.4869366577431
 30
0.0
 10
84.9282530380726
 20
-208.4502831766358
 30
0.0
 10
85.9540332920609
 20
-205.3348961175586
 30
0.0
 10
86.59542617997013
 20
-203.2506539349176
 30
0.0
 10
87.45668589669377
 20
-200.1072305972063
 30
0.0
 10
87.72694950537242
 20
-199.056576433914
 30
0.0
 10
88.10217863471463
 20
-197.475516923902
 30
0.0
 10
88.22222091444482
 20
-196.9476496598286
 30
0.0
 10
88.45139885529818
 20
-195.8900827268083
 30
0.0
 10
88.56059286144144
 20
-195.3603925928867
 30
0.0
 10
89.0818749502735
 20
-192.7077813399023
 30
0.0
 10
89.4200609352505
 20
-190.5724043746183
 30
0.0
 10
89.78074664001537
 20
-187.8925284311062
 30
0.0
 10
89.8497825807574
 20
-187.3560207255137
 30
0.0
 10
89.98265593964871
 20
-186.2821042360171
 30
0.0
 10
90.04648266858962
 20
-185.7446937042344
 30
0.0
 10
90.23116800347442
 20
-184.1312742335952
 30
0.0
 10
90.34520616322388
 20
-183.0540732452555
 30
0.0
 10
90.65845437167269
 20
-179.8174401707126
 30
0.0
 10
90.82908835173276
 20
-177.6530255228391
 30
0.0
 10
91.02260171057468
 20
-174.3955618946764
 30
0.0
 10
91.07665751498197
 20
-173.3079267836793
 30
0.0
 10
91.16403538603194
 20
-171.1290535179164
 30
0.0
 10
91.19736983296902
 20
-170.0378173882968
 30
0.0
 10
91.2671063291409
 20
-166.7588379466173
 30
0.0
 10
91.27332106737919
 20
-164.5658365796901
 30
0.0
 10
91.24160350142955
 20
-162.3661962494672
 30
0.0
  0
LINE
  5
7B
330
1F
100
AcDbEntity
  8
0
  6
Continuous
 62
     7
370
    25
100
AcDbLine
 10
51.5371959393
 20
-261.6515893373
 30
0.0
 11
63.5116747504
 21
-261.6515893373
 31
0.0
  0
SPLINE
  5
7C
330
1F
100
AcDbEntity
  8
0
  6
Continuous
 62
     7
370
    25
100
AcDbSpline
210
0.0
220
0.0
230
1.0
 70
     8
 71
     3
 72
    70
 73
    66
 74
     0
 42
0.00000001
 43
0.00000001
 40
0.0
 40
0.0
 40
0.0
 40
0.0
 40
0.062499999999994
 40
0.062499999999994
 40
0.093749999999991
 40
0.093749999999991
 40
0.1249999999999881
 40
0.1249999999999881
 40
0.1874999999999831
 40
0.1874999999999831
 40
0.2187499999999806
 40
0.2187499999999806
 40
0.2343749999999794
 40
0.2343749999999794
 40
0.2499999999999781
 40
0.2499999999999781
 40
0.3124999999999741
 40
0.3124999999999741
 40
0.3281249999999739
 40
0.3281249999999739
 40
0.3437499999999736
 40
0.3437499999999736
 40
0.3749999999999741
 40
0.3749999999999741
 40
0.437499999999976
 40
0.437499999999976
 40
0.468749999999977
 40
0.468749999999977
 40
0.4999999999999779
 40
0.4999999999999779
 40
0.5156249999999789
 40
0.5156249999999789
 40
0.5312499999999798
 40
0.5312499999999798
 40
0.5624999999999807
 40
0.5624999999999807
 40
0.6249999999999825
 40
0.6249999999999825
 40
0.6874999999999843
 40
0.6874999999999843
 40
0.7499999999999861
 40
0.7499999999999861
 40
0.7656249999999868
 40
0.7656249999999868
 40
0.7812499999999873
 40
0.7812499999999873
 40
0.8124999999999896
 40
0.8124999999999896
 40
0.8437499999999918
 40
0.8437499999999918
 40
0.874999999999994
 40
0.874999999999994
 40
0.9062499999999963
 40
0.9062499999999963
 40
0.9374999999999986
 40
0.9374999999999986
 40
0.9531249999999991
 40
0.9531249999999991
 40
0.9687499999999998
 40
0.9687499999999998
 40
0.9843750000000003
 40
0.9843750000000003
 40
0.9921875000000007
 40
0.9921875000000007
 40
0.9928171725859016
 40
0.9928171725859016
 40
0.9928171725859016
 40
0.9928171725859016
 10
23.80726737120623
 20
-162.3661962494672
 30
0.0
 10
23.7755496710747
 20
-164.5658368617601
 30
0.0
 10
23.78176424288523
 20
-166.7588385011215
 30
0.0
 10
23.85150046643639
 20
-170.0378183316879
 30
0.0
 10
23.88483481905235
 20
-171.1290545875734
 30
0.0
 10
23.97221246832014
 20
-173.307928103265
 30
0.0
 10
24.02626814820226
 20
-174.3955633374405
 30
0.0
 10
24.21978102483645
 20
-177.6530273407958
 30
0.0
 10
24.39041462968587
 20
-179.8174422314877
 30
0.0
 10
24.7036620181981
 20
-183.054075690002
 30
0.0
 10
24.81769992024859
 20
-184.1312768000306
 30
0.0
 10
25.0023847442545
 20
-185.7446964682082
 30
0.0
 10
25.06621135310964
 20
-186.2821070567358
 30
0.0
 10
25.19908435536898
 20
-187.3560236767632
 30
0.0
 10
25.26812007276189
 20
-187.8925314539856
 30
0.0
 10
25.62880460022865
 20
-190.5724077596726
 30
0.0
 10
25.96698923139956
 20
-192.7077850632674
 30
0.0
 10
26.48826881267745
 20
-195.3603968363433
 30
0.0
 10
26.59746223901178
 20
-195.8900870852764
 30
0.0
 10
26.82663906410262
 20
-196.947654237216
 30
0.0
 10
26.94668075225673
 20
-197.4755216142715
 30
0.0
 10
27.32190822552327
 20
-199.0565814383097
 30
0.0
 10
27.59217081092398
 20
-200.1072357903953
 30
0.0
 10
28.45342778687176
 20
-203.2506596220916
 30
0.0
 10
29.094819635914
 20
-205.3349019804276
 30
0.0
 10
30.12059881797576
 20
-208.450289199399
 30
0.0
 10
30.47301422361335
 20
-209.486942729211
 30
0.0
 10
31.19639747025373
 20
-211.5570300211661
 30
0.0
 10
31.56731257907632
 20
-212.5904723993003
 30
0.0
 10
32.13548728763092
 20
-214.1385672642143
 30
0.0
 10
32.3268852842847
 20
-214.6543674142353
 30
0.0
 10
32.71303752659136
 20
-215.6847971099608
 30
0.0
 10
32.90773640080481
 20
-216.1992880012328
 30
0.0
 10
33.49617548993349
 20
-217.7408028197841
 30
0.0
 10
33.89421291508306
 20
-218.7658872318621
 30
0.0
 10
35.10236073609504
 20
-221.8346665242349
 30
0.0
 10
35.92647930198073
 20
-223.8718993357897
 30
0.0
 10
37.59652592259948
 20
-227.9354463024999
 30
0.0
 10
38.44252571076276
 20
-229.9617314388367
 30
0.0
 10
40.1418653644762
 20
-234.0092368320486
 30
0.0
 10
40.99561369989926
 20
-236.030292393317
 30
0.0
 10
42.05935700378809
 20
-238.5566818456873
 30
0.0
 10
42.27193162049222
 20
-239.0619639603592
 30
0.0
 10
42.69645826231466
 20
-240.0726469884209
 30
0.0
 10
42.90836486941578
 20
-240.5780661737737
 30
0.0
 10
43.54337481000431
 20
-242.0944114723248
 30
0.0
 10
43.96568362933937
 20
-243.1054593232516
 30
0.0
 10
44.81049717427734
 20
-245.1269479075464
 30
0.0
 10
45.23309329813512
 20
-246.1373518856678
 30
0.0
 10
46.08080304598002
 20
-248.1566200739537
 30
0.0
 10
46.50595622806254
 20
-249.1654684420959
 30
0.0
 10
47.35929965280176
 20
-251.1814183894403
 30
0.0
 10
47.78793821209562
 20
-252.1883402614048
 30
0.0
 10
48.63779112781199
 20
-254.20463862638
 30
0.0
 10
49.05908073471512
 20
-255.213984882042
 30
0.0
 10
49.67751809207687
 20
-256.7330221634094
 30
0.0
 10
49.8814152659636
 20
-257.2402038131534
 30
0.0
 10
50.28314682791986
 20
-258.2568654434743
 30
0.0
 10
50.48097858046956
 20
-258.766346488286
 30
0.0
 10
50.8686445323065
 20
-259.788380859941
 30
0.0
 10
51.05846771072348
 20
-260.3009386188034
 30
0.0
 10
51.33529314307945
 20
-261.0728437656012
 30
0.0
 10
51.42623323295662
 20
-261.3306636418519
 30
0.0
 10
51.52281853963474
 20
-261.6099199084121
 30
0.0
 10
51.53001237501077
 20
-261.6307526207401
 30
0.0
 10
51.53719595876615
 20
-261.6515893305703
 30
0.0
  0
SPLINE
  5
7D
330
1F
100
AcDbEntity
  8
0
  6
Continuous
 62
     7
370
    25
100
AcDbSpline
210
0.0
220
0.0
230
1.0
 70
     8
 71
     3
 72
    18
 73
    14
 74
     0
 42
0.00000001
 43
0.00000001
 40
0.0
 40
0.0
 40
0.0
 40
0.0
 40
0.1250000000000007
 40
0.1250000000000007
 40
0.2500000000000014
 40
0.2500000000000014
 40
0.3750000000000022
 40
0.3750000000000022
 40
0.5000000000000029
 40
0.5000000000000029
 40
0.7500000000000024
 40
0.7500000000000024
 40
1.0
 40
1.0
 40
1.0
 40
1.0
 10
25.72489391395126
 20
-135.5158025486797
 30
0.0
 10
25.58156513602218
 20
-136.6300390160488
 30
0.0
 10
25.44737393990896
 20
-137.7449280797866
 30
0.0
 10
25.19550305584244
 20
-139.9758854416026
 30
0.0
 10
25.07769776789859
 20
-141.0919447694631
 30
0.0
 10
24.85672368338986
 20
-143.3251087478218
 30
0.0
 10
24.75360845701023
 20
-144.4422172242456
 30
0.0
 10
24.56220437712902
 20
-146.6774930608651
 30
0.0
 10
24.47402774767773
 20
-147.7956684359831
 30
0.0
 10
24.23264465958575
 20
-151.151847681178
 30
0.0
 10
24.10242643125882
 20
-153.3914933461988
 30
0.0
 10
23.90602915005445
 20
-157.8753582859979
 30
0.0
 10
23.83971100781343
 20
-160.1195676271616
 30
0.0
 10
23.80726737120622
 20
-162.3661962494672
 30
0.0
  0
SPLINE
  5
7E
330
1F
100
AcDbEntity
  8
0
  6
Continuous
 62
     7
370
    25
100
AcDbSpline
210
0.0
220
0.0
230
1.0
 70
     8
 71
     3
 72
   195
 73
   191
 74
     0
 42
0.00000001
 43
0.00000001
 40
0.0
 40
0.0
 40
0.0
 40
0.0
 40
0.0156250000000019
 40
0.0156250000000019
 40
0.0312500000000038
 40
0.0312500000000038
 40
0.0625000000000076
 40
0.0625000000000076
 40
0.0937500000000115
 40
0.0937500000000115
 40
0.1093750000000135
 40
0.1093750000000135
 40
0.1250000000000156
 40
0.1250000000000156
 40
0.1406250000000176
 40
0.1484375000000186
 40
0.1484375000000186
 40
0.1523437500000192
 40
0.1523437500000192
 40
0.1562500000000197
 40
0.1562500000000197
 40
0.1875000000000244
 40
0.1875000000000244
 40
0.2187500000000291
 40
0.2187500000000291
 40
0.2500000000000338
 40
0.2500000000000338
 40
0.2812500000000385
 40
0.2812500000000385
 40
0.3125000000000432
 40
0.3125000000000432
 40
0.3281250000000456
 40
0.3281250000000456
 40
0.3437500000000479
 40
0.3437500000000479
 40
0.3593750000000503
 40
0.3593750000000503
 40
0.3750000000000526
 40
0.3750000000000526
 40
0.390625000000055
 40
0.390625000000055
 40
0.3984375000000562
 40
0.3984375000000562
 40
0.4062500000000575
 40
0.4062500000000575
 40
0.4101562500000581
 40
0.4101562500000581
 40
0.4140625000000588
 40
0.4140625000000588
 40
0.4218750000000603
 40
0.4218750000000603
 40
0.4296875000000618
 40
0.4296875000000618
 40
0.4375000000000634
 40
0.4375000000000634
 40
0.4453125000000649
 40
0.4453125000000649
 40
0.4492187500000656
 40
0.4492187500000656
 40
0.4531250000000664
 40
0.4531250000000664
 40
0.4609375000000676
 40
0.4609375000000676
 40
0.4687500000000687
 40
0.4687500000000687
 40
0.4726562500000694
 40
0.4726562500000694
 40
0.4746093750000697
 40
0.4746093750000697
 40
0.4765625000000699
 40
0.4765625000000699
 40
0.4785156250000703
 40
0.4785156250000703
 40
0.4804687500000706
 40
0.4804687500000706
 40
0.4843750000000711
 40
0.4843750000000711
 40
0.4882812500000715
 40
0.4882812500000715
 40
0.4892578125000716
 40
0.4892578125000716
 40
0.4902343750000717
 40
0.4902343750000717
 40
0.4921875000000717
 40
0.4921875000000717
 40
0.4941406250000718
 40
0.4941406250000718
 40
0.4960937500000718
 40
0.4960937500000718
 40
0.4980468750000719
 40
0.4980468750000719
 40
0.500000000000072
 40
0.500000000000072
 40
0.500976562500072
 40
0.500976562500072
 40
0.501953125000072
 40
0.501953125000072
 40
0.5039062500000719
 40
0.5039062500000719
 40
0.5058593750000718
 40
0.5058593750000718
 40
0.5078125000000718
 40
0.5078125000000718
 40
0.5097656250000717
 40
0.5097656250000717
 40
0.5117187500000716
 40
0.5117187500000716
 40
0.5136718750000715
 40
0.5136718750000715
 40
0.5146484375000714
 40
0.5146484375000714
 40
0.5156250000000713
 40
0.5156250000000713
 40
0.5195312500000707
 40
0.5195312500000707
 40
0.5234375000000703
 40
0.5234375000000703
 40
0.5273437500000697
 40
0.5273437500000697
 40
0.5283203125000696
 40
0.5283203125000696
 40
0.5292968750000695
 40
0.5292968750000695
 40
0.5312500000000694
 40
0.5312500000000694
 40
0.5351562500000692
 40
0.5351562500000692
 40
0.5390625000000688
 40
0.5390625000000688
 40
0.5468750000000682
 40
0.5468750000000682
 40
0.5507812500000678
 40
0.5507812500000678
 40
0.5527343750000676
 40
0.5527343750000676
 40
0.5546875000000674
 40
0.5546875000000674
 40
0.558593750000067
 40
0.558593750000067
 40
0.5625000000000666
 40
0.5625000000000666
 40
0.5703125000000657
 40
0.5703125000000657
 40
0.578125000000065
 40
0.578125000000065
 40
0.5937500000000634
 40
0.5937500000000634
 40
0.6093750000000618
 40
0.6093750000000618
 40
0.6171875000000611
 40
0.6171875000000611
 40
0.6250000000000602
 40
0.6250000000000602
 40
0.6406250000000585
 40
0.6406250000000585
 40
0.6562500000000567
 40
0.6562500000000567
 40
0.671875000000055
 40
0.671875000000055
 40
0.6875000000000532
 40
0.6875000000000532
 40
0.7031250000000514
 40
0.7031250000000514
 40
0.7187500000000497
 40
0.7187500000000497
 40
0.734375000000048
 40
0.734375000000048
 40
0.7421875000000471
 40
0.7421875000000471
 40
0.7460937500000466
 40
0.7460937500000466
 40
0.7500000000000461
 40
0.7500000000000461
 40
0.8125000000000343
 40
0.8125000000000343
 40
0.8437500000000284
 40
0.8437500000000284
 40
0.8750000000000225
 40
0.8750000000000225
 40
0.9062500000000168
 40
0.9062500000000168
 40
0.9218750000000138
 40
0.9218750000000138
 40
0.9375000000000108
 40
0.9375000000000108
 40
0.9687500000000053
 40
0.9687500000000053
 40
0.9843750000000027
 40
0.9843750000000027
 40
1.0
 40
1.0
 40
1.0
 40
1.0
 10
89.3239774549001
 20
-135.5158025486797
 30
0.0
 10
89.21844691463043
 20
-134.6911796106903
 30
0.0
 10
89.10564682949045
 20
-133.8684240987416
 30
0.0
 10
88.86495157335555
 20
-132.2267581389832
 30
0.0
 10
88.73697064127434
 20
-131.407865979628
 30
0.0
 10
88.33021490285228
 20
-128.9569808802283
 30
0.0
 10
88.02889623357797
 20
-127.3307214099974
 30
0.0
 10
87.37279802950718
 20
-124.0920147422901
 30
0.0
 10
87.0181784997246
 20
-122.479533502323
 30
0.0
 10
86.45131593043644
 20
-120.0700369750017
 30
0.0
 10
86.25659656874551
 20
-119.268397023435
 30
0.0
 10
85.85537805327206
 20
-117.6682161886613
 30
0.0
 10
85.64874567053488
 20
-116.8697036169367
 30
0.0
 10
85.22307208494759
 20
-115.2759061143636
 30
0.0
 10
84.89449680280147
 20
-114.0829815844401
 30
0.0
 10
84.55141080610827
 20
-112.893799443669
 30
0.0
 10
84.37740112904122
 20
-112.2998418693154
 30
0.0
 10
84.31897516723542
 20
-112.1019228362683
 30
0.0
 10
84.20137736731836
 20
-111.7065795566507
 30
0.0
 10
84.14220058267901
 20
-111.5091377785484
 30
0.0
 10
83.60618811864866
 20
-109.7342359508814
 30
0.0
 10
83.1051873685432
 20
-108.1713870487818
 30
0.0
 10
82.05554247857823
 20
-105.0743670210435
 30
0.0
 10
81.50704838285239
 20
-103.5401306135479
 30
0.0
 10
80.36574068599715
 20
-100.4985626503778
 30
0.0
 10
79.77300338550475
 20
-98.99119833004129
 30
0.0
 10
78.54661813963399
 20
-96.00161469616715
 30
0.0
 10
77.91287179033748
 20
-94.51943842505136
 30
0.0
 10
76.60503526284388
 20
-91.57972109935565
 30
0.0
 10
75.93094385628832
 20
-90.12218112753646
 30
0.0
 10
74.88905260473365
 20
-87.95436771017154
 30
0.0
 10
74.53659970289905
 20
-87.2348589988241
 30
0.0
 10
73.82023518797726
 20
-85.80248494960637
 30
0.0
 10
73.45630285226393
 20
-85.08962824762328
 30
0.0
 10
72.7164066971932
 20
-83.67076462744058
 30
0.0
 10
72.34047363708437
 20
-82.96474475761778
 30
0.0
 10
71.576126539081
 20
-81.55970831007956
 30
0.0
 10
71.18768082693961
 20
-80.86070548357182
 30
0.0
 10
70.39515195590174
 20
-79.47098732510806
 30
0.0
 10
69.99097316348306
 20
-78.78031216440048
 30
0.0
 10
69.36998976572538
 20
-77.75172665645042
 30
0.0
 10
69.16054072451641
 20
-77.41010341316216
 30
0.0
 10
68.73644236697882
 20
-76.72944841933122
 30
0.0
 10
68.52183568009761
 20
-76.3903988519545
 30
0.0
 10
68.19611276402254
 20
-75.88372620391237
 30
0.0
 10
68.08687128902825
 20
-75.71510581196873
 30
0.0
 10
67.86727637119775
 20
-75.37875355495407
 30
0.0
 10
67.75693573523839
 20
-75.21104026655382
 30
0.0
 10
67.4242796613924
 20
-74.70928893314958
 30
0.0
 10
67.2003286430754
 20
-74.37664041387757
 30
0.0
 10
66.74805439413912
 20
-73.71503900205195
 30
0.0
 10
66.51973906449595
 20
-73.38608055628228
 30
0.0
 10
66.05864648971594
 20
-72.73190528742177
 30
0.0
 10
65.82591569439069
 20
-72.40665580729772
 30
0.0
 10
65.3557457350778
 20
-71.76005435073388
 30
0.0
 10
65.11808336528722
 20
-71.438859943345
 30
0.0
 10
64.75500063631556
 20
-70.9621200991996
 30
0.0
 10
64.63286997642233
 20
-70.80405207639552
 30
0.0
 10
64.38585728630407
 20
-70.48998422854079
 30
0.0
 10
64.26096145754364
 20
-70.3339941059529
 30
0.0
 10
63.88082204531685
 20
-69.87004548748223
 30
0.0
 10
63.62007815866852
 20
-69.56614352255335
 30
0.0
 10
63.07728999658971
 20
-68.97373282039844
 30
0.0
 10
62.79559992466412
 20
-68.68497557888186
 30
0.0
 10
62.35565753109024
 20
-68.26432685561387
 30
0.0
 10
62.20633288089039
 20
-68.12603569235225
 30
0.0
 10
61.97543809388937
 20
-67.9234953644061
 30
0.0
 10
61.89716674763963
 20
-67.85672105432931
 30
0.0
 10
61.73881669849168
 20
-67.72628147131525
 30
0.0
 10
61.65863935303383
 20
-67.66253084706388
 30
0.0
 10
61.49592268444532
 20
-67.5384832332016
 30
0.0
 10
61.41336910905984
 20
-67.4782069217089
 30
0.0
 10
61.24568368136968
 20
-67.36141795007894
 30
0.0
 10
61.16058142124076
 20
-67.30486230805938
 30
0.0
 10
60.90164542312936
 20
-67.14048944420503
 30
0.0
 10
60.72425977466087
 20
-67.03785395941155
 30
0.0
 10
60.36044379923441
 20
-66.84575600330086
 30
0.0
 10
60.17401599393185
 20
-66.7562899918778
 30
0.0
 10
59.93513405142536
 20
-66.65295864753999
 30
0.0
 10
59.88706263629266
 20
-66.63272130919161
 30
0.0
 10
59.79031327621367
 20
-66.5931280493395
 30
0.0
 10
59.74163381831917
 20
-66.57377328637031
 30
0.0
 10
59.5953691717858
 20
-66.5173336412386
 30
0.0
 10
59.49732797209178
 20
-66.48177724695104
 30
0.0
 10
59.30011900533975
 20
-66.41504925603685
 30
0.0
 10
59.20097502588622
 20
-66.38378524809222
 30
0.0
 10
59.00129751575903
 20
-66.32666113946625
 30
0.0
 10
58.90073424321977
 20
-66.30091658158904
 30
0.0
 10
58.69780836230351
 20
-66.25642034664078
 30
0.0
 10
58.59544255607904
 20
-66.23768104757907
 30
0.0
 10
58.3889586768967
 20
-66.20700997600872
 30
0.0
 10
58.28484108576884
 20
-66.19507632577889
 30
0.0
 10
58.12758302601547
 20
-66.18137728321145
 30
0.0
 10
58.0749830793684
 20
-66.17751240494695
 30
0.0
 10
57.96946159193526
 20
-66.17103171833931
 30
0.0
 10
57.9164746255517
 20
-66.16841360961234
 30
0.0
 10
57.75758350459651
 20
-66.1622266473873
 30
0.0
 10
57.65195147531165
 20
-66.16031892314805
 30
0.0
 10
57.44113380148167
 20
-66.15985354860972
 30
0.0
 10
57.3359409776173
 20
-66.16124201962721
 30
0.0
 10
57.1261090882382
 20
-66.16817498530978
 30
0.0
 10
57.02146873421727
 20
-66.17370979913203
 30
0.0
 10
56.81290471384032
 20
-66.190158754088
 30
0.0
 10
56.70898172452459
 20
-66.201077961506
 30
0.0
 10
56.5020289682047
 20
-66.22962192880591
 30
0.0
 10
56.39900809171338
 20
-66.24731341888321
 30
0.0
 10
56.19393666783023
 20
-66.28998307860479
 30
0.0
 10
56.09189727180549
 20
-66.31504499837187
 30
0.0
 10
55.93946157735737
 20
-66.3573219726893
 30
0.0
 10
55.88875398924986
 20
-66.3721980619818
 30
0.0
 10
55.78751316701995
 20
-66.40326089362586
 30
0.0
 10
55.73690628688843
 20
-66.41945623191855
 30
0.0
 10
55.48534942898394
 20
-66.50306440184625
 30
0.0
 10
55.28871069553514
 20
-66.57827058927022
 30
0.0
 10
54.90338190681988
 20
-66.74306280868022
 30
0.0
 10
54.71471583280054
 20
-66.8326919616914
 30
0.0
 10
54.34524479185545
 20
-67.02619559465778
 30
0.0
 10
54.16444445860357
 20
-67.13007829488889
 30
0.0
 10
53.94372988107344
 20
-67.26952535500119
 30
0.0
 10
53.89985499279634
 20
-67.29790121315426
 30
0.0
 10
53.8126597020566
 20
-67.35565962858034
 30
0.0
 10
53.76936815745489
 20
-67.38502365277802
 30
0.0
 10
53.64093620828909
 20
-67.47423297622592
 30
0.0
 10
53.55708755650974
 20
-67.53536062917382
 30
0.0
 10
53.31035273141121
 20
-67.72324292433831
 30
0.0
 10
53.15219074918991
 20
-67.85441664232773
 30
0.0
 10
52.84412064950111
 20
-68.12453873410803
 30
0.0
 10
52.69412027598236
 20
-68.26340136192299
 30
0.0
 10
52.25127667546729
 20
-68.68682121095091
 30
0.0
 10
51.96636382278815
 20
-68.97892726370272
 30
0.0
 10
51.55310222617957
 20
-69.43062645693753
 30
0.0
 10
51.41775889872527
 20
-69.58350472302946
 30
0.0
 10
51.21787163535324
 20
-69.81584392785942
 30
0.0
 10
51.15174561360939
 20
-69.89380784507372
 30
0.0
 10
51.02064230609275
 20
-70.05038602577245
 30
0.0
 10
50.95563791532074
 20
-70.12903146043703
 30
0.0
 10
50.7620853506499
 20
-70.36592560229606
 30
0.0
 10
50.63499455129003
 20
-70.52513020260525
 30
0.0
 10
50.38374814141338
 20
-70.84550328958565
 30
0.0
 10
50.25958636478787
 20
-71.00666791454104
 30
0.0
 10
49.89059648276258
 20
-71.49255004396402
 30
0.0
 10
49.64925016236857
 20
-71.81964782386079
 30
0.0
 10
49.17182213821858
 20
-72.47771259513915
 30
0.0
 10
48.93558763492879
 20
-72.80858371027243
 30
0.0
 10
48.23399773255972
 20
-73.80653499948721
 30
0.0
 10
47.77578138527705
 20
-74.4789688987725
 30
0.0
 10
46.87793846586826
 20
-75.83796155438874
 30
0.0
 10
46.43828183478332
 20
-76.52450121292874
 30
0.0
 10
45.79289964400435
 20
-77.56510234630693
 30
0.0
 10
45.5801074956874
 20
-77.91389555709463
 30
0.0
 10
45.15928665363317
 20
-78.6144607221635
 30
0.0
 10
44.95131907751357
 20
-78.96613317230945
 30
0.0
 10
44.33403686277119
 20
-80.02500533163445
 30
0.0
 10
43.93130271230389
 20
-80.73604189371568
 30
0.0
 10
43.13954950312485
 20
-82.16662591670178
 30
0.0
 10
42.75046563422435
 20
-82.88614266405274
 30
0.0
 10
41.98436999632519
 20
-84.3329714334872
 30
0.0
 10
41.60749922186944
 20
-85.06034905873697
 30
0.0
 10
40.8656873323474
 20
-86.52288221511358
 30
0.0
 10
40.50078533478754
 20
-87.25805623334472
 30
0.0
 10
39.78187472893716
 20
-88.7357445464456
 30
0.0
 10
39.42779824884519
 20
-89.4782267988444
 30
0.0
 10
38.72993214600877
 20
-90.97029156697285
 30
0.0
 10
38.38621215409058
 20
-91.71990680411712
 30
0.0
 10
37.70912381986923
 20
-93.22631417507735
 30
0.0
 10
37.37575800766086
 20
-93.98310747030942
 30
0.0
 10
36.88352243426791
 20
-95.12373918860025
 30
0.0
 10
36.72074662662332
 20
-95.5048569858704
 30
0.0
 10
36.47854892173062
 20
-96.0779047776142
 30
0.0
 10
36.39813913333963
 20
-96.26916139542932
 30
0.0
 10
36.23808787448316
 20
-96.6518684862698
 30
0.0
 10
36.1584328580665
 20
-96.84335093004402
 30
0.0
 10
34.81060917121317
 20
-100.1007478565137
 30
0.0
 10
33.63630158644331
 20
-103.1993668547129
 30
0.0
 10
32.03197272521438
 20
-107.9012485934379
 30
0.0
 10
31.52347984618627
 20
-109.4775620520217
 30
0.0
 10
30.55976831184348
 20
-112.6485148143136
 30
0.0
 10
30.10435512831122
 20
-114.2431022419414
 30
0.0
 10
29.24287239887291
 20
-117.4496459214526
 30
0.0
 10
28.83690533017452
 20
-119.0616298481473
 30
0.0
 10
28.26215282688047
 20
-121.4919499475024
 30
0.0
 10
28.07639125217809
 20
-122.3041471674429
 30
0.0
 10
27.71719789062767
 20
-123.9329215616636
 30
0.0
 10
27.54378539704116
 20
-124.7495039407592
 30
0.0
 10
27.04359166349257
 20
-127.2062633940797
 30
0.0
 10
26.7368956459111
 20
-128.8534630372174
 30
0.0
 10
26.32267982962598
 20
-131.3399499521108
 30
0.0
 10
26.19231323963894
 20
-132.1714120890498
 30
0.0
 10
25.94717477279746
 20
-133.8396726887846
 30
0.0
 10
25.83230997935839
 20
-134.6764459023594
 30
0.0
 10
25.72489391395126
 20
-135.5158025486797
 30
0.0
  0
MTEXT
  5
80
330
1F
100
AcDbEntity
  8
0
  6
Continuous
 62
     7
100
AcDbMText
 10
22.9136475546
 20
-262.4063366586
 30
0.0
 40
0.1903
 41
0.0
 71
     1
 72
     1
  1
SOLIDWORKS Educational Product.
  7
SLDTEXTSTYLE0
 73
     1
 44
1.0
  0
MTEXT
  5
81
330
1F
100
AcDbEntity
  8
0
  6
Continuous
 62
     7
100
AcDbMText
 10
22.9136475546
 20
-262.6917866586
 30
0.0
 40
0.1903
 41
0.0
 71
     1
 72
     1
  1
For Instructional Use Only.
  7
SLDTEXTSTYLE0
 73
     1
 44
1.0
  0
ENDSEC
  0
SECTION
  2
OBJECTS
  0
DICTIONARY
  5
C
330
0
100
AcDbDictionary
281
     1
  3
ACAD_GROUP
350
D
  3
ACAD_LAYOUT
350
1A
  3
ACAD_MLINESTYLE
350
17
  3
ACAD_PLOTSETTINGS
350
19
  3
ACAD_PLOTSTYLENAME
350
E
  3
ACAD_SCALELIST
350
47
  3
DWGPROPS
350
82
  0
DICTIONARY
  5
D
102
{ACAD_REACTORS
330
C
102
}
330
C
100
AcDbDictionary
281
     1
  0
DICTIONARY
  5
1A
102
{ACAD_REACTORS
330
C
102
}
330
C
100
AcDbDictionary
281
     1
  3
Layout1
350
1E
  3
Layout2
350
26
  3
Model
350
22
  0
DICTIONARY
  5
17
102
{ACAD_REACTORS
330
C
102
}
330
C
100
AcDbDictionary
281
     1
  3
Standard
350
18
  0
DICTIONARY
  5
19
102
{ACAD_REACTORS
330
C
102
}
330
C
100
AcDbDictionary
281
     1
  0
ACDBDICTIONARYWDFLT
  5
E
102
{ACAD_REACTORS
330
C
102
}
330
C
100
AcDbDictionary
281
     1
  3
Normal
350
F
100
AcDbDictionaryWithDefault
340
F
  0
DICTIONARY
  5
47
102
{ACAD_REACTORS
330
C
102
}
330
C
100
AcDbDictionary
281
     1
  3
A0
350
48
  3
A1
350
49
  3
A2
350
4A
  3
A3
350
4B
  3
A4
350
4C
  3
A5
350
4D
  3
A6
350
4E
  3
A7
350
4F
  3
A8
350
50
  3
A9
350
51
  3
B0
350
52
  3
B1
350
53
  3
B2
350
54
  3
B3
350
55
  3
B4
350
56
  3
B5
350
57
  3
B6
350
58
  3
B7
350
59
  3
B8
350
5A
  3
B9
350
5B
  3
C0
350
5C
  3
C1
350
5D
  3
C2
350
5E
  3
C3
350
5F
  3
C4
350
60
  3
C5
350
61
  3
C6
350
62
  3
C7
350
63
  3
C8
350
64
  3
C9
350
65
  3
D0
350
66
  3
D1
350
67
  3
D2
350
68
  0
XRECORD
  5
82
102
{ACAD_REACTORS
330
C
102
}
330
C
100
AcDbXrecord
280
     1
  1
DWGPROPS COOKIE
  2

  3

  4

  6

  7

  8
Al
  9

300
=
301
=
302
=
303
=
304
=
305
=
306
=
307
=
308
=
309
=
 40
0.0
 41
2459941.880556088
 42
2459941.880594641
  1

 90
        0
  0
LAYOUT
  5
1E
102
{ACAD_REACTORS
330
1A
102
}
330
1A
100
AcDbPlotSettings
  1

  2
none_device
  4

  6

 40
0.0
 41
0.0
 42
0.0
 43
0.0
 44
0.0
 45
0.0
 46
0.0
 47
0.0
 48
0.0
 49
0.0
140
0.0
141
0.0
142
1.0
143
1.0
 70
   688
 72
     0
 73
     0
 74
     5
  7

 75
    16
147
1.0
148
0.0
149
0.0
100
AcDbLayout
  1
Layout1
 70
     1
 71
     1
 10
0.0
 20
0.0
 11
12.0
 21
9.0
 12
0.0
 22
0.0
 32
0.0
 14
1.0000000000E+20
 24
1.0000000000E+20
 34
1.0000000000E+20
 15
-1.0000000000E+20
 25
-1.0000000000E+20
 35
-1.0000000000E+20
146
0.0
 13
0.0
 23
0.0
 33
0.0
 16
1.0
 26
0.0
 36
0.0
 17
0.0
 27
1.0
 37
0.0
 76
     0
330
1B
  0
LAYOUT
  5
26
102
{ACAD_REACTORS
330
1A
102
}
330
1A
100
AcDbPlotSettings
  1

  2
none_device
  4

  6

 40
0.0
 41
0.0
 42
0.0
 43
0.0
 44
0.0
 45
0.0
 46
0.0
 47
0.0
 48
0.0
 49
0.0
140
0.0
141
0.0
142
1.0
143
1.0
 70
   688
 72
     0
 73
     0
 74
     5
  7

 75
    16
147
1.0
148
0.0
149
0.0
100
AcDbLayout
  1
Layout2
 70
     1
 71
     2
 10
0.0
 20
0.0
 11
0.0
 21
0.0
 12
0.0
 22
0.0
 32
0.0
 14
0.0
 24
0.0
 34
0.0
 15
0.0
 25
0.0
 35
0.0
146
0.0
 13
0.0
 23
0.0
 33
0.0
 16
1.0
 26
0.0
 36
0.0
 17
0.0
 27
1.0
 37
0.0
 76
     0
330
23
  0
LAYOUT
  5
22
102
{ACAD_REACTORS
330
1A
102
}
330
1A
100
AcDbPlotSettings
  1

  2
none_device
  4
ANSI_A_(11.00_x_8.50_Inches)
  6

 40
6.35
 41
19.05
 42
6.35000508
 43
19.05000254
 44
279.4
 45
215.9
 46
70.8841781554
 47
266.9331103956
 48
0.0
 49
0.0
140
0.0
141
0.0
142
0.0427519924
143
1.0
 70
  1696
 72
     0
 73
     0
 74
     0
  7

 75
     0
147
0.5913241897
148
-39.4088153714
149
0.0
100
AcDbLayout
  1
Model
 70
     1
 71
     0
 10
0.0
 20
0.0
 11
12.0
 21
9.0
 12
0.0
 22
0.0
 32
0.0
 14
22.9136475546
 24
-262.3661962495
 34
0.0
 15
92.1352232601
 25
-65.5332644915
 35
0.0
146
0.0
 13
0.0
 23
0.0
 33
0.0
 16
1.0
 26
0.0
 36
0.0
 17
0.0
 27
1.0
 37
0.0
 76
     0
330
1F
331
29
  0
MLINESTYLE
  5
18
102
{ACAD_REACTORS
330
17
102
}
330
17
100
AcDbMlineStyle
  2
Standard
 70
     0
  3

 62
   256
 51
90.0
 52
90.0
 71
     2
 49
0.5
 62
   256
  6
BYLAYER
 49
-0.5
 62
   256
  6
BYLAYER
  0
ACDBPLACEHOLDER
  5
F
102
{ACAD_REACTORS
330
E
102
}
330
E
  0
SCALE
  5
48
102
{ACAD_REACTORS
330
47
102
}
330
47
100
AcDbScale
 70
     0
300
1:1
140
1.0
141
1.0
290
     1
  0
SCALE
  5
49
102
{ACAD_REACTORS
330
47
102
}
330
47
100
AcDbScale
 70
     0
300
1:2
140
1.0
141
2.0
290
     0
  0
SCALE
  5
4A
102
{ACAD_REACTORS
330
47
102
}
330
47
100
AcDbScale
 70
     0
300
1:4
140
1.0
141
4.0
290
     0
  0
SCALE
  5
4B
102
{ACAD_REACTORS
330
47
102
}
330
47
100
AcDbScale
 70
     0
300
1:5
140
1.0
141
5.0
290
     0
  0
SCALE
  5
4C
102
{ACAD_REACTORS
330
47
102
}
330
47
100
AcDbScale
 70
     0
300
1:8
140
1.0
141
8.0
290
     0
  0
SCALE
  5
4D
102
{ACAD_REACTORS
330
47
102
}
330
47
100
AcDbScale
 70
     0
300
1:10
140
1.0
141
10.0
290
     0
  0
SCALE
  5
4E
102
{ACAD_REACTORS
330
47
102
}
330
47
100
AcDbScale
 70
     0
300
1:16
140
1.0
141
16.0
290
     0
  0
SCALE
  5
4F
102
{ACAD_REACTORS
330
47
102
}
330
47
100
AcDbScale
 70
     0
300
1:20
140
1.0
141
20.0
290
     0
  0
SCALE
  5
50
102
{ACAD_REACTORS
330
47
102
}
330
47
100
AcDbScale
 70
     0
300
1:30
140
1.0
141
30.0
290
     0
  0
SCALE
  5
51
102
{ACAD_REACTORS
330
47
102
}
330
47
100
AcDbScale
 70
     0
300
1:40
140
1.0
141
40.0
290
     0
  0
SCALE
  5
52
102
{ACAD_REACTORS
330
47
102
}
330
47
100
AcDbScale
 70
     0
300
1:50
140
1.0
141
50.0
290
     0
  0
SCALE
  5
53
102
{ACAD_REACTORS
330
47
102
}
330
47
100
AcDbScale
 70
     0
300
1:100
140
1.0
141
100.0
290
     0
  0
SCALE
  5
54
102
{ACAD_REACTORS
330
47
102
}
330
47
100
AcDbScale
 70
     0
300
2:1
140
2.0
141
1.0
290
     0
  0
SCALE
  5
55
102
{ACAD_REACTORS
330
47
102
}
330
47
100
AcDbScale
 70
     0
300
4:1
140
4.0
141
1.0
290
     0
  0
SCALE
  5
56
102
{ACAD_REACTORS
330
47
102
}
330
47
100
AcDbScale
 70
     0
300
8:1
140
8.0
141
1.0
290
     0
  0
SCALE
  5
57
102
{ACAD_REACTORS
330
47
102
}
330
47
100
AcDbScale
 70
     0
300
10:1
140
10.0
141
1.0
290
     0
  0
SCALE
  5
58
102
{ACAD_REACTORS
330
47
102
}
330
47
100
AcDbScale
 70
     0
300
100:1
140
100.0
141
1.0
290
     0
  0
SCALE
  5
59
102
{ACAD_REACTORS
330
47
102
}
330
47
100
AcDbScale
 70
     0
300
1/128" = 1'-0"
140
0.0078125
141
12.0
290
     0
  0
SCALE
  5
5A
102
{ACAD_REACTORS
330
47
102
}
330
47
100
AcDbScale
 70
     0
300
1/64" = 1'-0"
140
0.015625
141
12.0
290
     0
  0
SCALE
  5
5B
102
{ACAD_REACTORS
330
47
102
}
330
47
100
AcDbScale
 70
     0
300
1/32" = 1'-0"
140
0.03125
141
12.0
290
     0
  0
SCALE
  5
5C
102
{ACAD_REACTORS
330
47
102
}
330
47
100
AcDbScale
 70
     0
300
1/16" = 1'-0"
140
0.0625
141
12.0
290
     0
  0
SCALE
  5
5D
102
{ACAD_REACTORS
330
47
102
}
330
47
100
AcDbScale
 70
     0
300
3/32" = 1'-0"
140
0.09375
141
12.0
290
     0
  0
SCALE
  5
5E
102
{ACAD_REACTORS
330
47
102
}
330
47
100
AcDbScale
 70
     0
300
1/8" = 1'-0"
140
0.125
141
12.0
290
     0
  0
SCALE
  5
5F
102
{ACAD_REACTORS
330
47
102
}
330
47
100
AcDbScale
 70
     0
300
3/16" = 1'-0"
140
0.1875
141
12.0
290
     0
  0
SCALE
  5
60
102
{ACAD_REACTORS
330
47
102
}
330
47
100
AcDbScale
 70
     0
300
1/4" = 1'-0"
140
0.25
141
12.0
290
     0
  0
SCALE
  5
61
102
{ACAD_REACTORS
330
47
102
}
330
47
100
AcDbScale
 70
     0
300
3/8" = 1'-0"
140
0.375
141
12.0
290
     0
  0
SCALE
  5
62
102
{ACAD_REACTORS
330
47
102
}
330
47
100
AcDbScale
 70
     0
300
1/2" = 1'-0"
140
0.5
141
12.0
290
     0
  0
SCALE
  5
63
102
{ACAD_REACTORS
330
47
102
}
330
47
100
AcDbScale
 70
     0
300
3/4" = 1'-0"
140
0.75
141
12.0
290
     0
  0
SCALE
  5
64
102
{ACAD_REACTORS
330
47
102
}
330
47
100
AcDbScale
 70
     0
300
1" = 1'-0"
140
1.0
141
12.0
290
     0
  0
SCALE
  5
65
102
{ACAD_REACTORS
330
47
102
}
330
47
100
AcDbScale
 70
     0
300
1-1/2" = 1'-0"
140
1.5
141
12.0
290
     0
  0
SCALE
  5
66
102
{ACAD_REACTORS
330
47
102
}
330
47
100
AcDbScale
 70
     0
300
3" = 1'-0"
140
3.0
141
12.0
290
     0
  0
SCALE
  5
67
102
{ACAD_REACTORS
330
47
102
}
330
47
100
AcDbScale
 70
     0
300
6" = 1'-0"
140
6.0
141
12.0
290
     0
  0
SCALE
  5
68
102
{ACAD_REACTORS
330
47
102
}
330
47
100
AcDbScale
 70
     0
300
1'-0" = 1'-0"
140
12.0
141
12.0
290
     0
  0
ENDSEC
  0
EOF
