  0
SECTION
  2
HEADER
  9
$ACADVER
  1
AC1015
  9
$ACADMAINTVER
 70
     6
  9
$DWGCODEPAGE
  3
ANSI_1252
  9
$INSBASE
 10
0.0
 20
0.0
 30
0.0
  9
$EXTMIN
 10
57.2723817418
 20
194.3311758399
 30
0.0
  9
$EXTMAX
 10
82.7591882868
 20
220.8234975214
 30
0.0
  9
$LIMMIN
 10
0.0
 20
0.0
  9
$LIMMAX
 10
12.0
 20
9.0
  9
$ORTHOMODE
 70
     0
  9
$REGENMODE
 70
     1
  9
$FILLMODE
 70
     1
  9
$QTEXTMODE
 70
     0
  9
$MIRRTEXT
 70
     1
  9
$LTSCALE
 40
1.0
  9
$ATTMODE
 70
     1
  9
$TEXTSIZE
 40
0.125
  9
$TRACEWID
 40
0.05
  9
$TEXTSTYLE
  7
Standard
  9
$CLAYER
  8
0
  9
$CELTYPE
  6
ByLayer
  9
$CECOLOR
 62
   256
  9
$CELTSCALE
 40
1.0
  9
$DISPSILH
 70
     0
  9
$DIMSCALE
 40
1.0
  9
$DIMASZ
 40
0.13
  9
$DIMEXO
 40
0.0
  9
$DIMDLI
 40
0.38
  9
$DIMRND
 40
0.0
  9
$DIMDLE
 40
0.0
  9
$DIMEXE
 40
0.125
  9
$DIMTP
 40
0.0
  9
$DIMTM
 40
0.0
  9
$DIMTXT
 40
0.125
  9
$DIMCEN
 40
0.09
  9
$DIMTSZ
 40
0.0
  9
$DIMTOL
 70
     0
  9
$DIMLIM
 70
     0
  9
$DIMTIH
 70
     1
  9
$DIMTOH
 70
     1
  9
$DIMSE1
 70
     0
  9
$DIMSE2
 70
     0
  9
$DIMTAD
 70
     0
  9
$DIMZIN
 70
     1
  9
$DIMBLK
  1

  9
$DIMASO
 70
     1
  9
$DIMSHO
 70
     1
  9
$DIMPOST
  1

  9
$DIMAPOST
  1

  9
$DIMALT
 70
     0
  9
$DIMALTD
 70
     2
  9
$DIMALTF
 40
25.4
  9
$DIMLFAC
 40
1.0
  9
$DIMTOFL
 70
     0
  9
$DIMTVP
 40
0.0
  9
$DIMTIX
 70
     0
  9
$DIMSOXD
 70
     0
  9
$DIMSAH
 70
     0
  9
$DIMBLK1
  1

  9
$DIMBLK2
  1

  9
$DIMSTYLE
  2
Standard
  9
$DIMCLRD
 70
     0
  9
$DIMCLRE
 70
     0
  9
$DIMCLRT
 70
     0
  9
$DIMTFAC
 40
1.0
  9
$DIMGAP
 40
0.06
  9
$DIMJUST
 70
     0
  9
$DIMSD1
 70
     0
  9
$DIMSD2
 70
     0
  9
$DIMTOLJ
 70
     1
  9
$DIMTZIN
 70
     1
  9
$DIMALTZ
 70
     0
  9
$DIMALTTZ
 70
     0
  9
$DIMUPT
 70
     0
  9
$DIMDEC
 70
     2
  9
$DIMTDEC
 70
     2
  9
$DIMALTU
 70
     2
  9
$DIMALTTD
 70
     2
  9
$DIMTXSTY
  7
Standard
  9
$DIMAUNIT
 70
     0
  9
$DIMADEC
 70
     2
  9
$DIMALTRND
 40
0.0
  9
$DIMAZIN
 70
     0
  9
$DIMDSEP
 70
    46
  9
$DIMATFIT
 70
     3
  9
$DIMFRAC
 70
     0
  9
$DIMLDRBLK
  1

  9
$DIMLUNIT
 70
     2
  9
$DIMLWD
 70
    -2
  9
$DIMLWE
 70
    -2
  9
$DIMTMOVE
 70
     0
  9
$LUNITS
 70
     2
  9
$LUPREC
 70
     2
  9
$SKETCHINC
 40
0.1
  9
$FILLETRAD
 40
0.5
  9
$AUNITS
 70
     0
  9
$AUPREC
 70
     2
  9
$MENU
  1
.
  9
$ELEVATION
 40
0.0
  9
$PELEVATION
 40
0.0
  9
$THICKNESS
 40
0.0
  9
$LIMCHECK
 70
     0
  9
$CHAMFERA
 40
0.0
  9
$CHAMFERB
 40
0.0
  9
$CHAMFERC
 40
0.0
  9
$CHAMFERD
 40
0.0
  9
$SKPOLY
 70
     0
  9
$TDCREATE
 40
2460052.389731088
  9
$TDUCREATE
 40
2460052.681397755
  9
$TDUPDATE
 40
2460052.38975706
  9
$TDUUPDATE
 40
2460052.681423727
  9
$TDINDWG
 40
0.0000000116
  9
$TDUSRTIMER
 40
0.0000000116
  9
$USRTIMER
 70
     1
  9
$ANGBASE
 50
0.0
  9
$ANGDIR
 70
     0
  9
$PDMODE
 70
     0
  9
$PDSIZE
 40
-1.0
  9
$PLINEWID
 40
0.0
  9
$SPLFRAME
 70
     0
  9
$SPLINETYPE
 70
     6
  9
$SPLINESEGS
 70
     8
  9
$HANDSEED
  5
7D
  9
$SURFTAB1
 70
     6
  9
$SURFTAB2
 70
     6
  9
$SURFTYPE
 70
     6
  9
$SURFU
 70
     6
  9
$SURFV
 70
     6
  9
$UCSBASE
  2

  9
$UCSNAME
  2

  9
$UCSORG
 10
0.0
 20
0.0
 30
0.0
  9
$UCSXDIR
 10
1.0
 20
0.0
 30
0.0
  9
$UCSYDIR
 10
0.0
 20
1.0
 30
0.0
  9
$UCSORTHOREF
  2

  9
$UCSORTHOVIEW
 70
     0
  9
$UCSORGTOP
 10
0.0
 20
0.0
 30
0.0
  9
$UCSORGBOTTOM
 10
0.0
 20
0.0
 30
0.0
  9
$UCSORGLEFT
 10
0.0
 20
0.0
 30
0.0
  9
$UCSORGRIGHT
 10
0.0
 20
0.0
 30
0.0
  9
$UCSORGFRONT
 10
0.0
 20
0.0
 30
0.0
  9
$UCSORGBACK
 10
0.0
 20
0.0
 30
0.0
  9
$PUCSBASE
  2

  9
$PUCSNAME
  2

  9
$PUCSORG
 10
0.0
 20
0.0
 30
0.0
  9
$PUCSXDIR
 10
1.0
 20
0.0
 30
0.0
  9
$PUCSYDIR
 10
0.0
 20
1.0
 30
0.0
  9
$PUCSORTHOREF
  2

  9
$PUCSORTHOVIEW
 70
     0
  9
$PUCSORGTOP
 10
0.0
 20
0.0
 30
0.0
  9
$PUCSORGBOTTOM
 10
0.0
 20
0.0
 30
0.0
  9
$PUCSORGLEFT
 10
0.0
 20
0.0
 30
0.0
  9
$PUCSORGRIGHT
 10
0.0
 20
0.0
 30
0.0
  9
$PUCSORGFRONT
 10
0.0
 20
0.0
 30
0.0
  9
$PUCSORGBACK
 10
0.0
 20
0.0
 30
0.0
  9
$USERI1
 70
     0
  9
$USERI2
 70
     0
  9
$USERI3
 70
     0
  9
$USERI4
 70
     0
  9
$USERI5
 70
     0
  9
$USERR1
 40
0.0
  9
$USERR2
 40
0.0
  9
$USERR3
 40
0.0
  9
$USERR4
 40
0.0
  9
$USERR5
 40
0.0
  9
$WORLDVIEW
 70
     1
  9
$SHADEDGE
 70
     3
  9
$SHADEDIF
 70
    70
  9
$TILEMODE
 70
     1
  9
$MAXACTVP
 70
    64
  9
$PINSBASE
 10
0.0
 20
0.0
 30
0.0
  9
$PLIMCHECK
 70
     0
  9
$PEXTMIN
 10
1.0000000000E+20
 20
1.0000000000E+20
 30
1.0000000000E+20
  9
$PEXTMAX
 10
-1.0000000000E+20
 20
-1.0000000000E+20
 30
-1.0000000000E+20
  9
$PLIMMIN
 10
0.0
 20
0.0
  9
$PLIMMAX
 10
12.0
 20
9.0
  9
$UNITMODE
 70
     0
  9
$VISRETAIN
 70
     1
  9
$PLINEGEN
 70
     0
  9
$PSLTSCALE
 70
     1
  9
$TREEDEPTH
 70
  3020
  9
$CMLSTYLE
  2
Standard
  9
$CMLJUST
 70
     0
  9
$CMLSCALE
 40
1.0
  9
$PROXYGRAPHICS
 70
     1
  9
$MEASUREMENT
 70
     0
  9
$CELWEIGHT
370
    -1
  9
$ENDCAPS
280
     0
  9
$JOINSTYLE
280
     0
  9
$LWDISPLAY
290
     1
  9
$INSUNITS
 70
     1
  9
$HYPERLINKBASE
  1

  9
$STYLESHEET
  1

  9
$XEDIT
290
     1
  9
$CEPSNTYPE
380
     0
  9
$PSTYLEMODE
290
     1
  9
$FINGERPRINTGUID
  2
{7bbba0b9-956d-4249-aaa6-2ebac5884397}
  9
$VERSIONGUID
  2
{FAEB1C32-E019-11D5-929B-00C0DF256EC4}
  9
$EXTNAMES
290
     1
  9
$PSVPSCALE
 40
0.0
  9
$OLESTARTUP
290
     0
  0
ENDSEC
  0
SECTION
  2
CLASSES
  0
CLASS
  1
ACDBDICTIONARYWDFLT
  2
AcDbDictionaryWithDefault
  3
ObjectDBX Classes
 90
        0
280
     0
281
     0
  0
CLASS
  1
VISUALSTYLE
  2
AcDbVisualStyle
  3
ObjectDBX Classes
 90
     4095
280
     0
281
     0
  0
CLASS
  1
MATERIAL
  2
AcDbMaterial
  3
ObjectDBX Classes
 90
     1153
280
     0
281
     0
  0
CLASS
  1
SCALE
  2
AcDbScale
  3
ObjectDBX Classes
 90
     1153
280
     0
281
     0
  0
CLASS
  1
TABLESTYLE
  2
AcDbTableStyle
  3
ObjectDBX Classes
 90
     4095
280
     0
281
     0
  0
CLASS
  1
MLEADERSTYLE
  2
AcDbMLeaderStyle
  3
ACDB_MLEADERSTYLE_CLASS
 90
     4095
280
     0
281
     0
  0
CLASS
  1
SUN
  2
AcDbSun
  3
SCENEOE
 90
     1153
280
     0
281
     0
  0
CLASS
  1
ACDBPLACEHOLDER
  2
AcDbPlaceHolder
  3
ObjectDBX Classes
 90
        0
280
     0
281
     0
  0
CLASS
  1
LAYOUT
  2
AcDbLayout
  3
ObjectDBX Classes
 90
        0
280
     0
281
     0
  0
ENDSEC
  0
SECTION
  2
TABLES
  0
TABLE
  2
VPORT
  5
8
330
0
100
AcDbSymbolTable
 70
     1
  0
VPORT
  5
29
330
8
100
AcDbSymbolTableRecord
100
AcDbViewportTableRecord
  2
*Active
 70
     0
 10
0.0
 20
0.0
 11
1.0
 21
1.0
 12
70.0157850143
 22
207.5773366806
 13
0.0
 23
0.0
 14
0.5
 24
0.5
 15
0.5
 25
0.5
 16
0.0
 26
0.0
 36
1.0
 17
0.0
 27
0.0
 37
0.0
 40
27.0221681151
 41
0.9620450352
 42
50.0
 43
0.0
 44
0.0
 50
0.0
 51
0.0
 71
     0
 72
   100
 73
     1
 74
     3
 75
     0
 76
     0
 77
     0
 78
     0
281
     0
 65
     1
110
0.0
120
0.0
130
0.0
111
1.0
121
0.0
131
0.0
112
0.0
122
1.0
132
0.0
 79
     0
146
0.0
  0
ENDTAB
  0
TABLE
  2
LTYPE
  5
5
330
0
100
AcDbSymbolTable
 70
     6
  0
LTYPE
  5
14
330
5
100
AcDbSymbolTableRecord
100
AcDbLinetypeTableRecord
  2
ByBlock
 70
     0
  3

 72
    65
 73
     0
 40
0.0
  0
LTYPE
  5
15
330
5
100
AcDbSymbolTableRecord
100
AcDbLinetypeTableRecord
  2
ByLayer
 70
     0
  3

 72
    65
 73
     0
 40
0.0
  0
LTYPE
  5
16
330
5
100
AcDbSymbolTableRecord
100
AcDbLinetypeTableRecord
  2
Continuous
 70
     0
  3
Solid line
 72
    65
 73
     0
 40
0.0
  0
LTYPE
  5
6E
330
5
100
AcDbSymbolTableRecord
100
AcDbLinetypeTableRecord
  2
HIDDEN
 70
     0
  3
Hidden __ __ __ __ __ __ __ __ __ __ __ __ __ __
 72
    65
 73
     2
 40
0.075
 49
0.05
 74
     0
 49
-0.025
 74
     0
  0
LTYPE
  5
6F
330
5
100
AcDbSymbolTableRecord
100
AcDbLinetypeTableRecord
  2
PHANTOM
 70
     0
  3
Phantom ______  __  __  ______  __  __  ______
 72
    65
 73
     6
 40
0.5
 49
0.25
 74
     0
 49
-0.05
 74
     0
 49
0.05
 74
     0
 49
-0.05
 74
     0
 49
0.05
 74
     0
 49
-0.05
 74
     0
  0
LTYPE
  5
70
330
5
100
AcDbSymbolTableRecord
100
AcDbLinetypeTableRecord
  2
CENTER
 70
     0
  3
Center ____ _ ____ _ ____ _ ____ _ ____ _ ____
 72
    65
 73
     4
 40
0.4
 49
0.25
 74
     0
 49
-0.05
 74
     0
 49
0.05
 74
     0
 49
-0.05
 74
     0
  0
LTYPE
  5
71
330
5
100
AcDbSymbolTableRecord
100
AcDbLinetypeTableRecord
  2
CENTERX2
 70
     0
  3
Center (2x) ________  __  ________  __  _____
 72
    65
 73
     4
 40
0.8
 49
0.5
 74
     0
 49
-0.1
 74
     0
 49
0.1
 74
     0
 49
-0.1
 74
     0
  0
LTYPE
  5
72
330
5
100
AcDbSymbolTableRecord
100
AcDbLinetypeTableRecord
  2
DOT2
 70
     0
  3
Dot (.5x) ........................................
 72
    65
 73
     2
 40
0.025
 49
0.0
 74
     0
 49
-0.025
 74
     0
  0
ENDTAB
  0
TABLE
  2
LAYER
  5
2
330
0
100
AcDbSymbolTable
 70
     1
  0
LAYER
  5
10
330
2
100
AcDbSymbolTableRecord
100
AcDbLayerTableRecord
  2
0
 70
     0
 62
     7
  6
Continuous
370
    -3
390
F
  0
ENDTAB
  0
TABLE
  2
STYLE
  5
3
330
0
100
AcDbSymbolTable
 70
     2
  0
STYLE
  5
11
330
3
100
AcDbSymbolTableRecord
100
AcDbTextStyleTableRecord
  2
Standard
 70
     0
 40
0.0
 41
1.0
 50
0.0
 71
     0
 42
0.125
  3
txt
  4

  0
STYLE
  5
79
330
3
100
AcDbSymbolTableRecord
100
AcDbTextStyleTableRecord
  2
SLDTEXTSTYLE0
 70
     0
 40
0.0
 41
0.7
 50
0.0
 71
     0
 42
0.125
  3
TXT
  4

  0
ENDTAB
  0
TABLE
  2
VIEW
  5
6
330
0
100
AcDbSymbolTable
 70
     0
  0
ENDTAB
  0
TABLE
  2
UCS
  5
7
330
0
100
AcDbSymbolTable
 70
     0
  0
ENDTAB
  0
TABLE
  2
APPID
  5
9
330
0
100
AcDbSymbolTable
 70
     1
  0
APPID
  5
12
330
9
100
AcDbSymbolTableRecord
100
AcDbRegAppTableRecord
  2
ACAD
 70
     0
  0
ENDTAB
  0
TABLE
  2
DIMSTYLE
  5
A
330
0
100
AcDbSymbolTable
 70
     1
100
AcDbDimStyleTable
  0
DIMSTYLE
105
27
330
A
100
AcDbSymbolTableRecord
100
AcDbDimStyleTableRecord
  2
Standard
 70
     0
178
     0
340
11
  0
ENDTAB
  0
TABLE
  2
BLOCK_RECORD
  5
1
330
0
100
AcDbSymbolTable
 70
     1
  0
BLOCK_RECORD
  5
1F
330
1
100
AcDbSymbolTableRecord
100
AcDbBlockTableRecord
  2
*Model_Space
340
22
  0
BLOCK_RECORD
  5
1B
330
1
100
AcDbSymbolTableRecord
100
AcDbBlockTableRecord
  2
*Paper_Space
340
1E
  0
BLOCK_RECORD
  5
23
330
1
100
AcDbSymbolTableRecord
100
AcDbBlockTableRecord
  2
*Paper_Space0
340
26
  0
ENDTAB
  0
ENDSEC
  0
SECTION
  2
BLOCKS
  0
BLOCK
  5
20
330
1F
100
AcDbEntity
  8
0
100
AcDbBlockBegin
  2
*Model_Space
 70
     0
 10
0.0
 20
0.0
 30
0.0
  3
*Model_Space
  1

  0
ENDBLK
  5
21
330
1F
100
AcDbEntity
  8
0
100
AcDbBlockEnd
  0
BLOCK
  5
1C
330
1B
100
AcDbEntity
 67
     1
  8
0
100
AcDbBlockBegin
  2
*Paper_Space
 70
     0
 10
0.0
 20
0.0
 30
0.0
  3
*Paper_Space
  1

  0
ENDBLK
  5
1D
330
1B
100
AcDbEntity
 67
     1
  8
0
100
AcDbBlockEnd
  0
BLOCK
  5
24
330
23
100
AcDbEntity
  8
0
100
AcDbBlockBegin
  2
*Paper_Space0
 70
     0
 10
0.0
 20
0.0
 30
0.0
  3
*Paper_Space0
  1

  0
ENDBLK
  5
25
330
23
100
AcDbEntity
  8
0
100
AcDbBlockEnd
  0
ENDSEC
  0
SECTION
  2
ENTITIES
  0
SPLINE
  5
73
330
1F
100
AcDbEntity
  8
0
  6
Continuous
 62
     7
370
    25
100
AcDbSpline
210
0.0
220
0.0
230
1.0
 70
     8
 71
     3
 72
    36
 73
    32
 74
     0
 42
0.00000001
 43
0.00000001
 40
0.0
 40
0.0
 40
0.0
 40
0.0
 40
0.0624999999999952
 40
0.0624999999999952
 40
0.1249999999999906
 40
0.1249999999999906
 40
0.1874999999999858
 40
0.1874999999999858
 40
0.218749999999984
 40
0.2343749999999831
 40
0.2343749999999831
 40
0.2499999999999823
 40
0.2499999999999823
 40
0.3124999999999839
 40
0.3124999999999839
 40
0.3437499999999851
 40
0.3593749999999858
 40
0.3593749999999858
 40
0.3749999999999865
 40
0.3749999999999865
 40
0.4999999999999891
 40
0.4999999999999891
 40
0.7499999999999934
 40
0.7499999999999934
 40
0.8749999999999962
 40
0.8749999999999962
 40
0.9374999999999976
 40
0.9374999999999976
 40
0.9687499999999988
 40
0.9687499999999988
 40
1.0
 40
1.0
 40
1.0
 40
1.0
 10
57.29680424437345
 20
194.3311758399717
 30
0.0
 10
57.80926646732889
 20
194.3323025897962
 30
0.0
 10
58.25579389341209
 20
194.3332261835455
 30
0.0
 10
59.16067061165796
 20
194.3349823293821
 30
0.0
 10
59.67900773713407
 20
194.335922472339
 30
0.0
 10
60.56031417182861
 20
194.3374342876425
 30
0.0
 10
61.11025428609749
 20
194.3383229573714
 30
0.0
 10
61.74150806155529
 20
194.3393010463653
 30
0.0
 10
62.07575019064757
 20
194.3398089821912
 30
0.0
 10
62.43791518178496
 20
194.3403452550104
 30
0.0
 10
62.68556358966434
 20
194.3407090673329
 30
0.0
 10
62.86061500179677
 20
194.3409637772805
 30
0.0
 10
63.27013805621129
 20
194.3415565174367
 30
0.0
 10
63.70984247213925
 20
194.3421828561761
 30
0.0
 10
64.67600262954087
 20
194.3435459490252
 30
0.0
 10
65.09397137125961
 20
194.3441374118775
 30
0.0
 10
65.41427310750528
 20
194.3445937493716
 30
0.0
 10
65.60610381934171
 20
194.3448679465102
 30
0.0
 10
65.63339806663474
 20
194.3449066830846
 30
0.0
 10
66.82122528103484
 20
194.3466204521593
 30
0.0
 10
67.59107326961207
 20
194.3477754812585
 30
0.0
 10
70.58256601156714
 20
194.3529715312367
 30
0.0
 10
72.27071732254956
 20
194.356516655502
 30
0.0
 10
75.21555623479273
 20
194.3671706358986
 30
0.0
 10
76.06245923268892
 20
194.3708292159064
 30
0.0
 10
77.553933929355
 20
194.3792691680047
 30
0.0
 10
77.97940557731532
 20
194.3819547983137
 30
0.0
 10
78.71256376314206
 20
194.3872556920672
 30
0.0
 10
78.93329641481733
 20
194.3889548321151
 30
0.0
 10
79.41444777249991
 20
194.3929375431681
 30
0.0
 10
79.594650033805
 20
194.3945167835003
 30
0.0
 10
79.87955940337612
 20
194.3972506792174
 30
0.0
  0
SPLINE
  5
74
330
1F
100
AcDbEntity
  8
0
  6
Continuous
 62
     7
370
    25
100
AcDbSpline
210
0.0
220
0.0
230
1.0
 70
     8
 71
     3
 72
    12
 73
     8
 74
     0
 42
0.00000001
 43
0.00000001
 40
0.0
 40
0.0
 40
0.0
 40
0.0
 40
0.25
 40
0.25
 40
0.5
 40
0.5
 40
1.0
 40
1.0
 40
1.0
 40
1.0
 10
79.87955940337612
 20
194.3972506792174
 30
0.0
 10
80.16802728047469
 20
194.4168451818628
 30
0.0
 10
80.3634947228559
 20
194.4303019364233
 30
0.0
 10
80.83574727363312
 20
194.4633167751917
 30
0.0
 10
81.07690816232706
 20
194.4804527827079
 30
0.0
 10
81.8048951484583
 20
194.5330055647831
 30
0.0
 10
82.23835122929509
 20
194.5653542697158
 30
0.0
 10
82.75918828678489
 20
194.6041743829277
 30
0.0
  0
SPLINE
  5
75
330
1F
100
AcDbEntity
  8
0
  6
Continuous
 62
     7
370
    25
100
AcDbSpline
210
0.0
220
0.0
230
1.0
 70
     8
 71
     3
 72
    36
 73
    32
 74
     0
 42
0.00000001
 43
0.00000001
 40
0.0
 40
0.0
 40
0.0
 40
0.0
 40
0.0312499999999982
 40
0.0312499999999982
 40
0.0468749999999973
 40
0.0468749999999973
 40
0.0546874999999953
 40
0.0546874999999953
 40
0.0624999999999932
 40
0.0624999999999932
 40
0.0781249999999916
 40
0.0781249999999916
 40
0.0937499999999899
 40
0.0937499999999899
 40
0.1249999999999909
 40
0.1249999999999909
 40
0.249999999999995
 40
0.249999999999995
 40
0.499999999999999
 40
0.499999999999999
 40
0.7500000000000031
 40
0.7500000000000031
 40
0.8750000000000033
 40
0.8750000000000033
 40
0.9375000000000033
 40
0.9375000000000033
 40
0.9687500000000016
 40
0.9687500000000016
 40
0.9843750000000008
 40
0.9843750000000008
 40
1.0
 40
1.0
 40
1.0
 40
1.0
 10
82.75918828678488
 20
194.6041743829277
 30
0.0
 10
82.73523957346886
 20
194.9668655388711
 30
0.0
 10
82.72526693177286
 20
195.1232733980135
 30
0.0
 10
82.69607433379933
 20
195.5800306520373
 30
0.0
 10
82.68969967076576
 20
195.6802267184995
 30
0.0
 10
82.67450719578994
 20
195.9193011191675
 30
0.0
 10
82.67480881440838
 20
195.9145841320253
 30
0.0
 10
82.66609261293335
 20
196.0518630791553
 30
0.0
 10
82.66041662493976
 20
196.1412707085147
 30
0.0
 10
82.63943499919093
 20
196.4717980639755
 30
0.0
 10
82.63414836233898
 20
196.5549574874871
 30
0.0
 10
82.62036466036837
 20
196.7716069421057
 30
0.0
 10
82.60909015778789
 20
196.9485162435027
 30
0.0
 10
82.5848123472749
 20
197.3283036130346
 30
0.0
 10
82.56446676290196
 20
197.6446621403293
 30
0.0
 10
82.48203310492552
 20
198.9150496079114
 30
0.0
 10
82.40067126469368
 20
200.1243666534331
 30
0.0
 10
82.1670029794248
 20
203.3283763984293
 30
0.0
 10
81.97250969145283
 20
205.6263952693997
 30
0.0
 10
81.51194785565997
 20
209.9118594474306
 30
0.0
 10
81.2202161967051
 20
212.1154693062074
 30
0.0
 10
80.70900495329487
 20
215.4140703735298
 30
0.0
 10
80.53600212705834
 20
216.4617455277383
 30
0.0
 10
80.24940111062764
 20
218.1275395059499
 30
0.0
 10
80.1615622855092
 20
218.6280439255445
 30
0.0
 10
80.00995819640428
 20
219.4833461322673
 30
0.0
 10
79.96423915401779
 20
219.7399823335979
 30
0.0
 10
79.89192422738704
 20
220.1462628831333
 30
0.0
 10
79.86544316222057
 20
220.2951347596573
 30
0.0
 10
79.82214951676967
 20
220.5391275923758
 30
0.0
 10
79.80347562078231
 20
220.6445144641115
 30
0.0
 10
79.77196530672394
 20
220.8234975213634
 30
0.0
  0
SPLINE
  5
76
330
1F
100
AcDbEntity
  8
0
  6
Continuous
 62
     7
370
    25
100
AcDbSpline
210
0.0
220
0.0
230
1.0
 70
     8
 71
     3
 72
    18
 73
    14
 74
     0
 42
0.00000001
 43
0.00000001
 40
0.0
 40
0.0
 40
0.0
 40
0.0
 40
0.1249999999999913
 40
0.1249999999999913
 40
0.2499999999999828
 40
0.2499999999999828
 40
0.4999999999999858
 40
0.4999999999999858
 40
0.7499999999999889
 40
0.7499999999999889
 40
0.8749999999999944
 40
0.8749999999999944
 40
1.0
 40
1.0
 40
1.0
 40
1.0
 10
79.77196528743445
 20
220.823497517397
 30
0.0
 10
79.59355776369524
 20
220.7868120710046
 30
0.0
 10
79.50267734772646
 20
220.7700879316849
 30
0.0
 10
79.23593612492466
 20
220.7246525708078
 30
0.0
 10
79.09767916134093
 20
220.703657720478
 30
0.0
 10
78.6971892604584
 20
220.6497379867464
 30
0.0
 10
78.41468319613898
 20
220.6215067408256
 30
0.0
 10
77.88318011931895
 20
220.5832364704425
 30
0.0
 10
77.59789462060242
 20
220.5705932881823
 30
0.0
 10
77.19646634534506
 20
220.5608582713052
 30
0.0
 10
77.05290332212029
 20
220.5587930111641
 30
0.0
 10
76.78812574741399
 20
220.5569759524046
 30
0.0
 10
76.69284069836303
 20
220.5568909064158
 30
0.0
 10
76.51070385508933
 20
220.5578472160362
 30
0.0
  0
SPLINE
  5
77
330
1F
100
AcDbEntity
  8
0
  6
Continuous
 62
     7
370
    25
100
AcDbSpline
210
0.0
220
0.0
230
1.0
 70
     8
 71
     3
 72
    35
 73
    31
 74
     0
 42
0.00000001
 43
0.00000001
 40
0.0
 40
0.0
 40
0.0
 40
0.0
 40
0.0312500000000007
 40
0.0312500000000007
 40
0.0625000000000014
 40
0.0625000000000014
 40
0.1250000000000016
 40
0.1250000000000016
 40
0.2500000000000001
 40
0.2500000000000001
 40
0.3749999999999988
 40
0.3749999999999988
 40
0.4374999999999973
 40
0.4374999999999973
 40
0.468749999999996
 40
0.468749999999996
 40
0.4999999999999946
 40
0.4999999999999946
 40
0.5312499999999931
 40
0.5468749999999917
 40
0.5468749999999917
 40
0.5624999999999902
 40
0.5624999999999902
 40
0.5937499999999906
 40
0.5937499999999906
 40
0.6249999999999909
 40
0.6249999999999909
 40
0.7499999999999943
 40
0.7499999999999943
 40
1.0
 40
1.0
 40
1.0
 40
1.0
 10
76.51070357791647
 20
220.5578472176563
 30
0.0
 10
76.26550488712711
 20
220.5592804771672
 30
0.0
 10
76.10165288378019
 20
220.5601089375731
 30
0.0
 10
75.71737449944281
 20
220.5619077586495
 30
0.0
 10
75.49543803579202
 20
220.5628319280622
 30
0.0
 10
74.93408615621567
 20
220.564947984092
 30
0.0
 10
74.48387102985157
 20
220.5662974811477
 30
0.0
 10
73.35004760444748
 20
220.5690734323952
 30
0.0
 10
72.45934328217362
 20
220.5703488817007
 30
0.0
 10
70.94293661069321
 20
220.5716803369315
 30
0.0
 10
70.04464540750844
 20
220.5719906079817
 30
0.0
 10
68.92219788223748
 20
220.572061611254
 30
0.0
 10
68.46041982030016
 20
220.5720263482569
 30
0.0
 10
67.91071580578132
 20
220.571932103578
 30
0.0
 10
67.71889875605542
 20
220.5718910692075
 30
0.0
 10
67.31809990016441
 20
220.5717897615113
 30
0.0
 10
67.06415643156205
 20
220.571715044187
 30
0.0
 10
66.71895143849171
 20
220.5716041465932
 30
0.0
 10
66.43919999919716
 20
220.5715075318787
 30
0.0
 10
66.128177018165
 20
220.5713907548858
 30
0.0
 10
65.91387913264634
 20
220.5713084230509
 30
0.0
 10
65.73303216200746
 20
220.5712369231123
 30
0.0
 10
65.60140808400476
 20
220.571184265228
 30
0.0
 10
65.45733367573425
 20
220.5711252793185
 30
0.0
 10
65.05653481332239
 20
220.5709595461927
 30
0.0
 10
64.7337097858729
 20
220.5708252168277
 30
0.0
 10
63.49896540713009
 20
220.5703099882813
 30
0.0
 10
62.96492777132755
 20
220.5700864443891
 30
0.0
 10
60.31604820970392
 20
220.5693229715464
 30
0.0
 10
58.99607135611681
 20
220.569255664159
 30
0.0
 10
57.2723817418019
 20
220.5702059116851
 30
0.0
  0
SPLINE
  5
78
330
1F
100
AcDbEntity
  8
0
  6
Continuous
 62
     7
370
    25
100
AcDbSpline
210
0.0
220
0.0
230
1.0
 70
     8
 71
     3
 72
    47
 73
    43
 74
     0
 42
0.00000001
 43
0.00000001
 40
0.0
 40
0.0
 40
0.0
 40
0.0
 40
0.0312499999999989
 40
0.0312499999999989
 40
0.0624999999999979
 40
0.0624999999999979
 40
0.0937499999999968
 40
0.0937499999999968
 40
0.1093749999999962
 40
0.1093749999999962
 40
0.1249999999999957
 40
0.1249999999999957
 40
0.1562499999999947
 40
0.1562499999999947
 40
0.1874999999999938
 40
0.1874999999999938
 40
0.2499999999999918
 40
0.2499999999999918
 40
0.374999999999988
 40
0.374999999999988
 40
0.4999999999999842
 40
0.4999999999999842
 40
0.6249999999999803
 40
0.6249999999999803
 40
0.6874999999999785
 40
0.6874999999999785
 40
0.7187499999999777
 40
0.7187499999999777
 40
0.7499999999999768
 40
0.7499999999999768
 40
0.7812499999999759
 40
0.7968749999999775
 40
0.7968749999999775
 40
0.8124999999999791
 40
0.8124999999999791
 40
0.8749999999999853
 40
0.8749999999999853
 40
0.90624999999999
 40
0.90624999999999
 40
0.9374999999999947
 40
0.9374999999999947
 40
1.0
 40
1.0
 40
1.0
 40
1.0
 10
57.27238174179115
 20
220.570205892
 30
0.0
 10
57.27231495535
 20
220.4479489858552
 30
0.0
 10
57.27213110954293
 20
220.0960394347237
 30
0.0
 10
57.27177326574947
 20
219.4044314449722
 30
0.0
 10
57.27166907231136
 20
219.2035885051051
 30
0.0
 10
57.27138084043318
 20
218.6569415616756
 30
0.0
 10
57.27126699649346
 20
218.4409035336778
 30
0.0
 10
57.27100593338123
 20
217.9449901478095
 30
0.0
 10
57.27092685349768
 20
217.7940070500368
 30
0.0
 10
57.27078457603826
 20
217.5206835828581
 30
0.0
 10
57.27074690216038
 20
217.4482386713032
 30
0.0
 10
57.27050456177879
 20
216.9744952399051
 30
0.0
 10
57.27035912223013
 20
216.6799190242345
 30
0.0
 10
57.27010048454441
 20
216.1332720700823
 30
0.0
 10
57.27001399765113
 20
215.9447118286285
 30
0.0
 10
57.26964263161513
 20
215.0617263129589
 30
0.0
 10
57.26947306275581
 20
214.5812814972968
 30
0.0
 10
57.26905182425604
 20
212.8687640956965
 30
0.0
 10
57.26903154703714
 20
211.8368541972296
 30
0.0
 10
57.26971063637613
 20
209.6242663843351
 30
0.0
 10
57.27041730498113
 20
208.5334008248862
 30
0.0
 10
57.27258229693297
 20
206.3679570390678
 30
0.0
 10
57.27414418647639
 20
205.2242846015735
 30
0.0
 10
57.27676294972598
 20
203.644057420015
 30
0.0
 10
57.27784547788309
 20
203.0444962500094
 30
0.0
 10
57.27932608201574
 20
202.2740439759003
 30
0.0
 10
57.27984991496785
 20
202.0089737896655
 30
0.0
 10
57.28095817735453
 20
201.462327894132
 30
0.0
 10
57.28164251635976
 20
201.1336473622872
 30
0.0
 10
57.28267215256196
 20
200.6482000695111
 30
0.0
 10
57.28350694373933
 20
200.2611651933337
 30
0.0
 10
57.28443558095537
 20
199.8397062072636
 30
0.0
 10
57.28507552710801
 20
199.5510837476852
 30
0.0
 10
57.28555195403314
 20
199.3378404204634
 30
0.0
 10
57.28652596019091
 20
198.9035712618477
 30
0.0
 10
57.28786216362074
 20
198.3149064569045
 30
0.0
 10
57.2902706223794
 20
197.2591213930738
 30
0.0
 10
57.29098184718941
 20
196.9464958123109
 30
0.0
 10
57.2922211072569
 20
196.399850198479
 30
0.0
 10
57.29256536579579
 20
196.2478218698805
 30
0.0
 10
57.29442601740102
 20
195.4176949763295
 30
0.0
 10
57.29560520600362
 20
194.877821544348
 30
0.0
 10
57.29680422468846
 20
194.3311758399284
 30
0.0
  0
MTEXT
  5
7A
330
1F
100
AcDbEntity
  8
0
  6
Continuous
 62
     7
100
AcDbMText
 10
57.2723817418
 20
194.2910354308
 30
0.0
 40
0.1903
 41
0.0
 71
     1
 72
     1
  1
SOLIDWORKS Educational Product.
  7
SLDTEXTSTYLE0
 73
     1
 44
1.0
  0
MTEXT
  5
7B
330
1F
100
AcDbEntity
  8
0
  6
Continuous
 62
     7
100
AcDbMText
 10
57.2723817418
 20
194.0055854308
 30
0.0
 40
0.1903
 41
0.0
 71
     1
 72
     1
  1
For Instructional Use Only.
  7
SLDTEXTSTYLE0
 73
     1
 44
1.0
  0
ENDSEC
  0
SECTION
  2
OBJECTS
  0
DICTIONARY
  5
C
330
0
100
AcDbDictionary
281
     1
  3
ACAD_GROUP
350
D
  3
ACAD_LAYOUT
350
1A
  3
ACAD_MLINESTYLE
350
17
  3
ACAD_PLOTSETTINGS
350
19
  3
ACAD_PLOTSTYLENAME
350
E
  3
ACAD_SCALELIST
350
47
  3
DWGPROPS
350
7C
  0
DICTIONARY
  5
D
102
{ACAD_REACTORS
330
C
102
}
330
C
100
AcDbDictionary
281
     1
  0
DICTIONARY
  5
1A
102
{ACAD_REACTORS
330
C
102
}
330
C
100
AcDbDictionary
281
     1
  3
Layout1
350
1E
  3
Layout2
350
26
  3
Model
350
22
  0
DICTIONARY
  5
17
102
{ACAD_REACTORS
330
C
102
}
330
C
100
AcDbDictionary
281
     1
  3
Standard
350
18
  0
DICTIONARY
  5
19
102
{ACAD_REACTORS
330
C
102
}
330
C
100
AcDbDictionary
281
     1
  0
ACDBDICTIONARYWDFLT
  5
E
102
{ACAD_REACTORS
330
C
102
}
330
C
100
AcDbDictionary
281
     1
  3
Normal
350
F
100
AcDbDictionaryWithDefault
340
F
  0
DICTIONARY
  5
47
102
{ACAD_REACTORS
330
C
102
}
330
C
100
AcDbDictionary
281
     1
  3
A0
350
48
  3
A1
350
49
  3
A2
350
4A
  3
A3
350
4B
  3
A4
350
4C
  3
A5
350
4D
  3
A6
350
4E
  3
A7
350
4F
  3
A8
350
50
  3
A9
350
51
  3
B0
350
52
  3
B1
350
53
  3
B2
350
54
  3
B3
350
55
  3
B4
350
56
  3
B5
350
57
  3
B6
350
58
  3
B7
350
59
  3
B8
350
5A
  3
B9
350
5B
  3
C0
350
5C
  3
C1
350
5D
  3
C2
350
5E
  3
C3
350
5F
  3
C4
350
60
  3
C5
350
61
  3
C6
350
62
  3
C7
350
63
  3
C8
350
64
  3
C9
350
65
  3
D0
350
66
  3
D1
350
67
  3
D2
350
68
  0
XRECORD
  5
7C
102
{ACAD_REACTORS
330
C
102
}
330
C
100
AcDbXrecord
280
     1
  1
DWGPROPS COOKIE
  2

  3

  4

  6

  7

  8
lucie
  9

300
=
301
=
302
=
303
=
304
=
305
=
306
=
307
=
308
=
309
=
 40
0.0
 41
2460052.681397755
 42
2460052.681423727
  1

 90
        0
  0
LAYOUT
  5
1E
102
{ACAD_REACTORS
330
1A
102
}
330
1A
100
AcDbPlotSettings
  1

  2
none_device
  4

  6

 40
0.0
 41
0.0
 42
0.0
 43
0.0
 44
0.0
 45
0.0
 46
0.0
 47
0.0
 48
0.0
 49
0.0
140
0.0
141
0.0
142
1.0
143
1.0
 70
   688
 72
     0
 73
     0
 74
     5
  7

 75
    16
147
1.0
148
0.0
149
0.0
100
AcDbLayout
  1
Layout1
 70
     1
 71
     1
 10
0.0
 20
0.0
 11
12.0
 21
9.0
 12
0.0
 22
0.0
 32
0.0
 14
1.0000000000E+20
 24
1.0000000000E+20
 34
1.0000000000E+20
 15
-1.0000000000E+20
 25
-1.0000000000E+20
 35
-1.0000000000E+20
146
0.0
 13
0.0
 23
0.0
 33
0.0
 16
1.0
 26
0.0
 36
0.0
 17
0.0
 27
1.0
 37
0.0
 76
     0
330
1B
  0
LAYOUT
  5
26
102
{ACAD_REACTORS
330
1A
102
}
330
1A
100
AcDbPlotSettings
  1

  2
none_device
  4

  6

 40
0.0
 41
0.0
 42
0.0
 43
0.0
 44
0.0
 45
0.0
 46
0.0
 47
0.0
 48
0.0
 49
0.0
140
0.0
141
0.0
142
1.0
143
1.0
 70
   688
 72
     0
 73
     0
 74
     5
  7

 75
    16
147
1.0
148
0.0
149
0.0
100
AcDbLayout
  1
Layout2
 70
     1
 71
     2
 10
0.0
 20
0.0
 11
0.0
 21
0.0
 12
0.0
 22
0.0
 32
0.0
 14
0.0
 24
0.0
 34
0.0
 15
0.0
 25
0.0
 35
0.0
146
0.0
 13
0.0
 23
0.0
 33
0.0
 16
1.0
 26
0.0
 36
0.0
 17
0.0
 27
1.0
 37
0.0
 76
     0
330
23
  0
LAYOUT
  5
22
102
{ACAD_REACTORS
330
1A
102
}
330
1A
100
AcDbPlotSettings
  1

  2
none_device
  4
ANSI_A_(11.00_x_8.50_Inches)
  6

 40
6.35
 41
19.05
 42
6.35000508
 43
19.05000254
 44
279.4
 45
215.9
 46
-431.5398632586
 47
-1585.8413868296
 48
0.0
 49
0.0
140
0.0
141
0.0
142
0.3176392051
143
1.0
 70
  1696
 72
     0
 73
     0
 74
     0
  7

 75
     0
147
0.5913241897
148
-39.4088153714
149
0.0
100
AcDbLayout
  1
Model
 70
     1
 71
     0
 10
0.0
 20
0.0
 11
12.0
 21
9.0
 12
0.0
 22
0.0
 32
0.0
 14
57.2723817418
 24
194.3311758399
 34
0.0
 15
82.7591882868
 25
220.8234975214
 35
0.0
146
0.0
 13
0.0
 23
0.0
 33
0.0
 16
1.0
 26
0.0
 36
0.0
 17
0.0
 27
1.0
 37
0.0
 76
     0
330
1F
331
29
  0
MLINESTYLE
  5
18
102
{ACAD_REACTORS
330
17
102
}
330
17
100
AcDbMlineStyle
  2
Standard
 70
     0
  3

 62
   256
 51
90.0
 52
90.0
 71
     2
 49
0.5
 62
   256
  6
BYLAYER
 49
-0.5
 62
   256
  6
BYLAYER
  0
ACDBPLACEHOLDER
  5
F
102
{ACAD_REACTORS
330
E
102
}
330
E
  0
SCALE
  5
48
102
{ACAD_REACTORS
330
47
102
}
330
47
100
AcDbScale
 70
     0
300
1:1
140
1.0
141
1.0
290
     1
  0
SCALE
  5
49
102
{ACAD_REACTORS
330
47
102
}
330
47
100
AcDbScale
 70
     0
300
1:2
140
1.0
141
2.0
290
     0
  0
SCALE
  5
4A
102
{ACAD_REACTORS
330
47
102
}
330
47
100
AcDbScale
 70
     0
300
1:4
140
1.0
141
4.0
290
     0
  0
SCALE
  5
4B
102
{ACAD_REACTORS
330
47
102
}
330
47
100
AcDbScale
 70
     0
300
1:5
140
1.0
141
5.0
290
     0
  0
SCALE
  5
4C
102
{ACAD_REACTORS
330
47
102
}
330
47
100
AcDbScale
 70
     0
300
1:8
140
1.0
141
8.0
290
     0
  0
SCALE
  5
4D
102
{ACAD_REACTORS
330
47
102
}
330
47
100
AcDbScale
 70
     0
300
1:10
140
1.0
141
10.0
290
     0
  0
SCALE
  5
4E
102
{ACAD_REACTORS
330
47
102
}
330
47
100
AcDbScale
 70
     0
300
1:16
140
1.0
141
16.0
290
     0
  0
SCALE
  5
4F
102
{ACAD_REACTORS
330
47
102
}
330
47
100
AcDbScale
 70
     0
300
1:20
140
1.0
141
20.0
290
     0
  0
SCALE
  5
50
102
{ACAD_REACTORS
330
47
102
}
330
47
100
AcDbScale
 70
     0
300
1:30
140
1.0
141
30.0
290
     0
  0
SCALE
  5
51
102
{ACAD_REACTORS
330
47
102
}
330
47
100
AcDbScale
 70
     0
300
1:40
140
1.0
141
40.0
290
     0
  0
SCALE
  5
52
102
{ACAD_REACTORS
330
47
102
}
330
47
100
AcDbScale
 70
     0
300
1:50
140
1.0
141
50.0
290
     0
  0
SCALE
  5
53
102
{ACAD_REACTORS
330
47
102
}
330
47
100
AcDbScale
 70
     0
300
1:100
140
1.0
141
100.0
290
     0
  0
SCALE
  5
54
102
{ACAD_REACTORS
330
47
102
}
330
47
100
AcDbScale
 70
     0
300
2:1
140
2.0
141
1.0
290
     0
  0
SCALE
  5
55
102
{ACAD_REACTORS
330
47
102
}
330
47
100
AcDbScale
 70
     0
300
4:1
140
4.0
141
1.0
290
     0
  0
SCALE
  5
56
102
{ACAD_REACTORS
330
47
102
}
330
47
100
AcDbScale
 70
     0
300
8:1
140
8.0
141
1.0
290
     0
  0
SCALE
  5
57
102
{ACAD_REACTORS
330
47
102
}
330
47
100
AcDbScale
 70
     0
300
10:1
140
10.0
141
1.0
290
     0
  0
SCALE
  5
58
102
{ACAD_REACTORS
330
47
102
}
330
47
100
AcDbScale
 70
     0
300
100:1
140
100.0
141
1.0
290
     0
  0
SCALE
  5
59
102
{ACAD_REACTORS
330
47
102
}
330
47
100
AcDbScale
 70
     0
300
1/128" = 1'-0"
140
0.0078125
141
12.0
290
     0
  0
SCALE
  5
5A
102
{ACAD_REACTORS
330
47
102
}
330
47
100
AcDbScale
 70
     0
300
1/64" = 1'-0"
140
0.015625
141
12.0
290
     0
  0
SCALE
  5
5B
102
{ACAD_REACTORS
330
47
102
}
330
47
100
AcDbScale
 70
     0
300
1/32" = 1'-0"
140
0.03125
141
12.0
290
     0
  0
SCALE
  5
5C
102
{ACAD_REACTORS
330
47
102
}
330
47
100
AcDbScale
 70
     0
300
1/16" = 1'-0"
140
0.0625
141
12.0
290
     0
  0
SCALE
  5
5D
102
{ACAD_REACTORS
330
47
102
}
330
47
100
AcDbScale
 70
     0
300
3/32" = 1'-0"
140
0.09375
141
12.0
290
     0
  0
SCALE
  5
5E
102
{ACAD_REACTORS
330
47
102
}
330
47
100
AcDbScale
 70
     0
300
1/8" = 1'-0"
140
0.125
141
12.0
290
     0
  0
SCALE
  5
5F
102
{ACAD_REACTORS
330
47
102
}
330
47
100
AcDbScale
 70
     0
300
3/16" = 1'-0"
140
0.1875
141
12.0
290
     0
  0
SCALE
  5
60
102
{ACAD_REACTORS
330
47
102
}
330
47
100
AcDbScale
 70
     0
300
1/4" = 1'-0"
140
0.25
141
12.0
290
     0
  0
SCALE
  5
61
102
{ACAD_REACTORS
330
47
102
}
330
47
100
AcDbScale
 70
     0
300
3/8" = 1'-0"
140
0.375
141
12.0
290
     0
  0
SCALE
  5
62
102
{ACAD_REACTORS
330
47
102
}
330
47
100
AcDbScale
 70
     0
300
1/2" = 1'-0"
140
0.5
141
12.0
290
     0
  0
SCALE
  5
63
102
{ACAD_REACTORS
330
47
102
}
330
47
100
AcDbScale
 70
     0
300
3/4" = 1'-0"
140
0.75
141
12.0
290
     0
  0
SCALE
  5
64
102
{ACAD_REACTORS
330
47
102
}
330
47
100
AcDbScale
 70
     0
300
1" = 1'-0"
140
1.0
141
12.0
290
     0
  0
SCALE
  5
65
102
{ACAD_REACTORS
330
47
102
}
330
47
100
AcDbScale
 70
     0
300
1-1/2" = 1'-0"
140
1.5
141
12.0
290
     0
  0
SCALE
  5
66
102
{ACAD_REACTORS
330
47
102
}
330
47
100
AcDbScale
 70
     0
300
3" = 1'-0"
140
3.0
141
12.0
290
     0
  0
SCALE
  5
67
102
{ACAD_REACTORS
330
47
102
}
330
47
100
AcDbScale
 70
     0
300
6" = 1'-0"
140
6.0
141
12.0
290
     0
  0
SCALE
  5
68
102
{ACAD_REACTORS
330
47
102
}
330
47
100
AcDbScale
 70
     0
300
1'-0" = 1'-0"
140
12.0
141
12.0
290
     0
  0
ENDSEC
  0
EOF
