  0
SECTION
  2
HEADER
  9
$ACADVER
  1
AC1015
  9
$ACADMAINTVER
 70
     6
  9
$DWGCODEPAGE
  3
ANSI_1252
  9
$INSBASE
 10
0.0
 20
0.0
 30
0.0
  9
$EXTMIN
 10
-114.1591538255
 20
186.6027070996
 30
0.0
  9
$EXTMAX
 10
-86.8437479557
 20
215.5957080667
 30
0.0
  9
$LIMMIN
 10
0.0
 20
0.0
  9
$LIMMAX
 10
12.0
 20
9.0
  9
$ORTHOMODE
 70
     0
  9
$REGENMODE
 70
     1
  9
$FILLMODE
 70
     1
  9
$QTEXTMODE
 70
     0
  9
$MIRRTEXT
 70
     1
  9
$LTSCALE
 40
1.0
  9
$ATTMODE
 70
     1
  9
$TEXTSIZE
 40
0.125
  9
$TRACEWID
 40
0.05
  9
$TEXTSTYLE
  7
Standard
  9
$CLAYER
  8
0
  9
$CELTYPE
  6
ByLayer
  9
$CECOLOR
 62
   256
  9
$CELTSCALE
 40
1.0
  9
$DISPSILH
 70
     0
  9
$DIMSCALE
 40
1.0
  9
$DIMASZ
 40
0.13
  9
$DIMEXO
 40
0.0
  9
$DIMDLI
 40
0.38
  9
$DIMRND
 40
0.0
  9
$DIMDLE
 40
0.0
  9
$DIMEXE
 40
0.125
  9
$DIMTP
 40
0.0
  9
$DIMTM
 40
0.0
  9
$DIMTXT
 40
0.125
  9
$DIMCEN
 40
0.09
  9
$DIMTSZ
 40
0.0
  9
$DIMTOL
 70
     0
  9
$DIMLIM
 70
     0
  9
$DIMTIH
 70
     1
  9
$DIMTOH
 70
     1
  9
$DIMSE1
 70
     0
  9
$DIMSE2
 70
     0
  9
$DIMTAD
 70
     0
  9
$DIMZIN
 70
     1
  9
$DIMBLK
  1

  9
$DIMASO
 70
     1
  9
$DIMSHO
 70
     1
  9
$DIMPOST
  1

  9
$DIMAPOST
  1

  9
$DIMALT
 70
     0
  9
$DIMALTD
 70
     2
  9
$DIMALTF
 40
25.4
  9
$DIMLFAC
 40
1.0
  9
$DIMTOFL
 70
     0
  9
$DIMTVP
 40
0.0
  9
$DIMTIX
 70
     0
  9
$DIMSOXD
 70
     0
  9
$DIMSAH
 70
     0
  9
$DIMBLK1
  1

  9
$DIMBLK2
  1

  9
$DIMSTYLE
  2
Standard
  9
$DIMCLRD
 70
     0
  9
$DIMCLRE
 70
     0
  9
$DIMCLRT
 70
     0
  9
$DIMTFAC
 40
1.0
  9
$DIMGAP
 40
0.06
  9
$DIMJUST
 70
     0
  9
$DIMSD1
 70
     0
  9
$DIMSD2
 70
     0
  9
$DIMTOLJ
 70
     1
  9
$DIMTZIN
 70
     1
  9
$DIMALTZ
 70
     0
  9
$DIMALTTZ
 70
     0
  9
$DIMUPT
 70
     0
  9
$DIMDEC
 70
     2
  9
$DIMTDEC
 70
     2
  9
$DIMALTU
 70
     2
  9
$DIMALTTD
 70
     2
  9
$DIMTXSTY
  7
Standard
  9
$DIMAUNIT
 70
     0
  9
$DIMADEC
 70
     2
  9
$DIMALTRND
 40
0.0
  9
$DIMAZIN
 70
     0
  9
$DIMDSEP
 70
    46
  9
$DIMATFIT
 70
     3
  9
$DIMFRAC
 70
     0
  9
$DIMLDRBLK
  1

  9
$DIMLUNIT
 70
     2
  9
$DIMLWD
 70
    -2
  9
$DIMLWE
 70
    -2
  9
$DIMTMOVE
 70
     0
  9
$LUNITS
 70
     2
  9
$LUPREC
 70
     2
  9
$SKETCHINC
 40
0.1
  9
$FILLETRAD
 40
0.5
  9
$AUNITS
 70
     0
  9
$AUPREC
 70
     2
  9
$MENU
  1
.
  9
$ELEVATION
 40
0.0
  9
$PELEVATION
 40
0.0
  9
$THICKNESS
 40
0.0
  9
$LIMCHECK
 70
     0
  9
$CHAMFERA
 40
0.0
  9
$CHAMFERB
 40
0.0
  9
$CHAMFERC
 40
0.0
  9
$CHAMFERD
 40
0.0
  9
$SKPOLY
 70
     0
  9
$TDCREATE
 40
2460052.401818762
  9
$TDUCREATE
 40
2460052.693485428
  9
$TDUPDATE
 40
2460052.401837002
  9
$TDUUPDATE
 40
2460052.693503669
  9
$TDINDWG
 40
0.0000000116
  9
$TDUSRTIMER
 40
0.0000000116
  9
$USRTIMER
 70
     1
  9
$ANGBASE
 50
0.0
  9
$ANGDIR
 70
     0
  9
$PDMODE
 70
     0
  9
$PDSIZE
 40
-1.0
  9
$PLINEWID
 40
0.0
  9
$SPLFRAME
 70
     0
  9
$SPLINETYPE
 70
     6
  9
$SPLINESEGS
 70
     8
  9
$HANDSEED
  5
7F
  9
$SURFTAB1
 70
     6
  9
$SURFTAB2
 70
     6
  9
$SURFTYPE
 70
     6
  9
$SURFU
 70
     6
  9
$SURFV
 70
     6
  9
$UCSBASE
  2

  9
$UCSNAME
  2

  9
$UCSORG
 10
0.0
 20
0.0
 30
0.0
  9
$UCSXDIR
 10
1.0
 20
0.0
 30
0.0
  9
$UCSYDIR
 10
0.0
 20
1.0
 30
0.0
  9
$UCSORTHOREF
  2

  9
$UCSORTHOVIEW
 70
     0
  9
$UCSORGTOP
 10
0.0
 20
0.0
 30
0.0
  9
$UCSORGBOTTOM
 10
0.0
 20
0.0
 30
0.0
  9
$UCSORGLEFT
 10
0.0
 20
0.0
 30
0.0
  9
$UCSORGRIGHT
 10
0.0
 20
0.0
 30
0.0
  9
$UCSORGFRONT
 10
0.0
 20
0.0
 30
0.0
  9
$UCSORGBACK
 10
0.0
 20
0.0
 30
0.0
  9
$PUCSBASE
  2

  9
$PUCSNAME
  2

  9
$PUCSORG
 10
0.0
 20
0.0
 30
0.0
  9
$PUCSXDIR
 10
1.0
 20
0.0
 30
0.0
  9
$PUCSYDIR
 10
0.0
 20
1.0
 30
0.0
  9
$PUCSORTHOREF
  2

  9
$PUCSORTHOVIEW
 70
     0
  9
$PUCSORGTOP
 10
0.0
 20
0.0
 30
0.0
  9
$PUCSORGBOTTOM
 10
0.0
 20
0.0
 30
0.0
  9
$PUCSORGLEFT
 10
0.0
 20
0.0
 30
0.0
  9
$PUCSORGRIGHT
 10
0.0
 20
0.0
 30
0.0
  9
$PUCSORGFRONT
 10
0.0
 20
0.0
 30
0.0
  9
$PUCSORGBACK
 10
0.0
 20
0.0
 30
0.0
  9
$USERI1
 70
     0
  9
$USERI2
 70
     0
  9
$USERI3
 70
     0
  9
$USERI4
 70
     0
  9
$USERI5
 70
     0
  9
$USERR1
 40
0.0
  9
$USERR2
 40
0.0
  9
$USERR3
 40
0.0
  9
$USERR4
 40
0.0
  9
$USERR5
 40
0.0
  9
$WORLDVIEW
 70
     1
  9
$SHADEDGE
 70
     3
  9
$SHADEDIF
 70
    70
  9
$TILEMODE
 70
     1
  9
$MAXACTVP
 70
    64
  9
$PINSBASE
 10
0.0
 20
0.0
 30
0.0
  9
$PLIMCHECK
 70
     0
  9
$PEXTMIN
 10
1.0000000000E+20
 20
1.0000000000E+20
 30
1.0000000000E+20
  9
$PEXTMAX
 10
-1.0000000000E+20
 20
-1.0000000000E+20
 30
-1.0000000000E+20
  9
$PLIMMIN
 10
0.0
 20
0.0
  9
$PLIMMAX
 10
12.0
 20
9.0
  9
$UNITMODE
 70
     0
  9
$VISRETAIN
 70
     1
  9
$PLINEGEN
 70
     0
  9
$PSLTSCALE
 70
     1
  9
$TREEDEPTH
 70
  3020
  9
$CMLSTYLE
  2
Standard
  9
$CMLJUST
 70
     0
  9
$CMLSCALE
 40
1.0
  9
$PROXYGRAPHICS
 70
     1
  9
$MEASUREMENT
 70
     0
  9
$CELWEIGHT
370
    -1
  9
$ENDCAPS
280
     0
  9
$JOINSTYLE
280
     0
  9
$LWDISPLAY
290
     1
  9
$INSUNITS
 70
     1
  9
$HYPERLINKBASE
  1

  9
$STYLESHEET
  1

  9
$XEDIT
290
     1
  9
$CEPSNTYPE
380
     0
  9
$PSTYLEMODE
290
     1
  9
$FINGERPRINTGUID
  2
{14e630c1-67db-4558-a706-fd2281ce53ee}
  9
$VERSIONGUID
  2
{FAEB1C32-E019-11D5-929B-00C0DF256EC4}
  9
$EXTNAMES
290
     1
  9
$PSVPSCALE
 40
0.0
  9
$OLESTARTUP
290
     0
  0
ENDSEC
  0
SECTION
  2
CLASSES
  0
CLASS
  1
ACDBDICTIONARYWDFLT
  2
AcDbDictionaryWithDefault
  3
ObjectDBX Classes
 90
        0
280
     0
281
     0
  0
CLASS
  1
VISUALSTYLE
  2
AcDbVisualStyle
  3
ObjectDBX Classes
 90
     4095
280
     0
281
     0
  0
CLASS
  1
MATERIAL
  2
AcDbMaterial
  3
ObjectDBX Classes
 90
     1153
280
     0
281
     0
  0
CLASS
  1
SCALE
  2
AcDbScale
  3
ObjectDBX Classes
 90
     1153
280
     0
281
     0
  0
CLASS
  1
TABLESTYLE
  2
AcDbTableStyle
  3
ObjectDBX Classes
 90
     4095
280
     0
281
     0
  0
CLASS
  1
MLEADERSTYLE
  2
AcDbMLeaderStyle
  3
ACDB_MLEADERSTYLE_CLASS
 90
     4095
280
     0
281
     0
  0
CLASS
  1
SUN
  2
AcDbSun
  3
SCENEOE
 90
     1153
280
     0
281
     0
  0
CLASS
  1
ACDBPLACEHOLDER
  2
AcDbPlaceHolder
  3
ObjectDBX Classes
 90
        0
280
     0
281
     0
  0
CLASS
  1
LAYOUT
  2
AcDbLayout
  3
ObjectDBX Classes
 90
        0
280
     0
281
     0
  0
ENDSEC
  0
SECTION
  2
TABLES
  0
TABLE
  2
VPORT
  5
8
330
0
100
AcDbSymbolTable
 70
     1
  0
VPORT
  5
29
330
8
100
AcDbSymbolTableRecord
100
AcDbViewportTableRecord
  2
*Active
 70
     0
 10
0.0
 20
0.0
 11
1.0
 21
1.0
 12
-100.5014508906
 22
201.0992075832
 13
0.0
 23
0.0
 14
0.5
 24
0.5
 15
0.5
 25
0.5
 16
0.0
 26
0.0
 36
1.0
 17
0.0
 27
0.0
 37
0.0
 40
29.5728609865
 41
0.9421379284
 42
50.0
 43
0.0
 44
0.0
 50
0.0
 51
0.0
 71
     0
 72
   100
 73
     1
 74
     3
 75
     0
 76
     0
 77
     0
 78
     0
281
     0
 65
     1
110
0.0
120
0.0
130
0.0
111
1.0
121
0.0
131
0.0
112
0.0
122
1.0
132
0.0
 79
     0
146
0.0
  0
ENDTAB
  0
TABLE
  2
LTYPE
  5
5
330
0
100
AcDbSymbolTable
 70
     6
  0
LTYPE
  5
14
330
5
100
AcDbSymbolTableRecord
100
AcDbLinetypeTableRecord
  2
ByBlock
 70
     0
  3

 72
    65
 73
     0
 40
0.0
  0
LTYPE
  5
15
330
5
100
AcDbSymbolTableRecord
100
AcDbLinetypeTableRecord
  2
ByLayer
 70
     0
  3

 72
    65
 73
     0
 40
0.0
  0
LTYPE
  5
16
330
5
100
AcDbSymbolTableRecord
100
AcDbLinetypeTableRecord
  2
Continuous
 70
     0
  3
Solid line
 72
    65
 73
     0
 40
0.0
  0
LTYPE
  5
6E
330
5
100
AcDbSymbolTableRecord
100
AcDbLinetypeTableRecord
  2
HIDDEN
 70
     0
  3
Hidden __ __ __ __ __ __ __ __ __ __ __ __ __ __
 72
    65
 73
     2
 40
0.075
 49
0.05
 74
     0
 49
-0.025
 74
     0
  0
LTYPE
  5
6F
330
5
100
AcDbSymbolTableRecord
100
AcDbLinetypeTableRecord
  2
PHANTOM
 70
     0
  3
Phantom ______  __  __  ______  __  __  ______
 72
    65
 73
     6
 40
0.5
 49
0.25
 74
     0
 49
-0.05
 74
     0
 49
0.05
 74
     0
 49
-0.05
 74
     0
 49
0.05
 74
     0
 49
-0.05
 74
     0
  0
LTYPE
  5
70
330
5
100
AcDbSymbolTableRecord
100
AcDbLinetypeTableRecord
  2
CENTER
 70
     0
  3
Center ____ _ ____ _ ____ _ ____ _ ____ _ ____
 72
    65
 73
     4
 40
0.4
 49
0.25
 74
     0
 49
-0.05
 74
     0
 49
0.05
 74
     0
 49
-0.05
 74
     0
  0
LTYPE
  5
71
330
5
100
AcDbSymbolTableRecord
100
AcDbLinetypeTableRecord
  2
CENTERX2
 70
     0
  3
Center (2x) ________  __  ________  __  _____
 72
    65
 73
     4
 40
0.8
 49
0.5
 74
     0
 49
-0.1
 74
     0
 49
0.1
 74
     0
 49
-0.1
 74
     0
  0
LTYPE
  5
72
330
5
100
AcDbSymbolTableRecord
100
AcDbLinetypeTableRecord
  2
DOT2
 70
     0
  3
Dot (.5x) ........................................
 72
    65
 73
     2
 40
0.025
 49
0.0
 74
     0
 49
-0.025
 74
     0
  0
ENDTAB
  0
TABLE
  2
LAYER
  5
2
330
0
100
AcDbSymbolTable
 70
     1
  0
LAYER
  5
10
330
2
100
AcDbSymbolTableRecord
100
AcDbLayerTableRecord
  2
0
 70
     0
 62
     7
  6
Continuous
370
    -3
390
F
  0
ENDTAB
  0
TABLE
  2
STYLE
  5
3
330
0
100
AcDbSymbolTable
 70
     2
  0
STYLE
  5
11
330
3
100
AcDbSymbolTableRecord
100
AcDbTextStyleTableRecord
  2
Standard
 70
     0
 40
0.0
 41
1.0
 50
0.0
 71
     0
 42
0.125
  3
txt
  4

  0
STYLE
  5
7B
330
3
100
AcDbSymbolTableRecord
100
AcDbTextStyleTableRecord
  2
SLDTEXTSTYLE0
 70
     0
 40
0.0
 41
0.7
 50
0.0
 71
     0
 42
0.125
  3
TXT
  4

  0
ENDTAB
  0
TABLE
  2
VIEW
  5
6
330
0
100
AcDbSymbolTable
 70
     0
  0
ENDTAB
  0
TABLE
  2
UCS
  5
7
330
0
100
AcDbSymbolTable
 70
     0
  0
ENDTAB
  0
TABLE
  2
APPID
  5
9
330
0
100
AcDbSymbolTable
 70
     1
  0
APPID
  5
12
330
9
100
AcDbSymbolTableRecord
100
AcDbRegAppTableRecord
  2
ACAD
 70
     0
  0
ENDTAB
  0
TABLE
  2
DIMSTYLE
  5
A
330
0
100
AcDbSymbolTable
 70
     1
100
AcDbDimStyleTable
  0
DIMSTYLE
105
27
330
A
100
AcDbSymbolTableRecord
100
AcDbDimStyleTableRecord
  2
Standard
 70
     0
178
     0
340
11
  0
ENDTAB
  0
TABLE
  2
BLOCK_RECORD
  5
1
330
0
100
AcDbSymbolTable
 70
     1
  0
BLOCK_RECORD
  5
1F
330
1
100
AcDbSymbolTableRecord
100
AcDbBlockTableRecord
  2
*Model_Space
340
22
  0
BLOCK_RECORD
  5
1B
330
1
100
AcDbSymbolTableRecord
100
AcDbBlockTableRecord
  2
*Paper_Space
340
1E
  0
BLOCK_RECORD
  5
23
330
1
100
AcDbSymbolTableRecord
100
AcDbBlockTableRecord
  2
*Paper_Space0
340
26
  0
ENDTAB
  0
ENDSEC
  0
SECTION
  2
BLOCKS
  0
BLOCK
  5
20
330
1F
100
AcDbEntity
  8
0
100
AcDbBlockBegin
  2
*Model_Space
 70
     0
 10
0.0
 20
0.0
 30
0.0
  3
*Model_Space
  1

  0
ENDBLK
  5
21
330
1F
100
AcDbEntity
  8
0
100
AcDbBlockEnd
  0
BLOCK
  5
1C
330
1B
100
AcDbEntity
 67
     1
  8
0
100
AcDbBlockBegin
  2
*Paper_Space
 70
     0
 10
0.0
 20
0.0
 30
0.0
  3
*Paper_Space
  1

  0
ENDBLK
  5
1D
330
1B
100
AcDbEntity
 67
     1
  8
0
100
AcDbBlockEnd
  0
BLOCK
  5
24
330
23
100
AcDbEntity
  8
0
100
AcDbBlockBegin
  2
*Paper_Space0
 70
     0
 10
0.0
 20
0.0
 30
0.0
  3
*Paper_Space0
  1

  0
ENDBLK
  5
25
330
23
100
AcDbEntity
  8
0
100
AcDbBlockEnd
  0
ENDSEC
  0
SECTION
  2
ENTITIES
  0
SPLINE
  5
73
330
1F
100
AcDbEntity
  8
0
  6
Continuous
 62
     7
370
    25
100
AcDbSpline
210
0.0
220
0.0
230
1.0
 70
     8
 71
     3
 72
    28
 73
    24
 74
     0
 42
0.00000001
 43
0.00000001
 40
0.0
 40
0.0
 40
0.0
 40
0.0
 40
0.0312500000000001
 40
0.0312500000000001
 40
0.0625000000000001
 40
0.0625000000000001
 40
0.1250000000000002
 40
0.1250000000000002
 40
0.1875000000000003
 40
0.1875000000000003
 40
0.2500000000000004
 40
0.2500000000000004
 40
0.5000000000000004
 40
0.5000000000000004
 40
0.7500000000000003
 40
0.7500000000000003
 40
0.8750000000000002
 40
0.8750000000000002
 40
0.9375000000000001
 40
0.9375000000000001
 40
0.96875
 40
0.96875
 40
1.0
 40
1.0
 40
1.0
 40
1.0
 10
-114.1591538075401
 20
194.271676871504
 30
0.0
 10
-113.928751521618
 20
194.1689720675093
 30
0.0
 10
-113.8033315469782
 20
194.1128585822813
 30
0.0
 10
-113.4685550055484
 20
193.9629127403248
 30
0.0
 10
-113.2761240066612
 20
193.8765325630952
 30
0.0
 10
-112.7871031401642
 20
193.6566434937401
 30
0.0
 10
-112.3882481021745
 20
193.4766947955841
 30
0.0
 10
-111.7484034811521
 20
193.1873520693811
 30
0.0
 10
-111.4145049633089
 20
193.036051114258
 30
0.0
 10
-110.7187555129588
 20
192.7201900199689
 30
0.0
 10
-110.3097299974572
 20
192.5341417993798
 30
0.0
 10
-108.6664672201499
 20
191.785633553706
 30
0.0
 10
-107.1979329869788
 20
191.1136952431007
 30
0.0
 10
-104.4266251438823
 20
189.8398518107356
 30
0.0
 10
-103.0706737021706
 20
189.2140066332757
 30
0.0
 10
-100.9408120962128
 20
188.2229034579724
 30
0.0
 10
-100.2964895165946
 20
187.9219782015589
 30
0.0
 10
-99.2129052077381
 20
187.4130859927597
 30
0.0
 10
-98.88525649493532
 20
187.2587845062916
 30
0.0
 10
-98.35620194509004
 20
187.0087081924522
 30
0.0
 10
-98.1926766504975
 20
186.9312661748827
 30
0.0
 10
-97.84319928983808
 20
186.7653704462684
 30
0.0
 10
-97.73086967280544
 20
186.7119887773271
 30
0.0
 10
-97.50188194730119
 20
186.6027070996061
 30
0.0
  0
SPLINE
  5
74
330
1F
100
AcDbEntity
  8
0
  6
Continuous
 62
     7
370
    25
100
AcDbSpline
210
0.0
220
0.0
230
1.0
 70
     8
 71
     3
 72
    12
 73
     8
 74
     0
 42
0.00000001
 43
0.00000001
 40
0.0
 40
0.0
 40
0.0
 40
0.0
 40
0.2500000000000022
 40
0.2500000000000022
 40
0.5000000000000044
 40
0.5000000000000044
 40
1.0
 40
1.0
 40
1.0
 40
1.0
 10
-97.50188194730119
 20
186.6027070996061
 30
0.0
 10
-97.38679482920033
 20
186.8355859420182
 30
0.0
 10
-97.2983356900206
 20
187.0145923104295
 30
0.0
 10
-97.1355017566514
 20
187.3444905741225
 30
0.0
 10
-97.0239419210983
 20
187.5708237419643
 30
0.0
 10
-96.74987224940634
 20
188.1284118433333
 30
0.0
 10
-96.59068953652685
 20
188.4538599445561
 30
0.0
 10
-96.36751678278765
 20
188.9127411516001
 30
0.0
  0
SPLINE
  5
75
330
1F
100
AcDbEntity
  8
0
  6
Continuous
 62
     7
370
    25
100
AcDbSpline
210
0.0
220
0.0
230
1.0
 70
     8
 71
     3
 72
    53
 73
    49
 74
     0
 42
0.00000001
 43
0.00000001
 40
0.0
 40
0.0
 40
0.0
 40
0.0
 40
0.1249999999999845
 40
0.1249999999999845
 40
0.1874999999999762
 40
0.1874999999999762
 40
0.2499999999999679
 40
0.2499999999999679
 40
0.3749999999999524
 40
0.3749999999999524
 40
0.4062499999999475
 40
0.4062499999999475
 40
0.4374999999999427
 40
0.4374999999999427
 40
0.4531249999999407
 40
0.4531249999999407
 40
0.4687499999999388
 40
0.4999999999999338
 40
0.4999999999999338
 40
0.5624999999999245
 40
0.5624999999999245
 40
0.6249999999999152
 40
0.6249999999999152
 40
0.6874999999999059
 40
0.6874999999999059
 40
0.7031249999999044
 40
0.7031249999999044
 40
0.7187499999999031
 40
0.7499999999999014
 40
0.7499999999999014
 40
0.7578124999999032
 40
0.7578124999999032
 40
0.7656249999999052
 40
0.781249999999912
 40
0.8124999999999245
 40
0.8124999999999245
 40
0.8437499999999372
 40
0.8437499999999372
 40
0.8749999999999497
 40
0.8749999999999497
 40
0.9062499999999623
 40
0.9062499999999623
 40
0.9374999999999749
 40
0.9374999999999749
 40
0.9531249999999811
 40
0.9531249999999811
 40
0.9687499999999875
 40
1.0
 40
1.0
 40
1.0
 40
1.0
 10
-96.36751678278765
 20
188.9127411516001
 30
0.0
 10
-95.94386017613901
 20
189.7840042599595
 30
0.0
 10
-95.62507354508072
 20
190.4422072541593
 30
0.0
 10
-94.98555567442837
 20
191.7631334719069
 30
0.0
 10
-94.82608931452869
 20
192.0926956350763
 30
0.0
 10
-94.40460071143792
 20
192.9640172363419
 30
0.0
 10
-94.2428123832198
 20
193.2985852702912
 30
0.0
 10
-93.61120188004148
 20
194.6049493316728
 30
0.0
 10
-93.29754605394727
 20
195.2539437058166
 30
0.0
 10
-92.7588936808713
 20
196.3685674648888
 30
0.0
 10
-92.6947874113399
 20
196.5012259337494
 30
0.0
 10
-92.50054920573338
 20
196.9031776217988
 30
0.0
 10
-92.39596294911003
 20
197.1196096216148
 30
0.0
 10
-92.22788283344508
 20
197.467441855026
 30
0.0
 10
-92.21696084969113
 20
197.4900446282358
 30
0.0
 10
-92.13708356277463
 20
197.6553475251868
 30
0.0
 10
-92.00433903445902
 20
197.9300579165503
 30
0.0
 10
-91.83280871232043
 20
198.2850364457254
 30
0.0
 10
-91.43803367627967
 20
199.1020176878244
 30
0.0
 10
-91.24705055674796
 20
199.4972517063694
 30
0.0
 10
-90.85858659654635
 20
200.3011610991756
 30
0.0
 10
-90.68625545534242
 20
200.6577895331994
 30
0.0
 10
-90.38539485072833
 20
201.2803938764884
 30
0.0
 10
-90.17558547575136
 20
201.7145716930448
 30
0.0
 10
-89.8974961706285
 20
202.2900426494473
 30
0.0
 10
-89.79099217764636
 20
202.5104393354409
 30
0.0
 10
-89.65672867131512
 20
202.7882809251893
 30
0.0
 10
-89.48319175949374
 20
203.1473940222862
 30
0.0
 10
-89.39322989069892
 20
203.3335592568056
 30
0.0
 10
-89.36469224616226
 20
203.3926148063622
 30
0.0
 10
-89.31313910813472
 20
203.4992985650461
 30
0.0
 10
-89.25761891405224
 20
203.6141921650099
 30
0.0
 10
-89.17607909578103
 20
203.7829312963241
 30
0.0
 10
-88.99800282978228
 20
204.1514470556365
 30
0.0
 10
-88.86625170458466
 20
204.4241024828978
 30
0.0
 10
-88.70914858141425
 20
204.7492295205098
 30
0.0
 10
-88.5729826343668
 20
205.0310334724086
 30
0.0
 10
-88.37876544098236
 20
205.4329953136223
 30
0.0
 10
-88.28849028270625
 20
205.6198410243987
 30
0.0
 10
-88.12160684298598
 20
205.9652620262905
 30
0.0
 10
-87.98912427394482
 20
206.2394945907517
 30
0.0
 10
-87.79494550496989
 20
206.641474995006
 30
0.0
 10
-87.70510462712448
 20
206.8274776434156
 30
0.0
 10
-87.58121607031971
 20
207.0840002854536
 30
0.0
 10
-87.50190196692411
 20
207.2482393638407
 30
0.0
 10
-87.39139519379881
 20
207.4771015468389
 30
0.0
 10
-87.23573854998261
 20
207.7995103786014
 30
0.0
 10
-87.110392453782
 20
208.0592658821591
 30
0.0
 10
-87.0402997441441
 20
208.2045902942177
 30
0.0
  0
SPLINE
  5
76
330
1F
100
AcDbEntity
  8
0
  6
Continuous
 62
     7
370
    25
100
AcDbSpline
210
0.0
220
0.0
230
1.0
 70
     8
 71
     3
 72
     8
 73
     4
 74
     0
 42
0.00000001
 43
0.00000001
 40
0.0
 40
0.0
 40
0.0
 40
0.0
 40
1.0
 40
1.0
 40
1.0
 40
1.0
 10
-87.0402997441441
 20
208.2045902942177
 30
0.0
 10
-86.95182211679074
 20
208.3882872533707
 30
0.0
 10
-86.92991194430333
 20
208.4343164317413
 30
0.0
 10
-86.84374795569873
 20
208.6191099441502
 30
0.0
  0
SPLINE
  5
77
330
1F
100
AcDbEntity
  8
0
  6
Continuous
 62
     7
370
    25
100
AcDbSpline
210
0.0
220
0.0
230
1.0
 70
     8
 71
     3
 72
    24
 73
    20
 74
     0
 42
0.00000001
 43
0.00000001
 40
0.0
 40
0.0
 40
0.0
 40
0.0
 40
0.0624999999999999
 40
0.0624999999999999
 40
0.1249999999999998
 40
0.1249999999999998
 40
0.2499999999999999
 40
0.2499999999999999
 40
0.5
 40
0.5
 40
0.7500000000000002
 40
0.7500000000000002
 40
0.8750000000000031
 40
0.8750000000000031
 40
0.9375000000000043
 40
0.9375000000000043
 40
0.9687500000000022
 40
0.9687500000000022
 40
1.0
 40
1.0
 40
1.0
 40
1.0
 10
-86.8437479736525
 20
208.619109952227
 30
0.0
 10
-87.26528275137882
 20
208.8087435685321
 30
0.0
 10
-87.54063723836619
 20
208.9320968165021
 30
0.0
 10
-88.24547487807797
 20
209.2461638518172
 30
0.0
 10
-88.5927074836757
 20
209.4000093485172
 30
0.0
 10
-89.64741035417961
 20
209.8645629182994
 30
0.0
 10
-90.35057407136212
 20
210.1705894415328
 30
0.0
 10
-92.45716210174683
 20
211.0763619787443
 30
0.0
 10
-93.88130958957792
 20
211.6737831062813
 30
0.0
 10
-96.70574713861221
 20
212.8304158265968
 30
0.0
 10
-98.11262862873178
 20
213.39289345705
 30
0.0
 10
-100.2896304348988
 20
214.2424399762683
 30
0.0
 10
-100.9876482497694
 20
214.5116908751782
 30
0.0
 10
-102.0704224787375
 20
214.9240813248184
 30
0.0
 10
-102.4285107476361
 20
215.0595723663589
 30
0.0
 10
-102.9630383655527
 20
215.2604703777918
 30
0.0
 10
-103.1479310370094
 20
215.3297191225599
 30
0.0
 10
-103.4985072844279
 20
215.4605959513619
 30
0.0
 10
-103.6396967456859
 20
215.5131303502922
 30
0.0
 10
-103.8619876075707
 20
215.5957080667157
 30
0.0
  0
SPLINE
  5
78
330
1F
100
AcDbEntity
  8
0
  6
Continuous
 62
     7
370
    25
100
AcDbSpline
210
0.0
220
0.0
230
1.0
 70
     8
 71
     3
 72
     8
 73
     4
 74
     0
 42
0.00000001
 43
0.00000001
 40
0.0
 40
0.0
 40
0.0
 40
0.0
 40
1.0
 40
1.0
 40
1.0
 40
1.0
 10
-103.8619876152269
 20
215.5957080485605
 30
0.0
 10
-103.9346964272901
 20
215.4232946053558
 30
0.0
 10
-103.9542429835238
 20
215.3807317210147
 30
0.0
 10
-104.0350944859278
 20
215.2119839277708
 30
0.0
  0
SPLINE
  5
79
330
1F
100
AcDbEntity
  8
0
  6
Continuous
 62
     7
370
    25
100
AcDbSpline
210
0.0
220
0.0
230
1.0
 70
     8
 71
     3
 72
    40
 73
    36
 74
     0
 42
0.00000001
 43
0.00000001
 40
0.0
 40
0.0
 40
0.0
 40
0.0
 40
0.0312499999999992
 40
0.0312499999999992
 40
0.0624999999999984
 40
0.0624999999999984
 40
0.0937499999999978
 40
0.0937499999999978
 40
0.1249999999999971
 40
0.1249999999999971
 40
0.1874999999999972
 40
0.2187499999999966
 40
0.2343749999999968
 40
0.2343749999999968
 40
0.249999999999997
 40
0.249999999999997
 40
0.3749999999999991
 40
0.3749999999999991
 40
0.4374999999999989
 40
0.4687499999999999
 40
0.4843749999999983
 40
0.4843749999999983
 40
0.4999999999999968
 40
0.4999999999999968
 40
0.5624999999999968
 40
0.5937499999999968
 40
0.5937499999999968
 40
0.6249999999999968
 40
0.6249999999999968
 40
0.6874999999999968
 40
0.7187499999999968
 40
0.7187499999999968
 40
0.7499999999999968
 40
0.7499999999999968
 40
1.0
 40
1.0
 40
1.0
 40
1.0
 10
-104.0350948349515
 20
215.2119832035332
 30
0.0
 10
-104.1298722816385
 20
215.015316312308
 30
0.0
 10
-104.2295285745313
 20
214.8083916678477
 30
0.0
 10
-104.3933115126371
 20
214.4682317341253
 30
0.0
 10
-104.5092687294733
 20
214.2273398787806
 30
0.0
 10
-104.6659471331092
 20
213.9018080836558
 30
0.0
 10
-104.7511338169243
 20
213.7247953077501
 30
0.0
 10
-104.9352021485487
 20
213.3422759992519
 30
0.0
 10
-105.070801457511
 20
213.0604534003556
 30
0.0
 10
-105.2778355085308
 20
212.6301421041882
 30
0.0
 10
-105.5193703286969
 20
212.1280808933496
 30
0.0
 10
-105.8615372982302
 20
211.4167804633637
 30
0.0
 10
-106.0211180736027
 20
211.0850312039395
 30
0.0
 10
-106.1303803212802
 20
210.8578858714342
 30
0.0
 10
-106.215381355937
 20
210.6811749904256
 30
0.0
 10
-106.4725442000428
 20
210.1465492632296
 30
0.0
 10
-106.8363474219761
 20
209.3902057222501
 30
0.0
 10
-107.603821475548
 20
207.7946158570266
 30
0.0
 10
-107.9336930779472
 20
207.1088058457276
 30
0.0
 10
-108.2242787880692
 20
206.504667778176
 30
0.0
 10
-108.3286159868336
 20
206.2877458090034
 30
0.0
 10
-108.3936853339776
 20
206.1524632396643
 30
0.0
 10
-108.3953063126846
 20
206.149093319084
 30
0.0
 10
-108.6788827925118
 20
205.5595195536058
 30
0.0
 10
-108.9870231216009
 20
204.918858564489
 30
0.0
 10
-109.2469362806349
 20
204.3784388695578
 30
0.0
 10
-109.4094945710898
 20
204.0404349160893
 30
0.0
 10
-109.4488120335371
 20
203.9586831145817
 30
0.0
 10
-109.770307499147
 20
203.2901676375602
 30
0.0
 10
-110.0690150269188
 20
202.6689764980692
 30
0.0
 10
-110.3335406479334
 20
202.118771864874
 30
0.0
 10
-110.5022950826639
 20
201.7677435552542
 30
0.0
 10
-110.5607115404119
 20
201.6462252812076
 30
0.0
 10
-111.4512077966164
 20
199.7935940978911
 30
0.0
 10
-112.1137340311673
 20
198.4156992450332
 30
0.0
 10
-112.8634258629683
 20
196.8477210001535
 30
0.0
  0
SPLINE
  5
7A
330
1F
100
AcDbEntity
  8
0
  6
Continuous
 62
     7
370
    25
100
AcDbSpline
210
0.0
220
0.0
230
1.0
 70
     8
 71
     3
 72
    16
 73
    12
 74
     0
 42
0.00000001
 43
0.00000001
 40
0.0
 40
0.0
 40
0.0
 40
0.0
 40
0.2499999999999997
 40
0.2499999999999997
 40
0.4999999999999994
 40
0.4999999999999994
 40
0.7499999999999992
 40
0.7499999999999992
 40
0.8749999999999996
 40
0.8749999999999996
 40
1.0
 40
1.0
 40
1.0
 40
1.0
 10
-112.8634459808871
 20
196.8476789692239
 30
0.0
 10
-113.0017235889887
 20
196.5587854927959
 30
0.0
 10
-113.0747773745035
 20
196.4097125137049
 30
0.0
 10
-113.2824938571044
 20
195.9889636786044
 30
0.0
 10
-113.397028371103
 20
195.7602421967504
 30
0.0
 10
-113.6051159044556
 20
195.3488675998562
 30
0.0
 10
-113.7295996973977
 20
195.105270288114
 30
0.0
 10
-113.878249925484
 20
194.8159530337924
 30
0.0
 10
-113.9435424842403
 20
194.689207674808
 30
0.0
 10
-114.0439238460246
 20
194.494661503162
 30
0.0
 10
-114.0783325111342
 20
194.4280668391875
 30
0.0
 10
-114.1591538255497
 20
194.271676879532
 30
0.0
  0
MTEXT
  5
7C
330
1F
100
AcDbEntity
  8
0
  6
Continuous
 62
     7
100
AcDbMText
 10
-114.1591538255
 20
186.5625666905
 30
0.0
 40
0.1903
 41
0.0
 71
     1
 72
     1
  1
SOLIDWORKS Educational Product.
  7
SLDTEXTSTYLE0
 73
     1
 44
1.0
  0
MTEXT
  5
7D
330
1F
100
AcDbEntity
  8
0
  6
Continuous
 62
     7
100
AcDbMText
 10
-114.1591538255
 20
186.2771166905
 30
0.0
 40
0.1903
 41
0.0
 71
     1
 72
     1
  1
For Instructional Use Only.
  7
SLDTEXTSTYLE0
 73
     1
 44
1.0
  0
ENDSEC
  0
SECTION
  2
OBJECTS
  0
DICTIONARY
  5
C
330
0
100
AcDbDictionary
281
     1
  3
ACAD_GROUP
350
D
  3
ACAD_LAYOUT
350
1A
  3
ACAD_MLINESTYLE
350
17
  3
ACAD_PLOTSETTINGS
350
19
  3
ACAD_PLOTSTYLENAME
350
E
  3
ACAD_SCALELIST
350
47
  3
DWGPROPS
350
7E
  0
DICTIONARY
  5
D
102
{ACAD_REACTORS
330
C
102
}
330
C
100
AcDbDictionary
281
     1
  0
DICTIONARY
  5
1A
102
{ACAD_REACTORS
330
C
102
}
330
C
100
AcDbDictionary
281
     1
  3
Layout1
350
1E
  3
Layout2
350
26
  3
Model
350
22
  0
DICTIONARY
  5
17
102
{ACAD_REACTORS
330
C
102
}
330
C
100
AcDbDictionary
281
     1
  3
Standard
350
18
  0
DICTIONARY
  5
19
102
{ACAD_REACTORS
330
C
102
}
330
C
100
AcDbDictionary
281
     1
  0
ACDBDICTIONARYWDFLT
  5
E
102
{ACAD_REACTORS
330
C
102
}
330
C
100
AcDbDictionary
281
     1
  3
Normal
350
F
100
AcDbDictionaryWithDefault
340
F
  0
DICTIONARY
  5
47
102
{ACAD_REACTORS
330
C
102
}
330
C
100
AcDbDictionary
281
     1
  3
A0
350
48
  3
A1
350
49
  3
A2
350
4A
  3
A3
350
4B
  3
A4
350
4C
  3
A5
350
4D
  3
A6
350
4E
  3
A7
350
4F
  3
A8
350
50
  3
A9
350
51
  3
B0
350
52
  3
B1
350
53
  3
B2
350
54
  3
B3
350
55
  3
B4
350
56
  3
B5
350
57
  3
B6
350
58
  3
B7
350
59
  3
B8
350
5A
  3
B9
350
5B
  3
C0
350
5C
  3
C1
350
5D
  3
C2
350
5E
  3
C3
350
5F
  3
C4
350
60
  3
C5
350
61
  3
C6
350
62
  3
C7
350
63
  3
C8
350
64
  3
C9
350
65
  3
D0
350
66
  3
D1
350
67
  3
D2
350
68
  0
XRECORD
  5
7E
102
{ACAD_REACTORS
330
C
102
}
330
C
100
AcDbXrecord
280
     1
  1
DWGPROPS COOKIE
  2

  3

  4

  6

  7

  8
lucie
  9

300
=
301
=
302
=
303
=
304
=
305
=
306
=
307
=
308
=
309
=
 40
0.0
 41
2460052.693485428
 42
2460052.693503669
  1

 90
        0
  0
LAYOUT
  5
1E
102
{ACAD_REACTORS
330
1A
102
}
330
1A
100
AcDbPlotSettings
  1

  2
none_device
  4

  6

 40
0.0
 41
0.0
 42
0.0
 43
0.0
 44
0.0
 45
0.0
 46
0.0
 47
0.0
 48
0.0
 49
0.0
140
0.0
141
0.0
142
1.0
143
1.0
 70
   688
 72
     0
 73
     0
 74
     5
  7

 75
    16
147
1.0
148
0.0
149
0.0
100
AcDbLayout
  1
Layout1
 70
     1
 71
     1
 10
0.0
 20
0.0
 11
12.0
 21
9.0
 12
0.0
 22
0.0
 32
0.0
 14
1.0000000000E+20
 24
1.0000000000E+20
 34
1.0000000000E+20
 15
-1.0000000000E+20
 25
-1.0000000000E+20
 35
-1.0000000000E+20
146
0.0
 13
0.0
 23
0.0
 33
0.0
 16
1.0
 26
0.0
 36
0.0
 17
0.0
 27
1.0
 37
0.0
 76
     0
330
1B
  0
LAYOUT
  5
26
102
{ACAD_REACTORS
330
1A
102
}
330
1A
100
AcDbPlotSettings
  1

  2
none_device
  4

  6

 40
0.0
 41
0.0
 42
0.0
 43
0.0
 44
0.0
 45
0.0
 46
0.0
 47
0.0
 48
0.0
 49
0.0
140
0.0
141
0.0
142
1.0
143
1.0
 70
   688
 72
     0
 73
     0
 74
     5
  7

 75
    16
147
1.0
148
0.0
149
0.0
100
AcDbLayout
  1
Layout2
 70
     1
 71
     2
 10
0.0
 20
0.0
 11
0.0
 21
0.0
 12
0.0
 22
0.0
 32
0.0
 14
0.0
 24
0.0
 34
0.0
 15
0.0
 25
0.0
 35
0.0
146
0.0
 13
0.0
 23
0.0
 33
0.0
 16
1.0
 26
0.0
 36
0.0
 17
0.0
 27
1.0
 37
0.0
 76
     0
330
23
  0
LAYOUT
  5
22
102
{ACAD_REACTORS
330
1A
102
}
330
1A
100
AcDbPlotSettings
  1

  2
none_device
  4
ANSI_A_(11.00_x_8.50_Inches)
  6

 40
6.35
 41
19.05
 42
6.35000508
 43
19.05000254
 44
279.4
 45
215.9
 46
874.2626280353
 47
-1393.6352440616
 48
0.0
 49
0.0
140
0.0
141
0.0
142
0.2902424626
143
1.0
 70
  1696
 72
     0
 73
     0
 74
     0
  7

 75
     0
147
0.5913241897
148
-39.4088153714
149
0.0
100
AcDbLayout
  1
Model
 70
     1
 71
     0
 10
0.0
 20
0.0
 11
12.0
 21
9.0
 12
0.0
 22
0.0
 32
0.0
 14
-114.1591538255
 24
186.6027070996
 34
0.0
 15
-86.8437479557
 25
215.5957080667
 35
0.0
146
0.0
 13
0.0
 23
0.0
 33
0.0
 16
1.0
 26
0.0
 36
0.0
 17
0.0
 27
1.0
 37
0.0
 76
     0
330
1F
331
29
  0
MLINESTYLE
  5
18
102
{ACAD_REACTORS
330
17
102
}
330
17
100
AcDbMlineStyle
  2
Standard
 70
     0
  3

 62
   256
 51
90.0
 52
90.0
 71
     2
 49
0.5
 62
   256
  6
BYLAYER
 49
-0.5
 62
   256
  6
BYLAYER
  0
ACDBPLACEHOLDER
  5
F
102
{ACAD_REACTORS
330
E
102
}
330
E
  0
SCALE
  5
48
102
{ACAD_REACTORS
330
47
102
}
330
47
100
AcDbScale
 70
     0
300
1:1
140
1.0
141
1.0
290
     1
  0
SCALE
  5
49
102
{ACAD_REACTORS
330
47
102
}
330
47
100
AcDbScale
 70
     0
300
1:2
140
1.0
141
2.0
290
     0
  0
SCALE
  5
4A
102
{ACAD_REACTORS
330
47
102
}
330
47
100
AcDbScale
 70
     0
300
1:4
140
1.0
141
4.0
290
     0
  0
SCALE
  5
4B
102
{ACAD_REACTORS
330
47
102
}
330
47
100
AcDbScale
 70
     0
300
1:5
140
1.0
141
5.0
290
     0
  0
SCALE
  5
4C
102
{ACAD_REACTORS
330
47
102
}
330
47
100
AcDbScale
 70
     0
300
1:8
140
1.0
141
8.0
290
     0
  0
SCALE
  5
4D
102
{ACAD_REACTORS
330
47
102
}
330
47
100
AcDbScale
 70
     0
300
1:10
140
1.0
141
10.0
290
     0
  0
SCALE
  5
4E
102
{ACAD_REACTORS
330
47
102
}
330
47
100
AcDbScale
 70
     0
300
1:16
140
1.0
141
16.0
290
     0
  0
SCALE
  5
4F
102
{ACAD_REACTORS
330
47
102
}
330
47
100
AcDbScale
 70
     0
300
1:20
140
1.0
141
20.0
290
     0
  0
SCALE
  5
50
102
{ACAD_REACTORS
330
47
102
}
330
47
100
AcDbScale
 70
     0
300
1:30
140
1.0
141
30.0
290
     0
  0
SCALE
  5
51
102
{ACAD_REACTORS
330
47
102
}
330
47
100
AcDbScale
 70
     0
300
1:40
140
1.0
141
40.0
290
     0
  0
SCALE
  5
52
102
{ACAD_REACTORS
330
47
102
}
330
47
100
AcDbScale
 70
     0
300
1:50
140
1.0
141
50.0
290
     0
  0
SCALE
  5
53
102
{ACAD_REACTORS
330
47
102
}
330
47
100
AcDbScale
 70
     0
300
1:100
140
1.0
141
100.0
290
     0
  0
SCALE
  5
54
102
{ACAD_REACTORS
330
47
102
}
330
47
100
AcDbScale
 70
     0
300
2:1
140
2.0
141
1.0
290
     0
  0
SCALE
  5
55
102
{ACAD_REACTORS
330
47
102
}
330
47
100
AcDbScale
 70
     0
300
4:1
140
4.0
141
1.0
290
     0
  0
SCALE
  5
56
102
{ACAD_REACTORS
330
47
102
}
330
47
100
AcDbScale
 70
     0
300
8:1
140
8.0
141
1.0
290
     0
  0
SCALE
  5
57
102
{ACAD_REACTORS
330
47
102
}
330
47
100
AcDbScale
 70
     0
300
10:1
140
10.0
141
1.0
290
     0
  0
SCALE
  5
58
102
{ACAD_REACTORS
330
47
102
}
330
47
100
AcDbScale
 70
     0
300
100:1
140
100.0
141
1.0
290
     0
  0
SCALE
  5
59
102
{ACAD_REACTORS
330
47
102
}
330
47
100
AcDbScale
 70
     0
300
1/128" = 1'-0"
140
0.0078125
141
12.0
290
     0
  0
SCALE
  5
5A
102
{ACAD_REACTORS
330
47
102
}
330
47
100
AcDbScale
 70
     0
300
1/64" = 1'-0"
140
0.015625
141
12.0
290
     0
  0
SCALE
  5
5B
102
{ACAD_REACTORS
330
47
102
}
330
47
100
AcDbScale
 70
     0
300
1/32" = 1'-0"
140
0.03125
141
12.0
290
     0
  0
SCALE
  5
5C
102
{ACAD_REACTORS
330
47
102
}
330
47
100
AcDbScale
 70
     0
300
1/16" = 1'-0"
140
0.0625
141
12.0
290
     0
  0
SCALE
  5
5D
102
{ACAD_REACTORS
330
47
102
}
330
47
100
AcDbScale
 70
     0
300
3/32" = 1'-0"
140
0.09375
141
12.0
290
     0
  0
SCALE
  5
5E
102
{ACAD_REACTORS
330
47
102
}
330
47
100
AcDbScale
 70
     0
300
1/8" = 1'-0"
140
0.125
141
12.0
290
     0
  0
SCALE
  5
5F
102
{ACAD_REACTORS
330
47
102
}
330
47
100
AcDbScale
 70
     0
300
3/16" = 1'-0"
140
0.1875
141
12.0
290
     0
  0
SCALE
  5
60
102
{ACAD_REACTORS
330
47
102
}
330
47
100
AcDbScale
 70
     0
300
1/4" = 1'-0"
140
0.25
141
12.0
290
     0
  0
SCALE
  5
61
102
{ACAD_REACTORS
330
47
102
}
330
47
100
AcDbScale
 70
     0
300
3/8" = 1'-0"
140
0.375
141
12.0
290
     0
  0
SCALE
  5
62
102
{ACAD_REACTORS
330
47
102
}
330
47
100
AcDbScale
 70
     0
300
1/2" = 1'-0"
140
0.5
141
12.0
290
     0
  0
SCALE
  5
63
102
{ACAD_REACTORS
330
47
102
}
330
47
100
AcDbScale
 70
     0
300
3/4" = 1'-0"
140
0.75
141
12.0
290
     0
  0
SCALE
  5
64
102
{ACAD_REACTORS
330
47
102
}
330
47
100
AcDbScale
 70
     0
300
1" = 1'-0"
140
1.0
141
12.0
290
     0
  0
SCALE
  5
65
102
{ACAD_REACTORS
330
47
102
}
330
47
100
AcDbScale
 70
     0
300
1-1/2" = 1'-0"
140
1.5
141
12.0
290
     0
  0
SCALE
  5
66
102
{ACAD_REACTORS
330
47
102
}
330
47
100
AcDbScale
 70
     0
300
3" = 1'-0"
140
3.0
141
12.0
290
     0
  0
SCALE
  5
67
102
{ACAD_REACTORS
330
47
102
}
330
47
100
AcDbScale
 70
     0
300
6" = 1'-0"
140
6.0
141
12.0
290
     0
  0
SCALE
  5
68
102
{ACAD_REACTORS
330
47
102
}
330
47
100
AcDbScale
 70
     0
300
1'-0" = 1'-0"
140
12.0
141
12.0
290
     0
  0
ENDSEC
  0
EOF
