  0
SECTION
  2
HEADER
  9
$ACADVER
  1
AC1015
  9
$ACADMAINTVER
 70
     6
  9
$DWGCODEPAGE
  3
ANSI_1252
  9
$INSBASE
 10
0.0
 20
0.0
 30
0.0
  9
$EXTMIN
 10
-79.5115739414
 20
171.2582900708
 30
0.0
  9
$EXTMAX
 10
-51.5002574664
 20
202.2787165542
 30
0.0
  9
$LIMMIN
 10
0.0
 20
0.0
  9
$LIMMAX
 10
12.0
 20
9.0
  9
$ORTHOMODE
 70
     0
  9
$REGENMODE
 70
     1
  9
$FILLMODE
 70
     1
  9
$QTEXTMODE
 70
     0
  9
$MIRRTEXT
 70
     1
  9
$LTSCALE
 40
1.0
  9
$ATTMODE
 70
     1
  9
$TEXTSIZE
 40
0.125
  9
$TRACEWID
 40
0.05
  9
$TEXTSTYLE
  7
Standard
  9
$CLAYER
  8
0
  9
$CELTYPE
  6
ByLayer
  9
$CECOLOR
 62
   256
  9
$CELTSCALE
 40
1.0
  9
$DISPSILH
 70
     0
  9
$DIMSCALE
 40
1.0
  9
$DIMASZ
 40
0.13
  9
$DIMEXO
 40
0.0
  9
$DIMDLI
 40
0.38
  9
$DIMRND
 40
0.0
  9
$DIMDLE
 40
0.0
  9
$DIMEXE
 40
0.125
  9
$DIMTP
 40
0.0
  9
$DIMTM
 40
0.0
  9
$DIMTXT
 40
0.125
  9
$DIMCEN
 40
0.09
  9
$DIMTSZ
 40
0.0
  9
$DIMTOL
 70
     0
  9
$DIMLIM
 70
     0
  9
$DIMTIH
 70
     1
  9
$DIMTOH
 70
     1
  9
$DIMSE1
 70
     0
  9
$DIMSE2
 70
     0
  9
$DIMTAD
 70
     0
  9
$DIMZIN
 70
     1
  9
$DIMBLK
  1

  9
$DIMASO
 70
     1
  9
$DIMSHO
 70
     1
  9
$DIMPOST
  1

  9
$DIMAPOST
  1

  9
$DIMALT
 70
     0
  9
$DIMALTD
 70
     2
  9
$DIMALTF
 40
25.4
  9
$DIMLFAC
 40
1.0
  9
$DIMTOFL
 70
     0
  9
$DIMTVP
 40
0.0
  9
$DIMTIX
 70
     0
  9
$DIMSOXD
 70
     0
  9
$DIMSAH
 70
     0
  9
$DIMBLK1
  1

  9
$DIMBLK2
  1

  9
$DIMSTYLE
  2
Standard
  9
$DIMCLRD
 70
     0
  9
$DIMCLRE
 70
     0
  9
$DIMCLRT
 70
     0
  9
$DIMTFAC
 40
1.0
  9
$DIMGAP
 40
0.06
  9
$DIMJUST
 70
     0
  9
$DIMSD1
 70
     0
  9
$DIMSD2
 70
     0
  9
$DIMTOLJ
 70
     1
  9
$DIMTZIN
 70
     1
  9
$DIMALTZ
 70
     0
  9
$DIMALTTZ
 70
     0
  9
$DIMUPT
 70
     0
  9
$DIMDEC
 70
     2
  9
$DIMTDEC
 70
     2
  9
$DIMALTU
 70
     2
  9
$DIMALTTD
 70
     2
  9
$DIMTXSTY
  7
Standard
  9
$DIMAUNIT
 70
     0
  9
$DIMADEC
 70
     2
  9
$DIMALTRND
 40
0.0
  9
$DIMAZIN
 70
     0
  9
$DIMDSEP
 70
    46
  9
$DIMATFIT
 70
     3
  9
$DIMFRAC
 70
     0
  9
$DIMLDRBLK
  1

  9
$DIMLUNIT
 70
     2
  9
$DIMLWD
 70
    -2
  9
$DIMLWE
 70
    -2
  9
$DIMTMOVE
 70
     0
  9
$LUNITS
 70
     2
  9
$LUPREC
 70
     2
  9
$SKETCHINC
 40
0.1
  9
$FILLETRAD
 40
0.5
  9
$AUNITS
 70
     0
  9
$AUPREC
 70
     2
  9
$MENU
  1
.
  9
$ELEVATION
 40
0.0
  9
$PELEVATION
 40
0.0
  9
$THICKNESS
 40
0.0
  9
$LIMCHECK
 70
     0
  9
$CHAMFERA
 40
0.0
  9
$CHAMFERB
 40
0.0
  9
$CHAMFERC
 40
0.0
  9
$CHAMFERD
 40
0.0
  9
$SKPOLY
 70
     0
  9
$TDCREATE
 40
2460052.400227697
  9
$TDUCREATE
 40
2460052.691894364
  9
$TDUPDATE
 40
2460052.400245127
  9
$TDUUPDATE
 40
2460052.691911794
  9
$TDINDWG
 40
0.0000000116
  9
$TDUSRTIMER
 40
0.0000000116
  9
$USRTIMER
 70
     1
  9
$ANGBASE
 50
0.0
  9
$ANGDIR
 70
     0
  9
$PDMODE
 70
     0
  9
$PDSIZE
 40
-1.0
  9
$PLINEWID
 40
0.0
  9
$SPLFRAME
 70
     0
  9
$SPLINETYPE
 70
     6
  9
$SPLINESEGS
 70
     8
  9
$HANDSEED
  5
81
  9
$SURFTAB1
 70
     6
  9
$SURFTAB2
 70
     6
  9
$SURFTYPE
 70
     6
  9
$SURFU
 70
     6
  9
$SURFV
 70
     6
  9
$UCSBASE
  2

  9
$UCSNAME
  2

  9
$UCSORG
 10
0.0
 20
0.0
 30
0.0
  9
$UCSXDIR
 10
1.0
 20
0.0
 30
0.0
  9
$UCSYDIR
 10
0.0
 20
1.0
 30
0.0
  9
$UCSORTHOREF
  2

  9
$UCSORTHOVIEW
 70
     0
  9
$UCSORGTOP
 10
0.0
 20
0.0
 30
0.0
  9
$UCSORGBOTTOM
 10
0.0
 20
0.0
 30
0.0
  9
$UCSORGLEFT
 10
0.0
 20
0.0
 30
0.0
  9
$UCSORGRIGHT
 10
0.0
 20
0.0
 30
0.0
  9
$UCSORGFRONT
 10
0.0
 20
0.0
 30
0.0
  9
$UCSORGBACK
 10
0.0
 20
0.0
 30
0.0
  9
$PUCSBASE
  2

  9
$PUCSNAME
  2

  9
$PUCSORG
 10
0.0
 20
0.0
 30
0.0
  9
$PUCSXDIR
 10
1.0
 20
0.0
 30
0.0
  9
$PUCSYDIR
 10
0.0
 20
1.0
 30
0.0
  9
$PUCSORTHOREF
  2

  9
$PUCSORTHOVIEW
 70
     0
  9
$PUCSORGTOP
 10
0.0
 20
0.0
 30
0.0
  9
$PUCSORGBOTTOM
 10
0.0
 20
0.0
 30
0.0
  9
$PUCSORGLEFT
 10
0.0
 20
0.0
 30
0.0
  9
$PUCSORGRIGHT
 10
0.0
 20
0.0
 30
0.0
  9
$PUCSORGFRONT
 10
0.0
 20
0.0
 30
0.0
  9
$PUCSORGBACK
 10
0.0
 20
0.0
 30
0.0
  9
$USERI1
 70
     0
  9
$USERI2
 70
     0
  9
$USERI3
 70
     0
  9
$USERI4
 70
     0
  9
$USERI5
 70
     0
  9
$USERR1
 40
0.0
  9
$USERR2
 40
0.0
  9
$USERR3
 40
0.0
  9
$USERR4
 40
0.0
  9
$USERR5
 40
0.0
  9
$WORLDVIEW
 70
     1
  9
$SHADEDGE
 70
     3
  9
$SHADEDIF
 70
    70
  9
$TILEMODE
 70
     1
  9
$MAXACTVP
 70
    64
  9
$PINSBASE
 10
0.0
 20
0.0
 30
0.0
  9
$PLIMCHECK
 70
     0
  9
$PEXTMIN
 10
1.0000000000E+20
 20
1.0000000000E+20
 30
1.0000000000E+20
  9
$PEXTMAX
 10
-1.0000000000E+20
 20
-1.0000000000E+20
 30
-1.0000000000E+20
  9
$PLIMMIN
 10
0.0
 20
0.0
  9
$PLIMMAX
 10
12.0
 20
9.0
  9
$UNITMODE
 70
     0
  9
$VISRETAIN
 70
     1
  9
$PLINEGEN
 70
     0
  9
$PSLTSCALE
 70
     1
  9
$TREEDEPTH
 70
  3020
  9
$CMLSTYLE
  2
Standard
  9
$CMLJUST
 70
     0
  9
$CMLSCALE
 40
1.0
  9
$PROXYGRAPHICS
 70
     1
  9
$MEASUREMENT
 70
     0
  9
$CELWEIGHT
370
    -1
  9
$ENDCAPS
280
     0
  9
$JOINSTYLE
280
     0
  9
$LWDISPLAY
290
     1
  9
$INSUNITS
 70
     1
  9
$HYPERLINKBASE
  1

  9
$STYLESHEET
  1

  9
$XEDIT
290
     1
  9
$CEPSNTYPE
380
     0
  9
$PSTYLEMODE
290
     1
  9
$FINGERPRINTGUID
  2
{427f7331-634c-4246-b62c-f33697db95d8}
  9
$VERSIONGUID
  2
{FAEB1C32-E019-11D5-929B-00C0DF256EC4}
  9
$EXTNAMES
290
     1
  9
$PSVPSCALE
 40
0.0
  9
$OLESTARTUP
290
     0
  0
ENDSEC
  0
SECTION
  2
CLASSES
  0
CLASS
  1
ACDBDICTIONARYWDFLT
  2
AcDbDictionaryWithDefault
  3
ObjectDBX Classes
 90
        0
280
     0
281
     0
  0
CLASS
  1
VISUALSTYLE
  2
AcDbVisualStyle
  3
ObjectDBX Classes
 90
     4095
280
     0
281
     0
  0
CLASS
  1
MATERIAL
  2
AcDbMaterial
  3
ObjectDBX Classes
 90
     1153
280
     0
281
     0
  0
CLASS
  1
SCALE
  2
AcDbScale
  3
ObjectDBX Classes
 90
     1153
280
     0
281
     0
  0
CLASS
  1
TABLESTYLE
  2
AcDbTableStyle
  3
ObjectDBX Classes
 90
     4095
280
     0
281
     0
  0
CLASS
  1
MLEADERSTYLE
  2
AcDbMLeaderStyle
  3
ACDB_MLEADERSTYLE_CLASS
 90
     4095
280
     0
281
     0
  0
CLASS
  1
SUN
  2
AcDbSun
  3
SCENEOE
 90
     1153
280
     0
281
     0
  0
CLASS
  1
ACDBPLACEHOLDER
  2
AcDbPlaceHolder
  3
ObjectDBX Classes
 90
        0
280
     0
281
     0
  0
CLASS
  1
LAYOUT
  2
AcDbLayout
  3
ObjectDBX Classes
 90
        0
280
     0
281
     0
  0
ENDSEC
  0
SECTION
  2
TABLES
  0
TABLE
  2
VPORT
  5
8
330
0
100
AcDbSymbolTable
 70
     1
  0
VPORT
  5
29
330
8
100
AcDbSymbolTableRecord
100
AcDbViewportTableRecord
  2
*Active
 70
     0
 10
0.0
 20
0.0
 11
1.0
 21
1.0
 12
-65.5059157039
 22
186.7685033125
 13
0.0
 23
0.0
 14
0.5
 24
0.5
 15
0.5
 25
0.5
 16
0.0
 26
0.0
 36
1.0
 17
0.0
 27
0.0
 37
0.0
 40
31.640835013
 41
0.9029958531
 42
50.0
 43
0.0
 44
0.0
 50
0.0
 51
0.0
 71
     0
 72
   100
 73
     1
 74
     3
 75
     0
 76
     0
 77
     0
 78
     0
281
     0
 65
     1
110
0.0
120
0.0
130
0.0
111
1.0
121
0.0
131
0.0
112
0.0
122
1.0
132
0.0
 79
     0
146
0.0
  0
ENDTAB
  0
TABLE
  2
LTYPE
  5
5
330
0
100
AcDbSymbolTable
 70
     6
  0
LTYPE
  5
14
330
5
100
AcDbSymbolTableRecord
100
AcDbLinetypeTableRecord
  2
ByBlock
 70
     0
  3

 72
    65
 73
     0
 40
0.0
  0
LTYPE
  5
15
330
5
100
AcDbSymbolTableRecord
100
AcDbLinetypeTableRecord
  2
ByLayer
 70
     0
  3

 72
    65
 73
     0
 40
0.0
  0
LTYPE
  5
16
330
5
100
AcDbSymbolTableRecord
100
AcDbLinetypeTableRecord
  2
Continuous
 70
     0
  3
Solid line
 72
    65
 73
     0
 40
0.0
  0
LTYPE
  5
6E
330
5
100
AcDbSymbolTableRecord
100
AcDbLinetypeTableRecord
  2
HIDDEN
 70
     0
  3
Hidden __ __ __ __ __ __ __ __ __ __ __ __ __ __
 72
    65
 73
     2
 40
0.075
 49
0.05
 74
     0
 49
-0.025
 74
     0
  0
LTYPE
  5
6F
330
5
100
AcDbSymbolTableRecord
100
AcDbLinetypeTableRecord
  2
PHANTOM
 70
     0
  3
Phantom ______  __  __  ______  __  __  ______
 72
    65
 73
     6
 40
0.5
 49
0.25
 74
     0
 49
-0.05
 74
     0
 49
0.05
 74
     0
 49
-0.05
 74
     0
 49
0.05
 74
     0
 49
-0.05
 74
     0
  0
LTYPE
  5
70
330
5
100
AcDbSymbolTableRecord
100
AcDbLinetypeTableRecord
  2
CENTER
 70
     0
  3
Center ____ _ ____ _ ____ _ ____ _ ____ _ ____
 72
    65
 73
     4
 40
0.4
 49
0.25
 74
     0
 49
-0.05
 74
     0
 49
0.05
 74
     0
 49
-0.05
 74
     0
  0
LTYPE
  5
71
330
5
100
AcDbSymbolTableRecord
100
AcDbLinetypeTableRecord
  2
CENTERX2
 70
     0
  3
Center (2x) ________  __  ________  __  _____
 72
    65
 73
     4
 40
0.8
 49
0.5
 74
     0
 49
-0.1
 74
     0
 49
0.1
 74
     0
 49
-0.1
 74
     0
  0
LTYPE
  5
72
330
5
100
AcDbSymbolTableRecord
100
AcDbLinetypeTableRecord
  2
DOT2
 70
     0
  3
Dot (.5x) ........................................
 72
    65
 73
     2
 40
0.025
 49
0.0
 74
     0
 49
-0.025
 74
     0
  0
ENDTAB
  0
TABLE
  2
LAYER
  5
2
330
0
100
AcDbSymbolTable
 70
     1
  0
LAYER
  5
10
330
2
100
AcDbSymbolTableRecord
100
AcDbLayerTableRecord
  2
0
 70
     0
 62
     7
  6
Continuous
370
    -3
390
F
  0
ENDTAB
  0
TABLE
  2
STYLE
  5
3
330
0
100
AcDbSymbolTable
 70
     2
  0
STYLE
  5
11
330
3
100
AcDbSymbolTableRecord
100
AcDbTextStyleTableRecord
  2
Standard
 70
     0
 40
0.0
 41
1.0
 50
0.0
 71
     0
 42
0.125
  3
txt
  4

  0
STYLE
  5
7D
330
3
100
AcDbSymbolTableRecord
100
AcDbTextStyleTableRecord
  2
SLDTEXTSTYLE0
 70
     0
 40
0.0
 41
0.7
 50
0.0
 71
     0
 42
0.125
  3
TXT
  4

  0
ENDTAB
  0
TABLE
  2
VIEW
  5
6
330
0
100
AcDbSymbolTable
 70
     0
  0
ENDTAB
  0
TABLE
  2
UCS
  5
7
330
0
100
AcDbSymbolTable
 70
     0
  0
ENDTAB
  0
TABLE
  2
APPID
  5
9
330
0
100
AcDbSymbolTable
 70
     1
  0
APPID
  5
12
330
9
100
AcDbSymbolTableRecord
100
AcDbRegAppTableRecord
  2
ACAD
 70
     0
  0
ENDTAB
  0
TABLE
  2
DIMSTYLE
  5
A
330
0
100
AcDbSymbolTable
 70
     1
100
AcDbDimStyleTable
  0
DIMSTYLE
105
27
330
A
100
AcDbSymbolTableRecord
100
AcDbDimStyleTableRecord
  2
Standard
 70
     0
178
     0
340
11
  0
ENDTAB
  0
TABLE
  2
BLOCK_RECORD
  5
1
330
0
100
AcDbSymbolTable
 70
     1
  0
BLOCK_RECORD
  5
1F
330
1
100
AcDbSymbolTableRecord
100
AcDbBlockTableRecord
  2
*Model_Space
340
22
  0
BLOCK_RECORD
  5
1B
330
1
100
AcDbSymbolTableRecord
100
AcDbBlockTableRecord
  2
*Paper_Space
340
1E
  0
BLOCK_RECORD
  5
23
330
1
100
AcDbSymbolTableRecord
100
AcDbBlockTableRecord
  2
*Paper_Space0
340
26
  0
ENDTAB
  0
ENDSEC
  0
SECTION
  2
BLOCKS
  0
BLOCK
  5
20
330
1F
100
AcDbEntity
  8
0
100
AcDbBlockBegin
  2
*Model_Space
 70
     0
 10
0.0
 20
0.0
 30
0.0
  3
*Model_Space
  1

  0
ENDBLK
  5
21
330
1F
100
AcDbEntity
  8
0
100
AcDbBlockEnd
  0
BLOCK
  5
1C
330
1B
100
AcDbEntity
 67
     1
  8
0
100
AcDbBlockBegin
  2
*Paper_Space
 70
     0
 10
0.0
 20
0.0
 30
0.0
  3
*Paper_Space
  1

  0
ENDBLK
  5
1D
330
1B
100
AcDbEntity
 67
     1
  8
0
100
AcDbBlockEnd
  0
BLOCK
  5
24
330
23
100
AcDbEntity
  8
0
100
AcDbBlockBegin
  2
*Paper_Space0
 70
     0
 10
0.0
 20
0.0
 30
0.0
  3
*Paper_Space0
  1

  0
ENDBLK
  5
25
330
23
100
AcDbEntity
  8
0
100
AcDbBlockEnd
  0
ENDSEC
  0
SECTION
  2
ENTITIES
  0
SPLINE
  5
73
330
1F
100
AcDbEntity
  8
0
  6
Continuous
 62
     7
370
    25
100
AcDbSpline
210
0.0
220
0.0
230
1.0
 70
     8
 71
     3
 72
     8
 73
     4
 74
     0
 42
0.00000001
 43
0.00000001
 40
0.0
 40
0.0
 40
0.0
 40
0.0
 40
1.0
 40
1.0
 40
1.0
 40
1.0
 10
-62.13735426360704
 20
171.2582900889746
 30
0.0
 10
-61.87737486480705
 20
171.8557783840269
 30
0.0
 10
-61.81839446642872
 20
172.0080152483099
 30
0.0
 10
-61.53273471436633
 20
172.5937695164869
 30
0.0
  0
SPLINE
  5
74
330
1F
100
AcDbEntity
  8
0
  6
Continuous
 62
     7
370
    25
100
AcDbSpline
210
0.0
220
0.0
230
1.0
 70
     8
 71
     3
 72
    48
 73
    44
 74
     0
 42
0.00000001
 43
0.00000001
 40
0.0
 40
0.0
 40
0.0
 40
0.0
 40
0.0312499999999982
 40
0.0312499999999982
 40
0.0624999999999966
 40
0.0624999999999966
 40
0.124999999999995
 40
0.124999999999995
 40
0.1874999999999936
 40
0.1874999999999936
 40
0.249999999999992
 40
0.249999999999992
 40
0.2812499999999917
 40
0.2812499999999917
 40
0.3124999999999915
 40
0.3749999999999908
 40
0.3749999999999908
 40
0.4062499999999905
 40
0.4062499999999905
 40
0.4374999999999902
 40
0.4999999999999875
 40
0.4999999999999875
 40
0.5312499999999871
 40
0.5312499999999871
 40
0.5624999999999867
 40
0.6249999999999891
 40
0.6249999999999891
 40
0.749999999999993
 40
0.749999999999993
 40
0.7812499999999951
 40
0.7812499999999951
 40
0.8124999999999971
 40
0.8750000000000002
 40
0.8750000000000002
 40
0.9062500000000006
 40
0.9062500000000006
 40
0.9375000000000008
 40
0.9375000000000008
 40
0.9687500000000011
 40
0.9687500000000011
 40
0.9843750000000006
 40
0.9843750000000006
 40
1.0
 40
1.0
 40
1.0
 40
1.0
 10
-61.53273471436635
 20
172.5937695164869
 30
0.0
 10
-61.39587461293471
 20
172.8659529667454
 30
0.0
 10
-61.37816129123411
 20
172.9011808749728
 30
0.0
 10
-61.07140673377042
 20
173.5111681251813
 30
0.0
 10
-61.02554043614096
 20
173.6024196368939
 30
0.0
 10
-60.69962606922422
 20
174.2510032476187
 30
0.0
 10
-60.51618045001424
 20
174.6163102555318
 30
0.0
 10
-60.08709502298943
 20
175.4711780502425
 30
0.0
 10
-59.92579945378808
 20
175.7926843803643
 30
0.0
 10
-59.51605177772495
 20
176.6096528528226
 30
0.0
 10
-59.29987480857691
 20
177.0408131707122
 30
0.0
 10
-58.95865465818023
 20
177.7215677700372
 30
0.0
 10
-58.8880471263561
 20
177.8624540880713
 30
0.0
 10
-58.69497328885105
 20
178.2477282200558
 30
0.0
 10
-58.39663627704489
 20
178.843109032208
 30
0.0
 10
-58.07212049859265
 20
179.4908986868859
 30
0.0
 10
-57.73015220904314
 20
180.1736275699146
 30
0.0
 10
-57.66055061574852
 20
180.312594922827
 30
0.0
 10
-57.46794471645413
 20
180.6971663998776
 30
0.0
 10
-57.17002099136267
 20
181.2920514452487
 30
0.0
 10
-56.84505263782135
 20
181.9410199800057
 30
0.0
 10
-56.50205453198017
 20
182.6260441743532
 30
0.0
 10
-56.42726121966567
 20
182.775423902007
 30
0.0
 10
-56.23151022071851
 20
183.1663913988091
 30
0.0
 10
-55.93125873761213
 20
183.7660890150445
 30
0.0
 10
-55.6111323004489
 20
184.4055257443768
 30
0.0
 10
-54.94437948738004
 20
185.7373846871708
 30
0.0
 10
-54.55324397748629
 20
186.5187495769266
 30
0.0
 10
-54.06360040890503
 20
187.4969770875814
 30
0.0
 10
-53.92556928968092
 20
187.7727471926642
 30
0.0
 10
-53.70308169798089
 20
188.2172672022869
 30
0.0
 10
-53.38282255167122
 20
188.85715161913
 30
0.0
 10
-53.1029801290825
 20
189.4163492431999
 30
0.0
 10
-52.85008218897442
 20
189.9217556720878
 30
0.0
 10
-52.70374869791158
 20
190.2142153918519
 30
0.0
 10
-52.4992830712746
 20
190.6229041156006
 30
0.0
 10
-52.4057726505545
 20
190.8098352089266
 30
0.0
 10
-52.2361965943112
 20
191.1488708584823
 30
0.0
 10
-52.09587444236721
 20
191.4294522907763
 30
0.0
 10
-51.97364427577432
 20
191.6739291779084
 30
0.0
 10
-51.9121102285449
 20
191.797031854258
 30
0.0
 10
-51.81019177193251
 20
192.0009875632679
 30
0.0
 10
-51.77604277904103
 20
192.0693395708426
 30
0.0
 10
-51.70796302401168
 20
192.2056068701162
 30
0.0
  0
SPLINE
  5
75
330
1F
100
AcDbEntity
  8
0
  6
Continuous
 62
     7
370
    25
100
AcDbSpline
210
0.0
220
0.0
230
1.0
 70
    24
 71
     3
 72
     8
 73
     4
 74
     0
 42
0.00000001
 43
0.00000001
 40
0.0
 40
0.0
 40
0.0
 40
0.0
 40
1.0
 40
1.0
 40
1.0
 40
1.0
 10
-51.7079630240117
 20
192.2056068701163
 30
0.0
 10
-51.63872783815038
 20
192.3338599080334
 30
0.0
 10
-51.56949265228911
 20
192.4621129459505
 30
0.0
 10
-51.5002574664278
 20
192.5903659838675
 30
0.0
  0
SPLINE
  5
76
330
1F
100
AcDbEntity
  8
0
  6
Continuous
 62
     7
370
    25
100
AcDbSpline
210
0.0
220
0.0
230
1.0
 70
     8
 71
     3
 72
    18
 73
    14
 74
     0
 42
0.00000001
 43
0.00000001
 40
0.0
 40
0.0
 40
0.0
 40
0.0
 40
0.1249999999999959
 40
0.1249999999999959
 40
0.2499999999999918
 40
0.2499999999999918
 40
0.4999999999999946
 40
0.4999999999999946
 40
0.7499999999999973
 40
0.7499999999999973
 40
0.8749999999999987
 40
0.8749999999999987
 40
1.0
 40
1.0
 40
1.0
 40
1.0
 10
-51.50025748319467
 20
192.5903659942473
 30
0.0
 10
-51.72343289450682
 20
192.7285249665031
 30
0.0
 10
-51.83790880948476
 20
192.799372066595
 30
0.0
 10
-52.16749768539147
 20
193.0020987994009
 30
0.0
 10
-52.3364207140216
 20
193.1054358470032
 30
0.0
 10
-52.84654345916701
 20
193.4160384960907
 30
0.0
 10
-53.17906574393226
 20
193.6164894875569
 30
0.0
 10
-53.85700555884086
 20
194.0210155139337
 30
0.0
 10
-54.18991102123686
 20
194.217641950937
 30
0.0
 10
-54.70762871839867
 20
194.5202894877806
 30
0.0
 10
-54.87913174152209
 20
194.620066748413
 30
0.0
 10
-55.21201164727265
 20
194.8125653912105
 30
0.0
 10
-55.32980078719948
 20
194.8802128584965
 30
0.0
 10
-55.55743566548821
 20
195.0108940411628
 30
0.0
  0
SPLINE
  5
77
330
1F
100
AcDbEntity
  8
0
  6
Continuous
 62
     7
370
    25
100
AcDbSpline
210
0.0
220
0.0
230
1.0
 70
    24
 71
     3
 72
     8
 73
     4
 74
     0
 42
0.00000001
 43
0.00000001
 40
0.0
 40
0.0
 40
0.0
 40
0.0
 40
1.0
 40
1.0
 40
1.0
 40
1.0
 10
-55.55743660321451
 20
195.0108945776917
 30
0.0
 10
-55.59466819823528
 20
195.0321969850183
 30
0.0
 10
-55.63189979325608
 20
195.0534993923448
 30
0.0
 10
-55.66913138827684
 20
195.0748017996713
 30
0.0
  0
SPLINE
  5
78
330
1F
100
AcDbEntity
  8
0
  6
Continuous
 62
     7
370
    25
100
AcDbSpline
210
0.0
220
0.0
230
1.0
 70
     8
 71
     3
 72
    22
 73
    18
 74
     0
 42
0.00000001
 43
0.00000001
 40
0.0
 40
0.0
 40
0.0
 40
0.0
 40
0.0625000000000014
 40
0.0625000000000014
 40
0.1250000000000028
 40
0.1250000000000028
 40
0.2500000000000018
 40
0.2500000000000018
 40
0.5000000000000001
 40
0.5000000000000001
 40
0.7499999999999984
 40
0.7499999999999984
 40
0.8749999999999992
 40
0.8749999999999992
 40
0.9374999999999996
 40
0.9374999999999996
 40
1.0
 40
1.0
 40
1.0
 40
1.0
 10
-55.66913138827684
 20
195.0748017996713
 30
0.0
 10
-56.02807032427995
 20
195.2797503353694
 30
0.0
 10
-56.19445547871772
 20
195.374659802684
 30
0.0
 10
-56.75964323048653
 20
195.6961410379066
 30
0.0
 10
-57.01504247112764
 20
195.8411006893899
 30
0.0
 10
-57.82742064993934
 20
196.3012188591183
 30
0.0
 10
-58.36008104852204
 20
196.6016253756432
 30
0.0
 10
-59.99755181965036
 20
197.5213594359277
 30
0.0
 10
-61.06676224809786
 20
198.1170935252696
 30
0.0
 10
-63.24383881515753
 20
199.3211920273333
 30
0.0
 10
-64.32921189128804
 20
199.9169987396393
 30
0.0
 10
-65.95975997780322
 20
200.8053093720656
 30
0.0
 10
-66.50246777151598
 20
201.0998453059159
 30
0.0
 10
-67.32524462937559
 20
201.5447062312893
 30
0.0
 10
-67.59153022510934
 20
201.6884145509506
 30
0.0
 10
-68.1472530009708
 20
201.987813639096
 30
0.0
 10
-68.32431738355461
 20
202.0830256418595
 30
0.0
 10
-68.68838620224754
 20
202.2787165541621
 30
0.0
  0
SPLINE
  5
79
330
1F
100
AcDbEntity
  8
0
  6
Continuous
 62
     7
370
    25
100
AcDbSpline
210
0.0
220
0.0
230
1.0
 70
    24
 71
     3
 72
     8
 73
     4
 74
     0
 42
0.00000001
 43
0.00000001
 40
0.0
 40
0.0
 40
0.0
 40
0.0
 40
1.0
 40
1.0
 40
1.0
 40
1.0
 10
-68.68838621130732
 20
202.2787165366775
 30
0.0
 10
-68.75877682119818
 20
202.142868527508
 30
0.0
 10
-68.82916743108903
 20
202.0070205183384
 30
0.0
 10
-68.89955804097988
 20
201.8711725091689
 30
0.0
  0
SPLINE
  5
7A
330
1F
100
AcDbEntity
  8
0
  6
Continuous
 62
     7
370
    25
100
AcDbSpline
210
0.0
220
0.0
230
1.0
 70
     8
 71
     3
 72
    49
 73
    45
 74
     0
 42
0.00000001
 43
0.00000001
 40
0.0
 40
0.0
 40
0.0
 40
0.0
 40
0.0156249999999969
 40
0.0156249999999969
 40
0.0312499999999938
 40
0.0312499999999938
 40
0.0624999999999919
 40
0.0624999999999919
 40
0.0937499999999899
 40
0.0937499999999899
 40
0.124999999999988
 40
0.124999999999988
 40
0.1874999999999841
 40
0.2187499999999837
 40
0.2187499999999837
 40
0.2499999999999833
 40
0.2499999999999833
 40
0.3749999999999853
 40
0.3749999999999853
 40
0.4374999999999855
 40
0.4687499999999853
 40
0.4687499999999853
 40
0.4999999999999853
 40
0.4999999999999853
 40
0.5624999999999845
 40
0.5937499999999845
 40
0.5937499999999845
 40
0.6249999999999846
 40
0.6249999999999846
 40
0.6874999999999867
 40
0.7187499999999887
 40
0.7187499999999887
 40
0.7499999999999908
 40
0.7499999999999908
 40
0.812499999999996
 40
0.8437499999999974
 40
0.8437499999999974
 40
0.8749999999999989
 40
0.8749999999999989
 40
0.9375000000000009
 40
0.9375000000000009
 40
0.9687500000000004
 40
0.9687500000000004
 40
1.0
 40
1.0
 40
1.0
 40
1.0
 10
-68.89955863762492
 20
201.8711713149061
 30
0.0
 10
-68.96743918160944
 20
201.7352995568399
 30
0.0
 10
-69.00085555774085
 20
201.6684124923963
 30
0.0
 10
-69.10371121575804
 20
201.4625003628311
 30
0.0
 10
-69.16578712734352
 20
201.3381976640808
 30
0.0
 10
-69.28333699650257
 20
201.1027724761991
 30
0.0
 10
-69.42315097271903
 20
200.8226898010846
 30
0.0
 10
-69.59733697085822
 20
200.4737184839154
 30
0.0
 10
-69.69174947882046
 20
200.2845494563323
 30
0.0
 10
-69.89521351253036
 20
199.8768446631689
 30
0.0
 10
-70.03756671459139
 20
199.5915690240915
 30
0.0
 10
-70.28677440538972
 20
199.0921320107861
 30
0.0
 10
-70.56394083879707
 20
198.5366172581684
 30
0.0
 10
-70.8830453861179
 20
197.8969858965824
 30
0.0
 10
-71.10510133186811
 20
197.4518724090877
 30
0.0
 10
-71.24722035543418
 20
197.1669851355729
 30
0.0
 10
-71.71680138727453
 20
196.2256605906039
 30
0.0
 10
-72.11783247293677
 20
195.4217052311515
 30
0.0
 10
-72.78330291490869
 20
194.0875549754982
 30
0.0
 10
-73.10220083786078
 20
193.4482051212103
 30
0.0
 10
-73.40034281376202
 20
192.8504431772306
 30
0.0
 10
-73.59449169835156
 20
192.4611769724237
 30
0.0
 10
-73.66582836796778
 20
192.3181462903685
 30
0.0
 10
-74.01350922030338
 20
191.6210273227084
 30
0.0
 10
-74.33985936899354
 20
190.9666452826567
 30
0.0
 10
-74.63421346221538
 20
190.3763686340177
 30
0.0
 10
-74.8233392898148
 20
189.9970965107946
 30
0.0
 10
-74.88613605781563
 20
189.8711618013566
 30
0.0
 10
-75.23312732062332
 20
189.1752546716798
 30
0.0
 10
-75.55908552941477
 20
188.5214550400703
 30
0.0
 10
-75.85349415718206
 20
187.9308166555617
 30
0.0
 10
-76.04275555768815
 20
187.5510935652451
 30
0.0
 10
-76.10519101903202
 20
187.4258213869597
 30
0.0
 10
-76.45411935005927
 20
186.7256297082053
 30
0.0
 10
-76.7809365813599
 20
186.0696332346725
 30
0.0
 10
-77.07458716307067
 20
185.4799295689727
 30
0.0
 10
-77.26298385096892
 20
185.1015255269134
 30
0.0
 10
-77.33209786012513
 20
184.9626883720782
 30
0.0
 10
-77.6567792820284
 20
184.310280447374
 30
0.0
 10
-77.829162619263
 20
183.9637274313864
 30
0.0
 10
-78.15903151884825
 20
183.3000667684204
 30
0.0
 10
-78.24168280695228
 20
183.1336504472973
 30
0.0
 10
-78.46463325836179
 20
182.6847008696031
 30
0.0
 10
-78.52207103377697
 20
182.569102932522
 30
0.0
 10
-78.65725251100791
 20
182.2970701209971
 30
0.0
  0
SPLINE
  5
7B
330
1F
100
AcDbEntity
  8
0
  6
Continuous
 62
     7
370
    25
100
AcDbSpline
210
0.0
220
0.0
230
1.0
 70
     8
 71
     3
 72
    10
 73
     6
 74
     0
 42
0.00000001
 43
0.00000001
 40
0.0
 40
0.0
 40
0.0
 40
0.0
 40
0.5
 40
0.5
 40
1.0
 40
1.0
 40
1.0
 40
1.0
 10
-78.65725563834589
 20
182.2970637919298
 30
0.0
 10
-78.85421261877595
 20
181.898464726619
 30
0.0
 10
-78.93133759710493
 20
181.7372287294888
 30
0.0
 10
-79.25146991446233
 20
181.0544781517323
 30
0.0
 10
-79.32664833494717
 20
180.8923437368383
 30
0.0
 10
-79.51157394138586
 20
180.4880210509586
 30
0.0
  0
SPLINE
  5
7C
330
1F
100
AcDbEntity
  8
0
  6
Continuous
 62
     7
370
    25
100
AcDbSpline
210
0.0
220
0.0
230
1.0
 70
     8
 71
     3
 72
    32
 73
    28
 74
     0
 42
0.00000001
 43
0.00000001
 40
0.0
 40
0.0
 40
0.0
 40
0.0
 40
0.0312499999999974
 40
0.0312499999999974
 40
0.0468749999999962
 40
0.0468749999999962
 40
0.0624999999999949
 40
0.0624999999999949
 40
0.0781249999999937
 40
0.0781249999999937
 40
0.0937499999999925
 40
0.0937499999999925
 40
0.1249999999999929
 40
0.1249999999999929
 40
0.2499999999999947
 40
0.2499999999999947
 40
0.4999999999999956
 40
0.4999999999999956
 40
0.7499999999999964
 40
0.7499999999999964
 40
0.8749999999999954
 40
0.8749999999999954
 40
0.9374999999999966
 40
0.9374999999999966
 40
0.9687499999999982
 40
0.9687499999999982
 40
1.0
 40
1.0
 40
1.0
 40
1.0
 10
-79.51157392378414
 20
180.4880210421155
 30
0.0
 10
-79.26739623443414
 20
180.365346986639
 30
0.0
 10
-79.1179300650704
 20
180.28987416004
 30
0.0
 10
-78.88542404659704
 20
180.1708534854907
 30
0.0
 10
-78.79244425322842
 20
180.1230158507676
 30
0.0
 10
-78.58649572386213
 20
180.0171331166345
 30
0.0
 10
-78.45407850358137
 20
179.9493146217629
 30
0.0
 10
-78.37777605922305
 20
179.9102671931485
 30
0.0
 10
-78.22430704879538
 20
179.8317820755375
 30
0.0
 10
-78.06019934698112
 20
179.7477480643635
 30
0.0
 10
-77.95138958631348
 20
179.6919474999817
 30
0.0
 10
-77.70331952048274
 20
179.5646163108858
 30
0.0
 10
-77.49856748117367
 20
179.4594104126269
 30
0.0
 10
-76.61498284692779
 20
179.0047475029592
 30
0.0
 10
-75.86146205993163
 20
178.6145956482784
 30
0.0
 10
-73.69053318894055
 20
177.4843772488059
 30
0.0
 10
-72.22891951601899
 20
176.7152336453668
 30
0.0
 10
-69.34075988255549
 20
175.1802322732129
 30
0.0
 10
-67.82358835901047
 20
174.366023916236
 30
0.0
 10
-65.76317698444791
 20
173.252207575561
 30
0.0
 10
-64.95636815564946
 20
172.81213382157
 30
0.0
 10
-63.95738215371736
 20
172.2642403459011
 30
0.0
 10
-63.61335033026532
 20
172.0749134447314
 30
0.0
 10
-63.01291303585494
 20
171.7435891524099
 30
0.0
 10
-62.8623935397265
 20
171.661934940653
 30
0.0
 10
-62.48557323654195
 20
171.4547928227409
 30
0.0
 10
-62.37532177308592
 20
171.3926202154386
 30
0.0
 10
-62.13735427150338
 20
171.2582900708272
 30
0.0
  0
MTEXT
  5
7E
330
1F
100
AcDbEntity
  8
0
  6
Continuous
 62
     7
100
AcDbMText
 10
-79.5115739414
 20
171.2181496617
 30
0.0
 40
0.1903
 41
0.0
 71
     1
 72
     1
  1
SOLIDWORKS Educational Product.
  7
SLDTEXTSTYLE0
 73
     1
 44
1.0
  0
MTEXT
  5
7F
330
1F
100
AcDbEntity
  8
0
  6
Continuous
 62
     7
100
AcDbMText
 10
-79.5115739414
 20
170.9326996617
 30
0.0
 40
0.1903
 41
0.0
 71
     1
 72
     1
  1
For Instructional Use Only.
  7
SLDTEXTSTYLE0
 73
     1
 44
1.0
  0
ENDSEC
  0
SECTION
  2
OBJECTS
  0
DICTIONARY
  5
C
330
0
100
AcDbDictionary
281
     1
  3
ACAD_GROUP
350
D
  3
ACAD_LAYOUT
350
1A
  3
ACAD_MLINESTYLE
350
17
  3
ACAD_PLOTSETTINGS
350
19
  3
ACAD_PLOTSTYLENAME
350
E
  3
ACAD_SCALELIST
350
47
  3
DWGPROPS
350
80
  0
DICTIONARY
  5
D
102
{ACAD_REACTORS
330
C
102
}
330
C
100
AcDbDictionary
281
     1
  0
DICTIONARY
  5
1A
102
{ACAD_REACTORS
330
C
102
}
330
C
100
AcDbDictionary
281
     1
  3
Layout1
350
1E
  3
Layout2
350
26
  3
Model
350
22
  0
DICTIONARY
  5
17
102
{ACAD_REACTORS
330
C
102
}
330
C
100
AcDbDictionary
281
     1
  3
Standard
350
18
  0
DICTIONARY
  5
19
102
{ACAD_REACTORS
330
C
102
}
330
C
100
AcDbDictionary
281
     1
  0
ACDBDICTIONARYWDFLT
  5
E
102
{ACAD_REACTORS
330
C
102
}
330
C
100
AcDbDictionary
281
     1
  3
Normal
350
F
100
AcDbDictionaryWithDefault
340
F
  0
DICTIONARY
  5
47
102
{ACAD_REACTORS
330
C
102
}
330
C
100
AcDbDictionary
281
     1
  3
A0
350
48
  3
A1
350
49
  3
A2
350
4A
  3
A3
350
4B
  3
A4
350
4C
  3
A5
350
4D
  3
A6
350
4E
  3
A7
350
4F
  3
A8
350
50
  3
A9
350
51
  3
B0
350
52
  3
B1
350
53
  3
B2
350
54
  3
B3
350
55
  3
B4
350
56
  3
B5
350
57
  3
B6
350
58
  3
B7
350
59
  3
B8
350
5A
  3
B9
350
5B
  3
C0
350
5C
  3
C1
350
5D
  3
C2
350
5E
  3
C3
350
5F
  3
C4
350
60
  3
C5
350
61
  3
C6
350
62
  3
C7
350
63
  3
C8
350
64
  3
C9
350
65
  3
D0
350
66
  3
D1
350
67
  3
D2
350
68
  0
XRECORD
  5
80
102
{ACAD_REACTORS
330
C
102
}
330
C
100
AcDbXrecord
280
     1
  1
DWGPROPS COOKIE
  2

  3

  4

  6

  7

  8
lucie
  9

300
=
301
=
302
=
303
=
304
=
305
=
306
=
307
=
308
=
309
=
 40
0.0
 41
2460052.691894364
 42
2460052.691911794
  1

 90
        0
  0
LAYOUT
  5
1E
102
{ACAD_REACTORS
330
1A
102
}
330
1A
100
AcDbPlotSettings
  1

  2
none_device
  4

  6

 40
0.0
 41
0.0
 42
0.0
 43
0.0
 44
0.0
 45
0.0
 46
0.0
 47
0.0
 48
0.0
 49
0.0
140
0.0
141
0.0
142
1.0
143
1.0
 70
   688
 72
     0
 73
     0
 74
     5
  7

 75
    16
147
1.0
148
0.0
149
0.0
100
AcDbLayout
  1
Layout1
 70
     1
 71
     1
 10
0.0
 20
0.0
 11
12.0
 21
9.0
 12
0.0
 22
0.0
 32
0.0
 14
1.0000000000E+20
 24
1.0000000000E+20
 34
1.0000000000E+20
 15
-1.0000000000E+20
 25
-1.0000000000E+20
 35
-1.0000000000E+20
146
0.0
 13
0.0
 23
0.0
 33
0.0
 16
1.0
 26
0.0
 36
0.0
 17
0.0
 27
1.0
 37
0.0
 76
     0
330
1B
  0
LAYOUT
  5
26
102
{ACAD_REACTORS
330
1A
102
}
330
1A
100
AcDbPlotSettings
  1

  2
none_device
  4

  6

 40
0.0
 41
0.0
 42
0.0
 43
0.0
 44
0.0
 45
0.0
 46
0.0
 47
0.0
 48
0.0
 49
0.0
140
0.0
141
0.0
142
1.0
143
1.0
 70
   688
 72
     0
 73
     0
 74
     5
  7

 75
    16
147
1.0
148
0.0
149
0.0
100
AcDbLayout
  1
Layout2
 70
     1
 71
     2
 10
0.0
 20
0.0
 11
0.0
 21
0.0
 12
0.0
 22
0.0
 32
0.0
 14
0.0
 24
0.0
 34
0.0
 15
0.0
 25
0.0
 35
0.0
146
0.0
 13
0.0
 23
0.0
 33
0.0
 16
1.0
 26
0.0
 36
0.0
 17
0.0
 27
1.0
 37
0.0
 76
     0
330
23
  0
LAYOUT
  5
22
102
{ACAD_REACTORS
330
1A
102
}
330
1A
100
AcDbPlotSettings
  1

  2
none_device
  4
ANSI_A_(11.00_x_8.50_Inches)
  6

 40
6.35
 41
19.05
 42
6.35000508
 43
19.05000254
 44
279.4
 45
215.9
 46
584.7074259593
 47
-1197.9967719499
 48
0.0
 49
0.0
140
0.0
141
0.0
142
0.2712728661
143
1.0
 70
  1696
 72
     0
 73
     0
 74
     0
  7

 75
     0
147
0.5913241897
148
-39.4088153714
149
0.0
100
AcDbLayout
  1
Model
 70
     1
 71
     0
 10
0.0
 20
0.0
 11
12.0
 21
9.0
 12
0.0
 22
0.0
 32
0.0
 14
-79.5115739414
 24
171.2582900708
 34
0.0
 15
-51.5002574664
 25
202.2787165542
 35
0.0
146
0.0
 13
0.0
 23
0.0
 33
0.0
 16
1.0
 26
0.0
 36
0.0
 17
0.0
 27
1.0
 37
0.0
 76
     0
330
1F
331
29
  0
MLINESTYLE
  5
18
102
{ACAD_REACTORS
330
17
102
}
330
17
100
AcDbMlineStyle
  2
Standard
 70
     0
  3

 62
   256
 51
90.0
 52
90.0
 71
     2
 49
0.5
 62
   256
  6
BYLAYER
 49
-0.5
 62
   256
  6
BYLAYER
  0
ACDBPLACEHOLDER
  5
F
102
{ACAD_REACTORS
330
E
102
}
330
E
  0
SCALE
  5
48
102
{ACAD_REACTORS
330
47
102
}
330
47
100
AcDbScale
 70
     0
300
1:1
140
1.0
141
1.0
290
     1
  0
SCALE
  5
49
102
{ACAD_REACTORS
330
47
102
}
330
47
100
AcDbScale
 70
     0
300
1:2
140
1.0
141
2.0
290
     0
  0
SCALE
  5
4A
102
{ACAD_REACTORS
330
47
102
}
330
47
100
AcDbScale
 70
     0
300
1:4
140
1.0
141
4.0
290
     0
  0
SCALE
  5
4B
102
{ACAD_REACTORS
330
47
102
}
330
47
100
AcDbScale
 70
     0
300
1:5
140
1.0
141
5.0
290
     0
  0
SCALE
  5
4C
102
{ACAD_REACTORS
330
47
102
}
330
47
100
AcDbScale
 70
     0
300
1:8
140
1.0
141
8.0
290
     0
  0
SCALE
  5
4D
102
{ACAD_REACTORS
330
47
102
}
330
47
100
AcDbScale
 70
     0
300
1:10
140
1.0
141
10.0
290
     0
  0
SCALE
  5
4E
102
{ACAD_REACTORS
330
47
102
}
330
47
100
AcDbScale
 70
     0
300
1:16
140
1.0
141
16.0
290
     0
  0
SCALE
  5
4F
102
{ACAD_REACTORS
330
47
102
}
330
47
100
AcDbScale
 70
     0
300
1:20
140
1.0
141
20.0
290
     0
  0
SCALE
  5
50
102
{ACAD_REACTORS
330
47
102
}
330
47
100
AcDbScale
 70
     0
300
1:30
140
1.0
141
30.0
290
     0
  0
SCALE
  5
51
102
{ACAD_REACTORS
330
47
102
}
330
47
100
AcDbScale
 70
     0
300
1:40
140
1.0
141
40.0
290
     0
  0
SCALE
  5
52
102
{ACAD_REACTORS
330
47
102
}
330
47
100
AcDbScale
 70
     0
300
1:50
140
1.0
141
50.0
290
     0
  0
SCALE
  5
53
102
{ACAD_REACTORS
330
47
102
}
330
47
100
AcDbScale
 70
     0
300
1:100
140
1.0
141
100.0
290
     0
  0
SCALE
  5
54
102
{ACAD_REACTORS
330
47
102
}
330
47
100
AcDbScale
 70
     0
300
2:1
140
2.0
141
1.0
290
     0
  0
SCALE
  5
55
102
{ACAD_REACTORS
330
47
102
}
330
47
100
AcDbScale
 70
     0
300
4:1
140
4.0
141
1.0
290
     0
  0
SCALE
  5
56
102
{ACAD_REACTORS
330
47
102
}
330
47
100
AcDbScale
 70
     0
300
8:1
140
8.0
141
1.0
290
     0
  0
SCALE
  5
57
102
{ACAD_REACTORS
330
47
102
}
330
47
100
AcDbScale
 70
     0
300
10:1
140
10.0
141
1.0
290
     0
  0
SCALE
  5
58
102
{ACAD_REACTORS
330
47
102
}
330
47
100
AcDbScale
 70
     0
300
100:1
140
100.0
141
1.0
290
     0
  0
SCALE
  5
59
102
{ACAD_REACTORS
330
47
102
}
330
47
100
AcDbScale
 70
     0
300
1/128" = 1'-0"
140
0.0078125
141
12.0
290
     0
  0
SCALE
  5
5A
102
{ACAD_REACTORS
330
47
102
}
330
47
100
AcDbScale
 70
     0
300
1/64" = 1'-0"
140
0.015625
141
12.0
290
     0
  0
SCALE
  5
5B
102
{ACAD_REACTORS
330
47
102
}
330
47
100
AcDbScale
 70
     0
300
1/32" = 1'-0"
140
0.03125
141
12.0
290
     0
  0
SCALE
  5
5C
102
{ACAD_REACTORS
330
47
102
}
330
47
100
AcDbScale
 70
     0
300
1/16" = 1'-0"
140
0.0625
141
12.0
290
     0
  0
SCALE
  5
5D
102
{ACAD_REACTORS
330
47
102
}
330
47
100
AcDbScale
 70
     0
300
3/32" = 1'-0"
140
0.09375
141
12.0
290
     0
  0
SCALE
  5
5E
102
{ACAD_REACTORS
330
47
102
}
330
47
100
AcDbScale
 70
     0
300
1/8" = 1'-0"
140
0.125
141
12.0
290
     0
  0
SCALE
  5
5F
102
{ACAD_REACTORS
330
47
102
}
330
47
100
AcDbScale
 70
     0
300
3/16" = 1'-0"
140
0.1875
141
12.0
290
     0
  0
SCALE
  5
60
102
{ACAD_REACTORS
330
47
102
}
330
47
100
AcDbScale
 70
     0
300
1/4" = 1'-0"
140
0.25
141
12.0
290
     0
  0
SCALE
  5
61
102
{ACAD_REACTORS
330
47
102
}
330
47
100
AcDbScale
 70
     0
300
3/8" = 1'-0"
140
0.375
141
12.0
290
     0
  0
SCALE
  5
62
102
{ACAD_REACTORS
330
47
102
}
330
47
100
AcDbScale
 70
     0
300
1/2" = 1'-0"
140
0.5
141
12.0
290
     0
  0
SCALE
  5
63
102
{ACAD_REACTORS
330
47
102
}
330
47
100
AcDbScale
 70
     0
300
3/4" = 1'-0"
140
0.75
141
12.0
290
     0
  0
SCALE
  5
64
102
{ACAD_REACTORS
330
47
102
}
330
47
100
AcDbScale
 70
     0
300
1" = 1'-0"
140
1.0
141
12.0
290
     0
  0
SCALE
  5
65
102
{ACAD_REACTORS
330
47
102
}
330
47
100
AcDbScale
 70
     0
300
1-1/2" = 1'-0"
140
1.5
141
12.0
290
     0
  0
SCALE
  5
66
102
{ACAD_REACTORS
330
47
102
}
330
47
100
AcDbScale
 70
     0
300
3" = 1'-0"
140
3.0
141
12.0
290
     0
  0
SCALE
  5
67
102
{ACAD_REACTORS
330
47
102
}
330
47
100
AcDbScale
 70
     0
300
6" = 1'-0"
140
6.0
141
12.0
290
     0
  0
SCALE
  5
68
102
{ACAD_REACTORS
330
47
102
}
330
47
100
AcDbScale
 70
     0
300
1'-0" = 1'-0"
140
12.0
141
12.0
290
     0
  0
ENDSEC
  0
EOF
